<svg width="24" height="24" viewBox="0 0 24 24" fill="none" xmlns="http://www.w3.org/2000/svg">
    <g clip-path="url(#clip0_4067_4030)">
        <path d="M20.125 2.46882H3.875C3.5063 2.46507 3.15117 2.60774 2.88753 2.86551C2.62389 3.12329 2.47328 3.47513 2.46875 3.84382V20.1594C2.4741 20.5276 2.62507 20.8786 2.88862 21.1357C3.15217 21.3928 3.50683 21.5351 3.875 21.5313H20.125C20.4937 21.5342 20.8486 21.3911 21.1121 21.1332C21.3756 20.8752 21.5263 20.5235 21.5312 20.1548V3.83913C21.5247 3.47152 21.3733 3.12136 21.1099 2.86477C20.8466 2.60817 20.4927 2.46588 20.125 2.46882Z" fill="#0076B2"/>
        <path d="M5.29141 9.61401H8.12109V18.7187H5.29141V9.61401ZM6.70703 5.08276C7.03158 5.08276 7.34884 5.17902 7.61868 5.35937C7.88851 5.53971 8.09879 5.79603 8.22292 6.09591C8.34705 6.39579 8.37945 6.72574 8.31602 7.04403C8.25259 7.36233 8.09618 7.65466 7.86658 7.88404C7.63697 8.11342 7.3445 8.26955 7.02614 8.33268C6.70779 8.39581 6.37787 8.36309 6.07811 8.23868C5.77835 8.11426 5.52223 7.90374 5.34214 7.63373C5.16206 7.36373 5.0661 7.04638 5.06641 6.72183C5.06682 6.28698 5.23985 5.87008 5.54749 5.56274C5.85512 5.2554 6.27218 5.08276 6.70703 5.08276ZM9.89609 9.61401H12.6086V10.864H12.6461C13.0242 10.1484 13.9461 9.3937 15.3227 9.3937C18.1883 9.38745 18.7195 11.2734 18.7195 13.7187V18.7187H15.8898V14.289C15.8898 13.2343 15.8711 11.8765 14.4195 11.8765C12.968 11.8765 12.7211 13.0265 12.7211 14.2203V18.7187H9.89609V9.61401Z" fill="white"/>
    </g>
    <defs>
        <clipPath id="clip0_4067_4030">
            <rect width="20" height="20" fill="white" transform="translate(2 2)"/>
        </clipPath>
    </defs>
</svg>
