<svg width="24" height="24" viewBox="0 0 24 24" fill="none" xmlns="http://www.w3.org/2000/svg">
    <g clip-path="url(#clip0_4067_4024)">
        <path d="M12 2C9.34844 2 6.80312 3.05422 4.92969 4.92891C3.05432 6.80434 2.00052 9.34778 2 12C2 14.6511 3.05469 17.1964 4.92969 19.0711C6.80312 20.9458 9.34844 22 12 22C14.6516 22 17.1969 20.9458 19.0703 19.0711C20.9453 17.1964 22 14.6511 22 12C22 9.34891 20.9453 6.80359 19.0703 4.92891C17.1969 3.05422 14.6516 2 12 2Z" fill="url(#paint0_linear_4067_4024)"/>
        <path d="M6.52768 11.8943C9.4433 10.6243 11.3871 9.78694 12.3589 9.38241C15.1371 8.22726 15.7136 8.02663 16.0902 8.01983C16.173 8.01851 16.3574 8.03898 16.4777 8.13624C16.5777 8.21827 16.6058 8.32921 16.6199 8.4071C16.6324 8.48491 16.6496 8.66226 16.6355 8.80069C16.4855 10.3819 15.8339 14.2191 15.5027 15.9902C15.3636 16.7396 15.0871 16.9908 14.8199 17.0154C14.2386 17.0688 13.798 16.6316 13.2355 16.263C12.3558 15.686 11.8589 15.3269 11.0042 14.764C10.0167 14.1134 10.6574 13.7557 11.2199 13.1713C11.3667 13.0184 13.9261 10.691 13.9746 10.4799C13.9808 10.4535 13.9871 10.3551 13.9277 10.3032C13.8699 10.2512 13.7839 10.269 13.7214 10.283C13.6324 10.303 12.2277 11.2324 9.50268 13.071C9.10424 13.3451 8.7433 13.4787 8.4183 13.4716C8.06205 13.464 7.37455 13.2698 6.86361 13.1038C6.23861 12.9002 5.74018 12.7926 5.78393 12.4468C5.8058 12.2668 6.05424 12.0826 6.52768 11.8943Z" fill="white"/>
    </g>
    <defs>
        <linearGradient id="paint0_linear_4067_4024" x1="1002" y1="2" x2="1002" y2="2002" gradientUnits="userSpaceOnUse">
            <stop stop-color="#2AABEE"/>
            <stop offset="1" stop-color="#229ED9"/>
        </linearGradient>
        <clipPath id="clip0_4067_4024">
            <rect width="20" height="20" fill="white" transform="translate(2 2)"/>
        </clipPath>
    </defs>
</svg>
