<svg width="71" height="70" viewBox="0 0 71 70" fill="none" xmlns="http://www.w3.org/2000/svg">
<g clip-path="url(#clip0_4333_26569)">
<path d="M79.2318 67C80.4287 67 81.5765 66.5246 82.4228 65.6783C83.2691 64.832 83.7446 63.6841 83.7446 62.4873V38.424H84.4293C84.8459 38.4277 85.2469 38.2662 85.5447 37.9748C85.8424 37.6835 86.0126 37.2861 86.018 36.8696V35.6438H86.2303C86.4293 35.6447 86.6265 35.6062 86.8105 35.5305C86.9946 35.4547 87.1618 35.3433 87.3025 35.2026C87.4432 35.0619 87.5546 34.8947 87.6303 34.7106C87.7061 34.5266 87.7446 34.3294 87.7437 34.1304V28.2687C87.7437 28.0871 87.6716 27.9129 87.5431 27.7845C87.4147 27.6561 87.2405 27.5839 87.0589 27.5839H86.018V25.1255C86.018 24.9439 85.9459 24.7698 85.8175 24.6413C85.6891 24.5129 85.5149 24.4408 85.3333 24.4408C85.1516 24.4408 84.9775 24.5129 84.849 24.6413C84.7206 24.7698 84.6485 24.9439 84.6485 25.1255V27.5839H81.4711V25.1255C81.4711 24.9439 81.3989 24.7698 81.2705 24.6413C81.1421 24.5129 80.9679 24.4408 80.7863 24.4408C80.6047 24.4408 80.4305 24.5129 80.3021 24.6413C80.1737 24.7698 80.1015 24.9439 80.1015 25.1255V27.5839H79.0675C78.8859 27.5839 78.7117 27.6561 78.5833 27.7845C78.4549 27.9129 78.3827 28.0871 78.3827 28.2687V34.1304C78.3827 34.3289 78.4219 34.5253 78.498 34.7085C78.5742 34.8918 78.6858 35.0582 78.8264 35.1981C78.967 35.3381 79.1339 35.4489 79.3175 35.5243C79.501 35.5996 79.6977 35.6379 79.8961 35.637H80.1084V36.8696C80.1102 37.2849 80.276 37.6827 80.5697 37.9764C80.8634 38.2701 81.2612 38.4359 81.6765 38.4377H82.3613V62.4873C82.3811 62.9119 82.3146 63.3362 82.1658 63.7344C82.017 64.1326 81.7889 64.4965 81.4954 64.804C81.2019 65.1116 80.849 65.3564 80.4582 65.5236C80.0674 65.6909 79.6467 65.7771 79.2216 65.7771C78.7965 65.7771 78.3758 65.6909 77.9849 65.5236C77.5941 65.3564 77.2413 65.1116 76.9478 64.804C76.6543 64.4965 76.4262 64.1326 76.2774 63.7344C76.1285 63.3362 76.062 62.9119 76.0818 62.4873V43.3134C76.08 42.2394 75.6521 41.21 74.8921 40.4512C74.132 39.6925 73.1019 39.2663 72.0279 39.2663H70.0489V6.835C70.0471 6.08367 69.7478 5.36362 69.2166 4.83235C68.6853 4.30108 67.9652 4.00181 67.2139 4H45.835C45.0837 4.00181 44.3636 4.30108 43.8323 4.83235C43.3011 5.36362 43.0018 6.08367 43 6.835V60.7411C43.0018 61.4924 43.3011 62.2125 43.8323 62.7437C44.3636 63.275 45.0837 63.5743 45.835 63.5761H46.4239V66.3152C46.4239 66.4968 46.4961 66.671 46.6245 66.7994C46.7529 66.9279 46.9271 67 47.1087 67H65.9402C66.1218 67 66.296 66.9279 66.4244 66.7994C66.5529 66.671 66.625 66.4968 66.625 66.3152V63.5761H67.2139C67.9652 63.5743 68.6853 63.275 69.2166 62.7437C69.7478 62.2125 70.0471 61.4924 70.0489 60.7411V40.6359H72.0416C72.7524 40.6359 73.4341 40.9177 73.9373 41.4197C74.4406 41.9216 74.7242 42.6026 74.726 43.3134V62.4873C74.726 63.6829 75.2005 64.8297 76.0453 65.6758C76.8901 66.5219 78.0362 66.9982 79.2318 67ZM79.9166 34.2742C79.8959 34.2785 79.8745 34.2779 79.854 34.2726C79.8336 34.2672 79.8146 34.2571 79.7987 34.2432C79.7828 34.2293 79.7703 34.2118 79.7623 34.1923C79.7542 34.1727 79.7508 34.1515 79.7523 34.1304V28.9535H86.381V34.1304C86.381 34.149 86.3772 34.1674 86.3699 34.1845C86.3626 34.2016 86.3519 34.217 86.3385 34.2298C86.325 34.2426 86.3091 34.2525 86.2917 34.259C86.2743 34.2655 86.2557 34.2683 86.2372 34.2674H79.8892L79.9166 34.2742ZM81.6971 37.0545C81.6444 37.0545 81.5939 37.0335 81.5566 36.9963C81.5194 36.959 81.4985 36.9085 81.4985 36.8559V35.6438H84.6759V36.8696C84.6759 36.9222 84.6549 36.9727 84.6177 37.01C84.5805 37.0472 84.5299 37.0682 84.4773 37.0682L81.6971 37.0545ZM65.2554 65.6304H47.7935V63.5761H65.2554V65.6304ZM68.6793 39.9511V60.7411C68.6793 61.1297 68.525 61.5025 68.2501 61.7773C67.9753 62.0521 67.6026 62.2065 67.2139 62.2065H45.835C45.4463 62.2065 45.0736 62.0521 44.7988 61.7773C44.524 61.5025 44.3696 61.1297 44.3696 60.7411V6.835C44.3696 6.64256 44.4075 6.452 44.4811 6.2742C44.5548 6.09641 44.6627 5.93486 44.7988 5.79878C45.0736 5.52396 45.4463 5.36957 45.835 5.36957H67.2139C67.4064 5.36957 67.5969 5.40747 67.7747 5.48111C67.9525 5.55476 68.1141 5.6627 68.2501 5.79878C68.3862 5.93486 68.4942 6.09641 68.5678 6.2742C68.6414 6.452 68.6793 6.64256 68.6793 6.835V39.9511Z" fill="#999999"/>
<path d="M60.1168 9.77267H52.9266C52.2002 9.77267 51.5035 10.0613 50.9898 10.5749C50.4761 11.0886 50.1875 11.7853 50.1875 12.5118V26.5978C50.1875 27.3242 50.4761 28.021 50.9898 28.5346C51.5035 29.0483 52.2002 29.3369 52.9266 29.3369H60.1168C60.8433 29.3369 61.54 29.0483 62.0537 28.5346C62.5674 28.021 62.856 27.3242 62.856 26.5978V25.1255C62.856 24.9439 62.7838 24.7697 62.6554 24.6413C62.527 24.5129 62.3528 24.4407 62.1712 24.4407C61.9896 24.4407 61.8154 24.5129 61.687 24.6413C61.5586 24.7697 61.4864 24.9439 61.4864 25.1255V26.5978C61.4864 26.961 61.3421 27.3094 61.0853 27.5662C60.8284 27.8231 60.4801 27.9673 60.1168 27.9673H52.9266C52.5634 27.9673 52.215 27.8231 51.9582 27.5662C51.7014 27.3094 51.5571 26.961 51.5571 26.5978V12.5118C51.5571 12.1486 51.7014 11.8002 51.9582 11.5434C52.215 11.2865 52.5634 11.1422 52.9266 11.1422H60.1168C60.4801 11.1422 60.8284 11.2865 61.0853 11.5434C61.3421 11.8002 61.4864 12.1486 61.4864 12.5118V14.9565C61.4864 15.1381 61.5586 15.3123 61.687 15.4407C61.8154 15.5691 61.9896 15.6413 62.1712 15.6413C62.3528 15.6413 62.527 15.5691 62.6554 15.4407C62.7838 15.3123 62.856 15.1381 62.856 14.9565V12.5118C62.856 11.7853 62.5674 11.0886 62.0537 10.5749C61.54 10.0613 60.8433 9.77267 60.1168 9.77267Z" fill="#999999"/>
<path d="M62.8578 18.3804C62.8578 18.0022 62.5513 17.6956 62.1731 17.6956C61.7949 17.6956 61.4883 18.0022 61.4883 18.3804V21.3181C61.4883 21.6963 61.7949 22.0029 62.1731 22.0029C62.5513 22.0029 62.8578 21.6963 62.8578 21.3181V18.3804Z" fill="#999999"/>
<path d="M61.6333 42.9094H59.305L62.0442 36.6231C62.0952 36.5137 62.1164 36.3927 62.1055 36.2724C62.0947 36.1522 62.0523 36.0369 61.9825 35.9383C61.9205 35.8441 61.8362 35.7667 61.737 35.713C61.6379 35.6592 61.527 35.6308 61.4142 35.6302H53.2653C53.1041 35.6272 52.9471 35.6813 52.8218 35.7827C52.6965 35.8842 52.6111 36.0266 52.5805 36.1849L51.8957 39.8074C51.8615 39.9853 51.8993 40.1695 52.0007 40.3197C52.1021 40.4699 52.2588 40.5737 52.4367 40.6085C52.6146 40.6427 52.7989 40.605 52.949 40.5036C53.0992 40.4022 53.2031 40.2454 53.2379 40.0676L53.8405 36.9997H60.3528L57.6136 43.2929C57.5691 43.3964 57.5508 43.5093 57.5603 43.6216C57.5699 43.7339 57.607 43.8421 57.6684 43.9366C57.7311 44.0318 57.8165 44.1098 57.917 44.1636C58.0174 44.2174 58.1297 44.2453 58.2436 44.2447H60.2432L54.2308 52.3115L55.5113 45.9772C55.532 45.8767 55.5298 45.7728 55.5049 45.6733C55.48 45.5737 55.4331 45.481 55.3675 45.402C55.3032 45.3247 55.2225 45.2626 55.1314 45.22C55.0403 45.1773 54.9409 45.1553 54.8403 45.1555H52.2449L52.5736 43.4846C52.5916 43.396 52.5918 43.3047 52.5742 43.2161C52.5567 43.1274 52.5218 43.043 52.4715 42.9679C52.4212 42.8928 52.3565 42.8284 52.2812 42.7784C52.2059 42.7284 52.1214 42.6938 52.0327 42.6766C51.944 42.6587 51.8528 42.6585 51.7641 42.676C51.6754 42.6935 51.5911 42.7285 51.5159 42.7788C51.4408 42.829 51.3764 42.8937 51.3264 42.969C51.2764 43.0443 51.2418 43.1288 51.2246 43.2176L50.7384 45.7102C50.7199 45.8086 50.7231 45.9099 50.748 46.0069C50.7728 46.1039 50.8186 46.1943 50.8822 46.2717C50.9467 46.3512 51.0281 46.4152 51.1205 46.459C51.213 46.5028 51.314 46.5254 51.4163 46.5251H54.0048L52.2929 55.0027C52.2621 55.1549 52.284 55.313 52.3549 55.4511C52.4259 55.5892 52.5416 55.6991 52.6832 55.7628C52.7714 55.803 52.8671 55.824 52.964 55.8244C53.0703 55.8244 53.1751 55.7997 53.2702 55.7521C53.3653 55.7046 53.448 55.6356 53.5118 55.5505L62.1811 44.0051C62.2584 43.9035 62.3058 43.7824 62.3179 43.6553C62.33 43.5283 62.3063 43.4004 62.2496 43.286C62.1922 43.1721 62.104 43.0764 61.9951 43.0099C61.8863 42.9433 61.7609 42.9085 61.6333 42.9094Z" fill="#999999"/>
<path d="M20.5705 40C19.8023 40 19.1678 40.6285 19.1678 41.3961V42.0023H11.1629L11.15 42.0028C10.005 42.0716 9.09627 42.4255 8.45347 43.0476C7.81067 43.6697 7.45638 44.5329 7.32357 45.5399L7.31989 45.5671V54.0305V54.0353C7.33042 54.5043 7.44952 55.0568 7.79334 55.5268C8.13715 55.9968 8.73486 56.35 9.5249 56.35H13.0475V56.3442H13.8596L15.761 62.4961L15.3882 62.534C14.0509 59.8243 11.325 57.7733 7.71521 57.7441C7.65971 57.7436 7.60466 57.754 7.5532 57.7748C7.50174 57.7956 7.45488 57.8263 7.41529 57.8652C7.3757 57.9041 7.34416 57.9504 7.32248 58.0015C7.30079 58.0526 7.28938 58.1074 7.2889 58.1629C7.28839 58.2185 7.29885 58.2736 7.31966 58.3251C7.34047 58.3766 7.37123 58.4234 7.41018 58.463C7.44914 58.5026 7.49551 58.5342 7.54666 58.5558C7.59781 58.5775 7.65273 58.5888 7.70827 58.5892C10.8773 58.6149 13.2337 60.3131 14.4856 62.626L12.3992 62.8385C11.6386 61.2771 10.0657 60.0873 7.99927 60.0706C5.02003 60.0464 3.02003 62.5406 3.00017 64.9904C2.97659 67.901 5.3703 69.9698 7.91902 69.9905C9.7922 70.0057 11.4959 68.9598 12.3474 67.3183L18.4597 67.9362C18.6418 67.9715 18.8267 67.9899 19.0122 67.9899C20.253 67.9899 21.3167 67.204 21.7322 66.105C23.1248 65.7717 23.9289 65.4794 23.9289 65.4794C24.0304 65.442 24.1136 65.3672 24.1616 65.2702L28.0543 57.422L28.0512 57.4274C28.0512 57.4274 28.598 56.4206 28.8425 55.1267L30.3586 58.9233C30.2793 58.8503 30.1751 58.8105 30.0674 58.8119C29.9985 58.8128 29.9309 58.8306 29.8705 58.8637C28.867 59.4115 27.9377 60.1903 27.1487 61.2138C27.1148 61.2577 27.09 61.3079 27.0755 61.3615C27.0611 61.4151 27.0573 61.471 27.0644 61.526C27.0716 61.5811 27.0895 61.6341 27.1172 61.6822C27.1449 61.7303 27.1817 61.7725 27.2257 61.8064C27.3144 61.8747 27.4266 61.905 27.5376 61.8907C27.6487 61.8764 27.7495 61.8186 27.8179 61.7299C28.5379 60.796 29.3742 60.0968 30.2748 59.6052C30.3373 59.5711 30.3901 59.5219 30.4284 59.462C30.4667 59.4021 30.4893 59.3335 30.4941 59.2625L32.2895 63.7586C31.9068 64.0742 31.6615 64.5514 31.6615 65.0824C31.6615 66.0251 32.4345 66.7985 33.3771 66.7985C34.2612 66.7985 34.971 66.11 35.0588 65.2477C35.0811 65.1954 35.0926 65.1392 35.0926 65.0824C35.0926 65.0256 35.0811 64.9694 35.0588 64.9171C35.0587 64.9166 35.0585 64.916 35.0584 64.9155C34.9697 64.0541 34.2605 63.3664 33.3771 63.3664C33.2671 63.3664 33.1596 63.3772 33.0552 63.3973L32.1267 61.0725C32.2059 61.1036 32.2926 61.1102 32.3755 61.0912C34.7291 60.5534 36.8422 61.9706 37.3693 64.0891C37.8759 66.1256 36.7425 68.4853 34.3704 69.0757C32.4352 69.5574 29.9893 68.5067 29.3847 66.0764C28.9282 64.2414 29.6953 62.6745 30.9677 61.7578C31.0127 61.7254 31.0509 61.6844 31.0801 61.6372C31.1093 61.5899 31.1289 61.5374 31.1378 61.4826C31.1467 61.4278 31.1447 61.3718 31.1319 61.3178C31.1191 61.2638 31.0958 61.2128 31.0634 61.1678C30.9979 61.0769 30.899 61.0158 30.7884 60.9978C30.6779 60.9799 30.5647 61.0065 30.4738 61.0719C28.9543 62.1667 28.0259 64.1146 28.5647 66.2802C29.284 69.172 32.1973 70.4874 34.5742 69.8958C37.3982 69.1929 38.8048 66.3586 38.1893 63.8847C37.634 61.6525 35.5837 60.0709 33.2176 60.1358C32.8795 60.1451 32.5348 60.188 32.1873 60.2674C32.1246 60.2818 32.0659 60.3102 32.0158 60.3507C31.9658 60.3911 31.9256 60.4425 31.8984 60.5008L31.2813 58.9554C31.3346 58.9959 31.3968 59.0232 31.4627 59.035C31.5286 59.0468 31.5963 59.0427 31.6604 59.0232C32.6988 58.7068 33.7842 58.6251 34.8449 58.7551C35.2399 58.8035 35.6313 58.8815 36.0153 58.9872C36.0688 59.002 36.1247 59.006 36.1797 58.9991C36.2348 58.9923 36.288 58.9746 36.3362 58.9472C36.3844 58.9198 36.4268 58.8831 36.4609 58.8393C36.4949 58.7956 36.52 58.7455 36.5348 58.692C36.5645 58.584 36.5502 58.4687 36.4949 58.3713C36.4397 58.2739 36.348 58.2024 36.2401 58.1725C35.8165 58.0559 35.3846 57.9704 34.9481 57.9169C34.362 57.8451 33.7677 57.8315 33.1754 57.88C32.583 57.9285 31.9928 58.0387 31.4144 58.2149C31.3387 58.2378 31.2711 58.2816 31.219 58.3411C31.167 58.4006 31.1327 58.4736 31.1201 58.5516L28.7971 52.7347C28.7953 52.7301 28.7935 52.7255 28.7915 52.721L28.0629 50.8963L28.8641 49.0316C29.3536 48.7388 29.693 48.2175 29.7496 47.6181C29.7714 47.5664 29.7826 47.511 29.7827 47.4549C29.7827 47.3981 29.7713 47.3419 29.749 47.2896C29.7488 47.2891 29.7487 47.2886 29.7485 47.288C29.6594 46.3652 28.9009 45.6275 27.9559 45.6275C26.9519 45.6275 26.1291 46.4508 26.1291 47.4549C26.1291 48.4196 26.8887 49.2169 27.8387 49.2781L27.2176 50.724C27.1735 50.8269 27.1719 50.9431 27.2134 51.0471L27.9985 53.0131C28.4379 54.6906 27.3 57.0407 27.3 57.0407C27.299 57.0426 27.2979 57.0445 27.2969 57.0465L23.487 64.7283C23.4033 64.7585 22.9065 64.9404 21.9162 65.1904C21.9175 65.1545 21.919 65.1186 21.919 65.0824C21.919 63.4822 20.6131 62.1761 19.0133 62.1755C19.0081 62.1755 19.0029 62.1755 18.9977 62.1755C18.9973 62.1755 18.997 62.1755 18.9966 62.1755C18.9747 62.1756 18.9528 62.1766 18.9309 62.1772C18.2101 59.5156 16.9142 54.6745 16.2762 52.2891L18.642 52.3524C18.6975 52.3538 18.7527 52.3443 18.8045 52.3244C18.8563 52.3045 18.9036 52.2746 18.9439 52.2364C18.9841 52.1982 19.0164 52.1524 19.039 52.1017C19.0615 52.051 19.0738 51.9964 19.0753 51.9409C19.0782 51.829 19.0365 51.7205 18.9595 51.6393C18.8824 51.5581 18.7763 51.5107 18.6644 51.5077L15.8447 51.4328L14.3158 50.5042C14.2502 50.4643 14.1749 50.443 14.0981 50.4426C14.0253 50.4424 13.9536 50.461 13.8901 50.4966C13.8265 50.5322 13.7733 50.5836 13.7355 50.6459C13.7067 50.6933 13.6875 50.7459 13.679 50.8007C13.6706 50.8556 13.673 50.9115 13.6861 50.9654C13.6993 51.0193 13.7229 51.0701 13.7557 51.1149C13.7885 51.1596 13.8298 51.1975 13.8772 51.2263L15.3575 52.1249C15.5623 52.8906 15.9232 54.238 16.2611 55.4995H12.6464C12.623 55.4995 12.5997 55.5014 12.5767 55.5053H9.5249C8.96447 55.5053 8.68081 55.3084 8.4754 55.0276C8.27 54.7468 8.17247 54.3482 8.16501 54.016V45.6356C8.28226 44.7656 8.56904 44.1114 9.04085 43.6548C9.51512 43.1958 10.1975 42.9076 11.1982 42.8469H19.1678V43.4531C19.1678 44.2207 19.8023 44.8492 20.5705 44.8492H22.072C22.1276 44.8492 22.1825 44.8383 22.2338 44.8171C22.2851 44.7958 22.3317 44.7647 22.3709 44.7255C22.4102 44.6862 22.4413 44.6396 22.4625 44.5883C22.4838 44.537 22.4947 44.4821 22.4947 44.4266V43.8419H23.8619C23.9174 43.8419 23.9724 43.831 24.0237 43.8098C24.0749 43.7886 24.1215 43.7574 24.1608 43.7182C24.2 43.679 24.2311 43.6324 24.2524 43.5811C24.2736 43.5298 24.2846 43.4749 24.2846 43.4194C24.2846 43.3639 24.2737 43.3089 24.2524 43.2576C24.2312 43.2064 24.2001 43.1598 24.1608 43.1205C24.1216 43.0813 24.075 43.0501 24.0237 43.0289C23.9724 43.0077 23.9174 42.9968 23.8619 42.9968H22.4947V41.852H23.8619C23.974 41.8521 24.0814 41.8076 24.1607 41.7284C24.2399 41.6493 24.2845 41.5418 24.2846 41.4298C24.2846 41.3743 24.2736 41.3194 24.2524 41.2681C24.2311 41.2168 24.2 41.1702 24.1608 41.131C24.1215 41.0918 24.0749 41.0607 24.0237 41.0394C23.9724 41.0182 23.9174 41.0073 23.8619 41.0073H22.4947V40.4226C22.4947 40.3671 22.4838 40.3122 22.4625 40.2609C22.4413 40.2096 22.4102 40.163 22.3709 40.1238C22.3317 40.0845 22.2851 40.0534 22.2338 40.0321C22.1825 40.0109 22.1276 40 22.072 40H20.5705ZM20.5705 40.8447H21.6494V41.4281C21.6494 41.4287 21.6494 41.4292 21.6494 41.4298V43.4176C21.6494 43.4182 21.6494 43.4188 21.6494 43.4194V44.0041H20.5705C20.253 44.0041 20.013 43.7644 20.013 43.4531V41.3961C20.013 41.0848 20.253 40.8447 20.5705 40.8447ZM27.9559 46.4728C28.5031 46.4728 28.9375 46.9074 28.9375 47.4549C28.9375 48.0025 28.5031 48.4372 27.9559 48.4372C27.4087 48.4372 26.9738 48.0025 26.9738 47.4549C26.9738 46.9074 27.4086 46.4728 27.9559 46.4728ZM14.744 56.3442H16.4873C17.0673 58.5087 17.6466 60.6666 18.0779 62.2601L16.6182 62.4088L14.744 56.3442ZM7.99234 60.9153C9.61677 60.9284 10.8226 61.7675 11.4928 62.9308L7.7288 63.314C6.76901 63.3287 5.98672 64.1193 5.98675 65.0824C5.98679 66.0453 6.76875 66.8364 7.72823 66.8513L11.4286 67.2254C10.6803 68.4173 9.36565 69.157 7.92596 69.1454C5.82813 69.1284 3.82562 67.442 3.84543 64.9969C3.86161 63.0021 5.48883 60.895 7.99234 60.9153ZM18.9998 63.0052H19.0014C19.0046 63.0052 19.0078 63.0052 19.011 63.0052C19.0114 63.0052 19.0118 63.0052 19.0122 63.0052C20.1639 63.0052 21.0888 63.9302 21.0888 65.0824C21.0888 65.2488 21.0688 65.4103 21.0323 65.5652C21.0104 65.6111 20.997 65.6606 20.9927 65.7113C20.7279 66.5534 19.9445 67.1596 19.0122 67.1596C18.8725 67.1596 18.7333 67.1458 18.5965 67.1179C18.5828 67.115 18.5691 67.1129 18.5553 67.1115L12.2111 66.4702C12.1613 66.4556 12.1092 66.4503 12.0574 66.4546L7.79758 66.0239C7.78371 66.0225 7.76977 66.0218 7.75583 66.0218C7.23236 66.0218 6.81647 65.6062 6.81644 65.0824C6.81644 65.0497 6.81808 65.0174 6.82126 64.9856C6.86885 64.5083 7.26505 64.143 7.75583 64.143C7.76977 64.143 7.78371 64.1423 7.79758 64.1409L16.2792 63.2777C16.331 63.282 16.3836 63.2767 16.4335 63.2621L18.571 63.0445C18.6225 63.0498 18.6745 63.0455 18.7244 63.032C18.7335 63.0295 18.7425 63.0267 18.7514 63.0236C18.8339 63.013 18.9168 63.0057 18.9998 63.0052ZM33.3771 64.2115C33.8629 64.2115 34.2479 64.5963 34.2479 65.0824C34.2479 65.5685 33.8629 65.9533 33.3771 65.9533C32.8912 65.9533 32.5062 65.5685 32.5062 65.0824C32.5062 64.5963 32.8912 64.2115 33.3771 64.2115Z" fill="#999999"/>
<path fill-rule="evenodd" clip-rule="evenodd" d="M17.2466 27.8957H15.6263C15.4146 27.8957 15.2436 27.7247 15.2436 27.513C15.2436 27.3013 15.4146 27.1303 15.6263 27.1303H17.2466C17.4583 27.1303 17.6293 27.3013 17.6293 27.513C17.6375 27.7247 17.4583 27.8957 17.2466 27.8957ZM29.965 27.8957H28.3447C28.133 27.8957 27.962 27.7247 27.962 27.513C27.962 27.3013 28.133 27.1303 28.3447 27.1303H29.965C30.1767 27.1303 30.3477 27.3013 30.3477 27.513C30.3477 27.7247 30.1767 27.8957 29.965 27.8957ZM36.5359 27.9364C36.3242 27.9364 36.0962 27.9201 35.8438 27.8875C35.6321 27.8631 35.4855 27.6677 35.5099 27.456C35.5344 27.2443 35.7298 27.0977 35.9415 27.1221C36.658 27.2117 37.114 27.1628 37.3257 26.9674C37.5048 26.8046 37.5862 26.4626 37.5699 25.8926C37.5618 25.2982 37.5618 24.6957 37.5699 24.1095C37.5699 23.8163 37.5699 23.5232 37.5699 23.2219C37.5699 19.8184 34.1827 19.2078 30.9014 18.6052C30.6164 18.5564 30.3232 18.4994 30.0464 18.4505C29.9731 18.4342 29.908 18.4017 29.851 18.3447L25.5925 14.2247C25.1691 13.8175 25.1121 13.8175 24.4445 13.8175H11.9297C11.8238 13.8175 11.7343 13.8664 11.6773 13.956C11.6203 14.0455 11.6203 14.1432 11.6691 14.2409C11.9215 14.7295 11.9215 15.2017 11.6691 15.6414C10.0081 18.5482 9.66611 18.6297 9.5114 18.6622C9.22642 18.7274 8.92515 19.1426 8.68088 19.8103C7.86665 22.0169 7.93993 25.6647 8.25748 26.1043C8.55061 26.3568 9.49512 26.9756 9.87781 27.1628C10.0732 27.2524 10.1546 27.4885 10.0569 27.6758C9.96738 27.8712 9.73125 27.9527 9.54397 27.8549C9.09614 27.6432 8.06207 26.9674 7.72823 26.6662C7.40254 26.3649 7.23969 25.4774 7.26412 24.028C7.2804 22.7008 7.45953 21.2759 7.74451 20.2174C8.10278 18.8739 8.62389 18.1004 9.29156 17.9213C9.52769 17.7096 10.2686 16.5615 11.0096 15.2587C11.1317 15.0552 11.1236 14.8516 10.9933 14.5911C10.8223 14.2572 10.8386 13.8745 11.034 13.557C11.2294 13.2313 11.5633 13.0522 11.9378 13.0522H24.4526C25.2424 13.0522 25.5193 13.0766 26.1381 13.6791L30.2988 17.7259C30.5431 17.7747 30.7874 17.8154 31.0398 17.8643C32.7497 18.1737 34.5247 18.4994 35.9008 19.2322C37.5374 20.1034 38.3353 21.4143 38.3353 23.2382C38.3353 23.5314 38.3353 23.8326 38.3353 24.1257C38.3353 24.7039 38.3272 25.3064 38.3353 25.8926C38.3435 26.4463 38.3028 27.1303 37.8305 27.5537C37.5374 27.8142 37.1303 27.9364 36.5359 27.9364Z" fill="#999999"/>
<path fill-rule="evenodd" clip-rule="evenodd" d="M13.5419 15.3484C13.4198 15.3484 13.322 15.4135 13.2732 15.5275L11.9623 18.76C11.9216 18.8496 11.9378 18.9554 11.9867 19.0368C12.0437 19.1183 12.1333 19.1671 12.231 19.1671H18.0772L17.0594 15.3565H13.5419V15.3484ZM18.5739 19.9325H12.2228C11.8646 19.9325 11.5389 19.7534 11.3435 19.4602C11.148 19.1671 11.1073 18.7926 11.2458 18.4669L12.5567 15.2344C12.7195 14.8272 13.1022 14.5748 13.5419 14.5748H17.3444C17.5154 14.5748 17.6701 14.6888 17.7189 14.8598L18.9484 19.444C18.981 19.5579 18.9566 19.6801 18.8833 19.7778C18.81 19.8755 18.696 19.9325 18.5739 19.9325ZM20.243 19.159H27.7584C27.9376 19.159 28.0108 19.0206 28.0271 18.9798C28.0434 18.9391 28.0923 18.7844 27.962 18.6623L24.6318 15.4298C24.5748 15.3728 24.5096 15.3484 24.4282 15.3484H19.2253L20.243 19.159ZM27.7584 19.9325H19.9499C19.7708 19.9325 19.6242 19.8185 19.5754 19.6475L18.3459 15.0634C18.3133 14.9494 18.3377 14.8272 18.411 14.7295C18.4843 14.6318 18.5983 14.5748 18.7204 14.5748H24.4282C24.7132 14.5748 24.9656 14.6807 25.1692 14.8761L28.4994 18.1086C28.8088 18.4099 28.9065 18.8658 28.7437 19.273C28.5808 19.6719 28.19 19.9325 27.7584 19.9325Z" fill="#999999"/>
<path fill-rule="evenodd" clip-rule="evenodd" d="M22.34 21.8541H20.5975C20.3858 21.8541 20.2148 21.6831 20.2148 21.4714C20.2148 21.2597 20.3858 21.0887 20.5975 21.0887H22.34C22.5517 21.0887 22.7227 21.2597 22.7227 21.4714C22.7308 21.6831 22.5598 21.8541 22.34 21.8541Z" fill="#999999"/>
<path fill-rule="evenodd" clip-rule="evenodd" d="M34.1235 20.6897C34.091 20.6897 34.0665 20.6978 34.0421 20.706C33.977 20.7385 33.92 20.7711 34.0258 21.0072C34.3434 21.7075 34.9215 22.0413 35.7439 22.0087C35.8741 22.0006 35.9311 21.9762 35.9474 21.9599C35.9474 21.9273 35.923 21.8133 35.7846 21.6505C35.4182 21.2271 34.4655 20.6897 34.1235 20.6897ZM35.6217 22.7823C34.5632 22.7823 33.749 22.2693 33.3256 21.3248C33.0732 20.763 33.2034 20.2826 33.6757 20.0302C34.5306 19.566 36.094 20.8362 36.3627 21.1457C36.6884 21.5121 36.8024 21.9355 36.6558 22.2693C36.5825 22.4484 36.3627 22.7497 35.7846 22.7823C35.7357 22.7823 35.6787 22.7823 35.6217 22.7823Z" fill="#999999"/>
<path fill-rule="evenodd" clip-rule="evenodd" d="M31.7916 23.0509H31.0507C30.839 23.0509 30.668 22.8799 30.668 22.6682C30.668 22.4565 30.839 22.2855 31.0507 22.2855H31.7916C32.0033 22.2855 32.1743 22.4565 32.1743 22.6682C32.1743 22.8799 32.0033 23.0509 31.7916 23.0509Z" fill="#999999"/>
<path fill-rule="evenodd" clip-rule="evenodd" d="M12.6668 24.9319C11.2419 24.9319 10.0857 26.0881 10.0857 27.513C10.0857 28.9379 11.2419 30.0941 12.6668 30.0941C14.0917 30.0941 15.2479 28.9379 15.2479 27.513C15.2398 26.0881 14.0836 24.9319 12.6668 24.9319ZM12.6668 30.8595C10.8185 30.8595 9.32031 29.3532 9.32031 27.513C9.32031 25.6647 10.8266 24.1665 12.6668 24.1665C14.5151 24.1665 16.0133 25.6728 16.0133 27.513C16.0133 29.3613 14.507 30.8595 12.6668 30.8595Z" fill="#999999"/>
<path fill-rule="evenodd" clip-rule="evenodd" d="M32.9246 24.9319C31.4997 24.9319 30.3435 26.0881 30.3435 27.513C30.3435 28.9379 31.4997 30.0941 32.9246 30.0941C34.3495 30.0941 35.5058 28.9379 35.5058 27.513C35.4976 26.0881 34.3414 24.9319 32.9246 24.9319ZM32.9246 30.8595C31.0763 30.8595 29.5781 29.3532 29.5781 27.513C29.5781 25.6647 31.0845 24.1665 32.9246 24.1665C34.7729 24.1665 36.2711 25.6728 36.2711 27.513C36.2711 29.3613 34.7648 30.8595 32.9246 30.8595Z" fill="#999999"/>
<path fill-rule="evenodd" clip-rule="evenodd" d="M32.9245 26.4871C32.3545 26.4871 31.8985 26.9512 31.8985 27.5131C31.8985 28.083 32.3626 28.539 32.9245 28.539C33.4944 28.539 33.9504 28.0749 33.9504 27.5131C33.9504 26.9431 33.4863 26.4871 32.9245 26.4871ZM32.9245 29.3125C31.9311 29.3125 31.125 28.5064 31.125 27.5131C31.125 26.5197 31.9311 25.7136 32.9245 25.7136C33.9178 25.7136 34.7239 26.5197 34.7239 27.5131C34.7239 28.5064 33.9097 29.3125 32.9245 29.3125Z" fill="#999999"/>
<path fill-rule="evenodd" clip-rule="evenodd" d="M12.6666 26.4871C12.0967 26.4871 11.6407 26.9512 11.6407 27.5131C11.6407 28.083 12.1048 28.539 12.6666 28.539C13.2366 28.539 13.6926 28.0749 13.6926 27.5131C13.6926 26.9431 13.2285 26.4871 12.6666 26.4871ZM12.6666 29.3125C11.6733 29.3125 10.8672 28.5064 10.8672 27.5131C10.8672 26.5197 11.6733 25.7136 12.6666 25.7136C13.66 25.7136 14.4661 26.5197 14.4661 27.5131C14.458 28.5064 13.6519 29.3125 12.6666 29.3125Z" fill="#999999"/>
<path fill-rule="evenodd" clip-rule="evenodd" d="M8.05721 21.7645C7.97578 21.7645 7.89436 21.7564 7.80479 21.7401C7.59309 21.6994 7.45467 21.4958 7.49538 21.2923C7.5361 21.0806 7.73965 20.9422 7.94321 20.9829C8.41547 21.0724 9.09129 20.5351 9.39255 19.843C9.53097 19.5335 9.67753 18.9554 9.18899 18.5972C9.018 18.475 8.97729 18.2308 9.09943 18.0598C9.22156 17.8888 9.46583 17.8481 9.63682 17.9702C10.3045 18.4506 10.4755 19.2648 10.1009 20.1442C9.75082 20.991 8.91215 21.7645 8.05721 21.7645Z" fill="#999999"/>
<path fill-rule="evenodd" clip-rule="evenodd" d="M11.9244 23.0509H11.1835C10.9718 23.0509 10.8008 22.8799 10.8008 22.6682C10.8008 22.4565 10.9718 22.2855 11.1835 22.2855H11.9244C12.1361 22.2855 12.3071 22.4565 12.3071 22.6682C12.3071 22.8799 12.1361 23.0509 11.9244 23.0509Z" fill="#999999"/>
<path fill-rule="evenodd" clip-rule="evenodd" d="M22.7897 23.5233C19.8584 23.5233 17.4727 25.909 17.4727 28.8402C17.4727 31.7715 19.8584 34.1572 22.7897 34.1572C25.7209 34.1572 28.1067 31.7715 28.1067 28.8402C28.1148 25.909 25.7291 23.5233 22.7897 23.5233ZM22.7897 34.9226C19.435 34.9226 16.6992 32.1949 16.6992 28.8321C16.6992 25.4774 19.4269 22.7416 22.7897 22.7416C26.1443 22.7416 28.8802 25.4693 28.8802 28.8321C28.8802 32.1949 26.1525 34.9226 22.7897 34.9226Z" fill="#999999"/>
<path fill-rule="evenodd" clip-rule="evenodd" d="M20.7381 29.3043H22.3829C22.4969 29.3043 22.6027 29.3531 22.676 29.4427C22.7493 29.5323 22.7819 29.6463 22.7574 29.7603L22.4562 31.4539L24.85 28.3842H23.2134C23.0994 28.3842 22.9936 28.3354 22.9203 28.2458C22.847 28.1562 22.8144 28.0422 22.8389 27.9282L23.1401 26.2346L20.7381 29.3043ZM21.7966 33.294C21.7478 33.294 21.6908 33.2859 21.6419 33.2615C21.4791 33.1882 21.3895 33.0172 21.4221 32.8381L21.9188 30.0697H19.9483C19.8018 30.0697 19.6634 29.9882 19.5982 29.8498C19.5331 29.7195 19.5494 29.5567 19.6389 29.4427L23.4821 24.5166C23.588 24.3782 23.7834 24.3293 23.9462 24.4026C24.1091 24.4759 24.1986 24.6469 24.1661 24.826L23.6694 27.5944H25.6398C25.7864 27.5944 25.9248 27.6758 25.99 27.8142C26.0551 27.9445 26.0388 28.1074 25.9492 28.2214L22.1061 33.1475C22.0328 33.2452 21.9188 33.294 21.7966 33.294Z" fill="#999999"/>
<path fill-rule="evenodd" clip-rule="evenodd" d="M7.67371 23.4337H7.04675C5.8254 23.4337 4.82389 22.4403 4.82389 21.219V8.40292C4.82389 6.33476 6.50121 4.65744 8.56937 4.65744H19.8221C20.0338 4.65744 20.2048 4.82843 20.2048 5.04013C20.2048 5.25183 20.0338 5.42282 19.8221 5.42282H8.57751C6.9409 5.42282 5.60555 6.75816 5.60555 8.39478V21.2027C5.60555 22.0006 6.25694 22.652 7.05489 22.652H7.68185C7.89355 22.652 8.06454 22.823 8.06454 23.0347C8.06454 23.2627 7.89355 23.4337 7.67371 23.4337ZM7.64928 25.2657H7.05489C4.82389 25.2657 3 23.45 3 21.2108V8.39478C3 5.32511 5.4997 2.82541 8.57751 2.82541H19.8302C20.0419 2.82541 20.2129 2.9964 20.2129 3.2081C20.2129 3.4198 20.0419 3.59079 19.8302 3.59079H8.57751C5.9231 3.59079 3.76538 5.74851 3.76538 8.40292V21.2108C3.76538 23.0184 5.23915 24.4922 7.04675 24.4922H7.64928C7.86098 24.4922 8.03197 24.6632 8.03197 24.8749C8.04011 25.0947 7.86098 25.2657 7.64928 25.2657Z" fill="#999999"/>
<path fill-rule="evenodd" clip-rule="evenodd" d="M22.0593 0.773554C21.0415 0.773554 20.2192 1.59593 20.2192 2.61372V5.64268C20.2192 6.66047 21.0415 7.48285 22.0593 7.48285H25.6257V0.773554H22.0593ZM26.0084 8.25637H22.0512C20.61 8.25637 19.4375 7.08388 19.4375 5.64268V2.61372C19.4375 1.17253 20.61 3.05176e-05 22.0512 3.05176e-05H26.0084C26.2201 3.05176e-05 26.3911 0.17102 26.3911 0.382721V7.86554C26.3992 8.08538 26.2282 8.25637 26.0084 8.25637Z" fill="#999999"/>
<path fill-rule="evenodd" clip-rule="evenodd" d="M29.5252 3.45232H26.0077C25.796 3.45232 25.625 3.28133 25.625 3.06962C25.625 2.85792 25.796 2.68693 26.0077 2.68693H29.5252C29.7532 2.68693 29.9404 2.49966 29.9404 2.27167C29.9404 2.04369 29.7532 1.85641 29.5252 1.85641H26.0077C25.796 1.85641 25.625 1.68543 25.625 1.47372C25.625 1.26202 25.796 1.09103 26.0077 1.09103H29.5252C30.1766 1.09103 30.714 1.62029 30.714 2.27982C30.714 2.91492 30.1766 3.45232 29.5252 3.45232Z" fill="#999999"/>
<path fill-rule="evenodd" clip-rule="evenodd" d="M29.5252 7.17345H26.0077C25.796 7.17345 25.625 7.00246 25.625 6.79075C25.625 6.57905 25.796 6.40806 26.0077 6.40806H29.5252C29.7532 6.40806 29.9404 6.22079 29.9404 5.99281C29.9404 5.76482 29.7532 5.57755 29.5252 5.57755H26.0077C25.796 5.57755 25.625 5.40656 25.625 5.19485C25.625 4.98315 25.796 4.81216 26.0077 4.81216H29.5252C30.1766 4.81216 30.714 5.34142 30.714 6.00095C30.714 6.64419 30.1766 7.17345 29.5252 7.17345Z" fill="#999999"/>
</g>
<defs>
<clipPath id="clip0_4333_26569">
<rect width="70" height="70" fill="white" transform="translate(0.332031)"/>
</clipPath>
</defs>
</svg>
