<svg width="70" height="70" viewBox="0 0 70 70" fill="none" xmlns="http://www.w3.org/2000/svg">
<path fill-rule="evenodd" clip-rule="evenodd" d="M22.5089 5.36428L21.0046 5.60059L19.4675 5.8424C19.0907 5.9001 18.7358 5.64181 18.6785 5.26261C18.6621 5.1637 18.6703 5.06752 18.6948 4.97684H18.6921L18.8041 4.55093L18.7249 4.53994C18.1515 4.47125 17.57 4.43552 16.983 4.43552C12.9533 4.43552 9.30323 6.08142 6.66269 8.73858C4.02263 11.3957 2.38722 15.0695 2.38722 19.1255C2.38722 21.6233 3.01516 24.0358 4.16459 26.1571C5.31397 28.2811 6.98489 30.1194 9.07069 31.4713C9.39286 31.6802 9.48568 32.1116 9.28092 32.4331C9.07343 32.7573 8.64752 32.8507 8.32535 32.6447C6.04566 31.1636 4.21371 29.1494 2.95508 26.8221C1.69101 24.4947 1.00026 21.8568 1.00026 19.1258C1.00026 14.6827 2.78853 10.6628 5.6825 7.74989C8.57647 4.83999 12.5708 3.03743 16.9855 3.03743C17.6189 3.03743 18.255 3.0759 18.8912 3.15284C18.984 3.16383 19.0769 3.17482 19.1697 3.18856L19.3472 2.5181C19.4454 2.14715 19.8249 1.92458 20.1962 2.0235C20.3054 2.05373 20.4037 2.10594 20.4801 2.18013L21.6596 3.13912L22.8718 4.12281C23.1694 4.36461 23.2158 4.80151 22.9783 5.101C22.8554 5.25763 22.6863 5.34505 22.5089 5.36428ZM17.8894 43.954L14.8862 48.2076H20.18L23.1832 43.954H17.8894ZM13.9006 49.6034L10.0265 55.0908H15.3203L19.1917 49.6034H13.9006ZM8.33101 55.0908H3.03721L6.91136 49.6034H12.2052L8.33101 55.0908ZM13.188 48.2075H7.89419L10.8974 43.9539H16.1912L13.188 48.2075ZM24.881 43.9539H30.1748L27.1716 48.2075H21.8778L24.881 43.9539ZM20.8922 49.6034H26.186L22.3146 55.0907H17.0208L20.8922 49.6034ZM5.9583 48.5455C5.97741 48.5153 5.99652 48.4878 6.01837 48.4603L9.97715 42.852C10.1109 42.6624 10.3239 42.5608 10.5423 42.5608V42.558H31.5156C31.8979 42.558 32.2091 42.8713 32.2091 43.256V47.2677H32.2064C32.2064 47.4051 32.1654 47.548 32.0808 47.6689L24.466 58.5116C24.3431 58.7095 24.1247 58.8441 23.8763 58.8441H17.5232V64.6365H22.0717C22.6696 64.6365 23.2101 64.881 23.6033 65.2767C23.9964 65.6724 24.2394 66.2192 24.2394 66.8182V68.3021C24.2394 68.6868 23.9282 69 23.546 69H7.32599C6.94376 69 6.63252 68.6868 6.63252 68.3021V66.8182C6.63252 66.2165 6.87551 65.6724 7.26866 65.2767C7.6618 64.881 8.20508 64.6365 8.80028 64.6365H13.3487V58.8441H1.69347C1.31124 58.8441 1 58.5309 1 58.1462V55.7885V55.7556V55.7308L1.00273 55.7144L1.00546 55.7006V55.6979L1.00819 55.6814V55.6759L1.01365 55.6484V55.6457L1.01638 55.6402L1.01911 55.6319V55.6292L1.02184 55.6209L1.02457 55.6154V55.6127L1.03549 55.5797L1.03822 55.5742L1.03549 55.566V55.5632L1.03822 55.555V55.5522L1.04095 55.5467L1.04641 55.5303L1.04914 55.5248L1.06006 55.4918L1.06552 55.478H1.07098L1.07644 55.4671V55.4643L1.07918 55.4588L1.08464 55.4533L1.08737 55.4478V55.4451L1.10102 55.4176L1.13378 55.3846V55.3819L1.14197 55.3709L1.16381 55.3489L5.9583 48.5455ZM28.1492 49.2242L30.8193 45.4405V47.048L23.519 57.4454H2.3905V56.4864H22.6705L22.6678 56.4837C22.8835 56.4837 23.0964 56.382 23.2329 56.1924L28.038 49.3861C28.0817 49.3394 28.12 49.2845 28.15 49.224L28.1492 49.2242ZM14.7382 64.6336H16.1361V58.8413H14.7382V64.6336ZM22.0741 66.0323H8.80293C8.58997 66.0323 8.3934 66.1202 8.25143 66.2631C8.10947 66.406 8.0221 66.6011 8.0221 66.8181V67.604H22.8554V66.8181C22.8554 66.6038 22.768 66.406 22.6261 66.2631C22.4841 66.1202 22.2871 66.0323 22.0741 66.0323ZM41.8027 63.0069C41.2812 63.0069 40.8034 63.2213 40.4594 63.5675C40.1154 63.9137 39.9025 64.3918 39.9025 64.9194V68.302C39.9025 68.6867 40.2137 68.9999 40.5959 68.9999H53.4002C53.7852 68.9999 54.0937 68.6867 54.0937 68.302V64.9194C54.0937 64.3946 53.8808 63.9137 53.5368 63.5675C53.1927 63.2213 52.7177 63.0069 52.1935 63.0069H49.9793L48.778 32.2535C49.1875 32.1133 49.5752 31.9265 49.9328 31.6984L66.0682 41.9587C66.3931 42.162 66.819 42.0659 67.021 41.7416L68.894 38.7575C69.0714 38.4718 69.0195 38.1063 68.7875 37.8837L59.0682 28.2551C58.555 27.7468 57.9898 27.3594 57.3673 27.0873C56.7476 26.818 56.0786 26.6668 55.3579 26.6394L52.5104 26.524C52.4011 25.1693 51.8087 23.9521 50.9104 23.0453C50.5255 22.6578 50.0832 22.3281 49.6 22.0671L50.4053 2.87385C50.419 2.48915 50.1241 2.16492 49.7419 2.15121L46.2391 2.00282C45.9033 1.98909 45.6139 2.2199 45.5374 2.53864L42.0865 15.816C41.9036 16.5194 41.849 17.2064 41.9254 17.8768C42.0019 18.55 42.2066 19.2095 42.5424 19.8552L43.8611 22.397C43.5854 22.5893 43.326 22.8064 43.0884 23.0455C42.0892 24.0539 41.4694 25.4443 41.4694 26.9803C41.4694 27.0518 41.4722 27.126 41.4749 27.1974L24.6021 36.1718C24.2636 36.3504 24.1326 36.7736 24.3128 37.1143L25.9509 40.2358C26.1092 40.5408 26.4614 40.6782 26.7781 40.5738L39.897 36.8835C40.5959 36.6856 41.2129 36.3861 41.7507 35.9822C42.2886 35.5783 42.75 35.0672 43.135 34.4517L44.6502 32.0254C44.8331 32.1133 45.0243 32.1903 45.2181 32.2562L44.0168 63.0069L41.8027 63.0069ZM45.401 63.0069L46.5914 32.5341C46.7252 32.5451 46.8617 32.5479 47.0009 32.5479C47.1374 32.5479 47.2739 32.5424 47.4104 32.5341L48.6008 63.0069H45.401ZM52.1992 64.4028C52.3384 64.4028 52.4668 64.4605 52.5596 64.554C52.6524 64.6474 52.7097 64.7765 52.7097 64.9167V67.6013L41.2921 67.604V64.9194C41.2921 64.7793 41.3494 64.6501 41.4423 64.5567C41.5351 64.4633 41.6634 64.4056 41.8026 64.4056L52.1992 64.4028ZM47.0009 25.1976C47.4897 25.1976 47.9346 25.3982 48.2569 25.7197C48.579 26.0439 48.7756 26.4891 48.7756 26.9837C48.7756 27.4755 48.5763 27.9234 48.2569 28.2477C47.9347 28.5719 47.4924 28.7698 47.0009 28.7698C46.5122 28.7698 46.0673 28.5692 45.745 28.2477C45.4229 27.9234 45.2263 27.4783 45.2263 26.9837C45.2263 26.4918 45.4256 26.044 45.745 25.7197C46.0672 25.3982 46.5123 25.1976 47.0009 25.1976ZM47.274 26.7088C47.345 26.7803 47.3859 26.8765 47.3859 26.9836C47.3859 27.0908 47.3422 27.187 47.274 27.2584C47.203 27.3298 47.1074 27.3711 47.0009 27.3711C46.8945 27.3711 46.7989 27.3271 46.7279 27.2584C46.657 27.187 46.616 27.0908 46.616 26.9836C46.616 26.8765 46.6597 26.7803 46.7279 26.7088C46.7989 26.6374 46.8945 26.5962 47.0009 26.5962C47.1074 26.5934 47.203 26.6374 47.274 26.7088ZM48.2377 21.5595C47.8391 21.4688 47.4268 21.4194 47.001 21.4194C46.3293 21.4194 45.685 21.5403 45.0898 21.7601L43.7684 19.2156C43.5145 18.7293 43.3616 18.2347 43.3043 17.729C43.247 17.2234 43.2879 16.7041 43.4272 16.1711L46.7389 3.42132L48.994 3.5175L48.2377 21.5595ZM11.6287 32.9629C11.4567 32.9849 11.2929 33.0728 11.1755 33.2239C10.938 33.5262 10.9898 33.9658 11.2929 34.2021L12.516 35.1693L13.7173 36.1201C13.7965 36.1888 13.8921 36.241 13.9985 36.2685C14.3698 36.3647 14.7466 36.1366 14.8421 35.7629L15.0114 35.0897C15.0851 35.1007 15.1616 35.1089 15.2353 35.1172C15.825 35.1831 16.4093 35.2161 16.9853 35.2161C21.4 35.2161 25.3941 33.4163 28.2883 30.5036C31.1796 27.5937 32.9706 23.5709 32.9706 19.1277C32.9706 16.4046 32.2826 13.7722 31.0267 11.4448C29.7736 9.12285 27.9499 7.11145 25.6783 5.63044C25.3589 5.4216 24.9303 5.51228 24.7228 5.83378C24.5153 6.15527 24.6054 6.58666 24.9248 6.79551C27.0025 8.15019 28.6679 9.98847 29.8118 12.1098C30.9558 14.2283 31.5809 16.6326 31.5809 19.1249C31.5809 23.1806 29.9483 26.8542 27.3055 29.5118C24.6654 32.1689 21.0152 33.8149 16.9851 33.8149C16.4446 33.8149 15.9094 33.7874 15.388 33.7269L15.3552 33.7242L15.4617 33.2983C15.4835 33.2076 15.489 33.1114 15.4726 33.0125C15.4098 32.6333 15.0522 32.3778 14.6754 32.441L13.1411 32.7048L11.6287 32.9629ZM15.2872 10.3045L12.7071 18.4299H16.9853C17.3703 18.4299 17.6788 18.7432 17.6788 19.1278C17.6788 19.2158 17.6624 19.2982 17.6351 19.3751L15.9233 25.6209L22.9154 16.2265H17.0946C16.7124 16.2265 16.4012 15.9133 16.4012 15.5286C16.4012 15.4296 16.4203 15.339 16.4558 15.2538L18.2031 10.305L15.2872 10.3045ZM11.0991 18.916C10.9844 19.2814 11.1837 19.6716 11.5495 19.7898C11.6178 19.8118 11.6888 19.8228 11.7598 19.8228V19.8255H16.0762L13.6218 28.7971C13.5208 29.1681 13.7392 29.55 14.1077 29.6517C14.3889 29.7286 14.6811 29.6187 14.8449 29.3961L24.8507 15.9485C25.08 15.6408 25.0173 15.2039 24.7115 14.9731C24.5859 14.8797 24.4412 14.833 24.2965 14.833V14.8302H18.0744L19.8354 9.83743C19.9637 9.47473 19.7726 9.07632 19.4122 8.94717C19.3358 8.91969 19.2593 8.90595 19.1829 8.90595V8.9032H14.7818C14.4487 8.9032 14.173 9.13951 14.1047 9.45276L11.0991 18.916ZM41.7204 28.6459C41.9907 29.5142 42.4657 30.2918 43.0882 30.9183C43.2138 31.0447 43.3421 31.1629 43.4786 31.2756L41.9606 33.7073C41.6712 34.1717 41.3217 34.5591 40.9177 34.8614C40.5136 35.1664 40.0495 35.3917 39.5225 35.5401L26.9146 39.0903L25.8608 37.0816L41.7204 28.6459ZM51.0601 30.7644C51.7727 29.9895 52.2696 29.0086 52.4525 27.9177L55.3028 28.0331C55.8516 28.0551 56.3566 28.165 56.8181 28.3656C57.2767 28.5662 57.7026 28.8602 58.0958 29.2476L67.4327 38.4887L66.226 40.4094L51.0601 30.7644ZM49.9298 24.0351C50.6779 24.788 51.142 25.8322 51.142 26.9835C51.142 28.1348 50.6779 29.1762 49.9298 29.9318C49.1818 30.6847 48.1443 31.1519 47.0003 31.1519C45.8564 31.1519 44.8217 30.6848 44.0709 29.9318C43.3228 29.179 42.8587 28.1348 42.8587 26.9835C42.8587 25.8322 43.3228 24.7907 44.0709 24.0351C44.8189 23.2822 45.8564 22.8151 47.0003 22.8151C48.1443 22.8151 49.179 23.2822 49.9298 24.0351Z" fill="#999999"/>
</svg>
