<svg width="644" height="355" viewBox="0 0 644 355" fill="none" xmlns="http://www.w3.org/2000/svg">
<path d="M631.964 296.297L631.955 296.47C631.697 301.5 631.019 306.253 630.027 310.723C624.781 334.368 611.098 349.474 607.685 353.135C607.683 353.137 607.68 353.139 607.678 353.142C607.216 353.639 606.932 353.922 606.896 353.996C592.069 353.996 496.212 354.012 386.976 353.981C357.532 353.974 327.116 353.962 297.052 353.943C283.399 353.936 269.819 353.929 256.436 353.92C246.691 353.913 237.05 353.903 227.562 353.896C191.546 353.865 157.723 353.825 128.714 353.773C113.186 353.745 99.0377 353.714 86.6684 353.676C53.7332 353.583 33.4373 353.465 33.3757 353.312L33.3402 353.205C33.3402 353.205 33.3094 353.174 33.3071 353.141C33.3047 353.139 33.3047 353.136 33.3047 353.134C33.3047 353.099 33.2668 353.061 33.2668 353.061C33.1792 352.857 14.2048 326.643 8.56363 290.678C7.25636 282.338 6.6643 273.475 7.19242 264.29V264.146C9.16753 230.273 26.3373 192.096 78.8105 159.694C128.951 128.691 75.6489 108.24 115.518 73.7206C161.346 34.1076 211.38 77.9557 262.345 59.9768C271.325 56.7852 280.377 51.6889 289.428 43.8671C294.527 39.4546 300.095 35.5792 306.056 32.2763C306.991 31.7393 307.889 31.2353 308.822 30.7692C312.414 28.9049 316.114 27.2179 319.957 25.7108C322.505 24.7053 325.127 23.7731 327.787 22.9119C332.024 21.5136 336.369 20.3283 340.788 19.3606C347.074 17.9245 353.574 16.8835 360.182 16.1666C363.057 15.8425 365.965 15.5917 368.911 15.4119C422.848 12.0144 483.203 29.9695 517.531 56.9532C519.435 58.4484 521.256 59.9721 522.994 61.5218C523.714 62.1653 524.709 63.0999 525.883 64.3089C533.895 72.5566 550.21 93.5472 543.474 121.931C542.899 124.352 542.158 126.829 541.23 129.353C539.899 132.969 538.184 136.686 536.031 140.497C532.692 146.417 533.194 152.23 536.211 158.116L536.245 158.152H536.247C536.413 158.469 536.586 158.786 536.766 159.103C537.395 160.212 538.116 161.324 538.916 162.439C539.371 163.078 539.854 163.714 540.363 164.351C540.488 164.509 540.616 164.668 540.746 164.828C541.007 165.148 541.272 165.465 541.544 165.784C541.544 165.784 541.542 165.784 541.544 165.787C541.762 166.042 541.983 166.295 542.208 166.551C542.43 166.806 542.658 167.062 542.892 167.32C543.124 167.575 543.359 167.828 543.598 168.084C543.835 168.34 544.076 168.595 544.322 168.853C544.569 169.108 544.818 169.364 545.068 169.619C545.32 169.875 545.576 170.131 545.833 170.386H545.836C550.17 174.685 551.366 180.105 552.488 186.439C552.927 188.907 553.353 191.516 553.952 194.249C553.978 194.37 554.006 194.493 554.032 194.616C554.546 196.918 555.188 199.308 556.064 201.778C556.104 201.899 556.149 202.021 556.195 202.145C556.971 204.29 557.928 206.498 559.136 208.762C559.247 208.973 559.361 209.183 559.479 209.394V209.396C559.569 209.564 559.662 209.73 559.759 209.898C559.828 210.021 559.896 210.142 559.967 210.265C560.086 210.473 560.209 210.681 560.334 210.889L560.337 210.894C560.387 210.979 560.439 211.069 560.496 211.157C561.358 212.593 562.331 214.05 563.43 215.527C563.908 216.175 564.413 216.828 564.943 217.483C567.776 220.988 571.328 224.6 575.818 228.301C581.734 233.179 589.282 238.214 598.958 243.372C600.498 244.193 601.98 245.025 603.408 245.868C616.86 253.806 625.289 262.626 628.303 272.579C628.73 273.984 629.45 276.732 630.144 280.032C631.206 285.09 632.204 291.454 631.964 296.297Z" fill="#EBF3FA"/>
<path d="M630.986 295.98C630.993 296.04 630.995 296.1 631 296.159C630.742 301.236 630.064 306.034 629.07 310.545L602.416 314.755L596.914 315.625L593.784 316.119L572.098 319.546L570.158 319.852L565.797 320.542L564.664 320.721H564.657C564.657 320.721 563.722 320.831 562.1 320.986C561.965 321 561.823 321.012 561.678 321.026C560.599 321.127 559.262 321.244 557.728 321.361C557.151 321.406 556.547 321.449 555.918 321.492C555.8 321.499 555.681 321.509 555.56 321.516C554.68 321.576 553.758 321.631 552.795 321.686C550.813 321.793 548.674 321.886 546.447 321.941C545.582 321.963 544.702 321.979 543.815 321.991C543.352 321.996 542.885 321.998 542.418 321.998C541.856 322.001 541.292 322.001 540.725 321.996C539.888 321.991 539.046 321.977 538.206 321.955C537.59 321.941 536.971 321.922 536.357 321.901C535.498 321.867 534.642 321.824 533.791 321.774C533.661 321.767 533.53 321.757 533.4 321.748C533.004 321.724 532.608 321.698 532.214 321.666C530.26 321.519 528.353 321.315 526.539 321.046C526.233 321 525.932 320.952 525.633 320.902C518.811 319.78 513.483 317.638 512.257 313.803C511.142 310.29 513.551 305.291 521.5 298.34C522.823 297.184 524.203 296.076 525.633 295.018C534.858 288.188 546.214 283.347 558.114 279.93C558.607 279.787 559.101 279.648 559.596 279.512C559.672 279.49 559.748 279.469 559.824 279.447C559.959 279.412 560.094 279.373 560.229 279.337C560.497 279.263 560.765 279.192 561.031 279.123C561.5 278.996 561.97 278.872 562.442 278.752C564.818 278.141 567.208 277.584 569.599 277.078C570.201 276.949 570.803 276.825 571.406 276.704C571.688 276.646 571.97 276.589 572.25 276.534C572.444 276.493 572.639 276.455 572.833 276.419C573.13 276.362 573.426 276.305 573.722 276.25C583.682 274.356 593.545 273.267 602.416 272.668C612.407 271.989 621.143 271.934 627.344 272.044C628.06 273.788 628.672 276.446 629.186 279.567C629.999 284.47 630.582 290.521 630.986 295.98Z" fill="#7ED260"/>
<path d="M333 73.221C333 73.221 340.7 57.2103 359.113 58.9893C359.113 58.9893 385.846 32.3035 414.352 55.4312C414.352 55.4312 444.655 49.7008 467.096 60.3929C482.058 67.5217 487 75 487 75L333 73.221Z" fill="white"/>
<path d="M306 213.975C306 213.975 316.3 195.756 340.93 197.781C340.93 197.781 376.689 167.414 414.822 193.732C414.822 193.732 455.356 187.211 485.375 199.378C505.389 207.49 512 216 512 216L306 213.975Z" fill="white"/>
<path d="M477.048 134.655C477.048 134.655 469.177 121.199 450.381 124.53C431.586 127.862 436.588 149.527 426.186 159.711C415.785 169.895 406.715 178.969 411.181 193.356C415.645 207.743 391.931 210.818 392 232.543C392.069 254.269 397.136 267.074 426.291 268.765C455.445 270.456 502.079 262.77 508.394 254.007C514.709 245.244 513.647 226.005 497.791 201.456C481.936 176.907 496.422 174.704 485.826 160.488C475.229 146.272 482.689 140.51 477.048 134.655Z" fill="#7ED260"/>
<path d="M125 111.712C125 111.712 131.8 100.118 148.061 101.406C148.061 101.406 171.669 82.0818 196.844 98.8295C196.844 98.8295 223.604 94.6798 243.422 102.422C256.636 107.585 261 113 261 113L125 111.712Z" fill="white"/>
<path d="M341 314H336L337.076 159H339.611L341 314Z" fill="#739AF0"/>
<path d="M339 160.244L298.804 194.633L283.182 208L282 206.807L295.832 191.48L318.49 166.374L336.397 157L339 160.244Z" fill="#7FAAF7"/>
<path d="M299 194.054L283.196 207L282 205.845L295.993 191L299 194.054Z" fill="#F99746"/>
<path d="M342 157.609L338.046 159L318.182 108.854L311 90.7222L312.529 90L322.166 107.356L338.99 137.654L342 157.609Z" fill="#7FAAF7"/>
<path d="M322 107.491L318.075 109L311 90.7278L312.507 90L322 107.491Z" fill="#F99746"/>
<path d="M412 160.179L386.041 162.023L358.2 164L339 158.213L339.38 154L384.853 156.799L411.979 158.468L412 160.179Z" fill="#7FAAF7"/>
<path d="M412 160.195L385.258 162L385 157L411.98 158.578L412 160.195Z" fill="#F99746"/>
<path d="M338.709 154.006C336.78 153.891 335.122 155.361 335.006 157.291C334.891 159.22 336.361 160.878 338.291 160.994C340.22 161.109 341.878 159.639 341.994 157.709C342.109 155.78 340.639 154.122 338.709 154.006Z" fill="#2B478B"/>
<path d="M154.752 353H290.561L347.177 352.963H449.562C449.562 352.963 449.622 352.86 449.737 352.655C449.819 352.51 449.93 352.313 450.074 352.062L450.13 351.989C450.13 351.989 450.13 351.989 450.13 351.952C450.13 351.952 450.185 351.913 450.185 351.876C450.411 351.577 450.58 351.238 450.806 350.828C450.921 350.64 451.032 350.414 451.203 350.19C451.203 350.154 451.203 350.154 451.203 350.115C451.259 350.078 451.259 350.078 451.259 350.078C452.034 348.741 452.996 346.999 454.107 344.895C454.208 344.705 454.308 344.512 454.411 344.317C454.964 342.728 455.573 340.948 456.221 338.987C457.761 334.229 459.528 328.421 461.255 321.865C461.932 319.279 462.608 316.582 463.248 313.771C463.624 312.148 464.002 310.459 464.365 308.752C464.469 308.252 464.572 307.752 464.675 307.251C465.339 304.056 465.964 300.765 466.528 297.401C467.634 290.816 468.508 283.954 469 277C425.024 279.26 340.252 285.209 276.488 299.411C186.514 319.449 164.279 322.686 126.164 326.28C104.834 328.292 129.173 341.636 154.752 353Z" fill="#D4DFFF"/>
<path d="M212 331.904C212 331.904 357.626 287.056 394.294 283.808C430.961 280.56 395.835 288.151 395.835 288.151C395.835 288.151 296.173 314.366 273.009 325.546C224.02 349.19 212 331.904 212 331.904Z" fill="#D4DFFF"/>
<path d="M256 352.051C256 352.051 377.815 296.32 410.778 287.264C443.741 278.209 412.903 290.867 412.903 290.867C412.903 290.867 316.722 340.825 296.573 353.439C293.657 355.265 256 352.051 256 352.051Z" fill="#D4DFFF"/>
<path opacity="0.5" d="M288 174.621L268.338 177.139L248.675 179.693L236.566 176.923C236.277 177.463 235.771 177.858 235.193 178.074L236.061 289.482C234.795 290.094 233.566 290.921 232.446 292L233.133 178.721L206.675 204.154L195.904 214.479L195 213.687L204.398 201.996L219.759 182.859L231.687 175.7C231.651 175.664 231.651 175.664 231.651 175.628C231.651 175.052 231.868 174.549 232.157 174.117L216.976 141.418L211.012 128.611L212.06 128L219.759 140.159L233.205 161.383L235.771 173.397H287.928L288 174.621Z" fill="#AEC3FF"/>
<path d="M509 308H502L503.507 90H507.055L509 308Z" fill="#739AF0"/>
<path d="M504 83.4771L534.26 23.3644L546.02 0L548 0.817425L539.314 25.5997L525.084 66.1934L508.664 86L504 83.4771Z" fill="#83AFFC"/>
<path d="M534 23.7298L545.983 0L548 0.830208L539.149 26L534 23.7298Z" fill="#F99746"/>
<path d="M502 87.5354L505.909 84L553.715 132.781L571 150.418L569.579 152L549.824 136.454L515.336 109.318L502 87.5354Z" fill="#83AFFC"/>
<path d="M550 136.632L553.859 133L571 150.436L569.591 152L550 136.632Z" fill="#F99746"/>
<path d="M418 119.039L447.852 104.004L479.868 87.8793L505.41 85L507 90.0444L451.788 109.433L418.852 121L418 119.039Z" fill="#83AFFC"/>
<path d="M418 119.987L449.113 104L452 110.125L418.858 122L418 119.987Z" fill="#F99746"/>
<path d="M506.991 90.7444C509.335 89.9208 510.568 87.353 509.745 85.0088C508.921 82.6646 506.353 81.432 504.009 82.2556C501.665 83.0792 500.432 85.647 501.255 87.9912C502.079 90.3352 504.647 91.568 506.991 90.7444Z" fill="#2B478B"/>
<path d="M403 320.339C403 320.339 373.496 311.654 356.222 322.297C338.948 332.941 349.167 345.191 328.73 344.126C308.294 343.061 298.076 342.037 297 354H387.35L403 320.339Z" fill="#7ED260"/>
<path d="M527 217H429V354H527V217Z" fill="#F9DDBF"/>
<path d="M603 220.662V354H526V217H599.646C600.801 218.209 601.918 219.418 603 220.662Z" fill="#FFF3E9"/>
<path d="M545 171.336L537.306 187.507L533.903 194.634L533.796 194.924L533.654 195.177L533.548 195.394L533.371 195.756L533.299 195.937L529.931 202.991L529.754 203.353L529.328 204.294L523.336 216.847L521.953 219.777L520.003 223.829L518.975 226H422L428.701 217.137L428.914 216.847L472.526 159.253L472.562 159.217H476.391L535.534 159C537.626 163.088 540.923 167.212 545 171.336Z" fill="#ED9F4A"/>
<path d="M527 224.388V235.847L428.903 240V225.053H426L476.909 159L527 224.388Z" fill="#F9DDBF"/>
<path d="M477.736 192H475.675C468.675 192 463 197.689 463 204.708V237H490V204.295C490 197.505 484.509 192 477.736 192Z" fill="#EFCDAF"/>
<path d="M612 229H525.267L520.888 223.167L515.725 216.26L475.101 161.827L473.214 159.286L473 159H559.733L559.947 159.286L561.834 161.827L602.458 216.26L607.621 223.167L612 229Z" fill="#F99746"/>
<path d="M465 244L442.217 292H373L409.086 244.175L465 244Z" fill="#ED9F4A"/>
<path d="M467 244L444.217 292H375L411.086 244.175L467 244Z" fill="#F9DDBF"/>
<path d="M444 292V353.866L375 354V292H444Z" fill="#F9DDBF"/>
<path d="M503 292H444V354H503V292Z" fill="#FFF3E9"/>
<path d="M510 294H447.151L410 244L428.722 244.003L471.769 244.012L510 294Z" fill="#F99746"/>
<path d="M406 270.5C406 268.567 407.567 267 409.5 267C411.433 267 413 268.567 413 270.5C413 272.433 411.433 274 409.5 274C407.567 274 406 272.433 406 270.5Z" fill="#EFCDAF"/>
<path d="M510 294H498.113L429 244L471.9 244.009L510 294Z" fill="#E88338"/>
<path d="M541.21 217.999H589L563.79 187H516L541.21 217.999Z" fill="#2B478B"/>
<path d="M522.296 195.365H570L569.704 195H522L522.296 195.365Z" fill="#AEC3FF"/>
<path d="M552 187L577.63 218H578L552.37 187H552Z" fill="#AEC3FF"/>
<path d="M540 187L565.63 218H566L540.37 187H540Z" fill="#AEC3FF"/>
<path d="M528 187L553.63 218H554L528.37 187H528Z" fill="#AEC3FF"/>
<path d="M528.296 202.365H576L575.704 202H528L528.296 202.365Z" fill="#AEC3FF"/>
<path d="M535.296 210.365H583L582.704 210H535L535.296 210.365Z" fill="#AEC3FF"/>
<path d="M560.723 197L561 195.5L558.277 194L558 195.5L560.723 197Z" fill="#AEC3FF"/>
<path d="M547.723 197L548 195.5L545.277 194L545 195.5L547.723 197Z" fill="#AEC3FF"/>
<path d="M535.724 197L536 195.5L533.277 194L533 195.5L535.724 197Z" fill="#AEC3FF"/>
<path d="M566.723 204L567 202.5L564.277 201L564 202.5L566.723 204Z" fill="#AEC3FF"/>
<path d="M553.724 204L554 202.5L551.277 201L551 202.5L553.724 204Z" fill="#AEC3FF"/>
<path d="M541.723 204L542 202.5L539.277 201L539 202.5L541.723 204Z" fill="#AEC3FF"/>
<path d="M572.723 212L573 210.5L570.277 209L570 210.5L572.723 212Z" fill="#AEC3FF"/>
<path d="M559.723 212L560 210.5L557.277 209L557 210.5L559.723 212Z" fill="#AEC3FF"/>
<path d="M547.723 212L548 210.5L545.277 209L545 210.5L547.723 212Z" fill="#AEC3FF"/>
<path d="M451.138 284H495L471.862 256H428L451.138 284Z" fill="#2B478B"/>
<path d="M434.271 263.329H478L477.728 263H434L434.271 263.329Z" fill="#AEC3FF"/>
<path d="M462 256L485.659 284H486L462.341 256H462Z" fill="#AEC3FF"/>
<path d="M450 256L473.659 284H474L450.341 256H450Z" fill="#AEC3FF"/>
<path d="M439 256L462.659 284H463L439.341 256H439Z" fill="#AEC3FF"/>
<path d="M440.271 270.329H484L483.729 270H440L440.271 270.329Z" fill="#AEC3FF"/>
<path d="M446.271 277.329H490L489.729 277H446L446.271 277.329Z" fill="#AEC3FF"/>
<path d="M469.723 265L470 263.5L467.277 262L467 263.5L469.723 265Z" fill="#AEC3FF"/>
<path d="M458.723 265L459 263.5L456.277 262L456 263.5L458.723 265Z" fill="#AEC3FF"/>
<path d="M446.723 265L447 263.5L444.277 262L444 263.5L446.723 265Z" fill="#AEC3FF"/>
<path d="M474.723 272L475 270.5L472.277 269L472 270.5L474.723 272Z" fill="#AEC3FF"/>
<path d="M463.723 272L464 270.5L461.277 269L461 270.5L463.723 272Z" fill="#AEC3FF"/>
<path d="M451.723 272L452 270.5L449.277 269L449 270.5L451.723 272Z" fill="#AEC3FF"/>
<path d="M480.724 279L481 277.5L478.277 276L478 277.5L480.724 279Z" fill="#AEC3FF"/>
<path d="M469.724 279L470 277.5L467.277 276L467 277.5L469.724 279Z" fill="#AEC3FF"/>
<path d="M457.724 279L458 277.5L455.277 276L455 277.5L457.724 279Z" fill="#AEC3FF"/>
<path d="M196.871 353.881C196.857 353.921 196.843 353.959 196.828 354H32.6601C32.6577 353.997 32.6577 353.995 32.6577 353.993C32.6577 353.957 32.6199 353.919 32.6199 353.919C32.5326 353.714 13.6222 327.297 8 291.053C12.1092 289.459 26.6178 284.504 47.0294 285.04C47.8507 285.062 48.6816 285.093 49.5218 285.134C57.0534 285.489 65.3309 286.607 74.1418 288.903C74.451 288.984 74.7625 289.065 75.0741 289.149C75.1614 289.173 75.2487 289.196 75.3361 289.22C75.9592 289.389 76.5823 289.563 77.2101 289.745C77.9135 289.947 78.6168 290.157 79.3273 290.374C79.5798 290.453 79.8347 290.532 80.0896 290.61C81.0288 290.906 81.9729 291.216 82.9243 291.538C94.0129 295.307 100.893 299.37 105.682 303.297C105.781 303.378 105.88 303.459 105.979 303.54C108.278 305.46 110.089 307.345 111.653 309.145C112.08 309.637 112.491 310.121 112.888 310.598C113.379 311.191 113.851 311.773 114.313 312.343C115.864 314.255 117.297 316.019 118.977 317.56C123.613 321.82 130.129 324.395 146.198 323.749C149.08 323.632 151.834 323.606 154.466 323.663C189.018 324.39 202.158 339.349 196.871 353.881Z" fill="#7ED260"/>
<path d="M632 296.228C631.993 296.226 631.983 296.226 631.976 296.223C625.66 294.964 615.741 293.446 603.462 293.082C595.856 292.856 587.341 293.071 578.217 294.063C577.895 294.098 577.571 294.134 577.246 294.169C576.295 294.281 575.336 294.396 574.371 294.524C572.264 294.798 570.127 295.117 567.967 295.481C567.964 295.483 567.962 295.483 567.96 295.481C567.316 295.59 566.677 295.701 566.028 295.819C565.335 295.942 564.639 296.072 563.941 296.207C562.445 296.495 560.935 296.807 559.416 297.142C558.749 297.289 558.079 297.443 557.407 297.601C556.734 297.754 556.062 297.918 555.385 298.083C554.567 298.286 553.745 298.494 552.922 298.709H552.919C552.664 298.778 552.406 298.846 552.15 298.915H552.148C551.393 299.118 550.635 299.326 549.876 299.541C546.806 300.408 543.703 301.38 540.582 302.464C535.455 304.232 530.902 305.974 526.831 307.671C521.664 309.819 517.274 311.896 513.48 313.86C509.734 315.793 506.553 317.629 503.76 319.342C488.632 328.625 484.907 334.354 464.272 332.749C462.433 332.61 460.672 332.553 458.985 332.577C453.456 332.648 448.727 333.538 444.702 334.912C436.631 337.662 431.389 342.358 428.201 346.277C425.574 349.505 424.338 352.204 424.062 352.851C424.019 352.948 424 353 424 353H428.201H444.702H503.76H526.831H532.721H536.856H587.657H591.792H603.462H607.737C611.147 349.344 624.822 334.255 630.064 310.636C631.055 306.172 631.733 301.424 631.991 296.4L632 296.228Z" fill="#7ED260"/>
<path d="M93 197.203C93 197.203 96.9999 190.025 106.565 190.823C106.565 190.823 120.452 178.86 135.261 189.228C135.261 189.228 151.002 186.659 162.66 191.452C170.433 194.648 173 198 173 198L93 197.203Z" fill="white"/>
<path d="M240 135.202C240 135.202 243.3 128.025 251.191 128.823C251.191 128.823 262.648 116.86 274.865 127.228C274.865 127.228 287.852 124.659 297.47 129.452C303.882 132.648 306 136 306 136L240 135.202Z" fill="white"/>
<path d="M103 352L112.294 351.884L134 261L124.706 261.116L103 352Z" fill="#1D3F77"/>
<path d="M87 354H129C129 351.791 127.008 350 124.551 350H91.4495C88.9921 350 87 351.791 87 354Z" fill="#1D3F77"/>
<path d="M185 311.981L180.938 291.662L180.929 291.619L167.409 224L36 224.019L53.5911 312L78.5517 311.997H78.7865L106.721 311.992H106.806L134.618 311.989L134.809 311.988L162.56 311.984H162.812L185 311.981Z" fill="#1D3F77"/>
<path d="M187 309.982L55.5909 310L38 224.019L169.409 224L187 309.982Z" fill="#2A4E96"/>
<path d="M81 310H80.7457L63 224H63.2543L81 310Z" fill="#C0D8FB"/>
<path d="M109 310H108.746L91 224H91.2543L109 310Z" fill="#C0D8FB"/>
<path d="M137 310H136.746L119 224H119.254L137 310Z" fill="#C0D8FB"/>
<path d="M165 310H164.746L147 224H147.254L165 310Z" fill="#C0D8FB"/>
<path d="M173.634 244.236L42.0482 244.254L42 244.019L173.586 244L173.634 244.236Z" fill="#C0D8FB"/>
<path d="M178.316 267.15L46.7305 267.168L46.6826 266.933L178.268 266.914L178.316 267.15Z" fill="#C0D8FB"/>
<path d="M183 290.072L51.4144 290.09L51.3662 289.855L182.952 289.836L183 290.072Z" fill="#C0D8FB"/>
<path d="M67.7549 246.83L64.5322 244.303L66.7206 241.775L69.9433 244.302L67.7549 246.83Z" fill="#C0D8FB"/>
<path d="M72.4561 269.807L69.2334 267.28L71.4218 264.753L74.6444 267.28L72.4561 269.807Z" fill="#C0D8FB"/>
<path d="M95.8838 246.825L92.6611 244.299L94.8495 241.771L98.0722 244.298L95.8838 246.825Z" fill="#C0D8FB"/>
<path d="M100.585 269.802L97.3623 267.276L99.5507 264.748L102.773 267.275L100.585 269.802Z" fill="#C0D8FB"/>
<path d="M123.887 246.822L120.664 244.295L122.852 241.768L126.075 244.294L123.887 246.822Z" fill="#C0D8FB"/>
<path d="M151.638 246.818L148.415 244.291L150.603 241.764L153.826 244.291L151.638 246.818Z" fill="#C0D8FB"/>
<path d="M77.1084 292.547L73.8857 290.02L76.0741 287.493L79.2968 290.02L77.1084 292.547Z" fill="#C0D8FB"/>
<path d="M105.237 292.544L102.015 290.017L104.203 287.49L107.426 290.017L105.237 292.544Z" fill="#C0D8FB"/>
<path d="M133.24 292.541L130.018 290.014L132.206 287.486L135.429 290.013L133.24 292.541Z" fill="#C0D8FB"/>
<path d="M160.991 292.537L157.769 290.01L159.957 287.482L163.179 290.009L160.991 292.537Z" fill="#C0D8FB"/>
<path d="M156.339 269.795L153.116 267.268L155.305 264.74L158.527 267.267L156.339 269.795Z" fill="#C0D8FB"/>
<path d="M128.587 269.799L125.364 267.272L127.553 264.745L130.775 267.272L128.587 269.799Z" fill="#C0D8FB"/>
<path d="M237.97 352.777L244.408 352.696L259.445 290.04L253.006 290.12L237.97 352.777Z" fill="#1D3F77"/>
<path d="M227.333 354.17H256.205C256.205 352.481 254.836 351.111 253.147 351.111H230.392C228.703 351.111 227.333 352.481 227.333 354.17Z" fill="#1D3F77"/>
<path d="M294.029 325.161L291.256 311.258L291.25 311.228L282.022 264.96L192.321 264.973L204.329 325.174L221.367 325.171H221.527L240.596 325.168H240.654L259.638 325.166L259.768 325.166L278.712 325.163H278.883V325.163L294.029 325.161Z" fill="#1D3F77"/>
<path d="M295.565 323.971L205.865 323.983L193.857 264.973L283.558 264.96L295.565 323.971Z" fill="#2A4E96"/>
<path d="M223.075 323.981L222.903 323.981L210.928 265.129H211.099L223.075 323.981Z" fill="#C0D8FB"/>
<path d="M242.189 323.977H242.017L230.042 265.125H230.214L242.189 323.977Z" fill="#C0D8FB"/>
<path d="M261.304 323.975H261.133L249.157 265.123H249.329L261.304 323.975Z" fill="#C0D8FB"/>
<path d="M280.419 323.972H280.247L268.271 265.12H268.443L280.419 323.972Z" fill="#C0D8FB"/>
<path d="M286.407 278.964L196.706 278.977L196.674 278.815L286.374 278.803L286.407 278.964Z" fill="#C0D8FB"/>
<path d="M289.6 294.653L199.899 294.666L199.866 294.505L289.567 294.492L289.6 294.653Z" fill="#C0D8FB"/>
<path d="M292.792 310.342L203.091 310.354L203.059 310.193L292.759 310.181L292.792 310.342Z" fill="#C0D8FB"/>
<path d="M214.168 280.628L211.968 278.894L213.462 277.159L215.661 278.893L214.168 280.628Z" fill="#C0D8FB"/>
<path d="M217.377 296.397L215.177 294.663L216.671 292.929L218.87 294.663L217.377 296.397Z" fill="#C0D8FB"/>
<path d="M233.368 280.625L231.168 278.891L232.662 277.156L234.861 278.891L233.368 280.625Z" fill="#C0D8FB"/>
<path d="M236.577 296.394L234.377 294.661L235.871 292.926L238.071 294.66L236.577 296.394Z" fill="#C0D8FB"/>
<path d="M252.483 280.622L250.283 278.888L251.777 277.153L253.977 278.887L252.483 280.622Z" fill="#C0D8FB"/>
<path d="M271.426 280.62L269.227 278.886L270.72 277.151L272.92 278.885L271.426 280.62Z" fill="#C0D8FB"/>
<path d="M220.552 312.006L218.353 310.272L219.846 308.537L222.046 310.271L220.552 312.006Z" fill="#C0D8FB"/>
<path d="M239.753 312.003L237.553 310.269L239.047 308.534L241.246 310.268L239.753 312.003Z" fill="#C0D8FB"/>
<path d="M258.868 312L256.668 310.266L258.162 308.531L260.362 310.265L258.868 312Z" fill="#C0D8FB"/>
<path d="M277.811 311.996L275.611 310.262L277.105 308.527L279.305 310.261L277.811 311.996Z" fill="#C0D8FB"/>
<path d="M274.635 296.39L272.436 294.656L273.929 292.921L276.129 294.655L274.635 296.39Z" fill="#C0D8FB"/>
<path d="M255.692 296.392L253.492 294.657L254.986 292.923L257.186 294.657L255.692 296.392Z" fill="#C0D8FB"/>
<path d="M374.622 331.721L376.757 331.304C376.757 331.304 371.655 311.129 372.355 309.463C372.921 308.081 378.801 307.081 381.683 304.666C382.299 304.149 382.766 303.583 383.032 302.933C384.565 299.185 382.066 296.403 382.066 296.403C382.066 296.403 376.835 297.603 372.088 299.635C368.707 301.084 365.575 302.967 364.709 305.149C362.626 310.429 374.622 331.721 374.622 331.721Z" fill="#E8945B"/>
<path d="M368.814 334.83C368.847 334.62 368.988 334.431 369.194 334.318C369.702 334.039 370.741 333.638 371.519 332.599C371.957 332.015 373.765 330.288 373.765 330.288L373.776 330.283C373.822 330.271 374.059 330.275 375.206 330.744C375.798 330.985 376.414 329.873 376.414 329.873C376.414 329.873 376.603 329.948 376.778 330.134C376.917 330.281 377.048 330.498 377.068 330.802C377.097 331.23 377.54 331.925 377.869 332.387C378.069 332.667 378.227 332.862 378.227 332.862C378.227 332.862 378.351 333.103 377.343 333.486L376.136 333.798C375.718 333.846 375.393 333.82 374.966 333.879C374.318 333.969 374.087 334.272 374.043 334.339C374.037 334.348 374.035 334.353 374.035 334.353L368.91 335.678C368.739 335.548 368.765 335.139 368.814 334.83Z" fill="#415DA5"/>
<path d="M358.769 335.636C359.295 335.636 359.721 335.209 359.721 334.684C359.721 322.868 350.108 313.254 338.293 313.254C335.564 313.254 332.907 313.76 330.396 314.757C329.908 314.95 329.67 315.506 329.863 315.994C330.059 316.48 330.608 316.721 331.101 316.527C333.386 315.62 335.806 315.159 338.293 315.159C349.059 315.159 357.817 323.917 357.817 334.684C357.816 335.209 358.243 335.636 358.769 335.636Z" fill="#2C3A64"/>
<path d="M341.526 334.683C341.526 332.931 340.106 331.511 338.353 331.511C336.601 331.511 335.18 332.931 335.18 334.683C335.18 336.435 336.601 337.856 338.353 337.856C340.106 337.856 341.526 336.435 341.526 334.683Z" fill="#415DA5"/>
<path d="M343.675 319.436L338.296 334.423L338.701 334.568L344.08 319.582L343.675 319.436Z" fill="#415DA5"/>
<path d="M353.541 341.442L353.711 341.046L338.493 334.509L328.489 320.218L328.137 320.464L338.211 334.856L338.267 334.88L353.541 341.442Z" fill="#415DA5"/>
<path d="M344.387 351.208L344.795 351.072C344.687 350.749 338.803 335.265 338.553 334.607L338.4 334.204L328.92 349.197L329.283 349.427L338.304 335.162C340.459 340.833 344.305 350.962 344.387 351.208Z" fill="#415DA5"/>
<path d="M355.194 330.476L338.308 333.38L338.381 333.804L355.267 330.9L355.194 330.476Z" fill="#415DA5"/>
<path d="M332.524 318.574L332.116 318.71L337.066 333.553L337.474 333.417L332.524 318.574Z" fill="#415DA5"/>
<path d="M338.386 334.906L338.45 334.874L353.939 327.022L353.744 326.639L338.318 334.459L321.716 331.674L321.645 332.098L338.386 334.906Z" fill="#415DA5"/>
<path d="M332.103 350.67C332.195 350.4 336.17 340.619 338.395 335.15L346.992 348.673L347.355 348.442L338.311 334.215L338.154 334.601C337.894 335.238 331.804 350.208 331.695 350.534L332.103 350.67Z" fill="#415DA5"/>
<path d="M338.382 334.466L338.319 334.892L354.992 337.362L355.055 336.936L338.382 334.466Z" fill="#415DA5"/>
<path d="M348.288 321.545L339.038 332.193L339.363 332.475L348.613 321.827L348.288 321.545Z" fill="#415DA5"/>
<path d="M338.023 335.875L337.594 335.91L338.888 351.507L339.317 351.471L338.023 335.875Z" fill="#415DA5"/>
<path d="M338.984 333.675L324.247 343.894L324.492 344.247L339.229 334.029L338.984 333.675Z" fill="#415DA5"/>
<path d="M350.569 346.236L350.874 345.933L338.567 333.519V317.365H338.137V333.696L350.569 346.236Z" fill="#415DA5"/>
<path d="M353.458 323.828C353.115 323.352 352.748 322.89 352.362 322.45C350.894 320.771 349.131 319.358 347.154 318.293C346.292 317.826 345.39 317.429 344.455 317.104C342.542 316.437 340.49 316.074 338.352 316.074C337.689 316.074 337.033 316.109 336.389 316.178H336.387C332.526 316.586 329.013 318.179 326.221 320.582L326.219 320.584C322.258 324 319.744 329.052 319.744 334.682C319.744 336.387 319.979 338.077 320.433 339.704C320.841 341.167 321.43 342.58 322.19 343.906C322.211 343.949 322.237 343.989 322.261 344.031C323.871 346.796 326.179 349.116 328.937 350.736C331.103 352.01 333.511 352.826 336.001 353.141C336.004 353.141 336.004 353.141 336.006 353.141C336.009 353.141 336.009 353.141 336.011 353.141C336.783 353.241 337.569 353.29 338.353 353.29C339.16 353.29 339.958 353.238 340.739 353.139H340.744C349.882 351.96 356.96 344.135 356.96 334.682C356.96 330.634 355.663 326.884 353.458 323.828ZM353.16 340.809C353.108 340.942 353.051 341.075 352.99 341.205C352.31 342.727 351.399 344.124 350.3 345.353C350.206 345.462 350.108 345.568 350.009 345.672C349.147 346.584 348.181 347.396 347.128 348.087C347.01 348.168 346.889 348.243 346.766 348.319C345.968 348.814 345.123 349.24 344.24 349.59C344.107 349.643 343.972 349.694 343.837 349.744C342.396 350.27 340.857 350.596 339.256 350.684C339.112 350.693 338.97 350.698 338.826 350.703C338.667 350.708 338.511 350.71 338.352 350.71C336.349 350.71 334.37 350.336 332.523 349.614C332.389 349.564 332.256 349.51 332.123 349.455C331.479 349.181 330.852 348.868 330.246 348.511C330.154 348.456 330.061 348.399 329.969 348.343C329.846 348.269 329.725 348.193 329.607 348.113C327.957 347.038 326.517 345.665 325.364 344.074C325.291 343.972 325.218 343.868 325.147 343.764C325.064 343.645 324.983 343.525 324.908 343.404C324.761 343.183 324.623 342.961 324.491 342.734C323.707 341.387 323.127 339.933 322.767 338.423C322.474 337.204 322.325 335.946 322.325 334.682C322.325 333.851 322.389 333.037 322.509 332.241C322.533 332.099 322.557 331.957 322.58 331.817C323.333 327.663 325.693 324.062 328.989 321.682C329.105 321.597 329.223 321.514 329.341 321.434C330.314 320.768 331.363 320.21 332.471 319.77C332.606 319.717 332.741 319.668 332.876 319.618C334.522 319.016 336.292 318.68 338.137 318.657C338.208 318.654 338.281 318.654 338.352 318.654C338.423 318.654 338.496 318.654 338.568 318.657C340.291 318.678 341.951 318.974 343.501 319.502H343.504C343.544 319.516 343.582 319.53 343.622 319.544C343.759 319.592 343.892 319.641 344.027 319.691C344.73 319.959 345.409 320.274 346.06 320.631C346.735 321.003 347.379 321.422 347.99 321.883C348.106 321.968 348.217 322.056 348.328 322.149C348.927 322.624 349.493 323.145 350.019 323.702C350.533 324.246 351.006 324.829 351.439 325.442C351.847 326.015 352.218 326.616 352.545 327.243C352.614 327.371 352.68 327.499 352.741 327.627C353.224 328.605 353.608 329.639 353.885 330.716C353.918 330.856 353.954 330.996 353.984 331.138C354.242 332.279 354.38 333.465 354.38 334.682C354.38 335.406 354.332 336.121 354.237 336.822C354.219 336.964 354.197 337.108 354.174 337.248C353.975 338.489 353.631 339.683 353.16 340.809Z" fill="#202E51"/>
<path d="M383.384 302.758L372.449 336.963L374.293 337.552L385.228 303.347L383.384 302.758Z" fill="#739CF3"/>
<path d="M375.222 337.655L401.033 335.41L353.164 303.046L355.902 308.652L395.423 333.955L375.054 335.726L375.222 337.655Z" fill="#739CF3"/>
<path d="M371.743 336.139L373.37 335.089L353.509 303.273L351.196 305.666L371.743 336.139Z" fill="#739CF3"/>
<path d="M339.893 333.829L350.954 310.158L349.472 309.565C348.509 309.18 347.416 309.65 347.033 310.614L338.101 333.098L339.893 333.829Z" fill="#415DA5"/>
<path d="M350.955 310.158C352.556 306.005 355.227 299.48 355.185 299.544L353.573 298.471C353.495 298.589 353.443 298.667 349.245 309.559L350.955 310.158Z" fill="#415DA5"/>
<path d="M360.24 301.811C360.874 300.93 360.673 299.703 359.793 299.07C358.912 298.437 357.685 298.637 357.052 299.517C356.418 300.397 356.618 301.624 357.499 302.258C358.379 302.891 359.606 302.691 360.24 301.811Z" fill="#415DA5"/>
<path d="M352.805 296.669C353.439 295.789 353.239 294.562 352.358 293.929C351.478 293.295 350.251 293.495 349.617 294.375C348.983 295.256 349.184 296.483 350.064 297.116C350.945 297.749 352.172 297.549 352.805 296.669Z" fill="#415DA5"/>
<path d="M350.89 297.366L358.391 302.139L359.431 300.091L351.93 295.317L350.89 297.366Z" fill="#415DA5"/>
<path d="M363.235 342.211H367.431C367.924 342.211 368.327 341.808 368.327 341.315C368.327 340.822 367.924 340.419 367.431 340.419H363.235C362.742 340.419 362.339 340.822 362.339 341.315C362.339 341.808 362.742 342.211 363.235 342.211Z" fill="#415DA5"/>
<path d="M373.498 336.567L365 340.439L365.312 341.124L373.811 337.252L373.498 336.567Z" fill="#415DA5"/>
<path d="M401.401 334.683C401.401 332.931 399.981 331.511 398.228 331.511C396.475 331.511 395.055 332.931 395.055 334.683C395.055 336.435 396.475 337.856 398.228 337.856C399.981 337.856 401.401 336.435 401.401 334.683Z" fill="#415DA5"/>
<path d="M403.552 319.438L398.174 334.425L398.579 334.57L403.958 319.584L403.552 319.438Z" fill="#415DA5"/>
<path d="M413.417 341.442L413.587 341.046L398.369 334.509L388.365 320.218L388.013 320.464L398.087 334.856L398.143 334.88L413.417 341.442Z" fill="#415DA5"/>
<path d="M404.263 351.208L404.671 351.072C404.563 350.749 398.68 335.265 398.429 334.607L398.276 334.204L388.796 349.197L389.16 349.427L398.18 335.162C400.335 340.833 404.181 350.962 404.263 351.208Z" fill="#415DA5"/>
<path d="M415.068 330.474L398.182 333.378L398.255 333.802L415.141 330.898L415.068 330.474Z" fill="#415DA5"/>
<path d="M392.402 318.565L391.994 318.701L396.946 333.543L397.354 333.407L392.402 318.565Z" fill="#415DA5"/>
<path d="M398.262 334.906L398.326 334.874L413.814 327.022L413.62 326.639L398.194 334.459L381.592 331.674L381.521 332.098L398.262 334.906Z" fill="#415DA5"/>
<path d="M391.978 350.67C392.07 350.4 396.045 340.619 398.27 335.15L406.867 348.673L407.23 348.442L398.186 334.215L398.029 334.601C397.769 335.238 391.679 350.208 391.57 350.534L391.978 350.67Z" fill="#415DA5"/>
<path d="M398.255 334.481L398.191 334.906L414.862 337.385L414.926 336.959L398.255 334.481Z" fill="#415DA5"/>
<path d="M408.164 321.546L398.914 332.194L399.239 332.476L408.489 321.828L408.164 321.546Z" fill="#415DA5"/>
<path d="M397.925 335.853L397.496 335.889L398.792 351.485L399.221 351.45L397.925 335.853Z" fill="#415DA5"/>
<path d="M398.863 333.676L384.126 343.895L384.371 344.248L399.108 334.03L398.863 333.676Z" fill="#415DA5"/>
<path d="M410.444 346.236L410.749 345.933L398.442 333.519V317.365H398.012V333.696L410.444 346.236Z" fill="#415DA5"/>
<path d="M398.229 316.074C395.381 316.074 392.68 316.718 390.265 317.869C387.542 319.159 385.182 321.096 383.383 323.477C382.914 324.095 382.483 324.746 382.095 325.421C380.521 328.148 379.621 331.313 379.621 334.682C379.621 334.897 379.626 335.113 379.633 335.328C379.654 335.974 379.711 336.619 379.799 337.258C380.132 339.642 380.923 341.948 382.135 344.031C383.66 346.649 385.814 348.87 388.383 350.473C388.525 350.563 388.669 350.65 388.814 350.735C390.963 352 393.347 352.812 395.814 353.134C396.612 353.237 397.419 353.29 398.229 353.29C399.048 353.29 399.855 353.237 400.646 353.134C409.768 351.945 416.837 344.123 416.837 334.682C416.837 324.422 408.489 316.074 398.229 316.074ZM413.037 340.809C412.985 340.942 412.928 341.074 412.867 341.205C412.187 342.727 411.276 344.124 410.177 345.353C410.083 345.461 409.985 345.568 409.886 345.672C409.024 346.584 408.058 347.396 407.005 348.087C406.887 348.167 406.766 348.243 406.643 348.319C405.845 348.814 405 349.24 404.117 349.59C403.984 349.642 403.849 349.694 403.714 349.744C402.27 350.269 400.731 350.596 399.131 350.684C398.989 350.693 398.845 350.698 398.703 350.703C398.544 350.708 398.388 350.71 398.229 350.71C396.224 350.71 394.247 350.336 392.4 349.614C392.265 349.564 392.133 349.509 392 349.455C391.356 349.18 390.729 348.868 390.123 348.51C390.031 348.456 389.939 348.399 389.846 348.342C389.723 348.269 389.602 348.193 389.484 348.113C389.479 348.113 389.474 348.11 389.472 348.106C387.72 346.962 386.207 345.482 385.024 343.764C384.941 343.645 384.86 343.525 384.784 343.404C384.638 343.183 384.5 342.961 384.368 342.734C383.345 340.977 382.67 339.04 382.377 337.033C382.28 336.396 382.225 335.752 382.209 335.104C382.204 334.964 382.202 334.822 382.202 334.682C382.202 333.851 382.266 333.037 382.386 332.241C382.41 332.099 382.434 331.957 382.457 331.818C382.782 330.03 383.402 328.345 384.271 326.815C384.642 326.152 385.061 325.52 385.523 324.924C386.475 323.688 387.602 322.594 388.866 321.683C388.982 321.598 389.1 321.515 389.218 321.434C390.191 320.769 391.24 320.21 392.348 319.77C392.483 319.718 392.618 319.668 392.753 319.618C393.757 319.251 394.801 318.984 395.885 318.825H395.888C396.583 318.723 397.292 318.667 398.013 318.657C398.084 318.654 398.158 318.654 398.229 318.654C398.3 318.654 398.373 318.654 398.444 318.657C400.213 318.678 401.912 318.991 403.499 319.545C403.636 319.592 403.769 319.642 403.903 319.692C405.333 320.234 406.666 320.977 407.867 321.884C407.983 321.969 408.094 322.056 408.205 322.149C409.94 323.532 411.382 325.264 412.422 327.244C412.49 327.372 412.556 327.499 412.618 327.627C413.101 328.605 413.484 329.64 413.762 330.717C413.795 330.856 413.83 330.996 413.859 331.138C414.119 332.279 414.256 333.465 414.256 334.682C414.256 335.407 414.209 336.122 414.114 336.822C414.095 336.965 414.074 337.109 414.05 337.249C413.852 338.489 413.508 339.682 413.037 340.809Z" fill="#202E51"/>
<path d="M383.064 315.589C383.337 315.685 383.638 315.653 383.886 315.504C392.592 310.244 404.638 312.221 408.123 312.952L408.128 312.953C408.32 312.994 408.501 312.847 408.501 312.651V311.971C408.501 311.45 408.12 311.008 407.606 310.932C405.72 310.651 401.317 310.048 398.856 310.038C398.79 310.037 398.723 310.037 398.657 310.037C393.146 310.037 388.386 311.023 384.475 312.973C383.677 313.371 382.751 313.427 381.909 313.131L380.836 312.754C380.223 312.539 379.551 312.861 379.336 313.474C379.197 313.87 379.405 314.303 379.801 314.443L383.064 315.589Z" fill="#F99746"/>
<path d="M391.156 302.333C391.156 302.333 391.506 300.747 390.511 300.639C389.516 300.532 385.885 301.311 384.917 301.204C383.949 301.096 378.894 300.262 378.007 301.123C377.119 301.984 377.496 302.736 379.27 302.898C381.045 303.059 383.411 303.355 384.084 303.92C384.756 304.484 389.623 306.152 391.156 302.333Z" fill="#F99746"/>
<path d="M373.381 342.104C376.054 342.104 378.221 339.937 378.221 337.264C378.221 334.591 376.054 332.424 373.381 332.424C370.708 332.424 368.541 334.591 368.541 337.264C368.541 339.937 370.708 342.104 373.381 342.104Z" fill="#2C3A64"/>
<path d="M356.514 296.236C356.514 296.236 354.93 294.226 354.063 294.476C352.567 294.908 352.444 296.274 352.481 296.553C352.517 296.832 352.499 297.93 353.163 298.165C353.828 298.4 354.518 298.112 354.825 297.855C355.132 297.597 356.514 296.236 356.514 296.236Z" fill="#E8945B"/>
<path d="M353.825 294.614C353.825 294.614 354.045 295.863 355.561 296.279C357.076 296.679 366.452 292.734 368.684 291.635C369.884 291.035 371.616 287.704 372.949 284.788C373.265 284.072 373.565 283.389 373.832 282.772C374.498 281.223 374.931 280.107 374.931 280.107C374.931 278.575 373.239 279.173 371.707 279.873C371.24 280.089 368.799 279.057 368.15 280.307C367.85 280.89 367.452 280.824 367.152 281.473C365.969 284.089 364.887 287.037 364.653 287.737C364.236 288.986 353.825 294.614 353.825 294.614Z" fill="#E8945B"/>
<path d="M357.685 297.408C357.685 297.408 356.109 295.429 355.234 295.648C353.174 296.163 353.451 297.647 353.487 297.926C353.524 298.205 353.67 299.103 354.334 299.338C354.998 299.573 355.689 299.284 355.996 299.027C356.303 298.769 357.685 297.408 357.685 297.408Z" fill="#FFB27D"/>
<path d="M375.81 277.585L370.461 279.559C369.778 278.895 369.092 277.839 368.542 276.875C367.86 275.676 367.387 274.617 367.387 274.617L371.124 272L372.298 271.178C372.373 273.562 375.81 277.585 375.81 277.585Z" fill="#FFB27D"/>
<path d="M372.581 272.47C372.581 272.47 371.522 275.771 368.543 276.874C367.86 275.675 367.387 274.617 367.387 274.617L371.124 272L372.581 272.47Z" fill="#E8945B"/>
<path d="M365.694 274.536C365.694 274.536 372.308 275.573 372.891 271.444C373.473 267.315 374.72 264.668 370.521 263.831C366.322 262.994 365.278 264.454 364.748 265.785C364.218 267.116 363.988 274.16 365.694 274.536Z" fill="#FFB27D"/>
<path d="M374.375 263.079C374.375 263.079 374.075 263.14 373.834 263.392C373.832 263.389 373.83 263.387 373.83 263.387C373.813 262.497 372.939 261.597 372.939 261.597C373.359 262.124 373.223 263.101 373.223 263.101C371.977 260.971 365.912 262.646 365.344 262.788C364.776 262.93 364.374 262.077 364.374 262.077C363.476 262.854 363.135 264.758 363.879 266.002C364.623 267.246 367.036 269.075 367.731 268.728C368.426 268.379 368.427 269.099 368.391 270.109C368.355 271.12 370.105 272.818 371.339 273.065C372.333 273.264 372.411 272.583 372.683 272.149C372.75 272.042 372.83 271.942 372.924 271.857C374.278 270.635 375.024 268.193 374.721 265.786C374.6 264.83 374.205 264.027 373.983 263.638C374.072 263.486 374.247 263.2 374.375 263.079Z" fill="#2C3A64"/>
<path d="M372.088 299.635C372.154 299.935 372.888 302.4 374.787 303.033C376.019 303.45 379.018 304.466 381.683 304.666C382.299 304.149 382.766 303.583 383.032 302.933C384.565 299.185 382.066 296.403 382.066 296.403C382.066 296.403 376.836 297.603 372.088 299.635Z" fill="#2C3A64"/>
<path d="M387.111 290.941C387.111 290.941 392.47 297.114 387.549 304.054C382.628 310.994 374.615 316.594 374.174 319.069C373.32 323.86 368.219 333.751 365.789 338.644L363.707 337.846C363.707 337.846 367.612 314.653 369 311.877C370.388 309.101 377.58 296.105 377.58 296.105L387.111 290.941Z" fill="#FFB27D"/>
<path d="M367.09 281.161C367.606 281.327 368.856 281.794 369.189 282.36C369.539 282.926 373.204 281.344 373.637 279.862C372.588 278.713 370.788 277.73 369.739 278.063C369.123 278.246 368.123 279.562 367.09 281.161Z" fill="#5885D6"/>
<path d="M388.191 292.84C388.191 292.84 381.233 297.797 376.583 297.519C376.583 297.519 373.529 302.725 372.853 304.443C372.853 304.443 380.765 308.399 384.877 307.67C384.877 307.67 390.239 302.465 389.927 298.821C389.615 295.177 388.191 292.84 388.191 292.84Z" fill="#35488B"/>
<path d="M369.104 283.517L370.772 285.892L370.905 286.192L374.37 294.105L376.135 298.136C377.318 298.419 379.517 298.219 380.5 297.87C385.864 296.037 388.196 292.839 388.196 292.839C385.081 284.693 380.766 279.129 379.884 278.146C378.351 276.481 374.336 275.114 374.336 275.114C373.237 276.247 369.306 278.229 369.306 278.229C368.439 278.913 369.104 283.517 369.104 283.517Z" fill="#739AF0"/>
<path d="M370.904 286.192L374.369 294.105C377.001 288.791 375.336 281.078 375.336 281.078C375.336 281.078 371.104 284.743 370.954 285.026C370.938 285.076 370.904 285.509 370.904 286.192Z" fill="#5885D6"/>
<path d="M354.997 295.784C354.997 295.784 355.216 297.033 356.732 297.45C358.248 297.849 367.624 293.904 369.856 292.805C371.055 292.205 372.788 288.874 374.12 285.958C374.437 285.242 374.737 284.559 375.003 283.943C375.669 282.393 376.103 281.277 376.103 281.277C376.103 279.745 372.488 277.662 370.956 278.362C370.489 278.579 369.873 279.528 369.223 280.778C368.923 281.361 368.623 281.994 368.324 282.643C367.141 285.259 366.058 288.207 365.825 288.907C365.408 290.156 354.997 295.784 354.997 295.784Z" fill="#FFB27D"/>
<path d="M368.323 282.643C369.723 283.276 372.238 284.509 374.12 285.958C374.437 285.242 374.737 284.559 375.003 283.943C375.669 282.393 376.103 281.277 376.103 281.277C376.103 279.745 372.488 277.662 370.955 278.362C370.489 278.579 369.872 279.528 369.223 280.778C368.923 281.361 368.623 281.994 368.323 282.643Z" fill="#739AF0"/>
<path d="M366.609 340.542H365.363C364.946 340.483 364.638 340.377 364.21 340.327C363.56 340.252 363.26 340.488 363.201 340.542C363.193 340.549 363.189 340.553 363.189 340.553H357.896C357.763 340.385 357.891 339.995 358.016 339.709C358.101 339.514 358.285 339.366 358.512 339.308C359.073 339.165 360.18 339.036 361.193 338.225C361.763 337.77 363.946 336.55 363.946 336.55L363.958 336.548C364.005 336.549 364.234 336.611 365.227 337.352C365.74 337.734 366.615 336.812 366.615 336.812C366.615 336.812 366.779 336.932 366.901 337.156C367 337.332 367.072 337.575 367.015 337.874C366.936 338.296 367.191 339.08 367.394 339.61C367.518 339.931 367.622 340.158 367.622 340.158C367.622 340.158 367.681 340.423 366.609 340.542Z" fill="#739CF3"/>
<path d="M366.902 337.156C366.605 337.341 365.977 337.706 365.56 337.754C364.998 337.819 363.946 336.55 363.946 336.55L363.958 336.548C364.006 336.549 364.234 336.611 365.227 337.352C365.74 337.734 366.615 336.812 366.615 336.812C366.615 336.812 366.78 336.932 366.902 337.156Z" fill="#415DA5"/>
<path d="M366.609 340.541H365.363C364.946 340.483 364.638 340.377 364.21 340.327C363.56 340.252 363.26 340.487 363.201 340.541C363.193 340.548 363.189 340.553 363.189 340.553H357.896C357.763 340.384 357.891 339.995 358.016 339.708C358.177 339.582 358.222 340.257 358.311 340.365C358.4 340.472 362.629 340.404 362.873 340.247C363.117 340.09 363.85 339.815 364.871 340.031C365.76 340.219 367.07 339.737 367.394 339.609C367.518 339.93 367.622 340.158 367.622 340.158C367.622 340.158 367.681 340.423 366.609 340.541Z" fill="#415DA5"/>
<path d="M552.757 336.996C553.213 336.996 553.583 336.626 553.583 336.17C553.583 325.92 545.245 317.581 534.995 317.581C532.629 317.581 530.324 318.02 528.146 318.885C527.722 319.052 527.516 319.534 527.683 319.958C527.853 320.379 528.33 320.588 528.757 320.42C530.739 319.633 532.838 319.233 534.995 319.233C544.334 319.233 551.931 326.83 551.931 336.169C551.931 336.626 552.301 336.996 552.757 336.996Z" fill="#2C3A64"/>
<path d="M567.657 296.917C567.657 296.917 566.397 299.537 564.805 303.168C563.02 307.239 560.817 312.583 559.505 316.927C558.811 319.225 558.366 321.242 558.365 322.645C558.365 323.127 560.221 325.082 560.757 325.828C564.14 330.536 568.761 336.824 568.761 336.824L570.022 336.507C570.022 336.507 568.256 328.643 565.682 324.717C565.176 323.945 563.75 323.006 563.818 322.921C563.818 322.92 563.819 322.919 563.82 322.918C564.042 322.64 564.596 321.942 565.353 320.946C567.439 318.201 571.061 313.198 573.487 308.543C573.638 308.252 573.785 307.964 573.926 307.677C575.205 305.079 576.049 302.645 575.966 300.841L567.657 296.917Z" fill="#E8945B"/>
<path d="M571.14 336.811L570.272 337.36C569.953 337.498 569.685 337.55 569.362 337.7C568.871 337.927 568.78 338.245 568.766 338.314C568.764 338.323 568.763 338.327 568.763 338.327L565.076 340.66C564.899 340.587 564.794 340.223 564.739 339.942C564.7 339.752 564.755 339.554 564.884 339.409C565.203 339.048 565.911 338.459 566.212 337.373C566.382 336.763 567.295 334.841 567.295 334.841L567.302 334.834C567.336 334.813 567.525 334.761 568.587 334.908C569.135 334.983 569.284 333.87 569.284 333.87C569.284 333.87 569.458 333.892 569.655 334.015C569.812 334.11 569.983 334.27 570.093 334.531C570.248 334.898 570.816 335.403 571.222 335.731C571.468 335.929 571.654 336.063 571.654 336.063C571.654 336.063 571.828 336.245 571.14 336.811Z" fill="#B84C42"/>
<path d="M569.656 334.015C569.541 334.292 569.286 334.856 569.019 335.078C568.66 335.377 567.295 334.84 567.295 334.84L567.302 334.833C567.336 334.813 567.526 334.761 568.587 334.907C569.135 334.982 569.285 333.87 569.285 333.87C569.285 333.87 569.459 333.893 569.656 334.015Z" fill="#AA3E39"/>
<path d="M571.141 336.812L570.273 337.36C569.953 337.499 569.685 337.55 569.362 337.7C568.872 337.927 568.78 338.245 568.766 338.314C568.764 338.323 568.763 338.327 568.763 338.327L565.076 340.66C564.899 340.586 564.794 340.223 564.738 339.942C564.787 339.772 565.155 340.284 565.271 340.329C565.387 340.375 568.299 338.458 568.391 338.226C568.483 337.995 568.856 337.455 569.675 337.176C570.388 336.932 571.061 335.975 571.223 335.731C571.469 335.93 571.655 336.064 571.655 336.064C571.655 336.064 571.828 336.246 571.141 336.812Z" fill="#AA3E39"/>
<path d="M574.809 307.616L564.906 338.592L566.576 339.126L576.479 308.15L574.809 307.616Z" fill="#F99746"/>
<path d="M567.427 339.22L590.802 337.187L547.451 307.878L549.931 312.955L585.721 335.869L567.275 337.473L567.427 339.22Z" fill="#F99746"/>
<path d="M564.277 337.848L565.751 336.897L547.764 308.085L545.67 310.252L564.277 337.848Z" fill="#F99746"/>
<path d="M561.821 333.739L558.53 335.638C558.143 335.861 558.01 336.36 558.233 336.747C558.456 337.133 558.955 337.267 559.342 337.044L562.632 335.145C563.019 334.922 563.153 334.423 562.93 334.036C562.706 333.649 562.207 333.516 561.821 333.739Z" fill="#415DA5"/>
<path d="M561.168 334.965L565.317 339.555L565.7 339.222L561.551 334.633L561.168 334.965Z" fill="#415DA5"/>
<path d="M574.528 319.238C574.775 319.325 575.048 319.297 575.272 319.161C583.157 314.398 594.065 316.188 597.221 316.85L597.226 316.851C597.4 316.888 597.564 316.755 597.564 316.577V315.961C597.564 315.49 597.219 315.089 596.753 315.02C595.046 314.766 591.057 314.22 588.829 314.21C588.769 314.21 588.709 314.21 588.649 314.21C583.658 314.21 579.348 315.103 575.806 316.868C575.083 317.229 574.244 317.28 573.482 317.012L572.511 316.67C571.955 316.475 571.347 316.767 571.152 317.322C571.026 317.681 571.215 318.074 571.573 318.2L574.528 319.238Z" fill="#35488B"/>
<path d="M581.856 307.233C581.856 307.233 582.173 305.796 581.271 305.699C580.37 305.601 577.083 306.308 576.206 306.21C575.329 306.113 570.751 305.358 569.947 306.137C569.144 306.916 569.485 307.598 571.092 307.744C572.699 307.89 574.842 308.158 575.451 308.67C576.06 309.181 580.468 310.691 581.856 307.233Z" fill="#415DA5"/>
<path d="M568.853 341.967C570.565 340.255 570.565 337.479 568.853 335.768C567.141 334.056 564.366 334.056 562.654 335.768C560.942 337.479 560.942 340.255 562.654 341.967C564.366 343.679 567.142 343.679 568.853 341.967Z" fill="#415DA5"/>
<path d="M594.135 322.766L589.264 336.338L589.63 336.47L594.501 322.898L594.135 322.766Z" fill="#415DA5"/>
<path d="M603.057 342.682L603.211 342.324L589.43 336.403L580.37 323.461L580.051 323.685L589.174 336.718L589.225 336.74L603.057 342.682Z" fill="#415DA5"/>
<path d="M594.767 351.527L595.136 351.404C595.039 351.111 589.711 337.089 589.484 336.492L589.345 336.128L580.76 349.705L581.089 349.913L589.258 336.995C591.21 342.131 594.693 351.304 594.767 351.527Z" fill="#415DA5"/>
<path d="M604.546 332.746L589.254 335.376L589.32 335.76L604.612 333.13L604.546 332.746Z" fill="#415DA5"/>
<path d="M584.032 322.01L583.662 322.133L588.143 335.576L588.512 335.452L584.032 322.01Z" fill="#415DA5"/>
<path d="M589.333 336.764L589.391 336.735L603.417 329.624L603.241 329.276L589.272 336.358L574.236 333.836L574.172 334.22L589.333 336.764Z" fill="#415DA5"/>
<path d="M583.643 351.039C583.726 350.795 587.325 341.937 589.341 336.984L597.126 349.231L597.455 349.022L589.265 336.138L589.122 336.487C588.888 337.065 583.372 350.621 583.273 350.916L583.643 351.039Z" fill="#415DA5"/>
<path d="M589.358 336.392L589.301 336.777L604.398 339.024L604.455 338.639L589.358 336.392Z" fill="#415DA5"/>
<path d="M598.299 324.674L589.922 334.316L590.216 334.572L598.593 324.929L598.299 324.674Z" fill="#415DA5"/>
<path d="M589 337.638L588.611 337.67L589.779 351.794L590.168 351.762L589 337.638Z" fill="#415DA5"/>
<path d="M589.885 335.658L576.539 344.911L576.761 345.231L590.107 335.978L589.885 335.658Z" fill="#415DA5"/>
<path d="M600.366 347.023L600.642 346.749L589.497 335.507V320.878H589.107V335.667L600.366 347.023Z" fill="#415DA5"/>
<path d="M589.304 339.434C590.891 339.434 592.178 338.147 592.178 336.561C592.178 334.974 590.891 333.688 589.304 333.688C587.716 333.688 586.43 334.974 586.43 336.561C586.43 338.147 587.716 339.434 589.304 339.434Z" fill="#2C3A64"/>
<path d="M603.053 326.833C599.999 322.526 594.973 319.709 589.301 319.709C583.616 319.709 578.581 322.538 575.527 326.861C575.127 327.429 574.76 328.021 574.431 328.639V328.642C573.166 331.004 572.449 333.698 572.449 336.561C572.449 336.714 572.452 336.871 572.456 337.025C572.471 337.609 572.518 338.192 572.596 338.772C572.885 340.976 573.609 343.104 574.729 345.029C576.187 347.534 578.278 349.631 580.775 351.099C582.759 352.266 584.963 353.007 587.243 353.284C587.262 353.289 587.281 353.291 587.302 353.291C587.963 353.372 588.63 353.412 589.3 353.412C589.982 353.412 590.657 353.372 591.317 353.291C591.339 353.289 591.36 353.286 591.379 353.284C596.189 352.69 600.378 350.062 603.053 346.288C605.006 343.54 606.154 340.183 606.154 336.561C606.154 332.938 605.006 329.581 603.053 326.833ZM603.628 338.883C603.501 339.681 603.306 340.455 603.053 341.205C602.951 341.511 602.838 341.814 602.712 342.11C602.663 342.23 602.613 342.349 602.558 342.467C601.943 343.845 601.117 345.112 600.12 346.222C600.035 346.319 599.947 346.416 599.857 346.511C599.078 347.339 598.202 348.073 597.248 348.698C597.142 348.772 597.033 348.84 596.921 348.909C596.197 349.357 595.432 349.743 594.632 350.062C594.511 350.109 594.388 350.154 594.268 350.199C592.961 350.678 591.569 350.971 590.12 351.052C589.989 351.059 589.859 351.066 589.729 351.068C589.587 351.073 589.445 351.075 589.301 351.075C587.487 351.075 585.697 350.737 584.024 350.083C583.903 350.036 583.782 349.989 583.662 349.937C583.077 349.69 582.509 349.406 581.959 349.084C581.874 349.034 581.791 348.985 581.708 348.93C581.597 348.864 581.488 348.796 581.379 348.722C579.791 347.688 578.417 346.345 577.345 344.785V344.782C577.267 344.676 577.196 344.57 577.127 344.461C576.994 344.262 576.869 344.058 576.748 343.852C575.801 342.228 575.186 340.431 574.928 338.568C574.847 337.991 574.8 337.408 574.793 336.821C574.788 336.733 574.788 336.648 574.788 336.561C574.788 335.81 574.845 335.074 574.956 334.354C574.975 334.224 574.997 334.096 575.02 333.968C575.281 332.531 575.754 331.165 576.408 329.906C576.72 329.302 577.073 328.722 577.466 328.17C578.391 326.868 579.525 325.725 580.823 324.787C580.93 324.712 581.036 324.638 581.143 324.565C582.023 323.964 582.972 323.457 583.979 323.059C584.097 323.012 584.218 322.965 584.341 322.92C585.83 322.378 587.435 322.072 589.107 322.051C589.171 322.048 589.237 322.048 589.301 322.048C589.367 322.048 589.431 322.048 589.497 322.051C591.097 322.072 592.636 322.354 594.073 322.853C594.197 322.896 594.319 322.941 594.44 322.988C595.735 323.478 596.94 324.151 598.029 324.972C598.133 325.05 598.235 325.131 598.337 325.211C599.909 326.466 601.213 328.036 602.156 329.826C602.217 329.941 602.277 330.057 602.333 330.174C602.61 330.737 602.852 331.319 603.053 331.918C603.171 332.264 603.275 332.614 603.365 332.972C603.398 333.097 603.43 333.223 603.458 333.351C603.692 334.383 603.815 335.458 603.815 336.561C603.815 337.217 603.773 337.863 603.685 338.498C603.669 338.627 603.65 338.755 603.628 338.883Z" fill="#202E51"/>
<path d="M603.637 333.319C603.608 333.191 603.575 333.066 603.542 332.94C603.407 332.414 603.244 331.901 603.052 331.399C602.884 330.954 602.695 330.52 602.484 330.097C602.427 329.978 602.368 329.862 602.307 329.749C601.35 327.94 600.031 326.351 598.448 325.082C598.346 324.999 598.244 324.919 598.14 324.841C595.728 323.006 592.737 321.891 589.496 321.822C589.387 321.817 589.281 321.817 589.172 321.817H589.106C587.406 321.824 585.772 322.12 584.253 322.655C584.129 322.698 584.009 322.743 583.888 322.79C582.851 323.186 581.871 323.695 580.959 324.303C580.851 324.374 580.744 324.448 580.638 324.523C579.295 325.468 578.116 326.63 577.153 327.959C576.753 328.508 576.39 329.086 576.071 329.689C575.375 330.987 574.868 332.402 574.589 333.894C574.563 334.022 574.539 334.152 574.52 334.28C574.392 335.054 574.328 335.85 574.328 336.659C574.328 336.725 574.328 336.794 574.33 336.861C574.338 337.452 574.38 338.037 574.456 338.61C574.75 340.847 575.545 342.928 576.724 344.74C576.795 344.848 576.866 344.955 576.942 345.061C578.052 346.676 579.475 348.058 581.123 349.126C581.232 349.197 581.343 349.266 581.454 349.332C582.1 349.73 582.777 350.076 583.485 350.372C583.606 350.421 583.727 350.469 583.85 350.516C585.502 351.153 587.297 351.503 589.172 351.503C589.37 351.503 589.567 351.498 589.763 351.491C589.894 351.487 590.024 351.479 590.154 351.47C591.639 351.373 593.064 351.056 594.399 350.551C594.522 350.506 594.643 350.459 594.763 350.409C595.583 350.076 596.366 349.671 597.105 349.2C597.214 349.131 597.323 349.06 597.432 348.987C598.398 348.338 599.285 347.578 600.069 346.726C600.159 346.631 600.247 346.534 600.332 346.437C601.34 345.288 602.171 343.984 602.787 342.566C602.841 342.447 602.891 342.329 602.938 342.208C602.979 342.114 603.017 342.017 603.052 341.92C603.416 340.961 603.684 339.957 603.845 338.915C603.864 338.787 603.883 338.657 603.899 338.529C603.975 337.916 604.015 337.291 604.015 336.659C604.015 335.511 603.885 334.391 603.637 333.319ZM603.253 338.828C603.199 339.181 603.13 339.529 603.052 339.872C602.884 340.594 602.661 341.297 602.389 341.972C602.339 342.093 602.29 342.211 602.237 342.329C601.653 343.676 600.862 344.917 599.91 346.011C599.825 346.108 599.737 346.205 599.647 346.302C598.892 347.123 598.04 347.857 597.11 348.482C597.001 348.556 596.892 348.627 596.783 348.695C596.08 349.143 595.334 349.529 594.553 349.848C594.432 349.898 594.311 349.945 594.188 349.99C592.905 350.476 591.534 350.781 590.104 350.871C589.977 350.883 589.844 350.89 589.714 350.892C589.534 350.902 589.354 350.904 589.172 350.904C587.375 350.904 585.656 350.571 584.072 349.96C583.951 349.915 583.831 349.865 583.71 349.815C583.035 349.536 582.389 349.205 581.771 348.828C581.66 348.76 581.551 348.691 581.442 348.62C579.863 347.597 578.499 346.269 577.434 344.721C577.358 344.614 577.287 344.505 577.216 344.396C576.097 342.67 575.339 340.689 575.052 338.558C574.977 337.985 574.934 337.401 574.929 336.809C574.927 336.759 574.927 336.709 574.927 336.66C574.927 335.883 574.988 335.123 575.109 334.379C575.13 334.249 575.152 334.121 575.178 333.994C575.445 332.583 575.921 331.245 576.574 330.014C576.892 329.415 577.251 328.84 577.649 328.295C578.57 327.028 579.697 325.918 580.98 325.014C581.087 324.938 581.193 324.865 581.302 324.794C582.166 324.218 583.094 323.735 584.077 323.359C584.197 323.311 584.318 323.266 584.441 323.224H584.444C585.904 322.708 587.472 322.424 589.105 322.417H589.171C589.28 322.417 589.389 322.419 589.496 322.422C591.049 322.455 592.54 322.741 593.934 323.236C594.058 323.279 594.178 323.324 594.299 323.373C595.542 323.851 596.7 324.503 597.746 325.296C597.85 325.371 597.952 325.452 598.054 325.535C599.581 326.754 600.85 328.281 601.771 330.018C601.832 330.134 601.892 330.25 601.948 330.367C602.367 331.214 602.706 332.109 602.95 333.042C602.983 333.167 603.016 333.293 603.044 333.421C603.047 333.428 603.049 333.437 603.051 333.447C603.29 334.479 603.416 335.554 603.416 336.659C603.416 337.263 603.378 337.859 603.304 338.442C603.289 338.572 603.272 338.7 603.253 338.828Z" fill="#B84C42"/>
<path d="M539.168 322.755L534.297 336.327L534.664 336.459L539.535 322.887L539.168 322.755Z" fill="#415DA5"/>
<path d="M548.1 342.682L548.254 342.324L534.473 336.403L525.413 323.461L525.094 323.685L534.217 336.718L534.268 336.74L548.1 342.682Z" fill="#415DA5"/>
<path d="M539.81 351.527L540.179 351.404C540.082 351.111 534.753 337.089 534.527 336.492L534.388 336.128L525.803 349.705L526.132 349.913L534.301 336.995C536.253 342.131 539.735 351.304 539.81 351.527Z" fill="#415DA5"/>
<path d="M549.592 332.745L534.299 335.375L534.365 335.759L549.658 333.129L549.592 332.745Z" fill="#415DA5"/>
<path d="M529.075 322.009L528.705 322.132L533.186 335.575L533.555 335.452L529.075 322.009Z" fill="#415DA5"/>
<path d="M534.377 336.764L534.434 336.735L548.46 329.624L548.284 329.276L534.314 336.358L519.279 333.836L519.215 334.22L534.377 336.764Z" fill="#415DA5"/>
<path d="M528.686 351.039C528.769 350.795 532.369 341.937 534.384 336.984L542.169 349.231L542.498 349.022L534.308 336.138L534.165 336.487C533.931 337.065 528.415 350.621 528.316 350.916L528.686 351.039Z" fill="#415DA5"/>
<path d="M534.397 336.392L534.34 336.777L549.437 339.024L549.495 338.639L534.397 336.392Z" fill="#415DA5"/>
<path d="M543.342 324.673L534.965 334.315L535.259 334.571L543.636 324.928L543.342 324.673Z" fill="#415DA5"/>
<path d="M534.066 337.607L533.678 337.639L534.847 351.763L535.235 351.731L534.066 337.607Z" fill="#415DA5"/>
<path d="M534.926 335.651L521.58 344.904L521.802 345.225L535.148 335.971L534.926 335.651Z" fill="#415DA5"/>
<path d="M545.409 347.023L545.685 346.749L534.54 335.507V320.878H534.15V335.667L545.409 347.023Z" fill="#415DA5"/>
<path d="M534.347 339.434C535.934 339.434 537.221 338.147 537.221 336.561C537.221 334.974 535.934 333.688 534.347 333.688C532.759 333.688 531.473 334.974 531.473 336.561C531.473 338.147 532.759 339.434 534.347 339.434Z" fill="#2C3A64"/>
<path d="M543.154 322.2C542.716 321.927 542.262 321.676 541.798 321.449C541.09 321.096 540.351 320.793 539.589 320.545C537.939 320.003 536.178 319.709 534.347 319.709C531.833 319.709 529.447 320.263 527.302 321.255C526.997 321.395 526.694 321.546 526.398 321.705C521.104 324.55 517.496 330.142 517.496 336.56C517.496 339.541 518.282 342.467 519.774 345.029C521.232 347.533 523.322 349.631 525.82 351.099C526.009 351.21 526.203 351.319 526.397 351.421C528.227 352.403 530.228 353.033 532.29 353.284C532.309 353.289 532.328 353.291 532.349 353.291C533.01 353.372 533.677 353.412 534.347 353.412C535.029 353.412 535.704 353.372 536.364 353.291C536.386 353.288 536.407 353.286 536.426 353.284C544.74 352.256 551.199 345.149 551.199 336.56C551.199 330.495 547.977 325.166 543.154 322.2ZM548.673 338.883C548.493 340.007 548.18 341.089 547.754 342.11C547.707 342.23 547.655 342.349 547.6 342.467C546.985 343.845 546.161 345.112 545.164 346.222C545.079 346.319 544.992 346.416 544.902 346.511C544.123 347.339 543.247 348.076 542.293 348.698C542.184 348.772 542.077 348.84 541.966 348.909C541.244 349.357 540.477 349.743 539.677 350.062C539.558 350.109 539.437 350.154 539.315 350.199C538.01 350.678 536.616 350.971 535.167 351.052C535.036 351.059 534.906 351.066 534.776 351.068C534.634 351.073 534.492 351.075 534.347 351.075C532.532 351.075 530.74 350.737 529.068 350.083C528.947 350.036 528.827 349.989 528.708 349.937C528.123 349.69 527.555 349.406 527.006 349.084C526.921 349.034 526.838 348.985 526.755 348.93C526.644 348.864 526.535 348.796 526.426 348.722C526.416 348.717 526.407 348.713 526.397 348.703C524.818 347.671 523.455 346.336 522.389 344.785C522.311 344.678 522.238 344.57 522.172 344.461C522.037 344.262 521.914 344.058 521.793 343.852C520.51 341.648 519.833 339.127 519.833 336.561C519.833 335.81 519.889 335.074 520.001 334.354C520.02 334.224 520.041 334.096 520.065 333.968C520.747 330.206 522.882 326.944 525.867 324.787C525.974 324.712 526.078 324.638 526.187 324.565C526.256 324.518 526.327 324.47 526.398 324.425C527.219 323.883 528.098 323.426 529.023 323.059C529.144 323.012 529.267 322.964 529.388 322.919C530.877 322.377 532.482 322.072 534.151 322.051C534.217 322.048 534.281 322.048 534.347 322.048C534.412 322.048 534.478 322.048 534.542 322.051C535.997 322.069 537.401 322.304 538.725 322.723C538.858 322.763 538.988 322.808 539.118 322.853C539.241 322.896 539.364 322.941 539.485 322.988C539.951 323.163 540.406 323.365 540.846 323.585C541.632 323.982 542.378 324.447 543.074 324.972C543.178 325.05 543.28 325.131 543.382 325.211C544.954 326.466 546.258 328.036 547.2 329.825C547.262 329.941 547.321 330.057 547.375 330.175C547.813 331.061 548.161 331.996 548.41 332.972C548.443 333.097 548.474 333.223 548.502 333.35C548.737 334.383 548.86 335.457 548.86 336.561C548.86 337.217 548.815 337.863 548.73 338.497C548.713 338.627 548.694 338.755 548.673 338.883Z" fill="#1D2A4C"/>
<path d="M548.682 333.319C548.653 333.191 548.62 333.066 548.587 332.94C548.331 331.948 547.976 330.997 547.529 330.097C547.472 329.978 547.413 329.863 547.351 329.749C546.395 327.94 545.076 326.352 543.492 325.083C543.39 325 543.289 324.919 543.184 324.841C542.477 324.301 541.719 323.825 540.919 323.418C540.239 323.072 539.532 322.779 538.798 322.54H538.795C538.243 322.36 537.68 322.213 537.102 322.102C536.271 321.934 535.415 321.839 534.541 321.822C534.432 321.817 534.326 321.817 534.217 321.817H534.15C533.753 321.82 533.357 321.836 532.967 321.869C531.693 321.976 530.462 322.244 529.3 322.655C529.177 322.698 529.053 322.743 528.933 322.79C528.043 323.129 527.195 323.55 526.397 324.05C526.265 324.13 526.135 324.215 526.004 324.303C525.896 324.374 525.789 324.447 525.682 324.523C522.588 326.704 520.36 330.037 519.634 333.893C519.608 334.021 519.584 334.152 519.565 334.279C519.437 335.054 519.373 335.849 519.373 336.659C519.373 339.637 520.254 342.412 521.769 344.739C521.84 344.848 521.913 344.957 521.987 345.063C523.099 346.678 524.522 348.06 526.17 349.126C526.246 349.175 526.322 349.225 526.397 349.27C526.431 349.294 526.466 349.315 526.499 349.334C527.145 349.729 527.825 350.077 528.533 350.371C528.651 350.421 528.772 350.468 528.893 350.515C530.545 351.152 532.342 351.502 534.217 351.502C534.416 351.502 534.615 351.498 534.811 351.491C534.942 351.486 535.072 351.479 535.202 351.469C536.686 351.372 538.111 351.055 539.444 350.551C539.568 350.506 539.688 350.458 539.809 350.409C540.628 350.075 541.412 349.67 542.15 349.199C542.259 349.13 542.368 349.059 542.477 348.986C543.443 348.337 544.331 347.577 545.114 346.725C545.204 346.63 545.292 346.533 545.377 346.436C546.386 345.288 547.217 343.983 547.834 342.565C547.887 342.447 547.936 342.328 547.984 342.208C548.407 341.164 548.715 340.06 548.891 338.915C548.909 338.787 548.928 338.656 548.945 338.529C549.02 337.915 549.061 337.291 549.061 336.659C549.06 335.511 548.93 334.392 548.682 333.319ZM548.298 338.828C548.127 339.922 547.837 340.975 547.434 341.972C547.384 342.093 547.335 342.211 547.282 342.33C546.698 343.677 545.907 344.917 544.955 346.011C544.87 346.108 544.783 346.205 544.693 346.302C543.938 347.124 543.085 347.858 542.155 348.483C542.046 348.556 541.937 348.627 541.828 348.696C541.125 349.143 540.379 349.529 539.598 349.849C539.477 349.898 539.356 349.945 539.233 349.991C537.95 350.476 536.579 350.781 535.152 350.871C535.024 350.883 534.891 350.89 534.761 350.893C534.581 350.902 534.399 350.905 534.217 350.905C532.42 350.905 530.701 350.571 529.117 349.96C528.997 349.915 528.876 349.865 528.755 349.816C528.083 349.536 527.434 349.205 526.819 348.828C526.707 348.76 526.598 348.691 526.489 348.62C526.459 348.601 526.428 348.582 526.397 348.559C524.856 347.545 523.525 346.238 522.479 344.721C522.405 344.614 522.332 344.505 522.263 344.397C520.815 342.166 519.972 339.51 519.972 336.66C519.972 335.883 520.033 335.123 520.154 334.38C520.175 334.25 520.197 334.122 520.223 333.994C520.926 330.299 523.061 327.105 526.028 325.017C526.134 324.938 526.241 324.865 526.347 324.794C526.364 324.782 526.381 324.773 526.397 324.763C527.247 324.2 528.159 323.729 529.122 323.359C529.243 323.312 529.366 323.267 529.489 323.225C530.95 322.708 532.517 322.424 534.15 322.417H534.217C534.326 322.417 534.435 322.42 534.541 322.422C535.945 322.453 537.299 322.687 538.575 323.101C538.712 323.144 538.845 323.189 538.98 323.236C539.103 323.279 539.224 323.324 539.345 323.374C539.799 323.549 540.244 323.748 540.675 323.968C541.421 324.349 542.129 324.792 542.791 325.296C542.895 325.372 542.997 325.452 543.099 325.535C544.626 326.754 545.895 328.281 546.816 330.019C546.878 330.135 546.937 330.251 546.994 330.367C547.413 331.215 547.751 332.109 547.995 333.042C548.028 333.168 548.061 333.293 548.09 333.421C548.333 334.461 548.461 335.545 548.461 336.66C548.461 337.264 548.423 337.86 548.35 338.442C548.333 338.572 548.317 338.7 548.298 338.828Z" fill="#B84C42"/>
<path d="M577.971 296.968C577.971 296.968 581.535 302.618 577.131 305.726C572.726 308.834 557.897 310.32 558.624 310.922C560.849 312.766 562.869 315.602 562.762 332.581L561.664 333.148C561.664 333.148 551.089 310.143 551.798 307.402C552.267 305.587 567.691 295.765 577.971 296.968Z" fill="#FFB27D"/>
<path d="M569.421 308.726C569.421 308.726 578.406 307.238 579.333 304.066C580.026 301.696 580.231 300.73 576.159 293.073C576.159 293.073 574.457 296.306 565.576 295.557C565.576 295.557 565.621 295.977 565.621 296.544C565.61 297.486 565.462 298.824 564.725 299.21C564.714 299.221 564.691 299.221 564.68 299.233C563.511 299.766 561.702 300.841 561.43 300.943C561.418 300.943 566.88 301.989 569.421 308.726Z" fill="#35488B"/>
<path d="M564.725 299.21C568.683 298.041 572.55 298.165 574.83 296.036C571.472 295.174 567.436 296.544 565.621 296.544C565.609 297.486 565.462 298.824 564.725 299.21Z" fill="#2C3A64"/>
<path d="M564.252 333.406L563.326 333.85C562.992 333.951 562.72 333.971 562.382 334.082C561.868 334.251 561.741 334.556 561.719 334.622C561.715 334.631 561.714 334.636 561.714 334.636L557.781 336.524C557.614 336.431 557.552 336.058 557.529 335.772C557.513 335.579 557.591 335.389 557.736 335.259C558.095 334.938 558.866 334.436 559.291 333.392C559.531 332.806 560.661 331.002 560.661 331.002L560.668 330.996C560.704 330.98 560.899 330.951 561.936 331.219C562.472 331.357 562.75 330.27 562.75 330.27C562.75 330.27 562.92 330.312 563.102 330.456C563.246 330.569 563.398 330.747 563.476 331.019C563.588 331.402 564.094 331.97 564.458 332.342C564.68 332.568 564.849 332.722 564.849 332.722C564.849 332.722 565 332.923 564.252 333.406Z" fill="#B84C42"/>
<path d="M563.101 330.456C562.955 330.718 562.635 331.249 562.345 331.438C561.954 331.693 560.66 331.002 560.66 331.002L560.667 330.996C560.703 330.98 560.898 330.951 561.935 331.219C562.471 331.357 562.749 330.27 562.749 330.27C562.749 330.27 562.919 330.312 563.101 330.456Z" fill="#AA3E39"/>
<path d="M564.252 333.405L563.326 333.85C562.992 333.95 562.72 333.97 562.382 334.082C561.868 334.25 561.741 334.555 561.719 334.622C561.715 334.63 561.714 334.635 561.714 334.635L557.781 336.524C557.614 336.43 557.552 336.057 557.529 335.772C557.598 335.608 557.904 336.16 558.013 336.218C558.123 336.277 561.238 334.71 561.356 334.491C561.474 334.272 561.908 333.78 562.754 333.597C563.49 333.437 564.269 332.565 564.459 332.342C564.68 332.568 564.849 332.722 564.849 332.722C564.849 332.722 565 332.923 564.252 333.405Z" fill="#AA3E39"/>
<path d="M541.9 314.732C542.151 314.102 542.737 313.71 543.372 313.67C550.647 296.957 550.725 296.826 550.834 296.646L551.887 298.731C551.942 298.639 535.434 335.756 535.434 335.756L533.811 335.094L541.9 314.732Z" fill="#35488B"/>
<path d="M559.248 299.134C559.593 297.972 558.931 296.75 557.769 296.405C556.607 296.06 555.384 296.722 555.039 297.884C554.693 299.046 555.356 300.268 556.518 300.613C557.68 300.958 558.902 300.296 559.248 299.134Z" fill="#415DA5"/>
<path d="M545.656 295.292C546.002 294.13 545.339 292.909 544.177 292.563C543.015 292.218 541.792 292.88 541.447 294.042C541.102 295.204 541.764 296.426 542.926 296.771C544.088 297.116 545.311 296.454 545.656 295.292Z" fill="#415DA5"/>
<path d="M544.012 296.768L556.794 299.976L557.016 297.394L544.234 294.187L544.012 296.768Z" fill="#415DA5"/>
<path d="M556.505 294.221C556.505 294.221 555.301 295.009 554.45 294.973C553.599 294.938 552.518 295.292 552.518 295.292C552.518 295.292 551.384 295.629 551.277 296.976C551.277 296.976 551.282 297.367 553.068 296.816C553.458 296.696 554.397 296.923 554.716 296.816C555.035 296.71 556.005 295.663 556.849 295.69L556.505 294.221Z" fill="#FFB27D"/>
<path d="M550.067 292.696C550.067 292.696 548.863 293.484 548.013 293.449C547.162 293.413 546.081 293.768 546.081 293.768C546.081 293.768 544.946 294.105 544.84 295.451C544.84 295.451 544.864 296.005 546.63 295.292C547.115 295.096 547.96 295.398 548.279 295.292C548.598 295.185 549.767 294.288 550.577 294.066L550.067 292.696Z" fill="#E8945B"/>
<path d="M565.231 260.38C566.987 260.697 567.802 261.647 568.916 264.353C570.079 267.177 568.671 269.777 567.55 269.438C566.832 269.221 566.58 270.452 566.58 270.452L559.742 264.479C559.743 264.479 560.74 260.092 565.231 260.38Z" fill="#2C3A64"/>
<path d="M561.226 276.667C561.226 276.667 563.608 278.008 563.327 281.402C563.047 284.797 559.932 290.148 557.564 291.476C555.688 292.528 550.261 294.17 550.261 294.17L550.066 292.697C550.066 292.697 554.481 289.814 555.437 288.829C557.486 286.717 559.437 275.846 561.226 276.667Z" fill="#E8945B"/>
<path d="M561.463 284.301C561.571 285.066 561.773 285.725 562.022 286.351C562.229 286.875 562.469 287.375 562.716 287.896C563.44 289.427 565.144 290.181 565.202 293.124C565.221 294.138 573.786 289.855 573.835 286.311C573.835 286.301 573.837 286.293 573.838 286.283C573.853 286.111 573.877 285.651 573.903 285.043C573.967 283.555 574.051 281.182 574.081 279.981C574.083 279.953 574.083 279.925 574.083 279.899C574.096 279.384 574.112 279.012 574.131 278.914C572.985 274.036 570.348 274.016 569.447 274.031C569.328 274.033 569.207 274.037 569.087 274.042C568.592 274.065 568.124 273.83 567.839 273.424C567.335 272.708 566.769 271.476 566.423 269.793L566.218 269.88L562.761 271.35C562.761 271.35 563.08 272.468 563.307 273.536C563.404 273.994 563.483 274.441 563.513 274.789C563.542 275.124 563.348 275.437 563.035 275.557C563.035 275.557 563.035 275.558 563.034 275.561C562.973 275.698 560.911 280.422 561.463 284.301Z" fill="#FFB27D"/>
<path d="M562.021 286.351C562.229 286.875 562.469 287.375 562.716 287.896C563.439 289.427 565.144 290.181 565.201 293.124C565.253 293.129 565.306 293.134 565.36 293.139C571.683 293.633 573.838 286.283 573.838 286.283C573.853 286.111 573.876 285.651 573.902 285.043L562.492 285.062C562.492 285.062 562.257 285.578 562.021 286.351Z" fill="#E8945B"/>
<path d="M560.417 282.868C560.448 282.962 560.484 283.057 560.523 283.151C561.619 285.764 564.042 299.21 564.042 299.21C564.071 299.193 573.936 299.856 577.846 294.462C578.037 295.032 577.112 291.744 575.671 287.326C574.589 284.011 574.038 281.673 574.081 279.981C574.082 279.953 574.082 279.925 574.083 279.899C573.831 279.697 573.586 279.511 573.36 279.332C572.634 278.76 572.093 278.274 572.081 277.677C572.076 277.442 572.092 277.201 572.125 276.96C572.141 276.847 572.16 276.734 572.181 276.621C572.41 275.433 572.948 274.369 572.948 274.369C571.705 273.81 569.447 274.03 569.447 274.03C569.447 274.03 568.6 275.925 566.797 277.054C566.292 277.37 564.489 278.162 563.601 277.338C563.014 276.793 562.997 275.677 563.034 275.56C563.035 275.557 563.035 275.556 563.035 275.556C560.99 276.272 560.244 276.909 560.244 276.909C561.429 277.743 559.57 280.342 560.417 282.868Z" fill="#739AF0"/>
<path d="M562.762 271.35C562.762 271.35 563.082 272.468 563.308 273.536C565.315 273.057 565.996 270.993 566.22 269.881L562.762 271.35Z" fill="#E8945B"/>
<path d="M562.298 272.504C562.298 272.504 567.089 271.582 566.47 268.607C565.85 265.632 566.051 263.509 562.965 263.972C559.88 264.434 559.524 265.693 559.489 266.736C559.454 267.78 561.035 272.667 562.298 272.504Z" fill="#FFB27D"/>
<path d="M559.285 265.053C559.836 264.004 560.435 264.083 560.804 264.287C563.114 262.305 565.24 264.075 565.24 264.075C566.006 266.142 567.801 267.042 567.801 267.042C567.801 267.042 567.044 267.762 564.929 267.667C564.283 267.638 563.644 267.317 563.069 266.885C564.166 268.076 565.477 268.826 565.477 268.826C562.848 268.22 561.187 265.088 561.017 264.755C560.781 265.078 560.325 265.767 560.267 266.361C560.187 267.169 560.407 268.75 559.941 268.793C559.941 268.793 558.46 266.627 559.285 265.053Z" fill="#2C3A64"/>
<path d="M556.504 294.22L556.848 295.69C556.848 295.69 564.888 294.592 567.516 293.063C570.144 291.533 574.123 282.541 574.437 278.74C574.454 278.538 574.465 278.345 574.469 278.162C574.564 274.88 572.948 274.369 572.948 274.369C572.301 274.072 571.496 275.182 570.645 276.915C568.858 280.551 566.861 286.933 565.675 288.823C564.764 290.274 556.504 294.22 556.504 294.22Z" fill="#FFB27D"/>
<path d="M570.646 276.915C572.851 276.395 574.471 278.162 574.471 278.162C574.566 274.88 572.95 274.369 572.95 274.369C572.302 274.072 571.498 275.182 570.646 276.915Z" fill="#739AF0"/>
<path d="M560.245 276.909C560.245 276.909 559.438 277.657 559.129 279.359C559.129 279.359 560.321 279.367 560.877 280.53C560.877 280.53 561.317 277.095 560.245 276.909Z" fill="#739AF0"/>
<path d="M564.899 261.446C564.899 261.446 567.548 258.164 570.888 259.085C574.227 260.006 576.13 263.866 577.682 263.231C580.288 262.165 581.011 265.662 579.971 268.208C579.062 270.431 575.134 271.277 572.756 268.843C571.023 267.068 568.642 259.488 565.705 262.022C562.769 264.555 564.899 261.446 564.899 261.446Z" fill="#2C3A64"/>
<path d="M644 354.02V354.271C644 354.671 643.673 355 643.271 355H0.731532C0.329071 355 0 354.671 0 354.271V354.02C0 353.62 0.329071 353.291 0.731532 353.291H643.271C643.673 353.291 644 353.62 644 354.02Z" fill="#5F2D11"/>
</svg>
