<svg width="70" height="70" viewBox="0 0 70 70" fill="none" xmlns="http://www.w3.org/2000/svg">
<g id="Group">
<path id="Vector" d="M48.5625 30.625C46.3912 30.625 44.625 28.6625 44.625 26.25C44.625 23.8375 46.3912 21.875 48.5625 21.875C50.7338 21.875 52.5 23.8375 52.5 26.25C52.5 28.6625 50.7328 30.625 48.5625 30.625ZM48.5625 24.0499C47.4708 24.0499 46.5824 25.0369 46.5824 26.25C46.5824 27.4631 47.4708 28.4501 48.5625 28.4501C49.6543 28.4501 50.5426 27.4631 50.5426 26.25C50.5416 25.0369 49.6533 24.0499 48.5625 24.0499Z" fill="#666666"/>
<path id="Vector_2" d="M48.5546 30.625C47.8877 30.625 47.2115 30.4366 46.5926 30.04C44.7126 28.8335 44.0664 26.1536 45.1515 24.0649C45.6771 23.053 46.5258 22.3289 47.5421 22.0265C48.5574 21.723 49.6189 21.8789 50.5288 22.4639C51.4396 23.0478 52.0914 23.9906 52.3636 25.1197C52.6368 26.2478 52.4964 27.4271 51.9709 28.439C51.2428 29.8402 49.9166 30.625 48.5546 30.625ZM48.565 24.0513C48.3926 24.0513 48.2193 24.0764 48.0497 24.1267C47.5383 24.2784 47.1116 24.6425 46.8469 25.1511C46.3016 26.2017 46.6265 27.5495 47.5712 28.1554C48.5188 28.7623 49.731 28.4003 50.2764 27.3497C50.5411 26.8411 50.6107 26.2478 50.4742 25.6806C50.3367 25.1134 50.0098 24.6384 49.5511 24.3454C49.246 24.1507 48.9078 24.0513 48.565 24.0513Z" fill="#666666"/>
<path id="Vector_3" d="M68.9866 40.25C68.9613 40.25 68.937 40.249 68.9116 40.2469C66.6485 40.066 64.6872 39.403 63.0667 38.7777C61.3576 38.1064 59.6778 37.2552 57.9258 36.1771C56.1817 35.0959 54.6547 33.9603 53.2544 32.7034C52.7937 32.2862 52.3536 31.8658 51.9446 31.4538C51.5365 31.0429 51.517 30.3548 51.8988 29.9177C52.2805 29.4796 52.9223 29.4597 53.3294 29.8696C53.7316 30.2743 54.1396 30.6633 54.5564 31.0397C55.8623 32.2109 57.2958 33.2764 58.9357 34.2939C60.5844 35.3092 62.162 36.1091 63.7572 36.7355C64.5946 37.0586 65.5295 37.3932 66.5491 37.6526C65.8295 36.8338 65.0903 36.1301 64.4096 35.511C63.1115 34.3461 61.678 33.2785 60.0313 32.2506C58.3952 31.2374 56.8196 30.4364 55.2147 29.8048C54.7083 29.6093 54.1892 29.4221 53.6624 29.2516C53.1278 29.0781 52.8249 28.4716 52.9875 27.8975C53.1492 27.3224 53.715 26.9982 54.2486 27.1718C54.7823 27.3454 55.3403 27.5441 55.9061 27.7626C57.6259 28.4392 59.3058 29.2924 61.046 30.3705C62.796 31.4622 64.321 32.5988 65.7126 33.8484C67.0312 35.0467 68.5465 36.5389 69.8241 38.5539C70.0433 38.898 70.0588 39.3476 69.8641 39.7083C69.6819 40.0451 69.3469 40.25 68.9866 40.25Z" fill="#666666"/>
<path id="Vector_4" d="M48.5625 30.625C46.3912 30.625 44.625 28.6625 44.625 26.25C44.625 23.8375 46.3912 21.875 48.5625 21.875C50.7338 21.875 52.5 23.8375 52.5 26.25C52.5 28.6625 50.7328 30.625 48.5625 30.625ZM48.5625 24.0499C47.4708 24.0499 46.5824 25.0369 46.5824 26.25C46.5824 27.4631 47.4708 28.4501 48.5625 28.4501C49.6543 28.4501 50.5426 27.4631 50.5426 26.25C50.5416 25.0369 49.6533 24.0499 48.5625 24.0499Z" fill="#666666"/>
<path id="Vector_5" d="M49.8547 21.875C49.7801 21.875 49.7037 21.8655 49.6273 21.8454C49.0932 21.7068 48.7627 21.1157 48.8878 20.5245C49.0111 19.9428 49.1181 19.3611 49.2127 18.7795C49.4993 16.9604 49.6387 15.0726 49.6397 13.0156C49.6349 10.947 49.4926 9.05924 49.2069 7.24654C49.0521 6.29578 48.8572 5.24666 48.563 4.15735C48.2678 5.24772 48.0738 6.29895 47.9171 7.25289C47.6324 9.06347 47.4901 10.9523 47.4863 13.0178C47.4863 15.0716 47.6257 16.9583 47.9133 18.7837C48.0069 19.3601 48.114 19.9417 48.2362 20.5234C48.3614 21.1146 48.0308 21.7058 47.4968 21.8443C46.9617 21.9829 46.4286 21.617 46.3035 21.0258C46.1783 20.4356 46.0646 19.8275 45.9576 19.1676C45.649 17.21 45.5 15.1996 45.5 13.0146C45.5048 10.8201 45.6567 8.80965 45.9624 6.86793C46.2634 5.02139 46.7009 2.84172 47.6678 0.621857C47.8331 0.242185 48.1808 0 48.562 0C48.9432 0 49.291 0.242185 49.4563 0.621857C50.4231 2.84172 50.8607 5.02245 51.1607 6.86158C51.4674 8.80436 51.6193 10.8138 51.625 13.0125C51.624 15.2006 51.475 17.2111 51.1683 19.1623C51.0632 19.8106 50.9467 20.4367 50.8215 21.0268C50.7136 21.5334 50.3056 21.875 49.8547 21.875Z" fill="#666666"/>
<path id="Vector_6" d="M22.75 33.25C20.3375 33.25 18.375 31.0912 18.375 28.4375C18.375 25.7838 20.3375 23.625 22.75 23.625C25.1625 23.625 27.125 25.7838 27.125 28.4375C27.125 31.0912 25.1625 33.25 22.75 33.25ZM22.75 25.8952C21.4757 25.8952 20.4389 27.0358 20.4389 28.4375C20.4389 29.8392 21.4757 30.9798 22.75 30.9798C24.0243 30.9798 25.0611 29.8392 25.0611 28.4375C25.0611 27.0358 24.0243 25.8952 22.75 25.8952Z" fill="#666666"/>
<path id="Vector_7" d="M22.7423 33.25C22.0006 33.25 21.2501 33.0425 20.563 32.6056C19.5513 31.9633 18.8275 30.9256 18.5256 29.6837C18.2238 28.4429 18.3787 27.1453 18.9625 26.0323C19.5463 24.9193 20.4895 24.123 21.6184 23.7909C22.7483 23.4578 23.9258 23.6304 24.9366 24.2715C25.9483 24.9138 26.6721 25.9515 26.9739 27.1923C27.2768 28.4342 27.1209 29.7307 26.5371 30.8437C25.7279 32.3871 24.2554 33.25 22.7423 33.25ZM22.7532 25.8957C22.5527 25.8957 22.3511 25.9252 22.1526 25.9831C21.5558 26.159 21.0584 26.5795 20.7496 27.1672C20.1132 28.3807 20.4915 29.9393 21.5955 30.6395C22.6976 31.3385 24.1135 30.9224 24.7519 29.7089C25.0607 29.1212 25.1431 28.4353 24.9832 27.7799C24.8234 27.1246 24.4411 26.5762 23.9069 26.2365C23.5495 26.0115 23.1534 25.8957 22.7532 25.8957Z" fill="#666666"/>
<path id="Vector_8" d="M45.3326 42.875C45.3065 42.875 45.2815 42.874 45.2554 42.8718C42.7678 42.6771 40.609 41.9636 38.8252 41.2921C36.9452 40.5702 35.0952 39.6545 33.165 38.4926C31.2459 37.3286 29.5644 36.1067 28.0213 34.7544C27.5029 34.2934 27.0326 33.8545 26.5794 33.4083C26.1593 32.9947 26.1382 32.3032 26.5323 31.8622C26.9253 31.4213 27.5861 31.4002 28.0052 31.8128C28.4324 32.2327 28.8756 32.6463 29.3629 33.0789C30.8077 34.346 32.393 35.4974 34.2048 36.5961C36.0297 37.6949 37.7744 38.5589 39.5361 39.2357C40.5267 39.6093 41.6437 39.9966 42.864 40.2849C42.0157 39.3188 41.1364 38.4968 40.3302 37.7801C38.8944 36.5204 37.3091 35.3669 35.4883 34.2566C33.6774 33.1599 31.9337 32.2948 30.162 31.6128C29.5774 31.3918 28.9979 31.1897 28.4444 31.014C27.8939 30.8393 27.5821 30.2289 27.7495 29.6511C27.916 29.0733 28.5026 28.7481 29.048 28.9217C29.6356 29.108 30.2493 29.3227 30.8729 29.5574C32.764 30.2846 34.6139 31.2024 36.5331 32.3643C38.4592 33.5398 40.1397 34.7628 41.6708 36.1078C43.1217 37.396 44.7892 39.001 46.1939 41.1669C46.4195 41.5142 46.4356 41.9657 46.235 42.3298C46.0485 42.6687 45.7026 42.875 45.3326 42.875Z" fill="#666666"/>
<path id="Vector_9" d="M22.75 33.25C20.3375 33.25 18.375 31.0912 18.375 28.4375C18.375 25.7838 20.3375 23.625 22.75 23.625C25.1625 23.625 27.125 25.7838 27.125 28.4375C27.125 31.0912 25.1625 33.25 22.75 33.25ZM22.75 25.8952C21.4757 25.8952 20.4389 27.0358 20.4389 28.4375C20.4389 29.8392 21.4757 30.9798 22.75 30.9798C24.0243 30.9798 25.0611 29.8392 25.0611 28.4375C25.0611 27.0358 24.0243 25.8952 22.75 25.8952Z" fill="#666666"/>
<path id="Vector_10" d="M1.04194 42.875C0.671959 42.875 0.327052 42.6677 0.139556 42.3278C-0.0599726 41.9647 -0.0449171 41.5122 0.18068 41.166C1.5844 39.0034 3.25279 37.3974 4.69862 36.1115C6.23669 34.7623 7.91613 33.5384 9.84023 32.3661C11.7593 31.2032 13.6082 30.2856 15.4952 29.5605C16.1389 29.3174 16.7365 29.109 17.3271 28.9217C17.8735 28.7481 18.4591 29.0733 18.6255 29.6521C18.7919 30.2298 18.4801 30.8402 17.9297 31.0159C17.3742 31.1917 16.8107 31.3885 16.2071 31.6168C14.4384 32.2966 12.6968 33.1617 10.885 34.2593C9.0672 35.3674 7.48101 36.5219 6.0412 37.7858C5.23707 38.5003 4.35974 39.3201 3.5125 40.2851C4.73373 39.9968 5.85066 39.6085 6.8453 39.2338C8.60094 38.5593 10.3456 37.6953 12.1744 36.5956C13.9832 35.499 15.5694 34.3466 17.0183 33.0754C17.4885 32.6576 17.9457 32.2324 18.3698 31.8136C18.7879 31.4011 19.4487 31.4211 19.8427 31.8631C20.2368 32.303 20.2157 32.9954 19.7956 33.409C19.3454 33.8531 18.8611 34.3046 18.3588 34.7508C16.8107 36.1073 15.1292 37.329 13.2122 38.4919C11.278 39.6569 9.42814 40.5714 7.55518 41.2912C5.76545 41.9658 3.60773 42.6793 1.12015 42.8729C1.09308 42.8739 1.06801 42.875 1.04194 42.875Z" fill="#666666"/>
<path id="Vector_11" d="M21.2397 22.75C20.7493 22.75 20.3048 22.4162 20.1871 21.9213C20.0393 21.2972 19.907 20.6627 19.7831 19.9797C19.4249 17.9369 19.251 15.8362 19.25 13.5516C19.2562 11.2557 19.4322 9.15497 19.7893 7.12765C20.1413 5.20056 20.6504 2.92422 21.7749 0.607575C21.9551 0.23559 22.3341 0 22.7495 0C23.1649 0 23.5439 0.23559 23.7241 0.607575C24.8486 2.92422 25.3587 5.20056 25.7086 7.12145C26.0667 9.1529 26.2427 11.2536 26.25 13.5475C26.249 15.8331 26.0751 17.9338 25.7169 19.9735C25.5941 20.6483 25.4587 21.3013 25.3139 21.9203C25.1775 22.4968 24.5966 22.8554 24.0145 22.7221C23.4325 22.5878 23.0712 22.0102 23.2066 21.4326C23.344 20.8498 23.471 20.2329 23.5866 19.5995C23.9219 17.6889 24.0864 15.7081 24.0864 13.5506C24.0801 11.3827 23.9135 9.40089 23.5793 7.49654C23.3846 6.42914 23.1379 5.24189 22.7505 4.01227C22.3632 5.24293 22.1164 6.43121 21.9197 7.50377C21.5865 9.40296 21.4199 11.3838 21.4147 13.5537C21.4157 15.7102 21.5792 17.691 21.9144 19.6057C22.0311 20.2453 22.1549 20.8446 22.2934 21.4315C22.4298 22.0091 22.0696 22.5867 21.4876 22.7221C21.4043 22.7407 21.321 22.75 21.2397 22.75Z" fill="#666666"/>
<path id="Vector_12" d="M27.125 70H18.375L20.2341 35.1519C20.2666 34.5524 20.744 34.1038 21.315 34.1259C21.8801 34.1594 22.3121 34.674 22.2805 35.2745L20.5447 67.8211H24.9553L23.2195 35.2745C23.1869 34.674 23.6199 34.1594 24.185 34.1259C24.762 34.1028 25.2344 34.5514 25.2669 35.1519L27.125 70Z" fill="#666666"/>
<path id="Vector_13" d="M46.6343 39.375C46.6125 39.375 46.5918 39.374 46.5689 39.373C45.9443 39.341 45.4669 38.85 45.5018 38.277L45.8604 32.48C45.8963 31.907 46.4174 31.477 47.0561 31.501C47.6807 31.533 48.1581 32.024 48.1232 32.597L47.7646 38.394C47.7297 38.947 47.2305 39.375 46.6343 39.375Z" fill="#666666"/>
<path id="Vector_14" d="M52.5 65.625H44.625L45.6673 44.6969C45.6982 44.0874 46.1469 43.6289 46.6919 43.6555C47.2276 43.6896 47.637 44.2119 47.6071 44.8214L46.6807 63.4135H50.4443L48.9131 32.6671C48.8831 32.0575 49.2926 31.5352 49.8283 31.5012C50.3761 31.4735 50.8229 31.932 50.8538 32.5426L52.5 65.625Z" fill="#666666"/>
<path id="Vector_15" d="M37.8104 31.5C37.432 31.5 37.0649 31.3023 36.8743 30.9554C36.5999 30.4552 36.7947 29.8325 37.3117 29.5666C38.7424 28.8273 40.118 28.2273 41.5171 27.7301C42.1136 27.5226 42.6969 27.3338 43.2578 27.1697C43.8176 27.0046 44.4091 27.311 44.5794 27.8557C44.7486 28.3983 44.4325 28.9716 43.8727 29.1357C43.321 29.2978 42.7775 29.4737 42.2421 29.6605C40.9399 30.1221 39.652 30.6855 38.309 31.3784C38.15 31.4615 37.9796 31.5 37.8104 31.5Z" fill="#666666"/>
<path id="Vector_16" d="M41.2952 35C40.9685 35 40.6469 34.8294 40.4439 34.5074C40.1091 33.9797 40.2187 33.2465 40.6891 32.8702C41.3696 32.3256 41.9556 31.8217 42.4793 31.3291C42.9045 30.9246 43.3267 30.5054 43.7408 30.0682C44.16 29.6253 44.8224 29.6467 45.2174 30.1202C45.6114 30.5924 45.5913 31.3359 45.1702 31.7799C44.748 32.2262 44.2947 32.6793 43.8222 33.1267C43.2533 33.6623 42.6251 34.2023 41.9003 34.7819C41.7164 34.9288 41.5053 35 41.2952 35Z" fill="#666666"/>
<path id="Vector_17" d="M33.0903 70H12.4097C11.8381 70 11.375 69.4126 11.375 68.6875C11.375 67.9624 11.8381 67.375 12.4097 67.375H33.0903C33.6619 67.375 34.125 67.9624 34.125 68.6875C34.125 69.4126 33.6619 70 33.0903 70Z" fill="#666666"/>
<path id="Vector_18" d="M59.3403 65.625H38.6597C38.0881 65.625 37.625 65.0376 37.625 64.3125C37.625 63.5874 38.0881 63 38.6597 63H59.3403C59.9119 63 60.375 63.5874 60.375 64.3125C60.375 65.0376 59.9119 65.625 59.3403 65.625Z" fill="#666666"/>
</g>
</svg>
