<svg width="47" height="46" viewBox="0 0 47 46" fill="none" xmlns="http://www.w3.org/2000/svg">
<g id="Icon">
<rect width="47" height="46" rx="5" fill="#87AB42"/>
<g id="Group">
<path id="Vector" fill-rule="evenodd" clip-rule="evenodd" d="M26.6946 22.7977C26.8901 22.9808 27 23.2291 27 23.488C27 23.7469 26.8901 23.9952 26.6946 24.1783L20.7935 29.7019C20.6972 29.7952 20.5821 29.8696 20.4549 29.9207C20.3276 29.9719 20.1907 29.9988 20.0522 30C19.9137 30.0011 19.7763 29.9764 19.6481 29.9273C19.5199 29.8782 19.4035 29.8057 19.3055 29.714C19.2076 29.6223 19.1301 29.5133 19.0777 29.3933C19.0252 29.2733 18.9988 29.1447 19 29.0151C19.0012 28.8855 19.03 28.7573 19.0847 28.6382C19.1394 28.5191 19.2188 28.4113 19.3185 28.3213L24.4821 23.488L19.3185 18.6547C19.1284 18.4706 19.0233 18.2239 19.0257 17.9679C19.0281 17.7119 19.1378 17.467 19.3312 17.286C19.5246 17.1049 19.7862 17.0023 20.0597 17C20.3332 16.9978 20.5967 17.0962 20.7935 17.2741L26.6946 22.7977Z" fill="white"/>
</g>
</g>
</svg>
