<svg width="20" height="21" viewBox="0 0 20 21" fill="none" xmlns="http://www.w3.org/2000/svg">
<g id="ph:rectangle">
<path id="Vector" d="M16.875 3.625H3.125C2.79348 3.625 2.47554 3.7567 2.24112 3.99112C2.0067 4.22554 1.875 4.54348 1.875 4.875V16.125C1.875 16.4565 2.0067 16.7745 2.24112 17.0089C2.47554 17.2433 2.79348 17.375 3.125 17.375H16.875C17.2065 17.375 17.5245 17.2433 17.7589 17.0089C17.9933 16.7745 18.125 16.4565 18.125 16.125V4.875C18.125 4.54348 17.9933 4.22554 17.7589 3.99112C17.5245 3.7567 17.2065 3.625 16.875 3.625ZM16.875 16.125H3.125V4.875H16.875V16.125Z" fill="white"/>
</g>
</svg>
