<svg width="20" height="21" viewBox="0 0 20 21" fill="none" xmlns="http://www.w3.org/2000/svg">
<g id="ph:factory">
<path id="Vector" d="M9.0625 14.25C9.0625 14.4158 8.99665 14.5747 8.87944 14.6919C8.76223 14.8092 8.60326 14.875 8.4375 14.875H6.25C6.08424 14.875 5.92527 14.8092 5.80806 14.6919C5.69085 14.5747 5.625 14.4158 5.625 14.25C5.625 14.0842 5.69085 13.9253 5.80806 13.8081C5.92527 13.6908 6.08424 13.625 6.25 13.625H8.4375C8.60326 13.625 8.76223 13.6908 8.87944 13.8081C8.99665 13.9253 9.0625 14.0842 9.0625 14.25ZM13.75 13.625H11.5625C11.3967 13.625 11.2378 13.6908 11.1206 13.8081C11.0033 13.9253 10.9375 14.0842 10.9375 14.25C10.9375 14.4158 11.0033 14.5747 11.1206 14.6919C11.2378 14.8092 11.3967 14.875 11.5625 14.875H13.75C13.9158 14.875 14.0747 14.8092 14.1919 14.6919C14.3092 14.5747 14.375 14.4158 14.375 14.25C14.375 14.0842 14.3092 13.9253 14.1919 13.8081C14.0747 13.6908 13.9158 13.625 13.75 13.625ZM19.375 17.375C19.375 17.5408 19.3092 17.6997 19.1919 17.8169C19.0747 17.9342 18.9158 18 18.75 18H1.25C1.08424 18 0.925268 17.9342 0.808058 17.8169C0.690848 17.6997 0.625 17.5408 0.625 17.375C0.625 17.2092 0.690848 17.0503 0.808058 16.9331C0.925268 16.8158 1.08424 16.75 1.25 16.75H2.5V7.375C2.5 7.25893 2.53232 7.14515 2.59334 7.04642C2.65436 6.94768 2.74168 6.86789 2.84549 6.81598C2.94931 6.76407 3.06553 6.7421 3.18113 6.75253C3.29673 6.76295 3.40714 6.80536 3.5 6.875L7.5 9.875V7.375C7.5 7.25893 7.53232 7.14515 7.59334 7.04642C7.65437 6.94768 7.74168 6.86789 7.84549 6.81598C7.94931 6.76407 8.06553 6.7421 8.18113 6.75253C8.29673 6.76295 8.40714 6.80536 8.5 6.875L11.5266 9.14453L12.4297 2.82344C12.4734 2.52606 12.6223 2.25422 12.8494 2.05726C13.0765 1.8603 13.3666 1.75129 13.6672 1.75H15.0828C15.3834 1.75129 15.6735 1.8603 15.9006 2.05726C16.1277 2.25422 16.2766 2.52606 16.3203 2.82344L17.4922 11.0367C17.4922 11.0367 17.4984 11.0977 17.4984 11.125V16.75H18.7484C18.8306 16.7498 18.9121 16.7658 18.9881 16.7971C19.0641 16.8284 19.1332 16.8744 19.1914 16.9325C19.2496 16.9906 19.2958 17.0595 19.3273 17.1355C19.3588 17.2114 19.375 17.2928 19.375 17.375ZM12.6672 10L13.3336 10.5H16.1547L15.0828 3H13.6672L12.6672 10ZM3.75 16.75H16.25V11.75H13.125C12.9898 11.75 12.8582 11.7061 12.75 11.625L11.625 10.7812L8.75 8.625V11.125C8.75 11.2411 8.71768 11.3548 8.65666 11.4536C8.59563 11.5523 8.50832 11.6321 8.40451 11.684C8.30069 11.7359 8.18447 11.7579 8.06887 11.7475C7.95327 11.7371 7.84286 11.6946 7.75 11.625L3.75 8.625V16.75Z" fill="white"/>
</g>
</svg>
