<svg width="20" height="20" viewBox="0 0 20 20" fill="none" xmlns="http://www.w3.org/2000/svg">
<path d="M9.99984 18.9584C9.47484 18.9584 8.98317 18.7584 8.6165 18.3834L7.34984 17.1167C7.24984 17.0167 6.98317 16.9084 6.84984 16.9084H5.04984C3.9665 16.9084 3.0915 16.0333 3.0915 14.95V13.1501C3.0915 13.0167 2.98316 12.7501 2.88316 12.6501L1.61651 11.3834C1.24984 11.0167 1.0415 10.525 1.0415 10C1.0415 9.47503 1.24151 8.98334 1.61651 8.61667L2.88316 7.34999C2.98316 7.24999 3.0915 6.98334 3.0915 6.85001V5.05008C3.0915 3.96675 3.9665 3.09167 5.04984 3.09167H6.84984C6.98317 3.09167 7.24984 2.98333 7.34984 2.88333L8.6165 1.61665C9.34983 0.883317 10.6498 0.883317 11.3832 1.61665L12.6498 2.88333C12.7498 2.98333 13.0165 3.09167 13.1498 3.09167H14.9498C16.0332 3.09167 16.9082 3.96675 16.9082 5.05008V6.85001C16.9082 6.98334 17.0165 7.24999 17.1165 7.34999L18.3832 8.61667C18.7498 8.98334 18.9582 9.47503 18.9582 10C18.9582 10.525 18.7582 11.0167 18.3832 11.3834L17.1165 12.6501C17.0165 12.7501 16.9082 13.0167 16.9082 13.1501V14.95C16.9082 16.0333 16.0332 16.9084 14.9498 16.9084H13.1498C13.0165 16.9084 12.7498 17.0167 12.6498 17.1167L11.3832 18.3834C11.0165 18.7584 10.5248 18.9584 9.99984 18.9584ZM3.76649 11.7667C4.09983 12.1 4.3415 12.6834 4.3415 13.1501V14.95C4.3415 15.3417 4.65817 15.6584 5.04984 15.6584H6.84984C7.3165 15.6584 7.89984 15.9 8.23317 16.2334L9.49983 17.5C9.7665 17.7667 10.2332 17.7667 10.4998 17.5L11.7665 16.2334C12.0998 15.9 12.6832 15.6584 13.1498 15.6584H14.9498C15.3415 15.6584 15.6582 15.3417 15.6582 14.95V13.1501C15.6582 12.6834 15.8998 12.1 16.2332 11.7667L17.4998 10.5C17.6332 10.3667 17.7082 10.1917 17.7082 10C17.7082 9.80837 17.6332 9.63339 17.4998 9.50005L16.2332 8.23337C15.8998 7.90004 15.6582 7.31667 15.6582 6.85001V5.05008C15.6582 4.65841 15.3415 4.34167 14.9498 4.34167H13.1498C12.6832 4.34167 12.0998 4.10005 11.7665 3.76672L10.4998 2.50003C10.2332 2.23337 9.7665 2.23337 9.49983 2.50003L8.23317 3.76672C7.89984 4.10005 7.3165 4.34167 6.84984 4.34167H5.04984C4.65817 4.34167 4.3415 4.65841 4.3415 5.05008V6.85001C4.3415 7.31667 4.09983 7.90004 3.76649 8.23337L2.49984 9.50005C2.3665 9.63339 2.2915 9.80837 2.2915 10C2.2915 10.1917 2.3665 10.3667 2.49984 10.5L3.76649 11.7667Z" fill="white"/>
<path d="M12.5004 13.3333C12.0337 13.3333 11.6587 12.9583 11.6587 12.5C11.6587 12.0416 12.0337 11.6666 12.492 11.6666C12.9504 11.6666 13.3254 12.0416 13.3254 12.5C13.3254 12.9583 12.9587 13.3333 12.5004 13.3333Z" fill="white"/>
<path d="M7.50818 8.33329C7.04151 8.33329 6.6665 7.95829 6.6665 7.49996C6.6665 7.04163 7.0415 6.66663 7.49984 6.66663C7.95817 6.66663 8.33317 7.04163 8.33317 7.49996C8.33317 7.95829 7.96651 8.33329 7.50818 8.33329Z" fill="white"/>
<path d="M7.49987 13.125C7.34154 13.125 7.1832 13.0667 7.0582 12.9417C6.81654 12.7 6.81654 12.3 7.0582 12.0583L12.0582 7.05833C12.2999 6.81666 12.6999 6.81666 12.9415 7.05833C13.1832 7.29999 13.1832 7.70004 12.9415 7.94171L7.94153 12.9417C7.81653 13.0667 7.6582 13.125 7.49987 13.125Z" fill="white"/>
</svg>
