<svg width="20" height="20" viewBox="0 0 20 20" fill="none" xmlns="http://www.w3.org/2000/svg">
<g id="Group">
<path id="Vector" d="M14.6511 11.6665C14.8979 11.6665 15.1345 11.5661 15.3089 11.3875C15.4834 11.2089 15.5814 10.9667 15.5814 10.7141C15.5814 10.4615 15.4834 10.2193 15.3089 10.0407C15.1345 9.86206 14.8979 9.76172 14.6511 9.76172C14.4044 9.76172 14.1678 9.86206 13.9934 10.0407C13.8189 10.2193 13.7209 10.4615 13.7209 10.7141C13.7209 10.9667 13.8189 11.2089 13.9934 11.3875C14.1678 11.5661 14.4044 11.6665 14.6511 11.6665ZM14.6511 15.476C14.8979 15.476 15.1345 15.3757 15.3089 15.1971C15.4834 15.0185 15.5814 14.7762 15.5814 14.5236C15.5814 14.271 15.4834 14.0288 15.3089 13.8502C15.1345 13.6716 14.8979 13.5712 14.6511 13.5712C14.4044 13.5712 14.1678 13.6716 13.9934 13.8502C13.8189 14.0288 13.7209 14.271 13.7209 14.5236C13.7209 14.7762 13.8189 15.0185 13.9934 15.1971C14.1678 15.3757 14.4044 15.476 14.6511 15.476ZM10.9302 10.7141C10.9302 10.9667 10.8322 11.2089 10.6577 11.3875C10.4833 11.5661 10.2467 11.6665 9.99997 11.6665C9.75326 11.6665 9.51665 11.5661 9.3422 11.3875C9.16775 11.2089 9.06974 10.9667 9.06974 10.7141C9.06974 10.4615 9.16775 10.2193 9.3422 10.0407C9.51665 9.86206 9.75326 9.76172 9.99997 9.76172C10.2467 9.76172 10.4833 9.86206 10.6577 10.0407C10.8322 10.2193 10.9302 10.4615 10.9302 10.7141ZM10.9302 14.5236C10.9302 14.7762 10.8322 15.0185 10.6577 15.1971C10.4833 15.3757 10.2467 15.476 9.99997 15.476C9.75326 15.476 9.51665 15.3757 9.3422 15.1971C9.16775 15.0185 9.06974 14.7762 9.06974 14.5236C9.06974 14.271 9.16775 14.0288 9.3422 13.8502C9.51665 13.6716 9.75326 13.5712 9.99997 13.5712C10.2467 13.5712 10.4833 13.6716 10.6577 13.8502C10.8322 14.0288 10.9302 14.271 10.9302 14.5236ZM5.34881 11.6665C5.59552 11.6665 5.83213 11.5661 6.00659 11.3875C6.18104 11.2089 6.27904 10.9667 6.27904 10.7141C6.27904 10.4615 6.18104 10.2193 6.00659 10.0407C5.83213 9.86206 5.59552 9.76172 5.34881 9.76172C5.1021 9.76172 4.86549 9.86206 4.69104 10.0407C4.51659 10.2193 4.41858 10.4615 4.41858 10.7141C4.41858 10.9667 4.51659 11.2089 4.69104 11.3875C4.86549 11.5661 5.1021 11.6665 5.34881 11.6665ZM5.34881 15.476C5.59552 15.476 5.83213 15.3757 6.00659 15.1971C6.18104 15.0185 6.27904 14.7762 6.27904 14.5236C6.27904 14.271 6.18104 14.0288 6.00659 13.8502C5.83213 13.6716 5.59552 13.5712 5.34881 13.5712C5.1021 13.5712 4.86549 13.6716 4.69104 13.8502C4.51659 14.0288 4.41858 14.271 4.41858 14.5236C4.41858 14.7762 4.51659 15.0185 4.69104 15.1971C4.86549 15.3757 5.1021 15.476 5.34881 15.476Z" fill="#1F1F1F"/>
<path id="Vector_2" fill-rule="evenodd" clip-rule="evenodd" d="M5.34884 0C5.53387 0 5.71133 0.0752549 5.84217 0.209209C5.97301 0.343164 6.04651 0.524845 6.04651 0.714286V1.44095C6.66233 1.42857 7.34047 1.42857 8.08651 1.42857H11.9126C12.6595 1.42857 13.3377 1.42857 13.9535 1.44095V0.714286C13.9535 0.524845 14.027 0.343164 14.1578 0.209209C14.2887 0.0752549 14.4661 0 14.6512 0C14.8362 0 15.0137 0.0752549 15.1445 0.209209C15.2753 0.343164 15.3488 0.524845 15.3488 0.714286V1.5019C15.5907 1.52095 15.8195 1.54476 16.0363 1.57429C17.1265 1.72476 18.0093 2.04095 18.706 2.75333C19.4019 3.46667 19.7107 4.37048 19.8577 5.48667C20 6.57238 20 7.9581 20 9.70857V11.72C20 13.4705 20 14.8571 19.8577 15.9419C19.7107 17.0581 19.4019 17.9619 18.706 18.6752C18.0093 19.3876 17.1265 19.7038 16.0363 19.8543C14.9758 20 13.6223 20 11.9126 20H8.08744C6.37767 20 5.02326 20 3.96372 19.8543C2.87349 19.7038 1.9907 19.3876 1.29395 18.6752C0.59814 17.9619 0.289302 17.0581 0.142326 15.9419C0 14.8562 0 13.4705 0 11.72V9.70857C0 7.9581 0 6.57143 0.142326 5.48667C0.289302 4.37048 0.59814 3.46667 1.29395 2.75333C1.9907 2.04095 2.87349 1.72476 3.96372 1.57429C4.18047 1.54476 4.41023 1.52095 4.65116 1.5019V0.714286C4.65116 0.524845 4.72467 0.343164 4.85551 0.209209C4.98635 0.0752549 5.1638 0 5.34884 0ZM4.14884 2.99048C3.21395 3.11905 2.67442 3.36095 2.28093 3.76381C1.88744 4.16667 1.65116 4.71905 1.52558 5.67714C1.50419 5.83905 1.48651 6.01048 1.47163 6.19048H18.5284C18.5135 6.00952 18.4958 5.83905 18.4744 5.67619C18.3488 4.71905 18.1126 4.16667 17.7191 3.76381C17.3256 3.36095 16.786 3.11905 15.8502 2.99048C14.8949 2.85905 13.6344 2.85714 11.8605 2.85714H8.13953C6.36558 2.85714 5.10605 2.85905 4.14884 2.99048ZM1.39535 9.7619C1.39535 8.94857 1.39535 8.24095 1.40744 7.61905H18.5926C18.6047 8.24095 18.6047 8.94857 18.6047 9.7619V11.6667C18.6047 13.4829 18.6028 14.7733 18.4744 15.7524C18.3488 16.7095 18.1126 17.2619 17.7191 17.6648C17.3256 18.0676 16.786 18.3095 15.8502 18.4381C14.8949 18.5695 13.6344 18.5714 11.8605 18.5714H8.13953C6.36558 18.5714 5.10605 18.5695 4.14884 18.4381C3.21395 18.3095 2.67442 18.0676 2.28093 17.6648C1.88744 17.2619 1.65116 16.7095 1.52558 15.7514C1.39721 14.7733 1.39535 13.4829 1.39535 11.6667V9.7619Z" fill="#1F1F1F"/>
</g>
</svg>
