<svg width="14" height="8" viewBox="0 0 14 8" fill="none" xmlns="http://www.w3.org/2000/svg">
<path fill-rule="evenodd" clip-rule="evenodd" d="M6.26922 0.623712C6.45675 0.436241 6.71106 0.330925 6.97622 0.330925C7.24138 0.330925 7.49569 0.436241 7.68322 0.623712L13.3402 6.28071C13.4357 6.37296 13.5119 6.4833 13.5643 6.60531C13.6167 6.72731 13.6443 6.85853 13.6455 6.99131C13.6466 7.12409 13.6213 7.25577 13.571 7.37867C13.5208 7.50156 13.4465 7.61321 13.3526 7.70711C13.2587 7.801 13.1471 7.87525 13.0242 7.92553C12.9013 7.97581 12.7696 8.00112 12.6368 7.99996C12.504 7.99881 12.3728 7.97122 12.2508 7.91881C12.1288 7.8664 12.0185 7.79022 11.9262 7.69471L6.97622 2.74471L2.02622 7.69471C1.83762 7.87687 1.58502 7.97766 1.32282 7.97539C1.06062 7.97311 0.809809 7.86794 0.624401 7.68253C0.438993 7.49712 0.333823 7.24631 0.331545 6.98411C0.329267 6.72192 0.43006 6.46931 0.612219 6.28071L6.26922 0.623712Z" fill="#4EA62F"/>
</svg>
