<svg width="20" height="20" viewBox="0 0 20 20" fill="none" xmlns="http://www.w3.org/2000/svg">
    <path d="M10 16.2494C13.4518 16.2494 16.25 13.4512 16.25 9.99939C16.25 6.54761 13.4518 3.74939 10 3.74939C6.54822 3.74939 3.75 6.54761 3.75 9.99939C3.75 13.4512 6.54822 16.2494 10 16.2494Z" stroke="#4EA62F" stroke-width="1.5" stroke-linecap="round" stroke-linejoin="round"/>
    <path d="M10 12.4994C11.3807 12.4994 12.5 11.3801 12.5 9.99939C12.5 8.61868 11.3807 7.49939 10 7.49939C8.61929 7.49939 7.5 8.61868 7.5 9.99939C7.5 11.3801 8.61929 12.4994 10 12.4994Z" stroke="#4EA62F" stroke-width="1.5" stroke-linecap="round" stroke-linejoin="round"/>
    <path d="M10 3.33268V1.66602" stroke="#4EA62F" stroke-width="1.5" stroke-linecap="round" stroke-linejoin="round"/>
    <path d="M3.33268 9.99939H1.66602" stroke="#4EA62F" stroke-width="1.5" stroke-linecap="round" stroke-linejoin="round"/>
    <path d="M10 16.666V18.3327" stroke="#4EA62F" stroke-width="1.5" stroke-linecap="round" stroke-linejoin="round"/>
    <path d="M16.666 9.99939H18.3327" stroke="#4EA62F" stroke-width="1.5" stroke-linecap="round" stroke-linejoin="round"/>
</svg>
