<svg width="51" height="50" viewBox="0 0 51 50" fill="none" xmlns="http://www.w3.org/2000/svg">
<g id="image 21 (traced)">
<g id="Black">
<path id="Vector" d="M8.80001 0.0878983C7.85275 0.380867 7.0715 1.07423 6.62228 2.03126L6.30978 2.68555L6.28048 10.9473L6.25118 19.209L4.30783 21.2207C2.82345 22.7539 2.34494 23.3203 2.25704 23.6035C2.17892 23.8672 2.15939 27.2949 2.17892 35.5957L2.20822 47.2168L2.43283 47.7734C2.73556 48.5156 3.48751 49.3359 4.19064 49.6777L4.74728 49.9512H25.4992H46.2512L46.8078 49.6777C47.5109 49.3359 48.2629 48.5156 48.5656 47.7734L48.7902 47.2168L48.8195 35.6934C48.8391 29.3555 48.8195 23.9746 48.7902 23.7402C48.7316 23.3301 48.5949 23.1738 46.8274 21.3867L44.9328 19.4727V11.5137C44.9328 6.52345 44.8938 3.33009 44.8352 2.93946C44.6399 1.76759 43.9172 0.791023 42.882 0.302742L42.3449 0.0488358L25.6945 0.0293045C16.5344 0.0195389 8.93673 0.0488358 8.80001 0.0878983ZM42.1008 1.66993C42.2863 1.75782 42.5891 1.97266 42.7649 2.15821C43.3899 2.80274 43.3703 2.35352 43.3703 14.1504V24.8535L42.4426 25.3809C41.925 25.6641 41.466 25.9863 41.4172 26.084C41.2609 26.377 41.3098 26.8457 41.5149 27.0508C41.9152 27.4512 42.218 27.3438 44.8059 25.8398L47.2277 24.4238L47.257 35.3809C47.2766 42.9688 47.257 46.4941 47.1789 46.8359C47.052 47.4219 46.632 47.9688 46.0754 48.2715L45.6652 48.4863H25.4992H5.33322L4.92306 48.2715C4.36642 47.9688 3.9465 47.4219 3.81954 46.8359C3.74142 46.4941 3.72189 42.9688 3.74142 35.3809L3.77072 24.4238L22.2277 35.1758C41.9055 46.6406 41.2317 46.2793 41.7004 45.8105C41.9543 45.5566 41.9738 44.9902 41.7297 44.7461C41.6418 44.6582 38.3215 42.6953 34.3567 40.3906C30.4016 38.0859 27.1594 36.1719 27.1594 36.1426C27.1692 36.1133 30.0109 34.4336 33.4875 32.4219C36.9641 30.4102 39.9035 28.6621 40.0305 28.5449C40.4895 28.0859 40.1574 27.2461 39.5227 27.2461C39.2981 27.2461 37.3352 28.3496 32.3645 31.2402L25.4992 35.2344L16.6613 30.0977L7.82345 24.9512L7.85275 13.9649L7.87228 2.97852L8.13595 2.51954C8.43868 2.02149 8.85861 1.70899 9.44454 1.57227C9.66915 1.52345 16.3 1.48438 25.7922 1.49415C40.2063 1.51368 41.7883 1.53321 42.1008 1.66993ZM6.24142 23.4277L6.21212 24.0039L5.4504 23.5645L4.67892 23.1152L5.4504 22.3438L6.21212 21.5723L6.24142 22.2168C6.26095 22.5684 6.26095 23.1152 6.24142 23.4277ZM45.6555 22.4512L46.3195 23.1152L45.841 23.3887C45.5871 23.5449 45.2746 23.7305 45.1574 23.8086L44.9328 23.9453V22.8613C44.9328 22.2656 44.9426 21.7773 44.9621 21.7773C44.9719 21.7773 45.2844 22.0801 45.6555 22.4512Z" fill="#4EA62F"/>
<path id="Vector_2" d="M24.0254 3.64258C23.4199 3.96484 23.1562 4.45312 23.1562 5.29297V5.95703H21.9551C20.8516 5.95703 20.7344 5.97656 20.4121 6.19141C19.748 6.64062 19.7383 6.71875 19.7383 10.3809C19.7383 13.6035 19.7383 13.6426 19.9629 13.9648C20.0801 14.1406 20.3047 14.3848 20.4512 14.4922C20.7246 14.6973 20.8125 14.6973 25.5977 14.6973C30.3828 14.6973 30.4707 14.6973 30.7441 14.4922C30.8906 14.3848 31.1152 14.1406 31.2422 13.9648C31.457 13.6426 31.457 13.6035 31.457 10.3809C31.457 6.76758 31.4375 6.66016 30.832 6.2207C30.5684 6.03516 30.3828 6.00586 29.2891 5.97656L28.0391 5.9375V5.30273C28.0391 4.46289 27.7461 3.91602 27.1309 3.62305C26.7793 3.44727 26.5254 3.41797 25.5781 3.41797C24.5918 3.41797 24.4062 3.44727 24.0254 3.64258ZM26.457 5.48828L26.4863 5.95703H25.6074H24.7188V5.46875V4.9707L25.5781 5L26.4277 5.0293L26.457 5.48828ZM29.875 10.3223L29.8945 13.1836H25.5977H21.3008V10.3711C21.3008 8.81836 21.3301 7.51953 21.3691 7.49023C21.3984 7.45117 23.3223 7.43164 25.6367 7.44141L29.8457 7.4707L29.875 10.3223Z" fill="#4EA62F"/>
<path id="Vector_3" d="M30.7145 16.9824C30.197 17.2071 30.1872 17.2949 30.1872 20.5176C30.1872 24.2871 30.0212 23.9649 31.945 24.0039C33.4587 24.043 33.8005 23.9649 33.986 23.5742C34.152 23.2031 34.113 22.959 33.8493 22.7051C33.6345 22.4805 33.5368 22.461 32.6774 22.461H31.7497V21.875V21.2891H32.4235C33.1852 21.2891 33.6638 21.1524 33.8005 20.8985C33.9665 20.586 33.9079 20.166 33.6735 19.9414C33.4782 19.7559 33.3317 19.7266 32.5993 19.7266H31.7497V19.0918V18.4571H32.7165C33.654 18.4571 33.693 18.4473 33.8884 18.2031C34.1618 17.8614 34.1423 17.5489 33.8591 17.2168C33.6247 16.9434 33.6149 16.9434 32.2673 16.9239C31.5251 16.9043 30.822 16.9336 30.7145 16.9824Z" fill="#4EA62F"/>
<path id="Vector_4" d="M36.4375 17.168L36.1445 17.461V20.4102C36.1445 23.4864 36.1836 23.8086 36.584 23.9649C36.916 24.0919 37.2871 24.0235 37.4922 23.7989C37.6777 23.6036 37.707 23.4571 37.707 22.7442L37.7168 21.9239L38.3223 22.6075C39.4453 23.877 39.6113 24.0235 39.9434 24.0235C40.3535 24.0235 40.7344 23.6426 40.7344 23.252C40.7344 23.0372 40.5879 22.793 40.2266 22.3536C39.9434 22.0215 39.6113 21.6309 39.5039 21.4942L39.2988 21.2501L39.709 20.9864C41.1543 20.0684 41.0566 17.959 39.5332 17.168C39.2012 16.9922 38.9082 16.9532 37.9316 16.9141L36.7402 16.8751L36.4375 17.168ZM38.9961 18.7501C39.4062 19.2579 39.0742 19.7364 38.2637 19.8047L37.707 19.8438V19.1407V18.4376L38.2637 18.4766C38.6836 18.5157 38.8594 18.5743 38.9961 18.7501Z" fill="#4EA62F"/>
<path id="Vector_5" d="M12.6957 17.1386C11.6508 17.4706 10.7036 18.4472 10.3911 19.5214C10.0297 20.7617 10.4594 22.3144 11.3969 23.1347C13.8676 25.3027 17.686 23.3886 17.3442 20.1562C17.2172 18.955 16.3579 17.7441 15.2641 17.2558C14.6684 16.9921 13.3403 16.9335 12.6957 17.1386ZM14.6489 18.7402C15.4301 19.1406 15.9184 20.0292 15.7817 20.791C15.5278 22.1581 14.0727 22.9101 12.9008 22.2656C11.7875 21.6503 11.5141 20.2929 12.2856 19.2675C12.7934 18.6035 13.8872 18.3593 14.6489 18.7402Z" fill="#4EA62F"/>
<path id="Vector_6" d="M19.4648 17.2169C19.25 17.4415 19.25 17.5001 19.25 20.5372C19.25 23.5059 19.2598 23.6426 19.4453 23.8282C19.7188 24.1016 20.3242 24.0919 20.5781 23.8184C20.7344 23.6426 20.7734 23.4278 20.793 22.461L20.832 21.3087L21.6133 21.2696C22.3262 21.2403 22.4141 21.211 22.6289 20.9669C22.9121 20.6348 22.9316 20.3223 22.6582 19.9805C22.4727 19.7462 22.4043 19.7266 21.6328 19.7266H20.8125V19.1407V18.5547H21.5938C22.502 18.5547 22.8145 18.4376 22.9512 18.0567C23.0684 17.7149 22.9219 17.2266 22.668 17.0899C22.5703 17.0313 21.8574 16.9922 21.0762 16.9922C19.7383 16.9922 19.6699 17.002 19.4648 17.2169Z" fill="#4EA62F"/>
<path id="Vector_7" d="M25.1582 17.2363L24.9141 17.4707V20.4883C24.9141 23.3984 24.9238 23.5156 25.1191 23.7695C25.2754 23.9648 25.4023 24.0234 25.6953 24.0234C25.9883 24.0234 26.1152 23.9648 26.2715 23.7695C26.4473 23.5449 26.4766 23.3691 26.4766 22.4023V21.2891H27.1016C27.8145 21.2891 28.293 21.1523 28.4297 20.8984C28.5957 20.5859 28.5371 20.166 28.3027 19.9414C28.1074 19.7559 27.9609 19.7266 27.2773 19.7266H26.4766V19.1406V18.5547H27.3555C28.166 18.5547 28.2637 18.5352 28.4785 18.3105C28.6348 18.1641 28.7227 17.959 28.7227 17.7734C28.7227 17.5879 28.6348 17.3828 28.4785 17.2363C28.2539 17.002 28.2051 16.9922 26.8184 16.9922C25.4316 16.9922 25.3828 17.002 25.1582 17.2363Z" fill="#4EA62F"/>
<path id="Vector_8" d="M20.3242 28.4375C20.2168 28.5547 20.1289 28.7793 20.1289 28.9551C20.1289 29.1309 20.2168 29.3555 20.3242 29.4727L20.5293 29.6875H25.5977H30.666L30.8613 29.4336C31.125 29.1016 31.125 28.8086 30.8613 28.4766L30.666 28.2227H25.5977H20.5293L20.3242 28.4375Z" fill="#4EA62F"/>
</g>
</g>
</svg>
