<svg width="28" height="28" viewBox="0 0 28 28" fill="none" xmlns="http://www.w3.org/2000/svg">
<rect width="28" height="28" rx="8" fill="#4EA62F"/>
<path d="M21.4129 6.58762C21.1739 6.3457 20.8765 6.16951 20.5494 6.07608C20.2224 5.98265 19.8768 5.97514 19.546 6.05427L8.87793 8.30099C8.26357 8.38524 7.68493 8.63932 7.20718 9.03462C6.72943 9.42992 6.37154 9.95074 6.17382 10.5384C5.9761 11.1261 5.94641 11.7573 6.08808 12.361C6.22974 12.9646 6.53715 13.5167 6.97568 13.9551L8.12116 15.0998C8.18316 15.1618 8.23233 15.2354 8.26585 15.3164C8.29937 15.3974 8.31659 15.4842 8.31652 15.5718V17.6839C8.31799 17.9809 8.38636 18.2737 8.51655 18.5406L8.51121 18.5452L8.52855 18.5626C8.72392 18.9553 9.04301 19.273 9.43667 19.4666L9.45401 19.4839L9.45867 19.4786C9.72562 19.6088 10.0185 19.6771 10.3155 19.6786H12.4277C12.6045 19.6785 12.774 19.7485 12.8991 19.8733L14.0439 21.018C14.351 21.3284 14.7165 21.575 15.1193 21.7435C15.5221 21.9121 15.9543 21.9992 16.3909 22C16.7548 21.9995 17.1162 21.9401 17.4611 21.824C18.0434 21.6328 18.5608 21.2827 18.9548 20.8131C19.3487 20.3436 19.6036 19.7733 19.6907 19.1666L21.941 8.47633C22.0242 8.14275 22.0193 7.79326 21.9268 7.46215C21.8342 7.13103 21.6571 6.82967 21.4129 6.58762ZM9.06529 14.1585L7.91914 13.0138C7.65225 12.7533 7.46519 12.4222 7.37992 12.0592C7.29465 11.6962 7.31471 11.3164 7.43774 10.9644C7.55702 10.6033 7.77752 10.284 8.07302 10.0445C8.36852 9.8051 8.72659 9.65555 9.10463 9.61369L19.6667 7.3903L9.6487 17.4086V15.5718C9.64971 15.3094 9.59867 15.0493 9.49853 14.8067C9.39839 14.5641 9.25113 14.3438 9.06529 14.1585ZM18.3805 18.9386C18.3293 19.3068 18.1765 19.6535 17.9392 19.9397C17.7019 20.2259 17.3895 20.4403 17.0371 20.5589C16.6847 20.6774 16.3062 20.6954 15.9442 20.6108C15.5821 20.5262 15.2508 20.3424 14.9874 20.08L13.8406 18.9333C13.6555 18.7471 13.4353 18.5996 13.1928 18.4991C12.9503 18.3986 12.6902 18.3472 12.4277 18.3479H10.5908L20.6101 8.33299L18.3805 18.9386Z" fill="white"/>
</svg>
