<svg width="16" height="16" viewBox="0 0 24 24" fill="none" xmlns="http://www.w3.org/2000/svg">
<g clip-path="url(#clip0_1921_38580)">
<path d="M1.99999 10.9998H12.9999C13.5303 10.9998 14.039 10.7891 14.4141 10.414C14.7892 10.039 14.9999 9.53025 14.9999 8.99983V1.99993C14.9999 1.4695 14.7892 0.9608 14.4141 0.585732C14.039 0.210665 13.5303 -4.57764e-05 12.9999 -4.57764e-05L1.99999 -4.57764e-05C1.46956 -4.57764e-05 0.960852 0.210665 0.585782 0.585732C0.210712 0.9608 0 1.4695 0 1.99993L0 8.99983C0 9.53025 0.210712 10.039 0.585782 10.414C0.960852 10.7891 1.46956 10.9998 1.99999 10.9998ZM1.99999 1.99993H12.9999V8.99983H1.99999V1.99993Z" fill="#94A3C1"/>
<path d="M22.0001 -4.57764e-05H19.0001C18.4697 -4.57764e-05 17.961 0.210665 17.5859 0.585732C17.2108 0.9608 17.0001 1.4695 17.0001 1.99993V8.99983C17.0001 9.53025 17.2108 10.039 17.5859 10.414C17.961 10.7891 18.4697 10.9998 19.0001 10.9998H22.0001C22.5305 10.9998 23.0392 10.7891 23.4143 10.414C23.7894 10.039 24.0001 9.53025 24.0001 8.99983V1.99993C24.0001 1.4695 23.7894 0.9608 23.4143 0.585732C23.0392 0.210665 22.5305 -4.57764e-05 22.0001 -4.57764e-05V-4.57764  e-05ZM22.0001 8.99983H19.0001V1.99993H22.0001V8.99983Z" fill="#94A3C1"/>
<path d="M4.99996 13.0001H1.99999C1.46956 13.0001 0.960852 13.2108 0.585782 13.5859C0.210712 13.961 0 14.4697 0 15.0001L0 22C0 22.5304 0.210712 23.0391 0.585782 23.4142C0.960852 23.7892 1.46956 24 1.99999 24H4.99996C5.53039 24 6.0391 23.7892 6.41417 23.4142C6.78924 23.0391 6.99995 22.5304 6.99995 22V15.0001C6.99995 14.4697 6.78924 13.961 6.41417 13.5859C6.0391 13.2108 5.53039 13.0001 4.99996 13.0001ZM4.99996 22H1.99999V15.0001H4.99996V22Z" fill="#94A3C1"/>
<path d="M21.9999 13.0001H11C10.4696 13.0001 9.96085 13.2108 9.58578 13.5859C9.21071 13.961 9 14.4697 9 15.0001V22C9 22.5304 9.21071 23.0391 9.58578 23.4142C9.96085 23.7892 10.4696 24 11 24H21.9999C22.5303 24 23.039 23.7892 23.4141 23.4142C23.7892 23.0391 23.9999 22.5304 23.9999 22V15.0001C23.9999 14.4697 23.7892 13.961 23.4141 13.5859C23.039 13.2108 22.5303 13.0001 21.9999 13.0001ZM21.9999 22H11V15.0001H21.9999V22Z" fill="#94A3C1"/>
</g>
<defs>
<clipPath id="clip0_1921_38580">
<rect width="24" height="24" fill="white"/>
</clipPath>
</defs>
</svg>
