<svg width="24" height="24" viewBox="0 0 24 24" fill="none" xmlns="http://www.w3.org/2000/svg">
<g id="fluent:eye-28-filled">
<path id="Vector" d="M21.649 13.7145H21.6541H21.6455H21.649ZM21.0455 13.2688C21.1312 13.5414 21.3772 13.7128 21.649 13.7145C21.709 13.7145 21.7758 13.6974 21.8427 13.6802C22.177 13.5774 22.3655 13.2088 22.2541 12.8745C22.2284 12.7974 19.6569 5.14307 12.001 5.14307C4.34495 5.14307 1.77267 12.7974 1.74695 12.8745C1.63552 13.2088 1.82409 13.5688 2.15838 13.6802C2.50124 13.7916 2.86124 13.6031 2.97267 13.2688L2.97524 13.2645C3.08924 12.9302 5.32124 6.42878 12.0095 6.42878C18.7312 6.42878 20.9512 12.9859 21.0455 13.2688ZM7.71524 13.7145C7.71524 12.5779 8.16677 11.4878 8.97049 10.684C9.77422 9.88031 10.8643 9.42878 12.001 9.42878C13.1376 9.42878 14.2277 9.88031 15.0314 10.684C15.8351 11.4878 16.2867 12.5779 16.2867 13.7145C16.2867 14.8511 15.8351 15.9412 15.0314 16.745C14.2277 17.5487 13.1376 18.0002 12.001 18.0002C10.8643 18.0002 9.77422 17.5487 8.97049 16.745C8.16677 15.9412 7.71524 14.8511 7.71524 13.7145Z" fill="#FFFFFF"/>
</g>
</svg>
