<svg width="16" height="16" viewBox="0 0 16 16" fill="none" xmlns="http://www.w3.org/2000/svg">
<g clip-path="url(#clip0_2354_4567)">
<path d="M11.9999 12.6665C12.1317 12.6665 12.2606 12.6273 12.3702 12.5541C12.4798 12.4808 12.5652 12.3767 12.6157 12.2549C12.6661 12.1331 12.6793 11.9991 12.6536 11.8698C12.6279 11.7405 12.5644 11.6217 12.4712 11.5285L8.35653 7.41449C7.73144 6.78959 6.88375 6.43854 5.99986 6.43854C5.11598 6.43854 4.26829 6.78959 3.6432 7.41449L2.1952 8.86183C2.07376 8.98756 2.00656 9.15596 2.00808 9.33076C2.0096 9.50556 2.07971 9.67277 2.20332 9.79637C2.32692 9.91998 2.49413 9.99009 2.66893 9.99161C2.84373 9.99313 3.01213 9.92593 3.13786 9.80449L4.58586 8.35716C4.96668 7.99325 5.47313 7.79017 5.99986 7.79017C6.5266 7.79017 7.03305 7.99325 7.41387 8.35716L11.5285 12.4712C11.6535 12.5962 11.8231 12.6665 11.9999 12.6665Z" fill="#4EA62F"/>
<path d="M10.6668 6.9998C11.1283 6.9998 11.5794 6.86295 11.9632 6.60656C12.3469 6.35017 12.6459 5.98575 12.8225 5.55939C12.9992 5.13303 13.0454 4.66388 12.9553 4.21125C12.8653 3.75863 12.6431 3.34287 12.3167 3.01655C11.9904 2.69023 11.5747 2.468 11.122 2.37797C10.6694 2.28793 10.2003 2.33414 9.7739 2.51075C9.34754 2.68735 8.98312 2.98642 8.72673 3.37013C8.47034 3.75385 8.3335 4.20497 8.3335 4.66646C8.3335 5.2853 8.57933 5.8788 9.01691 6.31638C9.4545 6.75396 10.048 6.9998 10.6668 6.9998ZM10.6668 3.66646C10.8646 3.66646 11.058 3.72511 11.2224 3.83499C11.3868 3.94488 11.515 4.10105 11.5907 4.28378C11.6664 4.46651 11.6862 4.66757 11.6476 4.86155C11.609 5.05554 11.5138 5.23372 11.3739 5.37357C11.2341 5.51342 11.0559 5.60866 10.8619 5.64725C10.6679 5.68583 10.4669 5.66603 10.2841 5.59034C10.1014 5.51466 9.94524 5.38648 9.83536 5.22203C9.72548 5.05759 9.66683 4.86425 9.66683 4.66646C9.66683 4.40125 9.77219 4.14689 9.95972 3.95936C10.1473 3.77182 10.4016 3.66646 10.6668 3.66646Z" fill="#4EA62F"/>
<path d="M15.3332 10.6669C15.1564 10.6669 14.9868 10.7371 14.8618 10.8621C14.7367 10.9872 14.6665 11.1567 14.6665 11.3335V12.6669C14.6665 13.1973 14.4558 13.706 14.0807 14.0811C13.7056 14.4561 13.1969 14.6669 12.6665 14.6669H11.3332C11.1564 14.6669 10.9868 14.7371 10.8618 14.8621C10.7367 14.9871 10.6665 15.1567 10.6665 15.3335C10.6665 15.5103 10.7367 15.6799 10.8618 15.8049C10.9868 15.93 11.1564 16.0002 11.3332 16.0002H12.6665C13.5502 15.9991 14.3975 15.6476 15.0223 15.0227C15.6472 14.3978 15.9988 13.5506 15.9998 12.6669V11.3335C15.9998 11.1567 15.9296 10.9872 15.8046 10.8621C15.6795 10.7371 15.51 10.6669 15.3332 10.6669Z" fill="#4EA62F"/>
<path d="M0.666667 5.33333C0.843478 5.33333 1.01305 5.2631 1.13807 5.13807C1.2631 5.01305 1.33333 4.84348 1.33333 4.66667V3.33333C1.33333 2.8029 1.54405 2.29419 1.91912 1.91912C2.29419 1.54405 2.8029 1.33333 3.33333 1.33333H4.66667C4.84348 1.33333 5.01305 1.2631 5.13807 1.13807C5.2631 1.01305 5.33333 0.843478 5.33333 0.666667C5.33333 0.489856 5.2631 0.320286 5.13807 0.195262C5.01305 0.0702379 4.84348 0 4.66667 0L3.33333 0C2.4496 0.00105857 1.60237 0.352588 0.97748 0.97748C0.352588 1.60237 0.00105857 2.4496 0 3.33333L0 4.66667C0 4.84348 0.0702379 5.01305 0.195262 5.13807C0.320286 5.2631 0.489856 5.33333 0.666667 5.33333Z" fill="#4EA62F"/>
<path d="M4.66667 14.6669H3.33333C2.8029 14.6669 2.29419 14.4561 1.91912 14.0811C1.54405 13.706 1.33333 13.1973 1.33333 12.6669V11.3335C1.33333 11.1567 1.2631 10.9872 1.13807 10.8621C1.01305 10.7371 0.843478 10.6669 0.666667 10.6669C0.489856 10.6669 0.320286 10.7371 0.195262 10.8621C0.0702379 10.9872 0 11.1567 0 11.3335L0 12.6669C0.00105857 13.5506 0.352588 14.3978 0.97748 15.0227C1.60237 15.6476 2.4496 15.9991 3.33333 16.0002H4.66667C4.84348 16.0002 5.01305 15.93 5.13807 15.8049C5.2631 15.6799 5.33333 15.5103 5.33333 15.3335C5.33333 15.1567 5.2631 14.9871 5.13807 14.8621C5.01305 14.7371 4.84348 14.6669 4.66667 14.6669Z" fill="#4EA62F"/>
<path d="M12.6665 0H11.3332C11.1564 0 10.9868 0.0702379 10.8618 0.195262C10.7367 0.320286 10.6665 0.489856 10.6665 0.666667C10.6665 0.843478 10.7367 1.01305 10.8618 1.13807C10.9868 1.2631 11.1564 1.33333 11.3332 1.33333H12.6665C13.1969 1.33333 13.7056 1.54405 14.0807 1.91912C14.4558 2.29419 14.6665 2.8029 14.6665 3.33333V4.66667C14.6665 4.84348 14.7367 5.01305 14.8618 5.13807C14.9868 5.2631 15.1564 5.33333 15.3332 5.33333C15.51 5.33333 15.6795 5.2631 15.8046 5.13807C15.9296 5.01305 15.9998 4.84348 15.9998 4.66667V3.33333C15.9988 2.4496 15.6472 1.60237 15.0223 0.97748C14.3975 0.352588 13.5502 0.00105857 12.6665 0V0Z" fill="#4EA62F"/>
</g>
<defs>
<clipPath id="clip0_2354_4567">
<rect width="16" height="16" fill="white"/>
</clipPath>
</defs>
</svg>
