<svg width="20" height="21" viewBox="0 0 20 21" fill="none" xmlns="http://www.w3.org/2000/svg">
<g id="solar:settings-linear">
<g id="Group">
<path id="Vector" d="M10 13C11.3807 13 12.5 11.8807 12.5 10.5C12.5 9.11929 11.3807 8 10 8C8.61929 8 7.5 9.11929 7.5 10.5C7.5 11.8807 8.61929 13 10 13Z" stroke="white" stroke-width="1.5"/>
<path id="Vector_2" d="M11.4708 2.29366C11.165 2.16699 10.7767 2.16699 10 2.16699C9.22334 2.16699 8.83501 2.16699 8.52918 2.29366C8.32683 2.37742 8.14297 2.50024 7.98811 2.6551C7.83326 2.80995 7.71044 2.99381 7.62668 3.19616C7.55001 3.38199 7.51918 3.59949 7.50751 3.91533C7.50232 4.14365 7.43918 4.36691 7.32402 4.56413C7.20886 4.76136 7.04547 4.92608 6.84918 5.04283C6.64992 5.15453 6.42555 5.21374 6.19712 5.21491C5.9687 5.21608 5.74373 5.15915 5.54334 5.04949C5.26334 4.90116 5.06084 4.81949 4.86001 4.79283C4.42194 4.73522 3.97893 4.85391 3.62834 5.12283C3.36668 5.32533 3.17168 5.66116 2.78334 6.33366C2.39501 7.00616 2.20001 7.34199 2.15751 7.67116C2.12887 7.8882 2.14328 8.10876 2.1999 8.32024C2.25652 8.53171 2.35425 8.72996 2.48751 8.90366C2.61084 9.06366 2.78334 9.19783 3.05084 9.36616C3.44501 9.61366 3.69834 10.0353 3.69834 10.5003C3.69834 10.9653 3.44501 11.387 3.05084 11.6337C2.78334 11.8028 2.61001 11.937 2.48751 12.097C2.35425 12.2707 2.25652 12.4689 2.1999 12.6804C2.14328 12.8919 2.12887 13.1124 2.15751 13.3295C2.20084 13.6578 2.39501 13.9945 2.78251 14.667C3.17168 15.3395 3.36584 15.6753 3.62834 15.8778C3.80204 16.0111 4.00029 16.1088 4.21176 16.1654C4.42324 16.2221 4.6438 16.2365 4.86084 16.2078C5.06084 16.1812 5.26334 16.0995 5.54334 15.9512C5.74373 15.8415 5.9687 15.7846 6.19712 15.7857C6.42555 15.7869 6.64992 15.8461 6.84918 15.9578C7.25168 16.1912 7.49084 16.6203 7.50751 17.0853C7.51918 17.402 7.54918 17.6187 7.62668 17.8045C7.71044 18.0068 7.83326 18.1907 7.98811 18.3456C8.14297 18.5004 8.32683 18.6232 8.52918 18.707C8.83501 18.8337 9.22334 18.8337 10 18.8337C10.7767 18.8337 11.165 18.8337 11.4708 18.707C11.6732 18.6232 11.857 18.5004 12.0119 18.3456C12.1668 18.1907 12.2896 18.0068 12.3733 17.8045C12.45 17.6187 12.4808 17.402 12.4925 17.0853C12.5092 16.6203 12.7483 16.1903 13.1508 15.9578C13.3501 15.8461 13.5745 15.7869 13.8029 15.7857C14.0313 15.7846 14.2563 15.8415 14.4567 15.9512C14.7367 16.0995 14.9392 16.1812 15.1392 16.2078C15.3562 16.2365 15.5768 16.2221 15.7883 16.1654C15.9997 16.1088 16.198 16.0111 16.3717 15.8778C16.6342 15.6762 16.8283 15.3395 17.2167 14.667C17.605 13.9945 17.8 13.6587 17.8425 13.3295C17.8711 13.1124 17.8567 12.8919 17.8001 12.6804C17.7435 12.4689 17.6458 12.2707 17.5125 12.097C17.3892 11.937 17.2167 11.8028 16.9492 11.6345C16.754 11.5158 16.5921 11.3495 16.4788 11.1511C16.3656 10.9527 16.3046 10.7288 16.3017 10.5003C16.3017 10.0353 16.555 9.61366 16.9492 9.36699C17.2167 9.19783 17.39 9.06366 17.5125 8.90366C17.6458 8.72996 17.7435 8.53171 17.8001 8.32024C17.8567 8.10876 17.8711 7.8882 17.8425 7.67116C17.7992 7.34283 17.605 7.00616 17.2175 6.33366C16.8283 5.66116 16.6342 5.32533 16.3717 5.12283C16.198 4.98957 15.9997 4.89184 15.7883 4.83521C15.5768 4.77859 15.3562 4.76419 15.1392 4.79283C14.9392 4.81949 14.7367 4.90116 14.4558 5.04949C14.2556 5.15901 14.0307 5.21584 13.8025 5.21468C13.5742 5.21351 13.35 5.15438 13.1508 5.04283C12.9546 4.92608 12.7912 4.76136 12.676 4.56413C12.5608 4.36691 12.4977 4.14365 12.4925 3.91533C12.4808 3.59866 12.4508 3.38199 12.3733 3.19616C12.2896 2.99381 12.1668 2.80995 12.0119 2.6551C11.857 2.50024 11.6732 2.37742 11.4708 2.29366Z" stroke="white" stroke-width="1.5"/>
</g>
</g>
</svg>
