<svg width="20" height="21" viewBox="0 0 20 21" fill="none" xmlns="http://www.w3.org/2000/svg">
<g id="Tasks" clip-path="url(#clip0_1786_15941)">
<path id="Vector" d="M16.2722 3.25005H12.2722C12.1123 2.77482 11.8073 2.36177 11.4001 2.06916C10.9929 1.77655 10.5042 1.61914 10.0028 1.61914C9.50136 1.61914 9.0126 1.77655 8.60543 2.06916C8.19826 2.36177 7.89322 2.77482 7.73333 3.25005H3.88888C3.75283 3.23037 3.61415 3.23977 3.48199 3.27762C3.34984 3.31548 3.22722 3.38093 3.12221 3.46966C3.01721 3.55838 2.93222 3.66837 2.87285 3.79235C2.81347 3.91634 2.78107 4.05151 2.77777 4.18894V18.4223C2.7785 18.5463 2.80365 18.669 2.85178 18.7833C2.89992 18.8976 2.9701 19.0013 3.05832 19.0885C3.14653 19.1757 3.25106 19.2446 3.36592 19.2914C3.48079 19.3382 3.60374 19.3619 3.72777 19.3612H16.2722C16.3962 19.3619 16.5192 19.3382 16.6341 19.2914C16.7489 19.2446 16.8535 19.1757 16.9417 19.0885C17.0299 19.0013 17.1001 18.8976 17.1482 18.7833C17.1963 18.669 17.2215 18.5463 17.2222 18.4223V4.18894C17.2215 4.06491 17.1963 3.94224 17.1482 3.82794C17.1001 3.71363 17.0299 3.60992 16.9417 3.52274C16.8535 3.43555 16.7489 3.3666 16.6341 3.31981C16.5192 3.27302 16.3962 3.24932 16.2722 3.25005ZM6.27222 4.91672C6.27222 4.76937 6.33075 4.62807 6.43493 4.52388C6.53912 4.41969 6.68043 4.36116 6.82777 4.36116H8.73888V4.01116C8.73888 3.67006 8.87438 3.34294 9.11558 3.10174C9.35677 2.86055 9.6839 2.72505 10.025 2.72505C10.3661 2.72505 10.6932 2.86055 10.9344 3.10174C11.1756 3.34294 11.3111 3.67006 11.3111 4.01116V4.38894H13.2222C13.3696 4.38894 13.5109 4.44747 13.6151 4.55166C13.7192 4.65584 13.7778 4.79715 13.7778 4.94449V5.94449H6.24999L6.27222 4.91672ZM14.3389 10.0445L9.27222 15.1112L6.3611 12.2C6.21376 12.0527 6.13099 11.8529 6.13099 11.6445C6.13099 11.4361 6.21376 11.2363 6.3611 11.0889C6.50845 10.9416 6.70829 10.8588 6.91666 10.8588C7.12503 10.8588 7.32487 10.9416 7.47222 11.0889L9.28333 12.9001L13.25 8.93338C13.3973 8.78604 13.5972 8.70326 13.8055 8.70326C14.0139 8.70326 14.2138 8.78604 14.3611 8.93338C14.5084 9.08073 14.5912 9.28057 14.5912 9.48894C14.5912 9.69731 14.5084 9.89715 14.3611 10.0445H14.3389Z" fill="white"/>
</g>
<defs>
<clipPath id="clip0_1786_15941">
<rect width="20" height="20" fill="white" transform="translate(0 0.5)"/>
</clipPath>
</defs>
</svg>
