<svg width="20" height="21" viewBox="0 0 20 21" fill="none" xmlns="http://www.w3.org/2000/svg">
<g id="mdi:comments-outline">
<path id="Vector" d="M9.99998 19.6663C9.77897 19.6663 9.56701 19.5785 9.41073 19.4223C9.25445 19.266 9.16665 19.054 9.16665 18.833V16.333H5.83331C5.39129 16.333 4.96736 16.1574 4.6548 15.8449C4.34224 15.5323 4.16665 15.1084 4.16665 14.6663V6.33301C4.16665 5.89098 4.34224 5.46706 4.6548 5.1545C4.96736 4.84194 5.39129 4.66634 5.83331 4.66634H17.5C17.942 4.66634 18.3659 4.84194 18.6785 5.1545C18.9911 5.46706 19.1666 5.89098 19.1666 6.33301V14.6663C19.1666 15.1084 18.9911 15.5323 18.6785 15.8449C18.3659 16.1574 17.942 16.333 17.5 16.333H14.0833L11 19.4247C10.8333 19.583 10.625 19.6663 10.4166 19.6663H9.99998ZM10.8333 14.6663V17.233L13.4 14.6663H17.5V6.33301H5.83331V14.6663H10.8333ZM2.49998 12.9997H0.833313V2.99967C0.833313 2.55765 1.00891 2.13372 1.32147 1.82116C1.63403 1.5086 2.05795 1.33301 2.49998 1.33301H15.8333V2.99967H2.49998V12.9997Z" fill="white"/>
</g>
</svg>
