<svg width="20" height="21" viewBox="0 0 20 21" fill="none" xmlns="http://www.w3.org/2000/svg">
<g id="Analytics">
<path id="Vector" d="M13.2167 4.15866V16.6587C13.2167 18.0503 14.1667 18.8337 15.2083 18.8337C16.1583 18.8337 17.2 18.1753 17.2 16.6587V4.25033C17.2 2.96699 16.25 2.16699 15.2083 2.16699C14.1667 2.16699 13.2167 3.05033 13.2167 4.15866ZM8.00832 10.5003V16.6587C8.00832 18.0587 8.97499 18.8337 9.99999 18.8337C10.95 18.8337 11.9917 18.1753 11.9917 16.6587V10.592C11.9917 9.30866 11.0417 8.50866 9.99999 8.50866C8.95832 8.50866 8.00832 9.39199 8.00832 10.5003ZM4.79165 14.8587C5.89165 14.8587 6.78332 15.7503 6.78332 16.842C6.78332 17.3702 6.57349 17.8768 6.19998 18.2503C5.82647 18.6238 5.31988 18.8337 4.79165 18.8337C4.26343 18.8337 3.75684 18.6238 3.38333 18.2503C3.00982 17.8768 2.79999 17.3702 2.79999 16.842C2.79999 15.7503 3.69165 14.8587 4.79165 14.8587Z" fill="white"/>
</g>
</svg>
