<svg width="20" height="21" viewBox="0 0 20 21" fill="none" xmlns="http://www.w3.org/2000/svg">
<g id="Emploees">
<g id="Group">
<path id="Vector" d="M7.61719 9.48438C9.77455 9.48438 11.5234 7.73549 11.5234 5.57812C11.5234 3.42076 9.77455 1.67188 7.61719 1.67188C5.45983 1.67188 3.71094 3.42076 3.71094 5.57812C3.71094 7.73549 5.45983 9.48438 7.61719 9.48438Z" fill="white"/>
<path id="Vector_2" d="M8.08108 13H7.15335L6.6687 16.6186L7.61722 17.8042L8.56573 16.6186L8.08108 13Z" fill="white"/>
<path id="Vector_3" d="M7.13696 11.8281H8.09735L8.29267 10.6562H6.94165L7.13696 11.8281Z" fill="white"/>
<path id="Vector_4" d="M5.47394 16.7113L6.0482 12.4236L5.75363 10.6562H4.6875C2.09867 10.6562 0 12.7549 0 15.3438V18.7422C0 19.0658 0.262344 19.3281 0.585937 19.3281H7.33559L5.59715 17.1551C5.49723 17.0302 5.45269 16.8698 5.47394 16.7113Z" fill="white"/>
<path id="Vector_5" d="M11.6235 10.7813C11.2778 10.6999 10.9175 10.6562 10.5469 10.6562H9.48076L9.18623 12.4236L9.76048 16.7113C9.78173 16.8698 9.7372 17.0302 9.63728 17.1551L7.8988 19.3281H10.9391C10.5704 18.8381 10.3516 18.2293 10.3516 17.5703V13.1953C10.3516 12.1948 10.8559 11.31 11.6235 10.7813Z" fill="white"/>
<path id="Vector_6" d="M18.2422 11.4375H17.9102V10.4609C17.9102 9.70707 17.2968 9.09375 16.543 9.09375H14.9805C14.2266 9.09375 13.6133 9.70707 13.6133 10.4609V11.4375H13.2812C12.3104 11.4375 11.5234 12.2245 11.5234 13.1953V13.5859H20V13.1953C20 12.2245 19.213 11.4375 18.2422 11.4375ZM16.7383 11.4375H14.7852V10.4609C14.7852 10.3532 14.8728 10.2656 14.9805 10.2656H16.543C16.6507 10.2656 16.7383 10.3532 16.7383 10.4609V11.4375Z" fill="white"/>
<path id="Vector_7" d="M11.5234 17.5703C11.5234 18.5411 12.3104 19.3281 13.2812 19.3281H18.2422C19.213 19.3281 20 18.5411 20 17.5703V14.7578H11.5234V17.5703Z" fill="white"/>
</g>
</g>
</svg>
