<svg width="20" height="21" viewBox="0 0 20 21" fill="none" xmlns="http://www.w3.org/2000/svg">
<g id="ph:chat">
<path id="Vector" d="M16.875 4.25H3.12502C2.7935 4.25 2.47556 4.3817 2.24114 4.61612C2.00672 4.85054 1.87502 5.16848 1.87502 5.5V18C1.87358 18.2384 1.94101 18.4721 2.06921 18.673C2.19741 18.874 2.38092 19.0336 2.59768 19.1328C2.76286 19.2097 2.94281 19.2497 3.12502 19.25C3.41846 19.2493 3.70217 19.1447 3.9258 18.9547C3.92953 18.9523 3.93294 18.9494 3.93596 18.9461L6.44534 16.75H16.875C17.2065 16.75 17.5245 16.6183 17.7589 16.3839C17.9933 16.1495 18.125 15.8315 18.125 15.5V5.5C18.125 5.16848 17.9933 4.85054 17.7589 4.61612C17.5245 4.3817 17.2065 4.25 16.875 4.25ZM16.875 15.5H6.44534C6.15098 15.4999 5.86601 15.6036 5.64065 15.793L5.63127 15.8016L3.12502 18V5.5H16.875V15.5Z" fill="white"/>
</g>
</svg>
