<svg width="20" height="21" viewBox="0 0 20 21" fill="none" xmlns="http://www.w3.org/2000/svg">
<g id="solar:ticket-linear">
<g id="Group">
<path id="Vector" d="M11.6667 9.66634C11.6667 9.44533 11.7545 9.23337 11.9108 9.07709C12.067 8.92081 12.279 8.83301 12.5 8.83301C12.721 8.83301 12.933 8.92081 13.0893 9.07709C13.2456 9.23337 13.3334 9.44533 13.3334 9.66634V11.333C13.3334 11.554 13.2456 11.766 13.0893 11.9223C12.933 12.0785 12.721 12.1663 12.5 12.1663C12.279 12.1663 12.067 12.0785 11.9108 11.9223C11.7545 11.766 11.6667 11.554 11.6667 11.333V9.66634Z" stroke="white" stroke-width="1.875"/>
<path id="Vector_2" d="M11.6793 14.6663L12.3043 14.668V14.6663H11.6793ZM2.62595 16.1897L2.18428 16.6322L2.62595 16.1905V16.1897ZM1.67678 13.008L2.30095 12.9822L1.67595 13.0088L1.67678 13.008ZM17.3759 16.1897L17.8176 16.6322L17.3759 16.1905V16.1897ZM11.6793 6.33301H12.3043V6.33134L11.6793 6.33301ZM12.2993 16.3372L12.3043 14.668L11.0543 14.6647L11.0493 16.3338L12.2993 16.3372ZM12.5143 14.458C12.6318 14.458 12.7251 14.553 12.7251 14.6663H13.9751C13.9751 13.8597 13.3193 13.208 12.5143 13.208V14.458ZM12.5143 13.208C11.7093 13.208 11.0543 13.8597 11.0543 14.6663H12.3043C12.3043 14.553 12.3968 14.458 12.5143 14.458V13.208ZM8.33011 4.45801H11.2551V3.20801H8.33011V4.45801ZM10.8409 16.5413H8.33011V17.7913H10.8409V16.5413ZM8.33011 16.5413C6.73761 16.5413 5.60511 16.5397 4.74678 16.4247C3.90511 16.3122 3.42095 16.1005 3.06678 15.7472L2.18428 16.633C2.80928 17.2563 3.60261 17.533 4.58095 17.6647C5.54261 17.7938 6.77261 17.7922 8.33095 17.7922V16.5422L8.33011 16.5413ZM8.33011 3.20801C6.77178 3.20801 5.54178 3.20634 4.58011 3.33551C3.60178 3.46718 2.80928 3.74384 2.18428 4.36718L3.06761 5.25218C3.42095 4.89884 3.90595 4.68718 4.74678 4.57468C5.60511 4.45968 6.73761 4.45801 8.33011 4.45801V3.20801ZM2.15678 9.59051C2.47845 9.76968 2.69261 10.1105 2.69261 10.4997H3.94261C3.94263 10.0918 3.83374 9.69124 3.62717 9.33949C3.42061 8.98774 3.12387 8.69753 2.76761 8.49884L2.15761 9.59051H2.15678ZM2.30095 8.01634C2.36595 6.46968 2.57678 5.74051 3.06761 5.25218L2.18428 4.36718C1.32594 5.22384 1.11761 6.39968 1.05095 7.96468L2.30011 8.01718L2.30095 8.01634ZM2.69261 10.4997C2.69261 10.8888 2.47845 11.2297 2.15678 11.4088L2.76678 12.5005C3.12319 12.3019 3.4201 12.0118 3.62681 11.66C3.83353 11.3083 3.94255 10.9077 3.94261 10.4997H2.69261ZM1.05178 13.0347C1.11845 14.598 1.32678 15.7763 2.18428 16.6322L3.06761 15.7472C2.57678 15.2588 2.36595 14.5288 2.30095 12.9822L1.05178 13.0347ZM17.3093 10.4997C17.3093 10.1105 17.5234 9.76968 17.8451 9.59051L17.2351 8.49884C16.8787 8.69742 16.5818 8.98759 16.3751 9.33934C16.1684 9.6911 16.0593 10.0917 16.0593 10.4997H17.3093ZM18.9501 7.96468C18.8834 6.40134 18.6751 5.22301 17.8176 4.36718L16.9343 5.25218C17.4243 5.74051 17.6359 6.47051 17.7009 8.01718L18.9501 7.96468ZM17.8451 11.4088C17.6829 11.3188 17.5476 11.1871 17.4534 11.0272C17.3592 10.8674 17.3095 10.6852 17.3093 10.4997H16.0593C16.0593 11.3613 16.5351 12.1097 17.2351 12.5005L17.8451 11.4088ZM17.7009 12.9822C17.6359 14.5288 17.4251 15.2588 16.9343 15.7472L17.8176 16.6322C18.6759 15.7763 18.8843 14.5988 18.9501 13.0347L17.7009 12.9822ZM17.2351 12.5005C17.4718 12.633 17.6268 12.7197 17.7309 12.7855C17.7826 12.818 17.8059 12.8355 17.8126 12.8405C17.8243 12.8505 17.7818 12.8205 17.7418 12.7488L18.8334 12.138C18.7754 12.0382 18.6994 11.9501 18.6093 11.878C18.542 11.8235 18.4713 11.7734 18.3976 11.728C18.2584 11.6397 18.0676 11.5338 17.8451 11.4088L17.2351 12.5005ZM18.9501 13.0347C18.9559 12.8922 18.9626 12.7447 18.9576 12.6213C18.9548 12.4526 18.9119 12.287 18.8326 12.138L17.7418 12.748C17.7001 12.673 17.7059 12.6213 17.7084 12.6763C17.7093 12.6997 17.7101 12.7347 17.7084 12.788L17.7009 12.9822L18.9501 13.0347ZM17.8451 9.59051C18.0676 9.46551 18.2584 9.35968 18.3976 9.27134C18.4712 9.2257 18.5418 9.17561 18.6093 9.12134C18.6991 9.04921 18.7749 8.96105 18.8326 8.86134L17.7418 8.25134C17.7818 8.17884 17.8243 8.14884 17.8118 8.15884C17.7859 8.17867 17.7589 8.19703 17.7309 8.21384C17.6268 8.28051 17.4726 8.36634 17.2351 8.49884L17.8451 9.59051ZM17.7009 8.01718L17.7084 8.21051C17.7101 8.26384 17.7093 8.29884 17.7084 8.32218C17.7059 8.37718 17.7001 8.32551 17.7418 8.25051L18.8334 8.86051C18.9122 8.71137 18.9547 8.5458 18.9576 8.37718C18.9605 8.23934 18.9577 8.10145 18.9493 7.96384L17.7009 8.01718ZM2.15678 11.4088C1.93428 11.5338 1.74345 11.6388 1.60428 11.7272C1.5306 11.7726 1.4599 11.8227 1.39261 11.8772C1.30276 11.9493 1.22703 12.0383 1.16928 12.138L2.26011 12.7472C2.22011 12.8197 2.17761 12.8497 2.18928 12.8397C2.19678 12.8338 2.21928 12.8172 2.27095 12.7847C2.37511 12.718 2.52928 12.6322 2.76678 12.4997L2.15678 11.4088ZM2.30095 12.9813C2.29795 12.9166 2.29545 12.8519 2.29345 12.7872C2.29222 12.75 2.29222 12.7127 2.29345 12.6755C2.29595 12.6205 2.30178 12.6722 2.26011 12.7472L1.16845 12.1372C1.08942 12.2862 1.04687 12.4518 1.04428 12.6205C1.03928 12.7438 1.04595 12.8913 1.05261 13.0338L2.30095 12.9813ZM2.76678 8.49801C2.53011 8.36551 2.37511 8.27884 2.27095 8.21301C2.24273 8.1962 2.21547 8.17783 2.18928 8.15801C2.17761 8.14801 2.22011 8.17801 2.26011 8.24968L1.16845 8.86051C1.23845 8.98384 1.33095 9.06884 1.39261 9.12051C1.45928 9.17551 1.53345 9.22551 1.60428 9.27051C1.74345 9.35884 1.93428 9.46468 2.15678 9.58968L2.76678 8.49801ZM1.05095 7.96468C1.04511 8.10718 1.03845 8.25468 1.04345 8.37801C1.04928 8.50301 1.06845 8.68384 1.16845 8.86134L2.26011 8.25134C2.30178 8.32634 2.29511 8.37801 2.29261 8.32301C2.29138 8.2858 2.29138 8.24855 2.29261 8.21134L2.30011 8.01718L1.05095 7.96468ZM12.3034 6.33134L12.2968 4.24634L11.0476 4.25051L11.0534 6.33468L12.3034 6.33134ZM12.5134 6.54134C12.486 6.54145 12.4588 6.53615 12.4333 6.52574C12.4079 6.51533 12.3848 6.50001 12.3653 6.48067C12.3458 6.46132 12.3303 6.43833 12.3197 6.41299C12.3091 6.38766 12.3036 6.36048 12.3034 6.33301H11.0534C11.0534 7.13968 11.7084 7.79134 12.5134 7.79134V6.54134ZM12.7259 6.33301C12.7259 6.44634 12.6326 6.54134 12.5151 6.54134V7.79134C13.3201 7.79134 13.9759 7.13968 13.9759 6.33301H12.7259ZM12.7259 4.26301V6.33301H13.9759V4.26301H12.7259ZM13.7593 4.47384C15.5826 4.52051 16.4001 4.71718 16.9359 5.25218L17.8193 4.36718C16.8918 3.44218 15.5801 3.27051 13.7909 3.22384L13.7593 4.47384ZM13.9759 4.26301C13.9759 4.37968 13.8793 4.47634 13.7593 4.47384L13.7909 3.22384C13.6523 3.2204 13.5144 3.24473 13.3853 3.2954C13.2563 3.34608 13.1386 3.42208 13.0394 3.51892C12.9401 3.61576 12.8613 3.73149 12.8074 3.85928C12.7536 3.98707 12.7259 4.12434 12.7259 4.26301H13.9759ZM11.2551 4.45801C11.2 4.45779 11.1481 4.43574 11.1092 4.3967C11.0703 4.35765 11.0484 4.30479 11.0484 4.24968L12.2984 4.24634C12.2976 3.97065 12.1874 3.70656 11.9922 3.51193C11.7969 3.3173 11.5325 3.20801 11.2568 3.20801V4.45801H11.2551ZM14.2226 17.7605C15.7851 17.6947 16.9626 17.4863 17.8184 16.6322L16.9343 15.7472C16.4459 16.2355 15.7151 16.4472 14.1701 16.5122L14.2226 17.7605ZM12.7259 14.6663V16.3138H13.9759V14.6663H12.7259ZM11.0501 16.333C11.0501 16.4338 11.0501 16.5113 11.0476 16.5772C11.0459 16.6438 11.0426 16.6822 11.0393 16.7063C11.0359 16.7297 11.0351 16.7222 11.0443 16.698C11.0598 16.6621 11.0822 16.6296 11.1101 16.6022L11.9926 17.4872C12.1532 17.3211 12.2536 17.1061 12.2776 16.8763C12.3001 16.7122 12.2984 16.5155 12.2993 16.3372L11.0501 16.333ZM10.8409 17.7913C11.0193 17.7913 11.2168 17.793 11.3809 17.7705C11.5634 17.7455 11.7959 17.683 11.9926 17.4872L11.1093 16.6022C11.1373 16.5744 11.1704 16.5523 11.2068 16.5372C11.2301 16.5272 11.2384 16.5288 11.2151 16.5313C11.172 16.5363 11.1286 16.5391 11.0851 16.5397C11.0184 16.5413 10.9409 16.5413 10.8409 16.5413V17.7913ZM14.1701 16.5122C14.0701 16.5163 13.9926 16.5197 13.9268 16.5205C13.8609 16.5213 13.8226 16.5205 13.8001 16.518C13.7776 16.5155 13.7876 16.5138 13.8126 16.5238C13.8434 16.5355 13.8793 16.5572 13.9118 16.5872L13.0468 17.4897C13.2501 17.6847 13.4876 17.743 13.6776 17.7613C13.8459 17.778 14.0434 17.7688 14.2218 17.7613L14.1701 16.5122ZM12.7259 16.3138C12.7259 16.4955 12.7243 16.6972 12.7476 16.8663C12.7734 17.0547 12.8409 17.2922 13.0468 17.4897L13.9118 16.5872C13.9451 16.6188 13.9668 16.6547 13.9801 16.6847C13.9901 16.7097 13.9884 16.718 13.9859 16.6947C13.9809 16.6507 13.9781 16.6065 13.9776 16.5622C13.9759 16.4955 13.9759 16.4163 13.9759 16.3138H12.7259Z" fill="white"/>
</g>
</g>
</svg>
