<svg width="49" height="29" viewBox="0 0 49 29" fill="none" xmlns="http://www.w3.org/2000/svg">
<g id="Mastercard">
<path id="Left" fill-rule="evenodd" clip-rule="evenodd" d="M24.25 25.077C21.7055 27.2094 18.3838 28.5 14.75 28.5C6.74187 28.5 0.25 22.232 0.25 14.5C0.25 6.76801 6.74187 0.5 14.75 0.5C18.3838 0.5 21.7055 1.79062 24.25 3.923C26.7945 1.79062 30.1162 0.5 33.75 0.5C41.7581 0.5 48.25 6.76801 48.25 14.5C48.25 22.232 41.7581 28.5 33.75 28.5C30.1162 28.5 26.7945 27.2094 24.25 25.077Z" fill="#ED0006"/>
<path id="Right" fill-rule="evenodd" clip-rule="evenodd" d="M24.25 25.077C27.313 22.5101 29.25 18.7235 29.25 14.5C29.25 10.2765 27.313 6.48987 24.25 3.92298C26.7945 1.79061 30.1162 0.5 33.75 0.5C41.7581 0.5 48.25 6.76801 48.25 14.5C48.25 22.232 41.7581 28.5 33.75 28.5C30.1162 28.5 26.7945 27.2094 24.25 25.077Z" fill="#F9A000"/>
<path id="Middle" fill-rule="evenodd" clip-rule="evenodd" d="M24.25 25.2243C27.3069 22.6562 29.25 18.8051 29.25 14.5001C29.25 10.1952 27.3069 6.34402 24.25 3.77588C21.1931 6.34402 19.25 10.1952 19.25 14.5001C19.25 18.8051 21.1931 22.6562 24.25 25.2243Z" fill="#FF5E00"/>
</g>
</svg>
