<svg width="57" height="15" viewBox="0 0 57 15" fill="none" xmlns="http://www.w3.org/2000/svg">
<g id="paypal">
<g id="XMLID 2">
<g id="XMLID 3">
<g id="XMLID 4">
<path id="XMLID 30" d="M21.4216 6.90021C21.2689 8.03466 20.3525 8.03466 19.5126 8.03466H19.0544L19.4362 5.84139C19.4362 5.69012 19.5889 5.6145 19.7417 5.6145H19.9708C20.5816 5.6145 21.1162 5.6145 21.4216 5.91702C21.4216 6.21954 21.4216 6.52206 21.4216 6.90021ZM21.0398 3.875H17.7563C17.5272 3.875 17.3745 4.02626 17.2981 4.25315L16 12.5725C16 12.7237 16.0764 12.875 16.3054 12.875H17.8327C18.0617 12.875 18.2145 12.7237 18.2908 12.4968L18.6726 10.2279C18.6726 10.0011 18.9017 9.84979 19.1308 9.84979H20.1998C22.3379 9.84979 23.5597 8.79097 23.9415 6.74895C24.0942 5.84139 23.9415 5.16071 23.5597 4.6313C22.9488 4.17752 22.1088 3.875 21.0398 3.875Z" fill="#263577"/>
<path id="XMLID 27" d="M28.7735 8.94817C28.6344 9.82622 28.0082 10.4116 27.1733 10.4116C26.7558 10.4116 26.4079 10.2652 26.1992 9.97256C25.9905 9.67988 25.9209 9.31402 25.9905 8.94817C26.1296 8.07012 26.7558 7.48476 27.5907 7.48476C28.0082 7.48476 28.3561 7.6311 28.5648 7.92378C28.704 8.14329 28.8431 8.50915 28.7735 8.94817ZM30.7217 6.02134H29.3302C29.191 6.02134 29.1214 6.09451 29.0518 6.24085L28.9823 6.67988L28.9127 6.53354C28.6344 6.09451 27.9386 5.875 27.2429 5.875C25.6426 5.875 24.3206 7.1189 24.0423 8.875C23.9032 9.75305 24.1119 10.5579 24.5989 11.1433C25.0164 11.6555 25.6426 11.875 26.4079 11.875C27.6603 11.875 28.3561 10.997 28.3561 10.997L28.2865 11.436C28.2865 11.5823 28.3561 11.7287 28.5648 11.7287H29.8172C30.0259 11.7287 30.1651 11.5823 30.2347 11.3628L31 6.24085C31 6.16768 30.9304 6.02134 30.7217 6.02134Z" fill="#263577"/>
<path id="XMLID 26" d="M38.7004 6.875H37.2234C37.0827 6.875 36.942 6.94907 36.8717 7.09722L34.9024 10.2083L34.0584 7.24537C33.988 7.02315 33.8474 6.94907 33.6364 6.94907H32.2297C32.089 6.94907 31.9484 7.09722 32.0187 7.31944L33.6364 12.2083L32.1594 14.4306C32.0187 14.5787 32.1594 14.875 32.3704 14.875H33.8474C33.988 14.875 34.1287 14.8009 34.199 14.6528L38.9817 7.31944C39.052 7.09722 38.9114 6.875 38.7004 6.875Z" fill="#263577"/>
<path id="XMLID 21" d="M44.4216 6.15021C44.2689 7.28466 43.3525 7.28466 42.5126 7.28466H42.0544L42.4362 5.09139C42.4362 4.94012 42.5889 4.8645 42.7417 4.8645H42.9707C43.5816 4.8645 44.1161 4.8645 44.4216 5.16702C44.4979 5.46954 44.4979 5.77206 44.4216 6.15021ZM44.0398 3.125H40.7563C40.5272 3.125 40.3745 3.27626 40.2981 3.50315L39 11.8225C39 11.9737 39.0764 12.125 39.3055 12.125H40.9854C41.1381 12.125 41.2908 12.0494 41.2908 11.8225L41.6726 9.47794C41.6726 9.25105 41.9017 9.09979 42.1308 9.09979H43.1998C45.3379 9.09979 46.5597 8.04097 46.9415 5.99895C47.0942 5.09139 46.9415 4.41071 46.5597 3.8813C46.0252 3.42752 45.1852 3.125 44.0398 3.125Z" fill="#2199D6"/>
<path id="XMLID 13" d="M50.7735 9.19817C50.6344 10.0762 50.0082 10.6616 49.1733 10.6616C48.7558 10.6616 48.4079 10.5152 48.1992 10.2226C47.9905 9.92988 47.9209 9.56402 47.9905 9.19817C48.1296 8.32012 48.7558 7.73476 49.5907 7.73476C50.0082 7.73476 50.3561 7.8811 50.5648 8.17378C50.704 8.39329 50.8431 8.75915 50.7735 9.19817ZM52.7217 6.27134H51.3302C51.191 6.27134 51.1214 6.34451 51.0518 6.49085L50.9823 6.92988L50.9127 6.78354C50.6344 6.34451 49.9386 6.125 49.2429 6.125C47.6426 6.125 46.3206 7.3689 46.0423 9.125C45.9032 10.0031 46.1119 10.8079 46.5989 11.3933C47.0164 11.9055 47.6426 12.125 48.4079 12.125C49.6603 12.125 50.3561 11.247 50.3561 11.247L50.2865 11.686C50.2865 11.8323 50.3561 11.9787 50.5648 11.9787H51.8172C52.0259 11.9787 52.1651 11.8323 52.2347 11.6128L53 6.49085C53 6.41768 52.8609 6.27134 52.7217 6.27134Z" fill="#2199D6"/>
<path id="XMLID 12" d="M55.2 3.35189L54 11.8225C54 11.9737 54.0667 12.125 54.2667 12.125H55.4667C55.6667 12.125 55.8 11.9737 55.8667 11.7468L57 3.42752C57 3.27626 56.9333 3.125 56.7333 3.125H55.4C55.3333 3.125 55.2667 3.27626 55.2 3.35189Z" fill="#2199D6"/>
<path id="XMLID 10" d="M2.9252 14.0511L3.15021 12.5H2.62517H0L1.80013 1.19886C1.80013 1.19886 1.80012 1.125 1.87512 1.125H1.95013H6.37542C7.80052 1.125 8.85059 1.42046 9.37562 2.01136C9.60064 2.30682 9.75065 2.60227 9.82566 2.89773C9.90066 3.26705 9.90066 3.63636 9.82566 4.15341V4.44886L10.0507 4.59659C10.2757 4.67046 10.4257 4.81818 10.5757 4.96591C10.8007 5.1875 10.9507 5.48296 10.9507 5.85227C11.0257 6.22159 11.0257 6.66477 10.8757 7.18182C10.7257 7.77273 10.5757 8.21591 10.3507 8.65909C10.1257 9.02841 9.82565 9.32386 9.52563 9.61932C9.22561 9.84091 8.77558 9.98864 8.40056 10.1364C7.95053 10.2102 7.5005 10.2841 6.97547 10.2841H6.60044C6.37543 10.2841 6.15042 10.358 5.9254 10.5057C5.77539 10.6534 5.62538 10.875 5.55038 11.0966V11.2443L5.10034 13.9773V14.0511V14.125C5.10034 14.125 5.10034 14.125 5.02533 14.125H2.9252V14.0511Z" fill="#263577"/>
<path id="XMLID 8" d="M10.8521 4.125C10.8521 4.19643 10.8521 4.26786 10.7773 4.33929C10.1791 7.19643 8.23474 8.125 5.69215 8.125H4.42085C4.12172 8.125 3.82261 8.33929 3.82261 8.625L3.14956 12.625L3 13.7679C3 13.9821 3.14956 14.125 3.29912 14.125H5.61737C5.91649 14.125 6.14084 13.9107 6.14084 13.6964V13.5536L6.58953 10.9821V10.8393C6.66432 10.5536 6.88866 10.4107 7.11301 10.4107H7.48691C9.73037 10.4107 11.4504 9.55357 11.899 7.05357C12.1234 5.98214 11.9738 5.125 11.4504 4.55357C11.3008 4.41072 11.0764 4.26786 10.8521 4.125Z" fill="#2199D6"/>
<path id="XMLID 6" d="M10.4043 3.33929C10.3298 3.33929 10.2553 3.26786 10.1064 3.26786C10.0319 3.26786 9.88297 3.19643 9.80851 3.19643C9.43616 3.125 9.06382 3.125 8.69148 3.125H5.26596C5.19149 3.125 5.11702 3.125 5.04255 3.19643C4.89361 3.26786 4.74468 3.41071 4.74468 3.55357L4 7.98215V8.125C4.07447 7.83929 4.29786 7.625 4.59574 7.625H5.8617C8.39362 7.625 10.3298 6.625 10.9255 3.83929C10.9255 3.76786 10.9255 3.69643 11 3.625C10.8511 3.55357 10.7021 3.48214 10.5532 3.41072C10.4787 3.33929 10.4043 3.33929 10.4043 3.33929Z" fill="#252C5E"/>
<path id="XMLID 5" d="M4.56049 3.50224C4.56049 3.35853 4.7125 3.21482 4.86452 3.14296C4.94053 3.14296 5.01654 3.07111 5.09254 3.07111H8.58891C8.96895 3.07111 9.425 3.07111 9.72904 3.14296C9.80504 3.14296 9.95707 3.14296 10.0331 3.21482C10.1091 3.21482 10.1851 3.28668 10.3371 3.28668C10.4131 3.28668 10.4131 3.28668 10.4891 3.35853C10.6411 3.43039 10.7932 3.50225 10.9452 3.5741C11.0972 2.49626 10.9452 1.77769 10.3371 1.13099C9.65303 0.412424 8.4369 0.125 6.91674 0.125H2.43226C2.12823 0.125 1.82419 0.340567 1.82419 0.627992L0 11.6939C0 11.9094 0.152016 12.125 0.380041 12.125H3.11633L3.80041 7.95734L4.56049 3.50224Z" fill="#263577"/>
</g>
</g>
</g>
</g>
</svg>
