<svg width="49" height="48" viewBox="0 0 49 48" fill="none" xmlns="http://www.w3.org/2000/svg">
<g id="Group">
<path id="Vector" d="M24.5 8.25048C24.914 8.25048 25.25 7.91448 25.25 7.50048C25.25 7.08648 24.914 6.75049 24.5 6.75049C15.264 6.75049 7.75 14.3755 7.75 23.7485C7.75 24.1625 8.086 24.4985 8.5 24.4985C8.914 24.4985 9.25 24.1625 9.25 23.7485C9.25 15.2025 16.091 8.25048 24.5 8.25048Z" fill="#4EA62F"/>
<path id="Vector_2" d="M40.5 22.9985C40.086 22.9985 39.75 23.3345 39.75 23.7485C39.75 32.2935 32.909 39.2445 24.5 39.2445C24.086 39.2445 23.75 39.5805 23.75 39.9945C23.75 40.4085 24.086 40.7445 24.5 40.7445C33.736 40.7445 41.25 33.1205 41.25 23.7485C41.25 23.3345 40.914 22.9985 40.5 22.9985Z" fill="#4EA62F"/>
<path id="Vector_3" d="M48.25 23.7485C48.25 23.3345 47.914 22.9985 47.5 22.9985H44.5C44.086 22.9985 43.75 23.3345 43.75 23.7485C43.75 24.1625 44.086 24.4985 44.5 24.4985H47.5C47.914 24.4985 48.25 24.1625 48.25 23.7485Z" fill="#4EA62F"/>
<path id="Vector_4" d="M1.5 24.4985H4.5C4.914 24.4985 5.25 24.1625 5.25 23.7485C5.25 23.3345 4.914 22.9985 4.5 22.9985H1.5C1.086 22.9985 0.75 23.3345 0.75 23.7485C0.75 24.1625 1.086 24.4985 1.5 24.4985Z" fill="#4EA62F"/>
<path id="Vector_5" d="M37.25 23.7485C37.25 16.6155 31.53 10.8125 24.5 10.8125C17.47 10.8125 11.75 16.6155 11.75 23.7485C11.75 30.8815 17.47 36.6845 24.5 36.6845C31.53 36.6845 37.25 30.8815 37.25 23.7485ZM24.5 12.3135C30.703 12.3135 35.75 17.4435 35.75 23.7495C35.75 30.0555 30.703 35.1855 24.5 35.1855C18.297 35.1855 13.25 30.0555 13.25 23.7495C13.25 17.4435 18.297 12.3135 24.5 12.3135Z" fill="#4EA62F"/>
<path id="Vector_6" d="M43.2944 17.5515C43.3814 17.5515 43.4684 17.5365 43.5544 17.5045L46.3734 16.4635C46.7624 16.3205 46.9604 15.8895 46.8174 15.5005C46.6734 15.1115 46.2404 14.9105 45.8544 15.0575L43.0354 16.0985C42.6464 16.2415 42.4484 16.6725 42.5914 17.0615C42.7024 17.3645 42.9894 17.5515 43.2944 17.5515Z" fill="#4EA62F"/>
<path id="Vector_7" d="M2.18371 31.9975C2.29571 32.2995 2.58271 32.4865 2.88771 32.4865C2.97371 32.4865 3.06171 32.4715 3.14771 32.4395L5.96671 31.3965C6.35571 31.2525 6.55371 30.8215 6.40971 30.4325C6.26571 30.0445 5.83471 29.8425 5.44571 29.9905L2.62671 31.0335C2.23771 31.1775 2.03971 31.6095 2.18371 31.9975Z" fill="#4EA62F"/>
<path id="Vector_8" d="M42.6907 8.25093C42.4227 7.93693 41.9497 7.89694 41.6337 8.16594L39.3357 10.1229C39.0207 10.3919 38.9827 10.8649 39.2517 11.1809C39.3997 11.3549 39.6107 11.4449 39.8227 11.4449C39.9947 11.4449 40.1676 11.3859 40.3087 11.2659L42.6067 9.30895C42.9217 9.03995 42.9597 8.56693 42.6907 8.25093Z" fill="#4EA62F"/>
<path id="Vector_9" d="M6.88124 39.5107C7.05324 39.5107 7.22624 39.4517 7.36724 39.3307L9.66524 37.3717C9.98024 37.1027 10.0182 36.6307 9.74924 36.3147C9.48124 36.0007 9.00724 35.9607 8.69224 36.2307L6.39424 38.1897C6.07924 38.4587 6.04124 38.9307 6.31024 39.2467C6.45824 39.4207 6.66924 39.5107 6.88124 39.5107Z" fill="#4EA62F"/>
<path id="Vector_10" d="M35.3483 3.15183L33.8483 5.79083C33.6433 6.15083 33.7693 6.60882 34.1293 6.81382C34.2463 6.87982 34.3733 6.91182 34.4993 6.91182C34.7603 6.91182 35.0133 6.77483 35.1513 6.53283L36.6513 3.89383C36.8563 3.53383 36.7303 3.07582 36.3703 2.87082C36.0113 2.66682 35.5533 2.79183 35.3483 3.15183Z" fill="#4EA62F"/>
<path id="Vector_11" d="M13.8483 40.9658L12.3483 43.6028C12.1433 43.9628 12.2693 44.4208 12.6293 44.6258C12.7463 44.6918 12.8743 44.7238 13.0003 44.7238C13.2613 44.7238 13.5143 44.5878 13.6523 44.3448L15.1523 41.7078C15.3573 41.3478 15.2313 40.8898 14.8713 40.6848C14.5113 40.4818 14.0533 40.6058 13.8483 40.9658Z" fill="#4EA62F"/>
<path id="Vector_12" d="M27.7549 0.620491L27.2339 3.62049C27.1629 4.02849 27.4359 4.41749 27.8439 4.48849C27.8879 4.49549 27.9309 4.4995 27.9729 4.4995C28.3309 4.4995 28.6479 4.24249 28.7109 3.87849L29.2319 0.878494C29.3029 0.470494 29.0299 0.0814976 28.6219 0.0104976C28.2199 -0.0515024 27.8259 0.211491 27.7549 0.620491Z" fill="#4EA62F"/>
<path id="Vector_13" d="M20.2881 43.6217L19.7671 46.6217C19.6961 47.0287 19.9691 47.4177 20.3771 47.4887C20.4201 47.4957 20.4641 47.4997 20.5061 47.4997C20.8641 47.4997 21.1811 47.2427 21.2441 46.8777L21.7651 43.8777C21.8361 43.4707 21.5631 43.0817 21.1551 43.0107C20.7491 42.9477 20.3581 43.2127 20.2881 43.6217Z" fill="#4EA62F"/>
<path id="Vector_14" d="M2.6266 16.4639L5.4456 17.5049C5.5306 17.5369 5.6186 17.5519 5.7056 17.5519C6.0106 17.5519 6.2976 17.3639 6.4096 17.0619C6.5536 16.6729 6.3546 16.2429 5.9656 16.0989L3.1466 15.0579C2.7586 14.9119 2.3266 15.1129 2.1836 15.5009C2.0396 15.8899 2.2386 16.3209 2.6266 16.4639Z" fill="#4EA62F"/>
<path id="Vector_15" d="M45.8538 32.4409C45.9398 32.4729 46.0278 32.4879 46.1138 32.4879C46.4188 32.4879 46.7048 32.2999 46.8178 31.9979C46.9618 31.6099 46.7628 31.1789 46.3748 31.0349L43.5558 29.9919C43.1668 29.8449 42.7358 30.0469 42.5918 30.4349C42.4478 30.8229 42.6468 31.2539 43.0348 31.3979L45.8538 32.4409Z" fill="#4EA62F"/>
<path id="Vector_16" d="M6.31024 8.25068C6.04124 8.56568 6.07924 9.03969 6.39424 9.30869L8.69224 11.2657C8.83324 11.3857 9.00624 11.4447 9.17824 11.4447C9.39024 11.4447 9.60124 11.3547 9.74924 11.1807C10.0182 10.8657 9.98024 10.3917 9.66524 10.1227L7.36724 8.16569C7.05224 7.89769 6.57824 7.93768 6.31024 8.25068Z" fill="#4EA62F"/>
<path id="Vector_17" d="M41.6327 39.3307C41.7747 39.4517 41.9467 39.5107 42.1187 39.5107C42.3307 39.5107 42.5417 39.4207 42.6897 39.2467C42.9587 38.9307 42.9207 38.4587 42.6057 38.1897L40.3077 36.2307C39.9917 35.9607 39.5187 36.0007 39.2497 36.3147C38.9807 36.6307 39.0187 37.1027 39.3337 37.3717L41.6327 39.3307Z" fill="#4EA62F"/>
<path id="Vector_18" d="M12.6293 2.87082C12.2693 3.07582 12.1433 3.53383 12.3483 3.89383L13.8483 6.53283C13.9863 6.77483 14.2403 6.91182 14.5003 6.91182C14.6263 6.91182 14.7533 6.88082 14.8703 6.81382C15.2303 6.60882 15.3563 6.15083 15.1513 5.79083L13.6513 3.15183C13.4473 2.79183 12.9893 2.66682 12.6293 2.87082Z" fill="#4EA62F"/>
<path id="Vector_19" d="M34.1293 40.6848C33.7693 40.8898 33.6433 41.3478 33.8483 41.7078L35.3483 44.3448C35.4863 44.5878 35.7403 44.7238 36.0003 44.7238C36.1263 44.7238 36.2533 44.6928 36.3713 44.6258C36.7313 44.4208 36.8573 43.9628 36.6523 43.6028L35.1523 40.9658C34.9473 40.6058 34.4883 40.4818 34.1293 40.6848Z" fill="#4EA62F"/>
<path id="Vector_20" d="M20.3773 0.00970326C19.9693 0.0807033 19.6953 0.469708 19.7673 0.876708L20.2883 3.87671C20.3513 4.24171 20.6683 4.49871 21.0264 4.49871C21.0684 4.49871 21.1123 4.49471 21.1553 4.48771C21.5633 4.41671 21.8373 4.0277 21.7653 3.6207L21.2443 0.620703C21.1743 0.212703 20.7903 -0.0552967 20.3773 0.00970326Z" fill="#4EA62F"/>
<path id="Vector_21" d="M27.8441 43.0095C27.4361 43.0805 27.1621 43.4695 27.2341 43.8775L27.7551 46.8775C27.8181 47.2415 28.1351 47.4985 28.4931 47.4985C28.5351 47.4985 28.5791 47.4945 28.6221 47.4875C29.0301 47.4165 29.3041 47.0275 29.2321 46.6195L28.7111 43.6195C28.6411 43.2125 28.2551 42.9475 27.8441 43.0095Z" fill="#4EA62F"/>
<path id="Vector_22" d="M18.5007 25.4987H22.6357L21.7577 31.6427C21.7097 31.9777 21.8917 32.3027 22.2027 32.4377C22.2987 32.4797 22.3997 32.4997 22.4997 32.4997C22.7227 32.4997 22.9397 32.3997 23.0857 32.2187L31.0857 22.2187C31.2657 21.9927 31.3007 21.6847 31.1757 21.4247C31.0517 21.1647 30.7877 20.9997 30.4997 20.9997H26.3847L27.2387 15.8727C27.2937 15.5437 27.1237 15.2177 26.8217 15.0727C26.5227 14.9287 26.1597 15.0017 25.9377 15.2517L17.9377 24.2517C17.7417 24.4727 17.6927 24.7877 17.8137 25.0577C17.9377 25.3267 18.2057 25.4987 18.5007 25.4987ZM25.3337 18.1917L24.7617 21.6267C24.7257 21.8437 24.7867 22.0657 24.9287 22.2337C25.0717 22.4027 25.2807 22.4997 25.5007 22.4997H28.9397L23.6317 29.1357L24.2427 24.8567C24.2737 24.6407 24.2087 24.4227 24.0667 24.2587C23.9247 24.0947 23.7177 23.9997 23.5007 23.9997H20.1707L25.3337 18.1917Z" fill="#4EA62F"/>
</g>
</svg>
