<svg width="49" height="48" viewBox="0 0 49 48" fill="none" xmlns="http://www.w3.org/2000/svg">
<g id="Group">
<path id="Vector" d="M35.3862 44.4995C42.4162 44.4995 48.1362 38.7795 48.1362 31.7495C48.1362 24.7195 42.4162 18.9995 35.3862 18.9995C32.7062 18.9995 30.2202 19.8345 28.1652 21.2525L21.2222 15.3685C21.0502 14.8095 20.7843 14.2965 20.4323 13.8455C20.4433 13.7585 20.4523 13.6685 20.4323 13.5805L17.4323 0.580513C17.3533 0.240513 17.0502 -0.000488281 16.7012 -0.000488281C16.3522 -0.000488281 16.0492 0.240513 15.9702 0.580513L12.9702 13.5805C12.9502 13.6685 12.9582 13.7585 12.9702 13.8455C12.7872 14.0795 12.6293 14.3285 12.4923 14.5955C12.4703 14.6105 12.4433 14.6155 12.4233 14.6315L1.12824 24.2025C0.856238 24.4335 0.784241 24.8235 0.956241 25.1365C1.09024 25.3815 1.34625 25.5255 1.61325 25.5255C1.68725 25.5255 1.76225 25.5145 1.83625 25.4915L13.9512 21.7195V38.0005H13.7012C12.1842 38.0005 10.9512 39.2335 10.9512 40.7505V42.7505V46.7505C10.9512 47.1645 11.2872 47.5005 11.7012 47.5005H21.7012C22.1152 47.5005 22.4512 47.1645 22.4512 46.7505V40.7505C22.4512 39.2335 21.2182 38.0005 19.7012 38.0005H19.4512V21.9135L25.4493 23.7815C23.6943 25.9665 22.6372 28.7345 22.6372 31.7495C22.6362 38.7805 28.3552 44.4995 35.3862 44.4995ZM20.9502 40.7495V42.0505C20.8712 42.0225 20.7892 41.9995 20.7002 41.9995H19.7002C19.2862 41.9995 18.9502 42.3355 18.9502 42.7495C18.9502 43.1635 19.2862 43.4995 19.7002 43.4995H20.7002C20.7892 43.4995 20.8712 43.4775 20.9502 43.4485V45.9995H12.4502V43.4995H16.7002C17.1142 43.4995 17.4502 43.1635 17.4502 42.7495C17.4502 42.3355 17.1142 41.9995 16.7002 41.9995H12.4502V40.7495C12.4502 40.0605 13.0102 39.4995 13.7002 39.4995H14.7002H18.7002H19.7002C20.3902 39.4995 20.9502 40.0605 20.9502 40.7495ZM17.9502 37.9995H15.4502V21.4995H16.7002H17.9502V37.9995ZM4.91223 22.9625L11.9732 16.9785C12.0372 18.2885 12.6282 19.4525 13.5452 20.2745L4.91223 22.9625ZM16.7002 4.08451L18.6222 12.4145C18.0332 12.1515 17.3852 11.9995 16.7002 11.9995C16.0152 11.9995 15.3672 12.1515 14.7782 12.4145L16.7002 4.08451ZM13.4502 16.7495C13.4502 16.5405 13.4742 16.3385 13.5112 16.1405C13.5712 15.8245 13.6862 15.5305 13.8322 15.2535C13.9762 14.9785 14.1502 14.7215 14.3642 14.4995C14.6722 14.1805 15.0402 13.9225 15.4552 13.7495C15.8392 13.5895 16.2592 13.4995 16.7002 13.4995C17.1412 13.4995 17.5613 13.5895 17.9453 13.7495C18.3603 13.9225 18.7282 14.1805 19.0362 14.4995C19.1182 14.5845 19.1882 14.6785 19.2612 14.7715C19.4302 14.9895 19.5802 15.2205 19.6903 15.4765C19.8253 15.7925 19.8972 16.1375 19.9252 16.4955C19.9312 16.5815 19.9502 16.6625 19.9502 16.7495C19.9502 18.1555 19.0473 19.3455 17.7943 19.7965C17.4953 19.9045 17.1772 19.9705 16.8442 19.9845C16.8212 19.9855 16.7992 19.9915 16.7762 19.9915C16.7512 19.9925 16.7272 19.9995 16.7012 19.9995C16.4452 19.9995 16.1982 19.9625 15.9592 19.9055C15.9522 19.9045 15.9462 19.9015 15.9392 19.8995C15.4352 19.7775 14.9822 19.5355 14.6012 19.2095C14.1252 18.8025 13.7722 18.2645 13.5932 17.6475C13.5092 17.3615 13.4502 17.0635 13.4502 16.7495ZM21.3772 17.4675L26.9642 22.2015L27.5362 22.6865L27.8622 22.9615L27.3942 22.8155L26.5712 22.5585L19.6842 20.4135C20.5752 19.6885 21.1952 18.6555 21.3772 17.4675ZM30.9382 25.4905C31.0122 25.5135 31.0872 25.5245 31.1612 25.5245C31.4292 25.5245 31.6842 25.3805 31.8182 25.1355C31.9902 24.8235 31.9182 24.4325 31.6462 24.2015L29.3602 22.2635C31.1052 21.1515 33.1682 20.4975 35.3862 20.4975C41.5892 20.4975 46.6362 25.5445 46.6362 31.7475C46.6362 37.9505 41.5892 42.9975 35.3862 42.9975C29.1832 42.9975 24.1362 37.9505 24.1362 31.7475C24.1362 28.8735 25.2292 26.2565 27.0093 24.2655L30.9382 25.4905Z" fill="#4EA62F"/>
<path id="Vector_2" d="M29.3855 33.4994H33.5205L32.6425 39.6434C32.5945 39.9784 32.7765 40.3034 33.0875 40.4384C33.1835 40.4804 33.2845 40.4994 33.3845 40.4994C33.6075 40.4994 33.8245 40.3994 33.9705 40.2184L41.9705 30.2184C42.1505 29.9924 42.1855 29.6844 42.0605 29.4244C41.9355 29.1644 41.6725 28.9994 41.3845 28.9994H37.2695L38.1235 23.8724C38.1785 23.5434 38.0085 23.2174 37.7065 23.0724C37.4075 22.9274 37.0455 23.0024 36.8225 23.2514L28.8225 32.2514C28.6265 32.4724 28.5775 32.7874 28.6985 33.0574C28.8225 33.3264 29.0895 33.4994 29.3855 33.4994ZM36.2175 26.1924L35.6455 29.6264C35.6095 29.8434 35.6705 30.0664 35.8125 30.2344C35.9555 30.4034 36.1645 30.5004 36.3845 30.5004H39.8245L34.5165 37.1364L35.1275 32.8574C35.1585 32.6414 35.0935 32.4234 34.9515 32.2594C34.8095 32.0954 34.6025 32.0004 34.3855 32.0004H31.0555L36.2175 26.1924Z" fill="#4EA62F"/>
<path id="Vector_3" d="M16.6992 17.4976C16.8992 17.4976 17.0992 17.4176 17.2292 17.2776C17.3692 17.1476 17.4492 16.9476 17.4492 16.7476C17.4492 16.5486 17.3692 16.3576 17.2292 16.2186C16.9492 15.9386 16.4592 15.9286 16.1692 16.2186C16.0292 16.3586 15.9492 16.5586 15.9492 16.7476C15.9492 16.9476 16.0292 17.1386 16.1692 17.2776C16.3092 17.4176 16.4992 17.4976 16.6992 17.4976Z" fill="#4EA62F"/>
</g>
</svg>
