<svg width="49" height="48" viewBox="0 0 49 48" fill="none" xmlns="http://www.w3.org/2000/svg">
<g id="Group">
<path id="Vector" d="M40.6584 36.6325C40.2494 36.5565 39.8594 36.8245 39.7824 37.2315C39.7064 37.6385 39.9744 38.0315 40.3814 38.1075C40.7304 38.1725 41.0694 38.2295 41.3984 38.2765C41.4344 38.2825 41.4704 38.2845 41.5064 38.2845C41.8734 38.2845 42.1944 38.0145 42.2474 37.6405C42.3064 37.2315 42.0224 36.8505 41.6124 36.7915C41.3054 36.7475 40.9864 36.6945 40.6584 36.6325Z" fill="#4EA62F"/>
<path id="Vector_2" d="M10.733 24.0275C8.214 25.8675 6.034 27.7055 4.396 29.3805C4.107 29.6765 4.111 30.1505 4.408 30.4405C4.554 30.5835 4.743 30.6545 4.933 30.6545C5.128 30.6545 5.322 30.5795 5.469 30.4285C7.136 28.7255 9.397 26.8365 12.02 24.9485C12.613 25.3645 13.208 25.7685 13.801 26.1615C13.936 29.2575 14.332 32.1575 14.937 34.7665C12.394 35.6725 10.074 36.3235 8.116 36.6705C7.651 35.8105 6.751 35.2175 5.706 35.2175C4.643 35.2175 3.729 35.8295 3.272 36.7145C2.855 36.5715 2.555 36.3715 2.4 36.1155C2.326 35.9935 2.28 35.8595 2.26 35.7065C2.206 35.2955 1.83 35.0105 1.42 35.0595C1.009 35.1135 0.719004 35.4905 0.773004 35.9005C0.820004 36.2595 0.936001 36.5935 1.118 36.8945C1.49 37.5065 2.118 37.9365 2.979 38.1925C3.096 39.6025 4.267 40.7175 5.707 40.7175C7.169 40.7175 8.356 39.5685 8.441 38.1275C10.439 37.7675 12.767 37.1195 15.304 36.2245C17.174 43.0385 20.556 47.5005 24.499 47.5005C28.44 47.5005 31.823 43.0385 33.693 36.2275C34.979 36.6825 36.223 37.0845 37.401 37.4095C37.468 37.4285 37.535 37.4365 37.601 37.4365C37.93 37.4365 38.232 37.2185 38.324 36.8855C38.434 36.4865 38.199 36.0735 37.801 35.9635C36.615 35.6365 35.361 35.2315 34.06 34.7685C34.665 32.1595 35.061 29.2575 35.197 26.1615C35.79 25.7685 36.385 25.3645 36.977 24.9495C38.952 26.3695 40.577 27.6805 41.897 28.8715C41.672 29.3215 41.534 29.8225 41.534 30.3585C41.534 32.2095 43.04 33.7165 44.892 33.7165C45.286 33.7165 45.658 33.6355 46.01 33.5105C46.515 34.3505 46.75 35.0295 46.75 35.5175C46.75 35.7515 46.701 35.9475 46.599 36.1145C46.238 36.7095 45.23 36.8975 44.448 36.9515C44.035 36.9795 43.723 37.3375 43.751 37.7505C43.778 38.1465 44.107 38.4495 44.498 38.4495C44.516 38.4495 44.533 38.4485 44.55 38.4475C46.202 38.3355 47.323 37.8115 47.881 36.8925C48.126 36.4905 48.25 36.0275 48.25 35.5175C48.25 34.6505 47.877 33.6945 47.283 32.7095C47.88 32.1035 48.25 31.2745 48.25 30.3585C48.25 28.5065 46.744 27.0005 44.893 27.0005C44.12 27.0005 43.415 27.2735 42.847 27.7155C41.232 26.2685 39.557 24.9715 38.265 24.0265C43.55 20.1535 48.25 15.6315 48.25 12.5435C48.25 12.0335 48.126 11.5705 47.881 11.1675C47.347 10.2895 46.223 9.86252 44.445 9.86252C42.039 9.86252 38.284 10.7005 33.909 12.1725C33.596 10.9085 33.234 9.70351 32.819 8.58351C32.675 8.19451 32.243 7.99551 31.856 8.14151C31.467 8.28551 31.269 8.71651 31.413 9.10551C31.823 10.2125 32.178 11.4105 32.485 12.6665C31.237 13.1115 29.949 13.6025 28.632 14.1395C28.248 14.2955 28.064 14.7335 28.22 15.1165C28.376 15.4995 28.813 15.6865 29.198 15.5275C30.437 15.0225 31.648 14.5585 32.82 14.1365C33.428 17.1195 33.751 20.4015 33.751 23.7505C33.751 24.3395 33.738 24.9225 33.718 25.5025C33.643 25.6735 33.635 25.8615 33.699 26.0435C33.568 28.9625 33.191 31.7325 32.62 34.2315C31.543 33.8205 30.445 33.3815 29.306 32.8855C28.927 32.7175 28.485 32.8955 28.319 33.2745C28.154 33.6545 28.328 34.0955 28.708 34.2605C29.926 34.7895 31.101 35.2595 32.252 35.6955C30.585 41.8415 27.702 46.0015 24.5 46.0015C21.297 46.0015 18.415 41.8415 16.748 35.6945C17.901 35.2585 19.079 34.7895 20.292 34.2605C20.672 34.0955 20.846 33.6535 20.68 33.2745C20.516 32.8945 20.075 32.7175 19.693 32.8855C18.557 33.3795 17.457 33.8205 16.38 34.2315C15.809 31.7345 15.432 28.9635 15.301 26.0435C15.365 25.8615 15.357 25.6735 15.282 25.5025C15.262 24.9225 15.249 24.3395 15.249 23.7505C15.249 20.2555 15.606 16.9205 16.234 13.9415C17.534 14.3945 18.868 14.8955 20.216 15.4445C20.6 15.6045 21.037 15.4175 21.194 15.0335C21.35 14.6495 21.166 14.2125 20.782 14.0555C19.358 13.4755 17.947 12.9485 16.572 12.4735C17.169 10.0955 17.946 7.99452 18.852 6.28052C19.21 6.41652 19.595 6.50052 20 6.50052C21.792 6.50052 23.25 5.04252 23.25 3.25052C23.25 2.74652 23.125 2.27451 22.919 1.84851C23.435 1.62451 23.963 1.50052 24.501 1.50052H24.503C25.735 1.50052 26.947 2.11651 28.105 3.33351C28.39 3.63251 28.865 3.64552 29.165 3.35852C29.465 3.07352 29.477 2.59852 29.191 2.29752C27.739 0.773516 26.162 -0.000488281 24.503 -0.000488281H24.5C23.614 -0.000488281 22.758 0.230509 21.939 0.656509C21.397 0.249509 20.73 -0.000488281 20 -0.000488281C18.208 -0.000488281 16.75 1.45751 16.75 3.24951C16.75 4.08451 17.075 4.83852 17.595 5.41452C16.597 7.24052 15.759 9.46551 15.12 11.9865C10.919 10.6315 7.177 9.84451 4.711 9.84451C2.835 9.84451 1.66 10.2765 1.119 11.1665C0.874005 11.5685 0.750001 12.0315 0.750001 12.5415C0.747001 15.6305 5.447 20.1545 10.733 24.0275ZM5.705 39.2165C5.187 39.2165 4.742 38.9005 4.553 38.4495C4.491 38.3005 4.455 38.1375 4.455 37.9665C4.455 37.5465 4.677 37.1925 4.996 36.9655C5.2 36.8205 5.436 36.7165 5.705 36.7165C5.938 36.7165 6.144 36.7975 6.331 36.9095C6.697 37.1275 6.955 37.5105 6.955 37.9665C6.955 38.1055 6.918 38.2325 6.876 38.3575C6.71 38.8535 6.256 39.2165 5.705 39.2165ZM43.966 28.7555C44.239 28.5975 44.552 28.4995 44.89 28.4995C45.914 28.4995 46.747 29.3335 46.747 30.3575C46.747 30.7555 46.619 31.1235 46.405 31.4255C46.105 31.8495 45.632 32.1365 45.09 32.1955C45.024 32.2035 44.959 32.2165 44.89 32.2165C43.865 32.2165 43.032 31.3825 43.032 30.3585C43.032 30.2265 43.047 30.0985 43.073 29.9745C43.183 29.4515 43.517 29.0155 43.966 28.7555ZM44.442 11.3625C45.586 11.3625 46.371 11.5755 46.596 11.9455C46.698 12.1135 46.747 12.3085 46.747 12.5435C46.747 14.5685 43.17 18.9455 35.241 24.3245C35.243 24.1335 35.247 23.9435 35.247 23.7505C35.247 20.2295 34.896 16.7755 34.242 13.6395C38.516 12.1875 42.155 11.3625 44.442 11.3625ZM18.247 3.25052C18.247 2.28552 19.032 1.50052 19.997 1.50052C20.193 1.50052 20.378 1.54051 20.554 1.60051C21.053 1.76951 21.45 2.15251 21.633 2.64551C21.704 2.83451 21.748 3.03752 21.748 3.25052C21.748 4.21552 20.963 5.00052 19.998 5.00052C19.87 5.00052 19.746 4.98451 19.625 4.95851C19.101 4.84451 18.668 4.49151 18.435 4.02251C18.318 3.78851 18.247 3.52852 18.247 3.25052ZM2.397 11.9465C2.483 11.8055 2.903 11.3455 4.708 11.3455C7.059 11.3455 10.682 12.1185 14.774 13.4505C14.114 16.5515 13.747 20.0385 13.747 23.7505C13.747 23.9435 13.751 24.1335 13.753 24.3245C5.824 18.9455 2.247 14.5685 2.247 12.5435C2.247 12.3085 2.296 12.1135 2.397 11.9465Z" fill="#4EA62F"/>
<path id="Vector_3" d="M30.0428 4.57767C29.6858 4.78767 29.5678 5.24767 29.7778 5.60467C29.9368 5.87267 30.0918 6.15367 30.2428 6.44367C30.3758 6.70067 30.6378 6.84768 30.9088 6.84768C31.0258 6.84768 31.1438 6.82068 31.2538 6.76368C31.6218 6.57268 31.7648 6.11867 31.5738 5.75167C31.4098 5.43667 31.2418 5.13268 31.0698 4.84068C30.8598 4.48568 30.3988 4.36767 30.0428 4.57767Z" fill="#4EA62F"/>
<path id="Vector_4" d="M2.40781 33.7485C2.65781 33.7485 2.90382 33.6225 3.04582 33.3945C3.20182 33.1425 3.37881 32.8845 3.57481 32.6185C3.82081 32.2855 3.74981 31.8155 3.41681 31.5695C3.08381 31.3245 2.61381 31.3945 2.36781 31.7275C2.14581 32.0275 1.94681 32.3205 1.77081 32.6035C1.55281 32.9565 1.66081 33.4175 2.01281 33.6365C2.13581 33.7125 2.27181 33.7485 2.40781 33.7485Z" fill="#4EA62F"/>
<path id="Vector_5" d="M18.3926 25.7505C18.3926 27.8175 20.0746 29.5005 22.1426 29.5005C23.1066 29.5005 23.9776 29.1245 24.6426 28.5245C25.3076 29.1245 26.1786 29.5005 27.1426 29.5005C29.2106 29.5005 30.8926 27.8175 30.8926 25.7505C30.8926 23.9285 29.5856 22.4085 27.8596 22.0725C27.8686 21.9655 27.8926 21.8605 27.8926 21.7505C27.8926 19.6835 26.2106 18.0005 24.1426 18.0005C22.0746 18.0005 20.3926 19.6835 20.3926 21.7505C20.3926 21.9795 20.4206 22.2005 20.4596 22.4175C19.2386 23.0365 18.3926 24.2905 18.3926 25.7505ZM21.8926 21.7505C21.8926 20.5105 22.9016 19.5005 24.1426 19.5005C25.3836 19.5005 26.3926 20.5105 26.3926 21.7505C26.3926 21.8655 26.3756 21.9755 26.3586 22.0855C25.7056 22.2265 25.1226 22.5435 24.6426 22.9765C23.9776 22.3765 23.1066 22.0005 22.1426 22.0005C22.0666 22.0005 21.9956 22.0185 21.9196 22.0225C21.9086 21.9315 21.8926 21.8435 21.8926 21.7505ZM27.1426 28.0005C26.5136 28.0005 25.9446 27.7385 25.5366 27.3205C25.3136 27.0925 25.1446 26.8155 25.0336 26.5095C24.9476 26.2705 24.8926 26.0175 24.8926 25.7495C24.8926 25.6345 24.9096 25.5245 24.9266 25.4145C24.9486 25.2675 24.9846 25.1265 25.0336 24.9905C25.0926 24.8285 25.1636 24.6735 25.2566 24.5305C25.3386 24.4035 25.4316 24.2855 25.5356 24.1785C25.7936 23.9145 26.1176 23.7225 26.4776 23.6105C26.6886 23.5455 26.9096 23.4995 27.1416 23.4995C27.2376 23.4995 27.3296 23.5165 27.4226 23.5275C28.5296 23.6685 29.3916 24.6045 29.3916 25.7495C29.3926 26.9905 28.3826 28.0005 27.1426 28.0005ZM21.7476 23.5405C21.8766 23.5175 22.0076 23.5005 22.1426 23.5005C22.4376 23.5005 22.7176 23.5615 22.9756 23.6645C23.0926 23.7115 23.2026 23.7715 23.3096 23.8365C23.4696 23.9345 23.6186 24.0465 23.7486 24.1805C23.6726 24.3445 23.6156 24.5165 23.5626 24.6925C23.4926 24.9295 23.4466 25.1745 23.4246 25.4285C23.4156 25.5355 23.3916 25.6405 23.3916 25.7505C23.3916 26.3125 23.5246 26.8415 23.7476 27.3205C23.3386 27.7385 22.7706 28.0005 22.1416 28.0005C20.9006 28.0005 19.8916 26.9905 19.8916 25.7505C19.8916 24.9225 20.3476 24.2045 21.0156 23.8145C21.2396 23.6825 21.4836 23.5875 21.7476 23.5405Z" fill="#4EA62F"/>
</g>
</svg>
