<svg width="49" height="48" viewBox="0 0 49 48" fill="none" xmlns="http://www.w3.org/2000/svg">
    <defs></defs>
    <path d="M10.0758 30.6546H9.61722C9.05741 30.6546 8.52053 30.8769 8.12468 31.2728C7.72884 31.6686 7.50646 32.2055 7.50646 32.7653C7.50646 33.3251 7.72884 33.862 8.12468 34.2578C8.52053 34.6537 9.05741 34.8761 9.61722 34.8761H10.0758C10.6356 34.8761 11.1724 34.6537 11.5683 34.2578C11.9641 33.862 12.1865 33.3251 12.1865 32.7653C12.1865 32.2055 11.9641 31.6686 11.5683 31.2728C11.1724 30.8769 10.6356 30.6546 10.0758 30.6546ZM10.0758 33.7115H9.61722C9.36627 33.7115 9.1256 33.6118 8.94815 33.4344C8.7707 33.2569 8.67101 33.0163 8.67101 32.7653C8.67101 32.5144 8.7707 32.2737 8.94815 32.0962C9.1256 31.9188 9.36627 31.8191 9.61722 31.8191H10.0758C10.3267 31.8191 10.5674 31.9188 10.7448 32.0962C10.9223 32.2737 11.022 32.5144 11.022 32.7653C11.022 33.0163 10.9223 33.2569 10.7448 33.4344C10.5674 33.6118 10.3267 33.7115 10.0758 33.7115ZM27.5328 30.6546H27.0742C26.5144 30.6546 25.9775 30.8769 25.5817 31.2728C25.1858 31.6686 24.9635 32.2055 24.9635 32.7653C24.9635 33.3251 25.1858 33.862 25.5817 34.2578C25.9775 34.6537 26.5144 34.8761 27.0742 34.8761H27.5328C28.0926 34.8761 28.6294 34.6537 29.0253 34.2578C29.4211 33.862 29.6435 33.3251 29.6435 32.7653C29.6435 32.2055 29.4211 31.6686 29.0253 31.2728C28.6294 30.8769 28.0926 30.6546 27.5328 30.6546ZM27.5328 33.7115H27.0742C26.8233 33.7115 26.5826 33.6118 26.4051 33.4344C26.2277 33.2569 26.128 33.0163 26.128 32.7653C26.128 32.5144 26.2277 32.2737 26.4051 32.0962C26.5826 31.9188 26.8233 31.8191 27.0742 31.8191H27.5328C27.7837 31.8191 28.0244 31.9188 28.2018 32.0962C28.3793 32.2737 28.479 32.5144 28.479 32.7653C28.479 33.0163 28.3793 33.2569 28.2018 33.4344C28.0244 33.6118 27.7837 33.7115 27.5328 33.7115ZM23.1643 31.2368C23.1643 31.0824 23.1029 30.9343 22.9937 30.8251C22.8845 30.7159 22.7364 30.6546 22.582 30.6546H14.5029C14.3485 30.6546 14.2004 30.7159 14.0912 30.8251C13.982 30.9343 13.9206 31.0824 13.9206 31.2368V34.221C13.9206 34.3754 13.982 34.5235 14.0912 34.6327C14.2004 34.7419 14.3485 34.8033 14.5029 34.8033H22.582C22.7364 34.8033 22.8845 34.7419 22.9937 34.6327C23.1029 34.5235 23.1643 34.3754 23.1643 34.221V31.2368ZM21.9997 33.6387H15.0852V31.8191H21.9997V33.6387Z" fill="#4EA62F"></path>
    <path d="M 39.396 9.111 C 39.473 9.111 39.549 9.096 39.618 9.066 C 39.688 9.037 39.752 8.995 39.807 8.94 C 39.862 8.886 39.905 8.821 39.934 8.751 C 39.963 8.681 39.978 8.606 39.978 8.528 C 39.978 8.451 39.963 8.376 39.934 8.306 C 39.905 8.236 39.862 8.172 39.807 8.117 C 39.753 8.062 39.688 8.019 39.618 7.99 C 39.548 7.961 39.473 7.946 39.396 7.946 L 38.595 7.946 L 37.794 7.946 L 37.794 7.778 L 37.794 7.61 C 37.794 7.449 37.736 7.297 37.637 7.184 C 37.539 7.072 37.4 7 37.239 7 L 35.82 7 L 34.401 7 C 33.778 7 33.207 7.237 32.772 7.628 C 32.336 8.019 32.036 8.564 31.951 9.183 L 22.085 9.183 L 12.219 9.183 C 11.664 9.183 11.12 9.293 10.617 9.502 C 10.114 9.71 9.652 10.017 9.26 10.409 C 8.868 10.802 8.561 11.264 8.353 11.767 C 8.144 12.27 8.034 12.814 8.034 13.369 C 8.034 13.924 8.144 14.468 8.353 14.97 C 8.561 15.473 8.868 15.936 9.26 16.328 C 9.652 16.721 10.114 17.027 10.617 17.235 C 11.12 17.444 11.664 17.554 12.219 17.554 L 23.41 17.554 L 34.6 17.554 C 34.8 17.553 34.999 17.571 35.194 17.609 C 35.389 17.647 35.581 17.704 35.765 17.779 C 35.95 17.855 36.127 17.948 36.292 18.058 C 36.458 18.167 36.613 18.293 36.755 18.434 C 36.897 18.575 37.024 18.729 37.134 18.894 C 37.245 19.059 37.34 19.235 37.416 19.419 C 37.493 19.603 37.551 19.795 37.59 19.99 C 37.629 20.185 37.649 20.383 37.649 20.583 C 37.57 20.839 37.624 21.106 37.677 21.363 C 37.73 21.62 37.784 21.868 37.704 22.086 C 37.682 22.147 37.849 22.387 37.992 22.658 C 38.135 22.93 38.253 23.233 38.133 23.419 C 37.986 23.646 37.599 23.759 37.241 23.831 C 36.884 23.904 36.556 23.936 36.528 24.003 C 36.451 24.192 36.065 24.831 35.706 25.613 C 35.347 26.395 35.015 27.32 35.046 28.079 C 35.046 28.922 35.356 30.039 35.456 30.945 C 35.555 31.852 35.444 32.547 34.601 32.547 L 33.505 32.547 L 32.408 32.547 L 32.408 31.519 L 32.408 30.49 C 32.407 30.261 32.383 30.032 32.336 29.809 C 32.289 29.585 32.22 29.367 32.129 29.156 C 32.039 28.946 31.927 28.745 31.797 28.558 C 31.666 28.37 31.517 28.196 31.351 28.037 L 31.049 27.717 L 30.746 27.396 L 29.687 24.545 L 28.628 21.694 C 28.54 21.46 28.417 21.242 28.264 21.047 C 28.112 20.852 27.931 20.68 27.725 20.537 C 27.519 20.395 27.294 20.286 27.057 20.213 C 26.821 20.139 26.574 20.101 26.323 20.101 L 18.763 20.101 L 11.202 20.101 C 10.952 20.101 10.704 20.139 10.468 20.213 C 10.232 20.286 10.007 20.396 9.801 20.538 C 9.596 20.68 9.414 20.852 9.262 21.047 C 9.11 21.242 8.988 21.46 8.9 21.694 L 7.855 24.512 L 6.81 27.329 L 6.376 27.73 L 5.941 28.13 C 5.755 28.289 5.587 28.467 5.439 28.661 C 5.292 28.855 5.166 29.065 5.063 29.287 C 4.96 29.509 4.882 29.741 4.829 29.979 C 4.777 30.217 4.75 30.46 4.75 30.705 L 4.75 35.798 L 4.75 40.89 C 4.751 40.969 4.766 41.047 4.796 41.119 C 4.825 41.191 4.868 41.257 4.923 41.314 C 4.978 41.371 5.043 41.416 5.114 41.447 C 5.185 41.479 5.262 41.497 5.341 41.5 L 7.994 41.5 L 10.647 41.5 C 10.808 41.5 10.953 41.428 11.058 41.316 C 11.163 41.204 11.228 41.051 11.228 40.89 L 11.228 39.339 L 11.228 37.788 L 18.579 37.788 L 25.93 37.788 L 25.93 39.339 L 25.93 40.89 C 25.93 41.051 25.993 41.204 26.096 41.316 C 26.199 41.428 26.342 41.5 26.503 41.5 L 29.156 41.5 L 31.809 41.5 C 31.889 41.497 31.966 41.479 32.038 41.448 C 32.109 41.416 32.175 41.372 32.23 41.315 C 32.286 41.258 32.33 41.192 32.36 41.119 C 32.391 41.047 32.407 40.97 32.408 40.89 L 32.408 37.301 L 32.408 33.712 L 33.505 33.712 L 35.052 33.712 C 35.327 33.137 35.481 32.522 35.481 31.4 C 35.481 30.279 35.327 28.952 35.436 27.857 C 35.171 27.112 35.285 26.329 35.61 25.593 C 35.934 24.857 36.469 24.168 37.046 23.61 C 37.13 23.529 37.204 23.602 37.275 23.676 C 37.345 23.749 37.411 23.823 37.479 23.742 C 37.978 23.154 38.281 22.436 38.475 21.829 C 38.669 21.222 38.753 20.726 38.813 20.583 C 38.813 20.307 38.786 20.032 38.732 19.763 C 38.678 19.493 38.598 19.229 38.492 18.974 C 38.386 18.719 38.255 18.476 38.102 18.248 C 37.949 18.019 37.774 17.806 37.578 17.611 C 37.383 17.417 37.169 17.242 36.94 17.09 C 36.711 16.938 36.467 16.808 36.211 16.703 C 35.956 16.599 35.691 16.52 35.421 16.467 C 35.152 16.414 34.877 16.388 34.601 16.389 L 23.411 16.389 L 12.22 16.389 C 11.819 16.389 11.427 16.31 11.064 16.159 C 10.701 16.009 10.367 15.788 10.084 15.504 C 9.801 15.221 9.579 14.888 9.429 14.525 C 9.279 14.162 9.199 13.77 9.199 13.369 C 9.199 12.968 9.279 12.576 9.429 12.213 C 9.579 11.85 9.801 11.516 10.084 11.233 C 10.367 10.95 10.701 10.728 11.064 10.578 C 11.427 10.428 11.819 10.348 12.22 10.348 L 22.086 10.348 L 31.952 10.348 C 31.998 10.641 32.094 10.92 32.236 11.175 C 32.377 11.43 32.564 11.661 32.788 11.854 C 33.013 12.048 33.268 12.198 33.541 12.3 C 33.814 12.403 34.105 12.457 34.401 12.459 L 35.821 12.459 L 37.24 12.459 C 37.401 12.459 37.539 12.391 37.637 12.283 C 37.736 12.176 37.794 12.028 37.794 11.867 L 37.794 11.69 L 37.794 11.513 L 38.595 11.513 L 39.396 11.513 C 39.473 11.513 39.549 11.498 39.618 11.468 C 39.688 11.439 39.753 11.397 39.807 11.342 C 39.862 11.288 39.905 11.223 39.934 11.153 C 39.963 11.083 39.978 11.008 39.978 10.93 C 39.978 10.853 39.963 10.778 39.934 10.708 C 39.905 10.638 39.862 10.574 39.807 10.519 C 39.753 10.464 39.688 10.421 39.618 10.392 C 39.549 10.363 39.473 10.348 39.396 10.348 L 38.595 10.348 L 37.794 10.348 L 37.794 9.73 L 37.794 9.111 L 38.595 9.111 L 39.396 9.111 M 9.992 22.106 C 10.038 21.983 10.102 21.868 10.182 21.765 C 10.262 21.663 10.357 21.572 10.465 21.497 C 10.574 21.422 10.692 21.364 10.816 21.325 C 10.94 21.286 11.07 21.266 11.202 21.266 L 18.763 21.266 L 26.323 21.266 C 26.455 21.266 26.585 21.286 26.71 21.325 C 26.834 21.364 26.952 21.422 27.06 21.497 C 27.168 21.572 27.263 21.662 27.343 21.765 C 27.423 21.868 27.488 21.983 27.534 22.106 L 28.457 24.598 L 29.38 27.089 L 18.762 27.089 L 8.144 27.089 L 9.068 24.598 L 9.992 22.106 M 10.063 40.335 L 7.989 40.335 L 5.915 40.335 L 5.915 39.062 L 5.915 37.788 L 7.989 37.788 L 10.063 37.788 L 10.063 39.062 L 10.063 40.335 M 27.095 40.335 L 27.095 39.062 L 27.095 37.788 L 29.17 37.788 L 31.244 37.788 L 31.244 39.062 L 31.244 40.335 L 29.17 40.335 L 27.095 40.335 M 31.244 36.623 L 18.58 36.623 L 5.915 36.623 L 5.915 33.664 L 5.915 30.705 C 5.915 30.543 5.933 30.382 5.968 30.225 C 6.002 30.069 6.054 29.916 6.123 29.769 C 6.191 29.622 6.275 29.483 6.372 29.356 C 6.47 29.228 6.582 29.111 6.705 29.007 C 6.709 29.004 6.713 29.003 6.716 29.001 C 6.72 29 6.724 28.999 6.727 28.996 L 7.132 28.624 L 7.537 28.253 L 18.736 28.253 L 29.935 28.253 L 30.22 28.553 L 30.504 28.853 C 30.508 28.857 30.514 28.861 30.521 28.864 C 30.527 28.868 30.533 28.871 30.537 28.875 C 30.648 28.978 30.747 29.093 30.834 29.216 C 30.921 29.339 30.996 29.471 31.056 29.61 C 31.117 29.749 31.163 29.893 31.195 30.041 C 31.226 30.188 31.242 30.338 31.243 30.49 L 31.243 33.556 L 31.243 36.623 L 31.244 36.623 M 33.063 9.974 L 33.063 9.738 L 33.063 9.502 C 33.066 9.325 33.103 9.153 33.171 8.993 C 33.238 8.834 33.336 8.687 33.461 8.562 C 33.586 8.437 33.733 8.339 33.892 8.272 C 34.052 8.204 34.225 8.167 34.401 8.164 L 34.787 8.164 L 35.174 8.164 L 35.174 9.729 L 35.174 11.294 L 34.787 11.294 L 34.401 11.294 C 34.226 11.293 34.054 11.258 33.894 11.193 C 33.735 11.127 33.588 11.03 33.463 10.907 C 33.338 10.783 33.24 10.638 33.172 10.48 C 33.104 10.321 33.066 10.15 33.063 9.974 M 36.63 11.294 L 36.485 11.294 L 36.339 11.294 L 36.339 9.729 L 36.339 8.164 L 36.485 8.164 L 36.63 8.164 L 36.63 9.729 L 36.63 11.294" fill="#4EA62F" style=""></path>
    <path d="M34.75 26.7419V35.1097C34.75 36.9901 36.2073 38.4944 38.0877 38.5884V39.9987C38.0877 40.8449 38.7929 41.5501 39.6391 41.5501C40.4852 41.5501 41.1904 40.8449 41.1904 39.9987V38.5884C43.0238 38.4944 44.5281 36.9901 44.5281 35.1097V26.7419C44.5281 24.9085 43.1648 23.4511 41.3784 23.2631C41.6135 22.934 41.7545 22.5109 41.7545 22.0408C41.7545 21.7588 41.7075 21.5237 41.6135 21.2887L43.6349 19.8784C43.87 19.7373 43.917 19.4553 43.776 19.2202C43.6349 18.9852 43.3529 18.9382 43.1178 19.0792L41.0964 20.4895C40.7203 20.1134 40.2032 19.8784 39.5921 19.8784C39.0279 19.8784 38.5108 20.1134 38.0877 20.4895L36.0663 19.0792C35.8312 18.9382 35.5492 18.9852 35.4081 19.2202C35.2671 19.4553 35.3141 19.7373 35.5492 19.8784L37.5706 21.2887C37.4766 21.5237 37.4296 21.7588 37.4296 22.0408C37.4296 22.5109 37.5706 22.887 37.8057 23.2631C36.1133 23.4511 34.75 24.9085 34.75 26.7419ZM39.6391 40.6569C39.31 40.6569 39.0279 40.3748 39.0279 40.0458V38.1653V35.6738C39.0279 35.3447 39.31 35.0627 39.6391 35.0627C39.9681 35.0627 40.2502 35.3447 40.2502 35.6738V38.1653V40.0458C40.2502 40.3748 39.9681 40.6569 39.6391 40.6569ZM39.6391 20.8656C40.2972 20.8656 40.8143 21.3827 40.8143 22.0408C40.8143 22.699 40.2972 23.2161 39.6391 23.2161C38.9809 23.2161 38.4638 22.699 38.4638 22.0408C38.4638 21.3827 38.9809 20.8656 39.6391 20.8656ZM38.2288 24.1563H39.6391H41.0494C42.4597 24.1563 43.5879 25.2845 43.5879 26.6948V35.0627C43.5879 36.426 42.5067 37.5072 41.1904 37.6012V35.5798C41.1904 34.7336 40.4852 34.0284 39.6391 34.0284C38.7929 34.0284 38.0877 34.7336 38.0877 35.5798V37.6012C36.7714 37.5072 35.6902 36.426 35.6902 35.0627V26.7419C35.6902 25.3315 36.8185 24.1563 38.2288 24.1563Z" fill="#4EA62F" style=""></path>
    <path d="M39.4979 29.4211H39.5449C40.4381 29.4211 41.3313 28.6689 42.2245 27.0706C42.3185 26.9295 42.3185 26.7415 42.2245 26.6005C42.1305 26.4594 41.9895 26.3654 41.8014 26.3654H37.4295C37.2884 26.3654 37.1004 26.4594 37.0534 26.6005C36.9594 26.7415 36.9594 26.9295 37.0064 27.0706C37.8055 28.6219 38.6047 29.3741 39.4979 29.4211ZM40.9552 27.3056C40.4381 28.0578 39.968 28.4809 39.5449 28.4809C39.1218 28.4809 38.6987 28.0578 38.2286 27.3056H40.9552Z" fill="#4EA62F"></path>
</svg>
