<svg width="46" height="21" viewBox="0 0 46 21" fill="none" xmlns="http://www.w3.org/2000/svg">
<g id="Group">
<g id="Group_2">
<path id="Vector" d="M8.76886 3.29579C9.30773 2.62178 9.67341 1.71679 9.57696 0.791992C8.78813 0.831216 7.82552 1.31241 7.26821 1.98695C6.76781 2.56458 6.32492 3.50747 6.44038 4.3935C7.32588 4.47031 8.21056 3.95089 8.76886 3.29579Z" fill="black"/>
<path id="Vector_2" d="M9.56563 4.56617C8.27967 4.48957 7.18629 5.29601 6.57218 5.29601C5.95773 5.29601 5.01732 4.60477 4.00019 4.6234C2.67634 4.64284 1.44795 5.39136 0.776155 6.58185C-0.605623 8.96343 0.411504 12.4961 1.75521 14.4358C2.40774 15.3954 3.19416 16.452 4.23038 16.4141C5.20943 16.3756 5.59318 15.7801 6.78327 15.7801C7.97248 15.7801 8.31815 16.414 9.35454 16.3948C10.4293 16.3756 11.1012 15.4348 11.7537 14.4742C12.5023 13.3803 12.8088 12.324 12.828 12.2661C12.8088 12.2469 10.7556 11.4592 10.7366 9.09743C10.7172 7.11988 12.3485 6.17925 12.4253 6.12091C11.5041 4.7584 10.0647 4.60477 9.56563 4.56617Z" fill="black"/>
</g>
<g id="Group_3">
<path id="Vector_3" d="M20.7599 1.89063C23.555 1.89063 25.5012 3.81726 25.5012 6.62228C25.5012 9.43732 23.5149 11.374 20.6899 11.374H17.5952V16.2953H15.3594V1.89062H20.7599V1.89063ZM17.5952 9.4972H20.1607C22.1074 9.4972 23.2153 8.44917 23.2153 6.63229C23.2153 4.81561 22.1074 3.7774 20.1707 3.7774H17.5952V9.4972Z" fill="black"/>
<path id="Vector_4" d="M26.0859 13.3105C26.0859 11.4736 27.4935 10.3457 29.9893 10.2059L32.864 10.0363V9.22774C32.864 8.05975 32.0753 7.361 30.7579 7.361C29.5098 7.361 28.7312 7.95982 28.5417 8.8983H26.5053C26.6251 7.00151 28.2421 5.604 30.8376 5.604C33.3831 5.604 35.0101 6.95164 35.0101 9.05792V16.2952H32.9437V14.5682H32.894C32.2852 15.7362 30.9574 16.4748 29.5799 16.4748C27.5235 16.4748 26.0859 15.1971 26.0859 13.3105ZM32.864 12.3622V11.5337L30.2785 11.6933C28.9907 11.7832 28.2621 12.3522 28.2621 13.2506C28.2621 14.1689 29.0207 14.7679 30.1787 14.7679C31.686 14.7679 32.864 13.7297 32.864 12.3622Z" fill="black"/>
<path id="Vector_5" d="M36.9601 20.1582V18.4113C37.1195 18.4511 37.4788 18.4511 37.6587 18.4511C38.6568 18.4511 39.196 18.032 39.5252 16.9539C39.5252 16.9339 39.7151 16.315 39.7151 16.305L35.9219 5.79346H38.2575L40.9131 14.3385H40.9527L43.6084 5.79346H45.8843L41.9509 16.8439C41.0529 19.3896 40.0147 20.2081 37.8385 20.2081C37.6587 20.2081 37.1195 20.1881 36.9601 20.1582Z" fill="black"/>
</g>
</g>
</svg>
