<svg width="52" height="21" viewBox="0 0 52 21" fill="none" xmlns="http://www.w3.org/2000/svg">
<g id="G Pay Lockup 1">
<g id="Pay Typeface 3">
<path id="Letter p 3" d="M24.0634 10.2306V16.0531H22.2031V1.6748H27.1349C28.3848 1.6748 29.4506 2.08864 30.3227 2.91631C31.2141 3.74398 31.6598 4.7545 31.6598 5.94789C31.6598 7.17014 31.2141 8.18067 30.3227 8.99871C29.4603 9.81675 28.3945 10.221 27.1349 10.221H24.0634V10.2306ZM24.0634 3.44563V8.45976H27.1737C27.9101 8.45976 28.5302 8.20954 29.0146 7.71871C29.5088 7.22788 29.7607 6.63119 29.7607 5.95751C29.7607 5.29345 29.5088 4.70638 29.0146 4.21556C28.5302 3.70548 27.9198 3.45525 27.1737 3.45525H24.0634V3.44563Z" fill="#3C4043"/>
<path id="Letter a 3" d="M36.5245 5.89014C37.9004 5.89014 38.9856 6.25585 39.7801 6.98728C40.5746 7.71871 40.9719 8.71961 40.9719 9.98998V16.0531H39.1987V14.6865H39.1212C38.3558 15.8125 37.3287 16.3707 36.0497 16.3707C34.9549 16.3707 34.0441 16.0531 33.3077 15.4083C32.5713 14.7635 32.2031 13.9647 32.2031 13.0023C32.2031 11.9822 32.5907 11.1737 33.3658 10.577C34.141 9.97073 35.1777 9.67239 36.4664 9.67239C37.571 9.67239 38.4817 9.8745 39.1891 10.2787V9.85525C39.1891 9.21043 38.9371 8.67149 38.4236 8.21916C37.9101 7.76683 37.3093 7.54547 36.6214 7.54547C35.5847 7.54547 34.7611 7.97856 34.1603 8.85434L32.5229 7.83419C33.424 6.53495 34.7611 5.89014 36.5245 5.89014ZM34.1216 13.0312C34.1216 13.5124 34.3251 13.9166 34.7417 14.2342C35.1486 14.5518 35.6331 14.7154 36.1854 14.7154C36.9702 14.7154 37.6678 14.4267 38.2783 13.8492C38.8887 13.2718 39.1987 12.5981 39.1987 11.8186C38.6174 11.3662 37.8132 11.1352 36.7764 11.1352C36.0207 11.1352 35.3909 11.3181 34.887 11.6742C34.3735 12.0495 34.1216 12.5019 34.1216 13.0312Z" fill="#3C4043"/>
<path id="Letter y 3" d="M51.086 6.20752L44.8849 20.3741H42.9664L45.2724 15.4177L41.1836 6.20752H43.2086L46.1542 13.2716H46.1929L49.0609 6.20752H51.086Z" fill="#3C4043"/>
</g>
<g id="G Mark 1">
<path id="Blue 500" d="M16.6677 9.05605C16.6677 8.45358 16.6135 7.8771 16.5127 7.32275H8.71484V10.4987L13.2058 10.4997C13.0236 11.5564 12.4374 12.4572 11.5392 13.0577V15.1182H14.2125C15.7734 13.6833 16.6677 11.5622 16.6677 9.05605Z" fill="#4285F4"/>
<path id="Green 500 1" d="M11.5384 13.0578C10.7942 13.5563 9.83597 13.8479 8.71493 13.8479C6.54939 13.8479 4.71232 12.3985 4.05442 10.4448H1.29688V12.5698C2.66305 15.2626 5.47098 17.1105 8.71493 17.1105C10.957 17.1105 12.8406 16.3781 14.2116 15.1173L11.5384 13.0578Z" fill="#34A853"/>
<path id="Yellow 500 1" d="M3.79462 8.86839C3.79462 8.31982 3.88667 7.78953 4.05429 7.29101V5.16602H1.29675C0.731867 6.27952 0.414062 7.53642 0.414062 8.86839C0.414062 10.2004 0.732836 11.4573 1.29675 12.5708L4.05429 10.4458C3.88667 9.94725 3.79462 9.41696 3.79462 8.86839Z" fill="#FABB05"/>
<path id="Red 500" d="M8.71493 3.88804C9.93868 3.88804 11.0345 4.30669 11.8998 5.12473L14.2688 2.77358C12.8299 1.44257 10.9541 0.625488 8.71493 0.625488C5.47195 0.625488 2.66305 2.47331 1.29688 5.16612L4.05442 7.29111C4.71232 5.33743 6.54939 3.88804 8.71493 3.88804Z" fill="#E94235"/>
</g>
</g>
</svg>
