<svg width="53" height="17" viewBox="0 0 53 17" fill="none" xmlns="http://www.w3.org/2000/svg">
<path id="visa-logo" fill-rule="evenodd" clip-rule="evenodd" d="M13.6652 16.5H9.10793L5.69053 3.70171C5.52833 3.11298 5.18392 2.59252 4.67731 2.34722C3.41301 1.73077 2.01983 1.24017 0.5 0.992734V0.5H7.84141C8.85463 0.5 9.61454 1.24017 9.74119 2.09979L11.5143 11.3316L16.0694 0.5H20.5L13.6652 16.5ZM22.8873 16.5H18.5L22.1127 0.5H26.5L22.8873 16.5ZM31.8095 5.1567C31.9358 4.32093 32.6934 3.84306 33.5774 3.84306C34.9664 3.72307 36.4795 3.96304 37.7423 4.55884L38.5 1.21785C37.2372 0.739972 35.8482 0.5 34.5876 0.5C30.4226 0.5 27.392 2.6494 27.392 5.6325C27.392 7.90189 29.5387 9.09348 31.054 9.81133C32.6934 10.5271 33.3248 11.005 33.1985 11.7208C33.1985 12.7944 31.9358 13.2723 30.6752 13.2723C29.1599 13.2723 27.6445 12.9144 26.2577 12.3166L25.5 15.6596C27.0153 16.2554 28.6547 16.4954 30.1701 16.4954C34.8401 16.6133 37.7423 14.466 37.7423 11.2429C37.7423 7.18405 31.8095 6.94614 31.8095 5.1567ZM52.5 16.5L49.1252 0.5H45.5003C44.7499 0.5 43.9994 0.992734 43.7493 1.73077L37.5 16.5H41.8754L42.7487 14.1622H48.1246L48.6249 16.5H52.5ZM45.4298 5.5L46.5 11.5H43.5L45.4298 5.5Z" fill="#172B85"/>
</svg>
