<svg width="120" height="60" viewBox="0 0 120 60" fill="none" xmlns="http://www.w3.org/2000/svg">
<path d="M49.4789 7.04768C49.4789 7.27757 49.45 7.47859 49.3928 7.65127C49.3356 7.82342 49.2568 7.97196 49.1582 8.09635C49.059 8.22074 48.944 8.32152 48.8133 8.39815C48.6826 8.47478 48.5467 8.53251 48.406 8.57083V8.58972C48.5787 8.62174 48.7398 8.6821 48.89 8.77185C49.0401 8.86108 49.1708 8.97287 49.2826 9.10671C49.3944 9.24108 49.4836 9.39906 49.5508 9.58119C49.6179 9.76331 49.6515 9.96276 49.6515 10.1795C49.6515 10.4414 49.6069 10.6808 49.5172 10.8981C49.4279 11.1148 49.2889 11.3033 49.1004 11.4633C48.9125 11.6229 48.6742 11.7473 48.3871 11.8365C48.0995 11.9263 47.7584 11.9709 47.3621 11.9709H46.0116V5.36182H47.2855C47.6749 5.36182 48.0087 5.40171 48.2864 5.48149C48.5645 5.56179 48.7923 5.67464 48.9713 5.8216C49.1503 5.96856 49.2794 6.14597 49.3592 6.35329C49.439 6.56113 49.4789 6.7926 49.4789 7.04768ZM48.6359 7.07655C48.6359 6.77003 48.5278 6.51757 48.3105 6.31969C48.0932 6.12182 47.7515 6.02315 47.2855 6.02315H46.8451V8.30262H47.276C47.7232 8.30262 48.0612 8.19398 48.2911 7.97668C48.521 7.75992 48.6359 7.45969 48.6359 7.07655ZM48.7608 10.1223C48.7608 9.76436 48.6443 9.48199 48.4113 9.27467C48.1782 9.06682 47.8444 8.96342 47.4104 8.96342H46.8451V11.2812H47.3621C47.8539 11.2812 48.2097 11.1836 48.4302 10.9889C48.6506 10.7941 48.7608 10.5055 48.7608 10.1223ZM53.8945 11.9709H53.1854V11.4534H53.1665C53.1471 11.4917 53.1056 11.5478 53.0421 11.6213C52.9781 11.6948 52.8968 11.7646 52.7976 11.8318C52.6989 11.899 52.5792 11.9578 52.4386 12.0092C52.2979 12.0601 52.1415 12.0858 51.9693 12.0858C51.7646 12.0858 51.5815 12.0554 51.4187 11.9945C51.2555 11.9341 51.1169 11.8365 51.002 11.7027C50.8871 11.5683 50.7989 11.3946 50.7385 11.1804C50.6776 10.9668 50.6477 10.7033 50.6477 10.3905V7.37362H51.4235V10.3328C51.4235 10.7159 51.4854 10.9889 51.6103 11.1521C51.7347 11.3148 51.9279 11.3962 52.1892 11.3962C52.4128 11.3962 52.6013 11.34 52.7545 11.2282C52.9078 11.1169 53.029 11.0067 53.1188 10.8981V7.37362H53.8945V11.9709ZM57.5911 11.9709V9.01119C57.5911 8.62174 57.526 8.34251 57.3948 8.17298C57.2641 8.00398 57.0647 7.91947 56.7965 7.91947C56.5666 7.91947 56.375 7.97668 56.2218 8.09163C56.0685 8.20657 55.9473 8.31837 55.858 8.42702V11.9709H55.0818V7.37362H55.7908V7.89061H55.8097C55.8292 7.85229 55.8706 7.79666 55.9347 7.72318C55.9982 7.64969 56.0811 7.57936 56.1834 7.51218C56.2858 7.445 56.407 7.38621 56.5472 7.3353C56.6878 7.28387 56.8474 7.25867 57.0264 7.25867C57.2305 7.25867 57.4158 7.28859 57.5817 7.34947C57.7481 7.40983 57.8882 7.50746 58.0031 7.6413C58.1181 7.77566 58.2073 7.94992 58.2713 8.16353C58.3354 8.37768 58.3674 8.64063 58.3674 8.95345V11.9709H57.5911ZM59.3153 9.73917C59.3153 9.27309 59.3762 8.88364 59.4974 8.57083C59.6187 8.25801 59.7751 8.00555 59.9666 7.81398C60.1582 7.6224 60.3755 7.48646 60.618 7.40668C60.8605 7.3269 61.103 7.28702 61.346 7.28702C61.4929 7.28702 61.6205 7.29856 61.7291 7.32061C61.8378 7.34318 61.927 7.36994 61.9973 7.40196V5.19911L62.7731 5.11304V11.9709H62.064V11.4822H62.0451C62.0257 11.5206 61.9905 11.573 61.9396 11.6402C61.8887 11.7074 61.8184 11.7746 61.7291 11.8412C61.6394 11.9084 61.5276 11.9656 61.3937 12.0139C61.2594 12.0617 61.103 12.0858 60.9245 12.0858C60.7072 12.0858 60.5015 12.0428 60.3068 11.9562C60.112 11.8701 59.9409 11.7331 59.7945 11.5447C59.6475 11.3563 59.531 11.1133 59.4449 10.8167C59.3583 10.5196 59.3153 10.1606 59.3153 9.73917ZM61.135 11.3962C61.2562 11.3962 61.3649 11.3799 61.4609 11.3484C61.5564 11.3164 61.6394 11.2765 61.7097 11.2282C61.78 11.1804 61.8394 11.1311 61.8871 11.0802C61.9349 11.0288 61.9716 10.9841 61.9973 10.9458V8.11105C61.927 8.06643 61.8456 8.02812 61.7527 7.9961C61.6604 7.96409 61.5439 7.94782 61.4032 7.94782C61.2247 7.94782 61.0568 7.97826 60.9004 8.03914C60.744 8.0995 60.6085 8.20027 60.4936 8.34094C60.3787 8.48108 60.2873 8.6632 60.2207 8.88679C60.1535 9.11038 60.1199 9.38489 60.1199 9.7103C60.1199 10.0294 60.1472 10.296 60.2013 10.5102C60.2558 10.7238 60.3304 10.8965 60.4264 11.0272C60.5219 11.1584 60.6306 11.2523 60.7518 11.3101C60.8731 11.3673 61.0011 11.3962 61.135 11.3962ZM66.9106 8.92511C66.9106 9.12298 66.9043 9.29356 66.8911 9.43737C66.8785 9.58119 66.866 9.70715 66.8528 9.8158H64.5067C64.5319 10.3585 64.6484 10.7574 64.8563 11.013C65.0636 11.2681 65.3622 11.3962 65.7517 11.3962C65.8855 11.3962 66.0068 11.3799 66.1154 11.3484C66.224 11.3164 66.3185 11.2781 66.3983 11.2335C66.4781 11.1883 66.5447 11.1437 66.5993 11.0991C66.6534 11.0545 66.6933 11.0193 66.719 10.9936L67.0061 11.54C66.9746 11.5715 66.9263 11.6182 66.8628 11.6785C66.7988 11.7394 66.7127 11.7998 66.604 11.8607C66.4954 11.921 66.3616 11.974 66.202 12.0186C66.0419 12.0633 65.8535 12.0858 65.6367 12.0858C65.3491 12.0858 65.0893 12.0375 64.8563 11.942C64.6232 11.846 64.4253 11.698 64.2621 11.4964C64.0994 11.2954 63.9734 11.0403 63.8837 10.7301C63.7945 10.421 63.7498 10.0488 63.7498 9.61478C63.7498 9.20591 63.796 8.8532 63.8889 8.55613C63.9813 8.25906 64.1073 8.015 64.2668 7.82342C64.4269 7.63185 64.6117 7.49014 64.8227 7.39724C65.0331 7.30486 65.2599 7.25867 65.5024 7.25867C65.9432 7.25867 66.2881 7.39724 66.5369 7.67489C66.7862 7.95254 66.9106 8.36928 66.9106 8.92511ZM65.4546 7.89061C65.1801 7.89061 64.9597 8.00555 64.7938 8.23544C64.6279 8.46533 64.5319 8.79704 64.5067 9.23163H66.1826C66.1889 9.19961 66.1936 9.15342 66.1973 9.09254C66.1999 9.03218 66.202 8.96657 66.202 8.89624C66.202 8.57713 66.138 8.32939 66.0104 8.15409C65.8824 7.97826 65.6976 7.89061 65.4546 7.89061ZM69.9275 8.30262C69.8766 8.24489 69.7837 8.16668 69.6498 8.06748C69.5155 7.96881 69.3402 7.91947 69.1229 7.91947C68.9187 7.91947 68.7623 7.96724 68.6536 8.06276C68.545 8.15881 68.4909 8.27376 68.4909 8.40759C68.4909 8.58027 68.5403 8.72199 68.6395 8.83378C68.7381 8.94558 68.8898 9.06525 69.0945 9.19331L69.3816 9.36547C69.6944 9.55074 69.9401 9.75019 70.119 9.96434C70.298 10.178 70.3873 10.454 70.3873 10.7926C70.3873 11.1568 70.2613 11.4633 70.0088 11.7121C69.7569 11.9609 69.3942 12.0858 68.9218 12.0858C68.7366 12.0858 68.5739 12.0664 68.4332 12.0281C68.2931 11.9898 68.1697 11.9452 68.0647 11.8943C67.9592 11.8428 67.8716 11.7872 67.8013 11.7263C67.7309 11.6659 67.6737 11.6098 67.6291 11.5589L68.0023 10.9458C68.0406 10.9841 68.0868 11.0288 68.1414 11.0802C68.1954 11.1311 68.261 11.1804 68.3377 11.2282C68.4143 11.2765 68.5004 11.3164 68.5964 11.3484C68.6919 11.3799 68.8037 11.3962 68.9313 11.3962C69.1612 11.3962 69.337 11.3447 69.4582 11.2429C69.5795 11.1406 69.6404 11.0162 69.6404 10.8692C69.6404 10.7606 69.6257 10.6666 69.5973 10.5868C69.5685 10.507 69.5254 10.4351 69.4677 10.3711C69.4105 10.3076 69.3402 10.2467 69.2572 10.1895C69.1743 10.1318 69.0782 10.0677 68.9696 9.99793L68.6825 9.8158C68.3949 9.63052 68.1697 9.4358 68.007 9.23163C67.8443 9.02693 67.7629 8.76555 67.7629 8.44591C67.7629 8.27376 67.7965 8.11577 67.8637 7.97196C67.9304 7.82815 68.0248 7.70376 68.1461 7.59826C68.2673 7.49329 68.4096 7.40983 68.5723 7.34947C68.735 7.28859 68.9092 7.25867 69.0945 7.25867C69.273 7.25867 69.4262 7.27599 69.5538 7.31116C69.6818 7.34632 69.7921 7.39094 69.8844 7.445C69.9768 7.49958 70.0534 7.55364 70.1143 7.60823C70.1747 7.66229 70.2245 7.70848 70.2629 7.74679L69.9275 8.30262ZM71.0292 10.802C71.0292 10.5338 71.0801 10.3107 71.1824 10.1318C71.2842 9.95279 71.4218 9.80793 71.5939 9.69613C71.7666 9.58433 71.9692 9.50456 72.2022 9.45627C72.4353 9.40851 72.6825 9.38489 72.9444 9.38489H73.1837V8.944C73.1837 8.55456 73.1155 8.28635 72.978 8.13939C72.841 7.99295 72.6478 7.91947 72.3985 7.91947C72.1686 7.91947 71.9771 7.96881 71.8238 8.06748C71.6705 8.16668 71.5493 8.25434 71.4601 8.33097L71.1341 7.81398C71.1856 7.76306 71.2506 7.70533 71.331 7.6413C71.4107 7.57779 71.5078 7.5169 71.6228 7.45969C71.7377 7.40196 71.8684 7.3542 72.0154 7.31588C72.1623 7.27757 72.3282 7.25867 72.5135 7.25867C72.9858 7.25867 73.3438 7.38936 73.5863 7.65127C73.8288 7.91318 73.95 8.33464 73.95 8.91566V11.013C73.95 11.2109 73.9563 11.404 73.9694 11.5925C73.982 11.7809 73.9946 11.9068 74.0077 11.9709H73.2703L73.2414 11.4633H73.222C73.1968 11.5206 73.1585 11.5862 73.1076 11.6596C73.0562 11.7331 72.9927 11.7998 72.916 11.8607C72.8394 11.921 72.7465 11.974 72.6379 12.0186C72.5292 12.0633 72.4017 12.0858 72.2547 12.0858C72.0826 12.0858 71.9214 12.0538 71.7713 11.9898C71.6212 11.9263 71.4905 11.8365 71.3787 11.7216C71.2669 11.6066 71.1808 11.4712 71.12 11.3148C71.0591 11.1584 71.0292 10.9873 71.0292 10.802ZM72.4179 11.425C72.5261 11.425 72.6221 11.4088 72.705 11.3767C72.788 11.3447 72.8599 11.3064 72.9208 11.2618C72.9811 11.2172 73.0326 11.1678 73.074 11.1133C73.1155 11.0592 73.1522 11.013 73.1837 10.9747V9.95961L72.9349 9.96906C72.5644 9.98166 72.2836 10.0457 72.092 10.1606C71.9004 10.2756 71.8049 10.4609 71.8049 10.7159C71.8049 10.9521 71.859 11.1295 71.9676 11.2476C72.0763 11.3657 72.2264 11.425 72.4179 11.425ZM77.5322 11.9709V9.01119C77.5322 8.63434 77.4781 8.36298 77.3695 8.19713C77.2608 8.03127 77.0855 7.94782 76.8425 7.94782C76.715 7.94782 76.6016 7.96409 76.5029 7.9961C76.4037 8.02812 76.3161 8.06748 76.2395 8.11577C76.1628 8.16353 76.0956 8.21602 76.0379 8.27376C75.9807 8.33096 75.9329 8.3824 75.8946 8.42702V11.9709H75.1189V7.37362H75.8274V7.89061H75.8463C75.8784 7.83969 75.9266 7.77724 75.9902 7.70376C76.0542 7.63027 76.134 7.55994 76.2295 7.49329C76.3255 7.4261 76.4373 7.36994 76.5649 7.32533C76.6924 7.28072 76.8362 7.25867 76.9958 7.25867C77.5196 7.25867 77.8896 7.46284 78.1069 7.87119C78.1515 7.80768 78.2124 7.73892 78.289 7.66544C78.3657 7.59196 78.4549 7.52478 78.5572 7.46442C78.6591 7.40353 78.774 7.3542 78.9021 7.31588C79.0296 7.27757 79.1703 7.25867 79.3236 7.25867C80.2557 7.25867 80.7218 7.80138 80.7218 8.88679V11.9709H79.946V9.01119C79.946 8.63434 79.8789 8.36298 79.7445 8.19713C79.6106 8.03127 79.4128 7.94782 79.1509 7.94782C78.9341 7.94782 78.7536 8.00083 78.6097 8.1058C78.4659 8.2113 78.3526 8.31207 78.2696 8.40759C78.2827 8.47793 78.2922 8.55298 78.2985 8.63276C78.3048 8.71254 78.3079 8.79704 78.3079 8.88679V11.9709H77.5322ZM83.8442 8.00555H82.8385V10.5532C82.8385 10.8786 82.88 11.1007 82.9629 11.2188C83.0459 11.3368 83.1865 11.3962 83.3844 11.3962C83.4994 11.3962 83.598 11.3799 83.6815 11.3484C83.7644 11.3164 83.8248 11.2875 83.8631 11.2618L83.9686 11.8843C83.9366 11.91 83.8599 11.9499 83.7387 12.0045C83.6174 12.0585 83.4547 12.0858 83.25 12.0858C82.8543 12.0858 82.5572 11.9756 82.3593 11.7552C82.1615 11.5347 82.0628 11.1694 82.0628 10.6587V8.00555H81.507V7.48856L82.0628 7.37362L82.1489 6.0898H82.8385V7.37362H83.9397L83.8442 8.00555ZM47.7835 17.6635H46.8451V21.6289H46.0694V17.6635H45.5135V17.1465L46.0694 17.041V16.122C46.0694 15.8727 46.1045 15.6586 46.1748 15.4801C46.2447 15.3011 46.3376 15.1542 46.4525 15.0392C46.5674 14.9243 46.7013 14.8414 46.8545 14.7904C47.0078 14.7395 47.1705 14.7138 47.3432 14.7138C47.509 14.7138 47.6497 14.7364 47.7647 14.781C47.8796 14.8256 47.9562 14.8608 47.9945 14.886L47.8318 15.5279C47.7935 15.5027 47.7389 15.4754 47.6686 15.4465C47.5983 15.4177 47.5122 15.4035 47.4104 15.4035C47.2251 15.4035 47.0844 15.4607 46.9889 15.5756C46.8929 15.6906 46.8451 15.9016 46.8451 16.2081V17.0316H47.8796L47.7835 17.6635ZM51.7683 21.6289H51.0592V21.1119H51.0403C51.0209 21.1502 50.9794 21.2058 50.9154 21.2793C50.8519 21.3528 50.7705 21.4231 50.6713 21.4903C50.5727 21.557 50.4525 21.6163 50.3123 21.6672C50.1717 21.7186 50.0153 21.7438 49.8431 21.7438C49.6384 21.7438 49.4552 21.7134 49.292 21.653C49.1293 21.5921 48.9907 21.495 48.8758 21.3607C48.7608 21.2268 48.6727 21.0526 48.6123 20.8389C48.5514 20.6248 48.521 20.3613 48.521 20.0485V17.0316H49.2973V19.9913C49.2973 20.3744 49.3592 20.6474 49.4836 20.8101C49.6085 20.9728 49.8016 21.0541 50.063 21.0541C50.2866 21.0541 50.475 20.9985 50.6283 20.8867C50.7816 20.7749 50.9028 20.6647 50.992 20.556V17.0316H51.7683V21.6289ZM49.862 15.71C49.862 15.857 49.8174 15.9751 49.7282 16.0643C49.6384 16.1535 49.5303 16.1981 49.4022 16.1981C49.2747 16.1981 49.166 16.1535 49.0768 16.0643C48.9871 15.9751 48.9424 15.857 48.9424 15.71C48.9424 15.563 48.9871 15.4449 49.0768 15.3557C49.166 15.266 49.2747 15.2214 49.4022 15.2214C49.5303 15.2214 49.6384 15.266 49.7282 15.3557C49.8174 15.4449 49.862 15.563 49.862 15.71ZM51.3369 15.71C51.3369 15.857 51.2923 15.9751 51.203 16.0643C51.1138 16.1535 51.0052 16.1981 50.8771 16.1981C50.7495 16.1981 50.6409 16.1535 50.5517 16.0643C50.4624 15.9751 50.4178 15.857 50.4178 15.71C50.4178 15.563 50.4624 15.4449 50.5517 15.3557C50.6409 15.266 50.7495 15.2214 50.8771 15.2214C51.0052 15.2214 51.1138 15.266 51.203 15.3557C51.2923 15.4449 51.3369 15.563 51.3369 15.71ZM54.9768 17.7118C54.9574 17.6987 54.9159 17.683 54.8519 17.6635C54.7884 17.6446 54.7023 17.6352 54.5936 17.6352C54.3506 17.6352 54.1611 17.7003 54.0236 17.8315C53.8861 17.9622 53.789 18.1044 53.7313 18.2577V21.6289H52.9555V17.0316H53.6646V17.6541H53.6835C53.7155 17.5649 53.757 17.4772 53.8079 17.3906C53.8593 17.3045 53.9229 17.2279 53.9995 17.1607C54.0761 17.0941 54.1674 17.041 54.2724 17.0027C54.3779 16.9644 54.5039 16.9455 54.6508 16.9455C54.7595 16.9455 54.8471 16.955 54.9143 16.9744C54.9815 16.9933 55.034 17.009 55.0723 17.0222L54.9768 17.7118ZM64.1713 15.0203L62.5621 21.6289H61.8152L60.8096 17.472C60.7392 17.1849 60.6784 16.9167 60.6274 16.6679C60.5765 16.4186 60.5477 16.2207 60.5414 16.0737H60.5219C60.5219 16.2207 60.4968 16.4154 60.4453 16.6579C60.3944 16.9009 60.334 17.166 60.2637 17.4531L59.2387 21.6289H58.4918L56.9209 15.0203H57.8116L58.6351 19.0429C58.6991 19.3494 58.7553 19.6386 58.803 19.9099C58.8508 20.1813 58.8781 20.3902 58.8844 20.5372H58.9033C58.9101 20.3902 58.9432 20.1766 59.004 19.8952C59.0649 19.6144 59.13 19.3242 59.2003 19.024L60.1771 15.0203H60.9723L61.9302 19.0429C62.0005 19.3494 62.064 19.6386 62.1217 19.9099C62.1789 20.1813 62.211 20.3902 62.2173 20.5372H62.2367C62.243 20.3902 62.2718 20.175 62.3227 19.8905C62.3737 19.6066 62.4314 19.3111 62.4954 19.0046L63.3284 15.0203H64.1713ZM65.6656 21.6289H64.8898V17.0316H65.6656V21.6289ZM65.2824 15.9205C65.1229 15.9205 64.9948 15.8696 64.8993 15.7672C64.8032 15.6654 64.7555 15.531 64.7555 15.3652C64.7555 15.2056 64.8032 15.0744 64.8993 14.9726C64.9948 14.8702 65.1229 14.8193 65.2824 14.8193C65.4357 14.8193 65.5601 14.8702 65.6556 14.9726C65.7517 15.0744 65.7994 15.2056 65.7994 15.3652C65.7994 15.531 65.7517 15.6654 65.6556 15.7672C65.5601 15.8696 65.4357 15.9205 65.2824 15.9205ZM68.8741 17.7118C68.8547 17.6987 68.8132 17.683 68.7497 17.6635C68.6856 17.6446 68.5996 17.6352 68.4909 17.6352C68.2484 17.6352 68.0584 17.7003 67.9209 17.8315C67.7839 17.9622 67.6863 18.1044 67.6291 18.2577V21.6289H66.8528V17.0316H67.5619V17.6541H67.5808C67.6128 17.5649 67.6543 17.4772 67.7057 17.3906C67.7566 17.3045 67.8207 17.2279 67.8968 17.1607C67.9734 17.0941 68.0647 17.041 68.1697 17.0027C68.2752 16.9644 68.4017 16.9455 68.5481 16.9455C68.6568 16.9455 68.745 16.955 68.8116 16.9744C68.8788 16.9933 68.9313 17.009 68.9696 17.0222L68.8741 17.7118ZM71.6039 17.6635H70.5977V20.2112C70.5977 20.5372 70.6397 20.7592 70.7226 20.8773C70.8056 20.9954 70.9462 21.0541 71.1441 21.0541C71.259 21.0541 71.3577 21.0384 71.4406 21.0064C71.5236 20.9744 71.5845 20.9455 71.6228 20.9203L71.7283 21.5428C71.6963 21.5685 71.6196 21.6084 71.4984 21.6625C71.3771 21.717 71.2139 21.7438 71.0097 21.7438C70.614 21.7438 70.3169 21.6336 70.119 21.4137C69.9212 21.1932 69.822 20.8274 69.822 20.3167V17.6635H69.2667V17.1465L69.822 17.0316L69.9086 15.7483H70.5977V17.0316H71.6994L71.6039 17.6635ZM74.4675 17.9606C74.4161 17.9034 74.3237 17.8252 74.1899 17.726C74.0555 17.6273 73.8797 17.5775 73.6629 17.5775C73.4587 17.5775 73.3023 17.6252 73.1937 17.7213C73.085 17.8168 73.031 17.9317 73.031 18.0661C73.031 18.2383 73.0803 18.3805 73.179 18.4923C73.2782 18.6041 73.4299 18.7238 73.634 18.8513L73.9217 19.024C74.2345 19.2093 74.4801 19.4087 74.6591 19.6223C74.8376 19.8365 74.9273 20.1125 74.9273 20.4511C74.9273 20.8148 74.8008 21.1213 74.5489 21.3706C74.2964 21.6194 73.9343 21.7438 73.4619 21.7438C73.2766 21.7438 73.1139 21.7249 72.9732 21.6866C72.8326 21.6483 72.7098 21.6037 72.6048 21.5522C72.4993 21.5013 72.4116 21.4452 72.3413 21.3848C72.271 21.3239 72.2132 21.2683 72.1686 21.2174L72.5423 20.6043C72.5806 20.6426 72.6268 20.6873 72.6814 20.7382C72.7355 20.7896 72.8011 20.8389 72.8777 20.8867C72.9543 20.9345 73.0404 20.9744 73.136 21.0064C73.232 21.0384 73.3438 21.0541 73.4713 21.0541C73.7012 21.0541 73.8765 21.0032 73.9983 20.9009C74.1195 20.7991 74.1799 20.6747 74.1799 20.5277C74.1799 20.4191 74.1657 20.3246 74.1369 20.2448C74.1085 20.165 74.065 20.0931 74.0077 20.0296C73.95 19.9656 73.8797 19.9052 73.7968 19.8475C73.7138 19.7903 73.6183 19.7262 73.5097 19.6559L73.222 19.4738C72.9349 19.289 72.7098 19.0943 72.5471 18.8896C72.3843 18.6854 72.303 18.4235 72.303 18.1044C72.303 17.9317 72.3366 17.7738 72.4032 17.6305C72.4704 17.4867 72.5644 17.3623 72.6861 17.2568C72.8074 17.1513 72.9491 17.0683 73.1123 17.0075C73.275 16.9471 73.4488 16.9167 73.634 16.9167C73.813 16.9167 73.9663 16.9345 74.0938 16.9691C74.2214 17.0043 74.3316 17.0494 74.4245 17.1035C74.5169 17.1576 74.5935 17.2122 74.6544 17.2662C74.7147 17.3208 74.7641 17.367 74.8024 17.4053L74.4675 17.9606ZM78.3945 17.9223C78.3751 17.9034 78.3447 17.8745 78.3032 17.8362C78.2618 17.7979 78.2093 17.7596 78.1452 17.7213C78.0812 17.683 78.0046 17.6494 77.9153 17.6205C77.8261 17.5922 77.7238 17.5775 77.6088 17.5775C77.443 17.5775 77.2881 17.6079 77.1443 17.6688C77.0005 17.7291 76.8761 17.8268 76.7711 17.9606C76.6656 18.095 76.5827 18.2687 76.5218 18.4828C76.461 18.6965 76.431 18.9568 76.431 19.2633C76.431 19.6018 76.4578 19.8858 76.5124 20.1157C76.5665 20.3456 76.6415 20.5293 76.7376 20.6663C76.8331 20.8038 76.9496 20.9025 77.0871 20.9633C77.2241 21.0242 77.3758 21.0541 77.5416 21.0541C77.7778 21.0541 77.9584 21.0127 78.0833 20.9298C78.2077 20.8468 78.2953 20.7796 78.3463 20.7287L78.6622 21.2651C78.6307 21.3035 78.584 21.3496 78.5237 21.4037C78.4628 21.4583 78.3846 21.5108 78.289 21.5617C78.193 21.6131 78.0765 21.6562 77.9395 21.6913C77.802 21.7265 77.644 21.7438 77.465 21.7438C77.2099 21.7438 76.9706 21.7023 76.747 21.6194C76.5234 21.5365 76.3287 21.399 76.1628 21.2074C75.9965 21.0158 75.8658 20.767 75.7697 20.4605C75.6742 20.154 75.6264 19.774 75.6264 19.3205C75.6264 18.8802 75.6836 18.5065 75.7986 18.1999C75.9135 17.8934 76.0636 17.6462 76.2489 17.4578C76.4342 17.2694 76.6399 17.1324 76.8667 17.0458C77.0934 16.9597 77.3217 16.9167 77.5516 16.9167C77.7238 16.9167 77.8755 16.9324 78.0067 16.9644C78.1374 16.9964 78.2492 17.0363 78.3415 17.0841C78.4344 17.1324 78.5111 17.1833 78.5714 17.2373C78.6323 17.2919 78.6816 17.3381 78.72 17.3764L78.3945 17.9223ZM82.0434 21.6289V18.6697C82.0434 18.2797 81.9778 18.0005 81.8471 17.8315C81.7164 17.662 81.5164 17.5775 81.2482 17.5775C81.0189 17.5775 80.8273 17.6352 80.674 17.7501C80.5208 17.8651 80.3995 17.9769 80.3098 18.085V21.6289H79.534V14.8576L80.3098 14.7715V17.5008H80.3292C80.3544 17.4625 80.3943 17.4116 80.4489 17.3476C80.5029 17.2841 80.578 17.22 80.674 17.156C80.7695 17.0925 80.8861 17.0363 81.0236 16.9886C81.1606 16.9408 81.3217 16.9167 81.507 16.9167C81.9095 16.9167 82.2287 17.0473 82.4649 17.3093C82.701 17.5712 82.8191 18.0052 82.8191 18.612V21.6289H82.0434ZM83.7098 20.4605C83.7098 20.1923 83.7613 19.9687 83.8631 19.7903C83.9654 19.6113 84.1024 19.4659 84.2751 19.3541C84.4472 19.2423 84.6504 19.1625 84.8834 19.1148C85.1165 19.067 85.3637 19.0429 85.6256 19.0429H85.8649V18.6025C85.8649 18.2131 85.7961 17.9449 85.6592 17.7979C85.5216 17.6509 85.3285 17.5775 85.0797 17.5775C84.8498 17.5775 84.6582 17.6273 84.505 17.726C84.3517 17.8252 84.2305 17.9128 84.1407 17.9895L83.8153 17.472C83.8662 17.421 83.9318 17.3638 84.0116 17.2998C84.0914 17.2358 84.189 17.1754 84.304 17.1177C84.4189 17.0605 84.5496 17.0127 84.6966 16.9744C84.8435 16.9361 85.0094 16.9167 85.1946 16.9167C85.667 16.9167 86.0245 17.0473 86.2675 17.3093C86.51 17.5712 86.6312 17.9926 86.6312 18.5736V20.671C86.6312 20.8689 86.6375 21.0625 86.6501 21.2504C86.6632 21.4389 86.6758 21.5654 86.6884 21.6289H85.951L85.9226 21.1213H85.9032C85.8775 21.1791 85.8392 21.2441 85.7883 21.3176C85.7374 21.3911 85.6733 21.4583 85.5967 21.5186C85.5201 21.5795 85.4277 21.632 85.319 21.6766C85.2104 21.7218 85.0829 21.7438 84.9359 21.7438C84.7637 21.7438 84.6021 21.7118 84.4525 21.6483C84.3024 21.5843 84.1712 21.495 84.0594 21.3801C83.9476 21.2651 83.8615 21.1292 83.8011 20.9728C83.7403 20.8164 83.7098 20.6458 83.7098 20.4605ZM85.0986 21.083C85.2072 21.083 85.3033 21.0673 85.3862 21.0352C85.4692 21.0032 85.5411 20.9649 85.6014 20.9203C85.6623 20.8757 85.7132 20.8258 85.7547 20.7718C85.7961 20.7177 85.8329 20.671 85.8649 20.6327V19.6176L85.6161 19.627C85.2456 19.6402 84.9648 19.7037 84.7732 19.8186C84.5816 19.9336 84.4856 20.1188 84.4856 20.3744C84.4856 20.6106 84.5401 20.7875 84.6488 20.9056C84.7569 21.0242 84.907 21.083 85.0986 21.083ZM89.7342 17.6635H88.7957V21.6289H88.02V17.6635H87.4647V17.1465L88.02 17.041V16.122C88.02 15.8727 88.0552 15.6586 88.1255 15.4801C88.1958 15.3011 88.2882 15.1542 88.4031 15.0392C88.5181 14.9243 88.6519 14.8414 88.8052 14.7904C88.9584 14.7395 89.1211 14.7138 89.2938 14.7138C89.4597 14.7138 89.6003 14.7364 89.7153 14.781C89.8302 14.8256 89.9069 14.8608 89.9452 14.886L89.7825 15.5279C89.7442 15.5027 89.6896 15.4754 89.6192 15.4465C89.5494 15.4177 89.4628 15.4035 89.361 15.4035C89.1757 15.4035 89.0351 15.4607 88.9395 15.5756C88.8435 15.6906 88.7957 15.9016 88.7957 16.2081V17.0316H89.8302L89.7342 17.6635ZM92.464 17.6635H91.4584V20.2112C91.4584 20.5372 91.4998 20.7592 91.5827 20.8773C91.6657 20.9954 91.8063 21.0541 92.0042 21.0541C92.1192 21.0541 92.2184 21.0384 92.3013 21.0064C92.3842 20.9744 92.4451 20.9455 92.4834 20.9203L92.5884 21.5428C92.5564 21.5685 92.4797 21.6084 92.3585 21.6625C92.2372 21.717 92.0745 21.7438 91.8704 21.7438C91.4741 21.7438 91.1776 21.6336 90.9797 21.4137C90.7818 21.1932 90.6826 20.8274 90.6826 20.3167V17.6635H90.1273V17.1465L90.6826 17.0316L90.7687 15.7483H91.4584V17.0316H92.56L92.464 17.6635ZM98.5939 21.6289H97.8853V21.1119H97.8659C97.847 21.1502 97.805 21.2058 97.7415 21.2793C97.6774 21.3528 97.5961 21.4231 97.4974 21.4903C97.3982 21.557 97.2785 21.6163 97.1379 21.6672C96.9977 21.7186 96.8413 21.7438 96.6687 21.7438C96.4645 21.7438 96.2808 21.7134 96.1181 21.653C95.9554 21.5921 95.8163 21.495 95.7013 21.3607C95.5864 21.2268 95.4987 21.0526 95.4379 20.8389C95.3775 20.6248 95.3471 20.3613 95.3471 20.0485V17.0316H96.1228V19.9913C96.1228 20.3744 96.1853 20.6474 96.3097 20.8101C96.434 20.9728 96.6272 21.0541 96.8891 21.0541C97.1127 21.0541 97.3006 20.9985 97.4539 20.8867C97.6071 20.7749 97.7284 20.6647 97.8181 20.556V17.0316H98.5939V21.6289ZM102.291 21.6289V18.6697C102.291 18.2797 102.225 18.0005 102.095 17.8315C101.963 17.662 101.764 17.5775 101.496 17.5775C101.266 17.5775 101.074 17.6352 100.921 17.7501C100.768 17.8651 100.647 17.9769 100.557 18.085V21.6289H99.7816V17.0316H100.49V17.5486H100.51C100.528 17.5103 100.57 17.4546 100.634 17.3812C100.697 17.3077 100.781 17.2373 100.883 17.1707C100.985 17.1035 101.106 17.0442 101.247 16.9933C101.387 16.9424 101.547 16.9167 101.726 16.9167C101.93 16.9167 102.115 16.9471 102.281 17.0075C102.447 17.0683 102.588 17.166 102.702 17.2998C102.817 17.4342 102.907 17.6079 102.971 17.8215C103.035 18.0357 103.067 18.2991 103.067 18.612V21.6289H102.291ZM104.015 19.3972C104.015 18.9311 104.076 18.5416 104.197 18.2288C104.318 17.916 104.474 17.6635 104.666 17.472C104.858 17.2809 105.075 17.145 105.317 17.0652C105.56 16.9854 105.803 16.9455 106.045 16.9455C106.192 16.9455 106.32 16.9565 106.428 16.9791C106.537 17.0012 106.626 17.0285 106.697 17.0605V14.8576L107.472 14.7715V21.6289H106.764V21.1407H106.744C106.726 21.1791 106.69 21.2315 106.639 21.2987C106.588 21.3654 106.518 21.4326 106.428 21.4998C106.339 21.5669 106.227 21.6241 106.093 21.6719C105.959 21.7202 105.803 21.7438 105.624 21.7438C105.407 21.7438 105.201 21.7008 105.006 21.6147C104.811 21.5286 104.641 21.3911 104.494 21.2027C104.347 21.0143 104.23 20.7718 104.144 20.4747C104.058 20.1781 104.015 19.8186 104.015 19.3972ZM105.835 21.0541C105.956 21.0541 106.065 21.0384 106.16 21.0064C106.256 20.9744 106.339 20.9345 106.409 20.8867C106.479 20.8389 106.539 20.7896 106.586 20.7382C106.634 20.6873 106.671 20.6426 106.697 20.6043V17.769C106.626 17.7244 106.545 17.6861 106.453 17.6541C106.36 17.6221 106.243 17.6063 106.103 17.6063C105.924 17.6063 105.757 17.6368 105.6 17.6971C105.443 17.758 105.308 17.8588 105.193 17.9989C105.078 18.1396 104.987 18.3212 104.92 18.5448C104.853 18.7684 104.819 19.0429 104.819 19.3688C104.819 19.6879 104.847 19.9546 104.901 20.1682C104.955 20.3823 105.03 20.5545 105.126 20.6857C105.222 20.8164 105.33 20.9109 105.452 20.9681C105.573 21.0258 105.7 21.0541 105.835 21.0541ZM50.274 31.2874H49.3545L48.7608 29.1706H46.759L46.1554 31.2874H45.3125L47.4676 24.6783H48.1189L50.274 31.2874ZM48.5787 28.5387L48.0612 26.7284C47.9914 26.4854 47.9305 26.2539 47.8796 26.034C47.8282 25.8136 47.7998 25.6299 47.7935 25.4829H47.7741C47.7678 25.6299 47.7374 25.8104 47.6833 26.0241C47.6287 26.2382 47.5668 26.4665 47.4965 26.709L46.9506 28.5387H48.5787ZM54.1433 31.2874H53.4347V30.7699H53.4153C53.3964 30.8082 53.355 30.8643 53.2909 30.9378C53.2269 31.0113 53.1455 31.0811 53.0469 31.1483C52.9477 31.2155 52.828 31.2743 52.6873 31.3257C52.5472 31.3766 52.3908 31.4023 52.2181 31.4023C52.0139 31.4023 51.8302 31.3719 51.6675 31.311C51.5048 31.2506 51.3657 31.153 51.2508 31.0192C51.1358 30.8848 51.0482 30.7111 50.9873 30.4969C50.9269 30.2833 50.8965 30.0198 50.8965 29.707V26.6901H51.6722V29.6493C51.6722 30.0324 51.7347 30.3054 51.8591 30.4686C51.9835 30.6313 52.1766 30.7127 52.4386 30.7127C52.6621 30.7127 52.8506 30.6565 53.0038 30.5447C53.1571 30.4334 53.2783 30.3232 53.3676 30.2146V26.6901H54.1433V31.2874ZM57.3135 27.6191C57.2626 27.5614 57.1702 27.4832 57.0358 27.3845C56.902 27.2853 56.7261 27.236 56.5089 27.236C56.3047 27.236 56.1483 27.2837 56.0396 27.3793C55.931 27.4753 55.8769 27.5902 55.8769 27.7241C55.8769 27.8968 55.9263 28.039 56.0255 28.1503C56.1241 28.2621 56.2758 28.3817 56.4805 28.5098L56.7676 28.682C57.0804 28.8672 57.3266 29.0667 57.505 29.2808C57.684 29.4944 57.7732 29.7705 57.7732 30.1091C57.7732 30.4733 57.6473 30.7798 57.3948 31.0286C57.1429 31.2774 56.7802 31.4023 56.3078 31.4023C56.1226 31.4023 55.9598 31.3829 55.8197 31.3446C55.679 31.3063 55.5562 31.2617 55.4507 31.2107C55.3452 31.1593 55.2576 31.1037 55.1873 31.0428C55.1169 30.9824 55.0597 30.9263 55.0151 30.8754L55.3883 30.2623C55.4266 30.3006 55.4733 30.3452 55.5274 30.3967C55.5814 30.4476 55.647 30.4969 55.7237 30.5447C55.8003 30.593 55.8864 30.6329 55.9824 30.6649C56.0779 30.6964 56.1897 30.7127 56.3173 30.7127C56.5472 30.7127 56.723 30.6612 56.8442 30.5594C56.9655 30.457 57.0264 30.3327 57.0264 30.1857C57.0264 30.077 57.0117 29.9831 56.9833 29.9033C56.9545 29.8235 56.9114 29.7516 56.8537 29.6876C56.7965 29.6241 56.7261 29.5632 56.6432 29.506C56.5603 29.4483 56.4642 29.3842 56.3556 29.3144L56.0685 29.1323C55.7814 28.947 55.5562 28.7523 55.3935 28.5481C55.2303 28.3434 55.1489 28.082 55.1489 27.7624C55.1489 27.5902 55.1825 27.4323 55.2497 27.2885C55.3169 27.1446 55.4108 27.0202 55.5321 26.9148C55.6533 26.8098 55.7956 26.7268 55.9583 26.666C56.121 26.6051 56.2952 26.5752 56.4805 26.5752C56.659 26.5752 56.8122 26.5925 56.9403 26.6277C57.0678 26.6628 57.1781 26.7074 57.2704 26.7615C57.3633 26.8161 57.44 26.8701 57.5003 26.9247C57.5612 26.9788 57.6105 27.025 57.6489 27.0633L57.3135 27.6191ZM60.618 27.322H59.6795V31.2874H58.9033V27.322H58.348V26.8051L58.9033 26.6996V25.78C58.9033 25.5312 58.9384 25.3171 59.0088 25.1381C59.0791 24.9596 59.1715 24.8127 59.2864 24.6977C59.4014 24.5828 59.5357 24.4999 59.689 24.4489C59.8423 24.3975 60.005 24.3723 60.1771 24.3723C60.3435 24.3723 60.4836 24.3944 60.5986 24.439C60.7135 24.4836 60.7901 24.5188 60.8285 24.5445L60.6658 25.1864C60.6274 25.1607 60.5734 25.1334 60.5031 25.1045C60.4327 25.0762 60.3466 25.0615 60.2443 25.0615C60.059 25.0615 59.9189 25.1192 59.8228 25.2341C59.7273 25.3491 59.6795 25.5596 59.6795 25.8661V26.6901H60.7135L60.618 27.322ZM64.6022 31.2874H63.8937V30.7699H63.8742C63.8553 30.8082 63.8139 30.8643 63.7498 30.9378C63.6858 31.0113 63.6045 31.0811 63.5058 31.1483C63.4066 31.2155 63.2869 31.2743 63.1463 31.3257C63.0061 31.3766 62.8497 31.4023 62.677 31.4023C62.4729 31.4023 62.2892 31.3719 62.1264 31.311C61.9637 31.2506 61.8247 31.153 61.7097 31.0192C61.5948 30.8848 61.5071 30.7111 61.4462 30.4969C61.3859 30.2833 61.3554 30.0198 61.3554 29.707V26.6901H62.1312V29.6493C62.1312 30.0324 62.1936 30.3054 62.318 30.4686C62.4424 30.6313 62.6356 30.7127 62.8975 30.7127C63.1211 30.7127 63.3095 30.6565 63.4627 30.5447C63.616 30.4334 63.7373 30.3232 63.8265 30.2146V26.6901H64.6022V31.2874ZM68.2993 31.2874V28.3277C68.2993 27.9382 68.2337 27.659 68.1031 27.4895C67.9718 27.3205 67.7724 27.236 67.5042 27.236C67.2743 27.236 67.0827 27.2932 66.9295 27.4081C66.7762 27.5231 66.655 27.6349 66.5657 27.7435V31.2874H65.79V24.5156L66.5657 24.4295V27.1593H66.5846C66.6103 27.121 66.6502 27.0696 66.7048 27.0061C66.7589 26.942 66.8339 26.878 66.9295 26.8145C67.0255 26.7505 67.142 26.6948 67.2795 26.6465C67.4165 26.5988 67.5777 26.5752 67.7629 26.5752C68.165 26.5752 68.4846 26.7059 68.7208 26.9678C68.957 27.2297 69.0751 27.6637 69.0751 28.2705V31.2874H68.2993ZM72.2547 27.3698C72.2358 27.3572 72.1944 27.3409 72.1303 27.322C72.0668 27.3026 71.9802 27.2932 71.8716 27.2932C71.6291 27.2932 71.4391 27.3588 71.3021 27.4895C71.1646 27.6207 71.0675 27.7624 71.0097 27.9157V31.2874H70.234V26.6901H70.9426V27.3126H70.962C70.994 27.2228 71.0355 27.1352 71.0864 27.0491C71.1378 26.963 71.2013 26.8864 71.2779 26.8192C71.3546 26.752 71.4454 26.6996 71.5509 26.6612C71.6564 26.6229 71.7823 26.6035 71.9293 26.6035C72.0379 26.6035 72.1256 26.6135 72.1928 26.6324C72.26 26.6518 72.3124 26.6675 72.3508 26.6801L72.2547 27.3698ZM74.7546 28.7969L76.335 31.2874H75.406L74.1132 29.1417H73.7968V31.2874H73.021V24.5156L73.7968 24.4295V28.4809H74.1227L75.3582 26.6901H76.2778L74.7546 28.7969ZM76.6321 28.9885C76.6321 28.567 76.6814 28.2033 76.7806 27.8968C76.8793 27.5902 77.0136 27.3394 77.1826 27.1446C77.3522 26.9499 77.5469 26.8066 77.7668 26.7137C77.9873 26.6214 78.2219 26.5752 78.4706 26.5752C78.7263 26.5752 78.9624 26.6214 79.1797 26.7137C79.3965 26.8066 79.5849 26.9499 79.7445 27.1446C79.9046 27.3394 80.0305 27.5902 80.1229 27.8968C80.2158 28.2033 80.262 28.567 80.262 28.9885C80.262 29.4162 80.2142 29.7836 80.1182 30.0902C80.0227 30.3967 79.8899 30.647 79.7209 30.8418C79.5513 31.0365 79.355 31.1787 79.132 31.268C78.9084 31.3577 78.6722 31.4023 78.4229 31.4023C78.1678 31.4023 77.9311 31.3577 77.7143 31.268C77.497 31.1787 77.3086 31.0365 77.149 30.8418C76.9895 30.647 76.8635 30.3983 76.7711 30.0949C76.6782 29.7915 76.6321 29.4225 76.6321 28.9885ZM79.4574 28.9885C79.4574 28.3754 79.3682 27.9304 79.1892 27.6527C79.0107 27.3745 78.7614 27.236 78.4423 27.236C78.1227 27.236 77.8755 27.3745 77.7002 27.6527C77.5243 27.9304 77.4367 28.3754 77.4367 28.9885C77.4367 29.6015 77.5259 30.0419 77.7049 30.3101C77.8833 30.5783 78.1326 30.7127 78.4518 30.7127C78.7709 30.7127 79.0186 30.5783 79.1939 30.3101C79.3697 30.0419 79.4574 29.6015 79.4574 28.9885ZM83.7481 31.2874V28.3277C83.7481 27.9382 83.6831 27.659 83.5518 27.4895C83.4211 27.3205 83.2217 27.236 82.9535 27.236C82.7236 27.236 82.532 27.2932 82.3788 27.4081C82.2255 27.5231 82.1043 27.6349 82.0145 27.7435V31.2874H81.2388V26.6901H81.9479V27.2071H81.9668C81.9862 27.1688 82.0276 27.1131 82.0911 27.0397C82.1552 26.9662 82.2381 26.8959 82.3405 26.8287C82.4423 26.7615 82.564 26.7027 82.7042 26.6518C82.8448 26.6004 83.0044 26.5752 83.1834 26.5752C83.3876 26.5752 83.5728 26.6051 83.7387 26.666C83.9045 26.7268 84.0452 26.8239 84.1602 26.9583C84.2751 27.0922 84.3643 27.2664 84.4284 27.48C84.4919 27.6942 84.5239 27.9577 84.5239 28.2705V31.2874H83.7481ZM87.6463 27.322H86.6406V29.8697C86.6406 30.1951 86.6821 30.4172 86.765 30.5352C86.8485 30.6533 86.9886 30.7127 87.1865 30.7127C87.3015 30.7127 87.4007 30.6964 87.4836 30.6649C87.5665 30.6329 87.6274 30.604 87.6657 30.5783L87.7707 31.2013C87.7392 31.2265 87.6626 31.2664 87.5413 31.321C87.4195 31.375 87.2568 31.4023 87.0527 31.4023C86.6569 31.4023 86.3598 31.2921 86.162 31.0717C85.9641 30.8517 85.8649 30.4859 85.8649 29.9752V27.322H85.3096V26.8051L85.8649 26.6901L85.951 25.4063H86.6406V26.6901H87.7423L87.6463 27.322ZM90.5482 27.3698C90.5294 27.3572 90.4879 27.3409 90.4239 27.322C90.3603 27.3026 90.2737 27.2932 90.1656 27.2932C89.9226 27.2932 89.7326 27.3588 89.5956 27.4895C89.4581 27.6207 89.361 27.7624 89.3033 27.9157V31.2874H88.5275V26.6901H89.2361V27.3126H89.2555C89.2875 27.2228 89.329 27.1352 89.3799 27.0491C89.4313 26.963 89.4948 26.8864 89.5715 26.8192C89.6481 26.752 89.7389 26.6996 89.8444 26.6612C89.9499 26.6229 90.0759 26.6035 90.2228 26.6035C90.3315 26.6035 90.4191 26.6135 90.4863 26.6324C90.5535 26.6518 90.606 26.6675 90.6443 26.6801L90.5482 27.3698ZM90.9891 28.9885C90.9891 28.567 91.0385 28.2033 91.1377 27.8968C91.2363 27.5902 91.3707 27.3394 91.5397 27.1446C91.7092 26.9499 91.904 26.8066 92.1239 26.7137C92.3443 26.6214 92.5789 26.5752 92.8282 26.5752C93.0833 26.5752 93.3195 26.6214 93.5368 26.7137C93.7536 26.8066 93.942 26.9499 94.1021 27.1446C94.2616 27.3394 94.3876 27.5902 94.48 27.8968C94.5729 28.2033 94.6191 28.567 94.6191 28.9885C94.6191 29.4162 94.5713 29.7836 94.4753 30.0902C94.3797 30.3967 94.2469 30.647 94.0779 30.8418C93.9084 31.0365 93.7121 31.1787 93.489 31.268C93.2655 31.3577 93.0293 31.4023 92.78 31.4023C92.5249 31.4023 92.2882 31.3577 92.0714 31.268C91.8541 31.1787 91.6657 31.0365 91.5061 30.8418C91.3466 30.647 91.2206 30.3983 91.1282 30.0949C91.0353 29.7915 90.9891 29.4225 90.9891 28.9885ZM93.8145 28.9885C93.8145 28.3754 93.7252 27.9304 93.5463 27.6527C93.3678 27.3745 93.1185 27.236 92.7994 27.236C92.4797 27.236 92.2325 27.3745 92.0572 27.6527C91.8814 27.9304 91.7937 28.3754 91.7937 28.9885C91.7937 29.6015 91.883 30.0419 92.062 30.3101C92.2404 30.5783 92.4897 30.7127 92.8088 30.7127C93.1279 30.7127 93.3757 30.5783 93.551 30.3101C93.7268 30.0419 93.8145 29.6015 93.8145 28.9885ZM96.3621 30.2146C96.3621 30.4061 96.3894 30.54 96.4435 30.6166C96.4981 30.6932 96.592 30.7315 96.7264 30.7315C96.7962 30.7315 96.8555 30.7252 96.9033 30.7127C96.951 30.6995 96.9878 30.6869 97.0135 30.6743L97.0807 31.2491C97.0424 31.268 96.972 31.2937 96.8697 31.3257C96.7679 31.3577 96.6303 31.3735 96.4582 31.3735C96.1963 31.3735 95.9853 31.2937 95.8257 31.1341C95.6662 30.9746 95.5864 30.6901 95.5864 30.2817V24.5156L96.3621 24.4295V30.2146ZM98.5461 30.2146C98.5461 30.4061 98.5729 30.54 98.6274 30.6166C98.6815 30.6932 98.776 30.7315 98.9098 30.7315C98.9802 30.7315 99.0395 30.7252 99.0872 30.7127C99.135 30.6995 99.1717 30.6869 99.1974 30.6743L99.2641 31.2491C99.2258 31.268 99.1555 31.2937 99.0536 31.3257C98.9513 31.3577 98.8143 31.3735 98.6416 31.3735C98.3797 31.3735 98.1692 31.2937 98.0097 31.1341C97.8501 30.9746 97.7703 30.6901 97.7703 30.2817V24.5156L98.5461 24.4295V30.2146ZM102.913 28.2416C102.913 28.4395 102.907 28.6101 102.894 28.7539C102.881 28.8977 102.869 29.0236 102.856 29.1323H100.51C100.535 29.675 100.651 30.0739 100.859 30.3295C101.066 30.5846 101.365 30.7127 101.755 30.7127C101.888 30.7127 102.01 30.6964 102.118 30.6649C102.227 30.6329 102.321 30.5946 102.401 30.5499C102.481 30.5053 102.548 30.4602 102.602 30.4156C102.656 30.371 102.696 30.3358 102.722 30.3101L103.009 30.8565C102.977 30.888 102.929 30.9347 102.866 30.995C102.802 31.0559 102.716 31.1163 102.607 31.1772C102.498 31.2375 102.364 31.2905 102.204 31.3351C102.045 31.3797 101.856 31.4023 101.64 31.4023C101.352 31.4023 101.092 31.354 100.859 31.2585C100.626 31.163 100.428 31.0144 100.265 30.8129C100.102 30.6119 99.9763 30.3568 99.8866 30.0471C99.7974 29.7375 99.7528 29.3653 99.7528 28.9313C99.7528 28.5224 99.7989 28.1697 99.8918 27.8726C99.9842 27.5756 100.11 27.3315 100.27 27.1399C100.429 26.9483 100.615 26.8066 100.826 26.7137C101.036 26.6214 101.263 26.5752 101.505 26.5752C101.946 26.5752 102.291 26.7137 102.54 26.9914C102.789 27.2696 102.913 27.6858 102.913 28.2416ZM101.457 27.2071C101.183 27.2071 100.963 27.322 100.797 27.5519C100.631 27.7818 100.535 28.1135 100.51 28.5481H102.185C102.192 28.5161 102.197 28.4699 102.2 28.409C102.203 28.3487 102.204 28.2831 102.204 28.2127C102.204 27.8936 102.141 27.6459 102.013 27.4706C101.885 27.2948 101.7 27.2071 101.457 27.2071Z" fill="black"/>
<path d="M24.872 11.4386C24.8935 11.2585 24.9066 11.0722 24.9066 10.8822C24.9066 10.7788 24.9072 10.6581 24.8946 10.5211C26.4985 10.4985 27.9052 9.3428 27.9052 8.01385C27.9052 7.33783 27.4643 6.82766 27.2155 6.52272C27.2711 6.51064 27.3273 6.49752 27.3845 6.48388C27.6197 6.68857 28.2862 7.41446 28.2862 8.33086C28.2862 9.9254 26.6922 11.4055 24.872 11.4386ZM23.256 5.88606C23.226 5.70813 23.1583 5.547 23.0555 5.40843C23.0612 5.24625 23.1279 5.09089 23.3893 5.21843C23.2476 5.3633 23.3572 5.62048 23.3572 5.62048C23.3572 5.62048 23.647 5.48611 23.5866 5.29454C24.0165 5.39741 23.7073 5.97424 23.256 5.88606ZM22.8833 6.70432C22.8261 6.46603 22.7038 6.22145 22.5484 6.03722C22.4067 5.86979 22.1726 5.67086 21.8567 5.67086C21.7129 5.67086 21.4714 5.73857 21.3176 5.80366C21.2604 5.69921 21.1486 5.44727 21.1486 5.3339C21.1486 5.21686 21.346 5.09877 21.7234 5.09877C22.5537 5.09877 23.0497 5.47404 23.0497 6.10335C23.0497 6.32432 22.962 6.52586 22.8833 6.70432ZM25.0158 17.4089C25.1124 17.4089 25.1591 17.4241 25.2158 17.4451C25.4546 18.0954 26.3763 19.323 26.4146 19.3755L26.423 19.3866L26.4366 19.3834C26.6628 19.3472 27.2397 19.2601 27.7225 19.2601H27.7341C27.786 19.2601 27.8459 19.2601 27.8837 19.2973C27.9152 19.3288 27.9304 19.3834 27.9304 19.4616C27.9304 19.5813 27.8795 19.7865 27.8186 19.8742C27.6496 19.6899 27.3751 19.607 26.9358 19.607C26.8035 19.607 26.6476 19.6464 26.5631 19.6689L26.5285 19.6763L26.4891 19.6868L26.7426 19.9403C27.1336 20.3313 27.4716 20.6688 27.4716 20.8934C27.4716 21.0283 27.3394 21.2047 27.2187 21.2829C27.1924 20.8714 26.7772 20.3208 26.3721 20.0127L26.3374 19.987L26.3311 20.1319C26.3253 20.23 26.3164 20.3775 26.3164 20.535C26.3164 21.318 26.2372 21.4372 25.9658 21.4372C25.9238 21.4372 25.8603 21.4251 25.821 21.4109C25.9737 21.2215 26.034 20.9722 26.034 20.5344L26.0319 20.3324L26.0293 20.1696C26.0293 19.9901 26.0477 19.8574 26.0624 19.7503L26.0703 19.6899L26.0277 19.6842C25.9007 19.6668 25.6645 19.6343 25.4845 19.6343C25.0972 19.6343 24.8347 19.67 24.6447 19.8484C24.5193 19.7471 24.3907 19.5724 24.3907 19.4621C24.3907 19.2989 24.492 19.2858 24.6258 19.2858C24.693 19.2858 24.756 19.2958 24.8431 19.3063C25.0095 19.3309 25.2599 19.3682 25.7758 19.3682H25.8078L25.7973 19.3367C25.6672 18.9625 25.3082 18.4182 24.7329 17.7191C24.7843 17.5312 24.8347 17.4089 25.0158 17.4089ZM20.0469 19.3367L20.0364 19.3682H20.0685C20.5839 19.3682 20.8348 19.3309 21.0011 19.3063C21.0883 19.2958 21.1513 19.2858 21.2184 19.2858C21.3512 19.2858 21.4536 19.2989 21.4536 19.4621C21.4536 19.5724 21.325 19.7471 21.2001 19.8484C21.0095 19.67 20.7471 19.6343 20.3608 19.6343C20.1797 19.6343 19.943 19.6668 19.8165 19.6842L19.7966 19.6868L19.774 19.6899L19.7814 19.7503C19.7966 19.8574 19.815 19.9901 19.815 20.1696L19.8123 20.3324L19.8102 20.5344C19.8102 20.9722 19.8706 21.2215 20.0244 21.4109C19.984 21.4251 19.9205 21.4372 19.8785 21.4372C19.6066 21.4372 19.5279 21.318 19.5279 20.535C19.5279 20.3775 19.5195 20.23 19.5142 20.1319L19.5058 19.9859L19.4722 20.0127C19.0681 20.3208 18.6513 20.8714 18.6261 21.2829C18.5049 21.2047 18.3726 21.0283 18.3726 20.8934C18.3726 20.6688 18.7106 20.3313 19.1017 19.9403L19.3263 19.7156L19.3552 19.6868L19.2812 19.6689C19.1967 19.6464 19.0408 19.607 18.908 19.607C18.4692 19.607 18.1958 19.6899 18.0257 19.8742C17.9648 19.7865 17.9139 19.5813 17.9139 19.4616C17.9139 19.3834 17.9291 19.3288 17.9606 19.2973C17.9984 19.2601 18.0582 19.2601 18.1102 19.2601H18.1218C18.6046 19.2601 19.1825 19.3472 19.4077 19.3834L19.4213 19.3866L19.4297 19.3755C19.4691 19.323 20.3897 18.0954 20.6295 17.4451C20.6841 17.4241 20.7319 17.4089 20.8285 17.4089C21.0095 17.4089 21.0599 17.5312 21.1124 17.7191C20.5361 18.4182 20.1771 18.9625 20.0469 19.3367ZM17.5581 8.33086C17.5581 7.41446 18.2252 6.68857 18.4603 6.48388C18.517 6.49752 18.5731 6.51064 18.6293 6.52272C18.38 6.82766 17.9391 7.33783 17.9391 8.01385C17.9391 9.35644 19.373 10.5216 20.9975 10.5216C20.987 10.6371 20.9812 10.7578 20.9812 10.8822C20.9812 11.0806 20.9927 11.2648 21.0116 11.4386C19.1752 11.4276 17.5581 9.93694 17.5581 8.33086ZM29.8771 11.1583C30.7016 12.4615 31.3462 12.44 32.3198 12.44C31.5141 11.8228 30.9814 11.0313 30.7274 10.6271L29.2221 8.21907C29.0756 7.47534 28.6909 6.7799 28.1146 6.26238C28.3088 6.18943 28.4694 6.11227 28.566 6.03879C27.5834 6.03879 26.6098 5.53965 26.0734 5.53965C25.7291 5.53965 25.5076 5.74592 25.5076 6.0178C25.5297 6.32117 25.8419 6.62979 26.4188 6.62979C26.5495 6.62979 26.7164 6.61247 26.9001 6.58203C27.2124 7.01766 27.4643 7.41131 27.4643 7.97291C27.4643 9.02736 26.2041 9.84877 24.9313 9.84877C24.8589 9.84877 24.7906 9.84562 24.7187 9.84089C24.6038 9.57951 24.2201 9.14073 24.2201 8.64158C24.2201 7.8039 24.7665 7.12001 24.7665 6.2902C24.7665 5.77426 24.5151 5.45462 24.4185 5.32183C24.5749 5.17697 24.7455 4.99904 24.7859 4.87675C24.6946 4.91611 24.587 4.92084 24.4301 4.92084C23.8202 4.92084 23.3226 4.76233 22.8382 4.76233C22.561 4.76233 22.487 4.84788 22.487 4.92871C22.487 4.95863 22.4912 4.98907 22.4991 5.00377C22.3962 4.96335 22.2997 4.93711 22.1847 4.91611C22.0414 4.88882 21.8876 4.87517 21.7234 4.87517C21.1339 4.87517 20.925 5.12186 20.925 5.3339C20.925 5.51236 21.0657 5.83935 21.2258 6.08865C21.4552 5.97266 21.7312 5.89498 21.8567 5.89498C22.17 5.89498 22.4477 6.19258 22.5951 6.54528C22.3847 6.571 22.3448 6.57993 22.1322 6.57993C21.5585 6.57993 21.1681 6.3747 21.0872 6.3747C21.0804 6.3747 21.0652 6.37838 21.0652 6.3915C21.0652 6.4718 21.2274 6.68437 21.5481 6.80089C21.9706 6.95573 22.603 7.01976 22.7085 7.03761C22.7085 7.05598 22.6014 7.25595 22.4813 7.29426C22.4566 7.30266 22.4366 7.30319 22.4067 7.29689C21.9653 7.20976 21.8425 7.17302 21.283 6.96045C21.2662 6.95415 21.2557 6.96465 21.2557 6.98197C21.2557 7.20346 21.8289 7.69211 22.3422 7.87948C21.9134 8.42691 21.378 8.98694 21.1255 9.84089C21.0536 9.84562 20.9843 9.84877 20.913 9.84877C19.6402 9.84877 18.38 9.02736 18.38 7.97291C18.38 7.41131 18.6319 7.01766 18.9442 6.58203C19.1274 6.61247 19.2943 6.62979 19.4255 6.62979C20.0023 6.62979 20.3146 6.32117 20.3372 6.0178C20.3372 5.74592 20.1162 5.53965 19.7709 5.53965C19.2345 5.53965 18.2614 6.03879 17.2772 6.03879C17.3749 6.11227 17.5355 6.18943 17.7286 6.26238C17.1534 6.7799 16.7687 7.47534 16.6222 8.21907L15.1169 10.6271C14.8634 11.0313 14.3291 11.8228 13.5234 12.44C14.4971 12.44 15.1426 12.4615 15.9672 11.1583L16.7387 9.92382C16.796 10.0839 16.8658 10.2403 16.9487 10.393L15.414 12.8489C15.1589 13.2562 14.6293 14.0398 13.8205 14.6612C14.7941 14.6612 15.4397 14.6838 16.2637 13.3816L17.5848 11.2664C17.6835 11.3719 17.7874 11.4748 17.8971 11.5729L16.0328 14.5573C15.7772 14.9656 15.2508 15.7477 14.4404 16.3686C15.414 16.3686 16.0596 16.3917 16.8831 15.0885L18.7002 12.1792C18.8203 12.2547 18.9426 12.3282 19.0697 12.397L16.8505 15.9477C16.5949 16.3555 16.0685 17.1354 15.2581 17.7584C16.2317 17.7584 16.8773 17.781 17.7013 16.4788L19.9855 12.8221C20.121 12.8735 20.2574 12.9234 20.397 12.968L17.8158 17.0992C17.5638 17.5018 17.0253 18.2959 16.2239 18.91C17.1969 18.91 17.8431 18.9326 18.6666 17.6304L21.4174 13.2278C21.4457 13.2325 21.473 13.2367 21.5003 13.2425C21.5753 13.4803 21.6273 13.7028 21.6273 13.9238C21.6273 15.3073 20.7198 16.5292 19.6297 17.4724C19.7 17.5034 19.8213 17.5138 19.9331 17.5138C20.1587 17.5138 20.3036 17.5018 20.406 17.4839C20.153 18.0576 19.6108 18.7992 19.3368 19.1819C18.9804 19.1178 18.4613 19.068 18.1218 19.068C17.7659 19.068 17.7255 19.2753 17.7255 19.4616C17.7255 19.7844 17.8766 20.0411 18.0525 20.1843C18.1186 20.019 18.2514 19.7986 18.908 19.7986C18.9206 19.7986 18.9432 19.8001 18.9741 19.8028C18.7826 20.0159 18.1811 20.5019 18.1811 20.8934C18.1811 21.1522 18.465 21.5411 18.8398 21.5411C18.8177 21.4577 18.8203 21.381 18.8203 21.3228C18.8203 21.0058 19.1011 20.6347 19.3384 20.3759C19.331 20.4531 19.3352 20.4447 19.3352 20.535C19.3352 21.2845 19.4029 21.6288 19.8785 21.6288C20.112 21.6288 20.2732 21.5007 20.3283 21.4624C20.0197 21.1779 20.0034 20.9543 20.0034 20.5344C20.0039 20.4247 20.005 20.3177 20.0065 20.1707C20.0076 20.0741 20.0055 19.9466 19.9903 19.8547C20.1603 19.8316 20.2296 19.8316 20.3608 19.8316C20.3608 19.8316 21.0358 19.7776 21.1995 20.1292C21.3827 19.9613 21.6493 19.724 21.6493 19.4621C21.6493 19.2889 21.5669 19.0937 21.2184 19.0937C21.0867 19.0937 20.6721 19.174 20.3251 19.174C20.4185 18.9672 20.8332 18.3605 21.1927 17.9201C21.2478 18.0907 21.3323 18.2749 21.5202 18.4266C21.547 18.1432 21.7129 17.2472 22.1553 16.7234C22.2073 17.0772 22.276 17.4404 22.276 18.2056C22.276 20.0684 21.8289 21.444 20.8783 21.7059C21.0022 21.9211 21.2636 22.1148 21.5349 22.1148C21.8829 22.1148 22.0719 21.7217 22.265 21.3506C22.3658 21.624 22.6434 22.2953 22.9216 22.2953C23.2003 22.2953 23.4785 21.624 23.5793 21.3506C23.7719 21.7217 23.9614 22.1148 24.3093 22.1148C24.5807 22.1148 24.8421 21.9211 24.966 21.7059C24.0154 21.444 23.5672 20.0684 23.5672 18.2056C23.5672 17.4404 23.6365 17.0772 23.6879 16.7234C24.1314 17.2472 24.2978 18.1432 24.323 18.4266C24.5119 18.2749 24.5975 18.0907 24.6516 17.9201C25.0106 18.3605 25.4257 18.9672 25.5192 19.174C25.1722 19.174 24.7571 19.0937 24.6258 19.0937C24.2779 19.0937 24.196 19.2889 24.196 19.4621C24.196 19.724 24.4621 19.9613 24.6458 20.1292C24.8074 19.7776 25.4845 19.8316 25.4845 19.8316C25.6147 19.8316 25.684 19.8316 25.8545 19.8547C25.8383 19.9466 25.8377 20.0741 25.8383 20.1707C25.8404 20.3177 25.8404 20.4247 25.8409 20.5344C25.8409 20.9543 25.8246 21.1779 25.516 21.4624C25.5711 21.5007 25.7322 21.6288 25.9658 21.6288C26.4413 21.6288 26.5096 21.2845 26.5096 20.535C26.5096 20.4447 26.5122 20.4531 26.5059 20.3759C26.7431 20.6347 27.0239 21.0058 27.0239 21.3228C27.0239 21.381 27.0271 21.4577 27.004 21.5411C27.3793 21.5411 27.6637 21.1522 27.6637 20.8934C27.6637 20.5019 27.0628 20.0159 26.8696 19.8028C26.9011 19.8001 26.9237 19.7986 26.9358 19.7986C27.5929 19.7986 27.7257 20.019 27.7918 20.1843C27.9671 20.0411 28.1188 19.7844 28.1188 19.4616C28.1188 19.2753 28.0784 19.068 27.7225 19.068C27.3829 19.068 26.8649 19.1178 26.5075 19.1819C26.233 18.7992 25.6918 18.0576 25.4383 17.4839C25.5407 17.5018 25.6866 17.5138 25.9112 17.5138C26.0235 17.5138 26.1443 17.5034 26.2146 17.4724C25.1245 16.5292 24.217 15.3073 24.217 13.9238C24.217 13.7028 24.2689 13.4803 24.344 13.2425C24.3702 13.2367 24.3996 13.2325 24.4269 13.2278L27.1777 17.6304C28.0012 18.9326 28.6473 18.91 29.6204 18.91C28.819 18.2959 28.2805 17.5018 28.0285 17.0992L25.4467 12.968C25.5869 12.9234 25.7244 12.8735 25.8593 12.8221L28.1429 16.4788C28.967 17.781 29.6126 17.7584 30.5862 17.7584C29.7758 17.1354 29.2493 16.3555 28.9937 15.9477L26.7751 12.397C26.9011 12.3282 27.0239 12.2547 27.1431 12.1792L28.9612 15.0885C29.7858 16.3917 30.4303 16.3686 31.4039 16.3686C30.5935 15.7477 30.0681 14.9656 29.8115 14.5573L27.9472 11.5729C28.0569 11.4748 28.1613 11.3719 28.2589 11.2664L29.5811 13.3816C30.4046 14.6838 31.0501 14.6612 32.0238 14.6612C31.2139 14.0398 30.6864 13.2562 30.4303 12.8489L28.8961 10.393C28.9785 10.2403 29.0483 10.0839 29.1061 9.92382L29.8771 11.1583Z" fill="black"/>
<path d="M40.024 5.53198H37.207V21.629H40.024V5.53198Z" fill="black"/>
<path d="M40.024 21.6289H37.207V37.7259H40.024V21.6289Z" fill="#FF0000"/>
<path d="M40.024 37.726H37.207V53.8229H40.024V37.726Z" fill="#FFCC00"/>
</svg>
