<svg width="24" height="24" viewBox="0 0 24 24" fill="none" xmlns="http://www.w3.org/2000/svg">
    <path d="M15.2206 4.73002C16.6052 3.23774 18.6308 3.20665 19.7518 4.41499C20.8757 5.62539 20.8458 7.81407 19.4593 9.30635L17.1198 11.8277C16.9881 11.9745 16.9153 12.1709 16.9172 12.3747C16.9192 12.5785 16.9956 12.7733 17.13 12.9172C17.2645 13.0611 17.4462 13.1426 17.6361 13.1441C17.826 13.1456 18.0088 13.0669 18.1452 12.9251L20.4856 10.4038C22.3307 8.41512 22.5625 5.24092 20.7782 3.31754C18.992 1.39312 16.0404 1.64391 14.1933 3.63258L9.51438 8.67627C7.66927 10.6649 7.43754 13.8391 9.22183 15.7615C9.28847 15.8359 9.36825 15.8953 9.4565 15.9362C9.54475 15.9772 9.63972 15.9988 9.73586 16C9.832 16.0011 9.92738 15.9817 10.0165 15.9428C10.1055 15.9039 10.1865 15.8464 10.2546 15.7736C10.3228 15.7009 10.3767 15.6142 10.4134 15.5188C10.45 15.4234 10.4685 15.3211 10.4679 15.2179C10.4673 15.1147 10.4476 15.0127 10.4099 14.9178C10.3721 14.8229 10.3172 14.737 10.2482 14.6651C9.12431 13.4547 9.15521 11.266 10.5407 9.77372L15.2206 4.73002Z" fill="#3377FF"/>
    <path d="M14.7783 8.22874C14.6425 8.08257 14.4583 8.00029 14.2661 8C14.0739 7.99971 13.8895 8.08143 13.7534 8.22719C13.6173 8.37294 13.5407 8.57079 13.5404 8.77722C13.5402 8.98364 13.6163 9.18172 13.752 9.32789C14.8758 10.539 14.8458 12.728 13.4594 14.2222L8.77988 19.2679C7.39445 20.7611 5.36892 20.7922 4.24802 19.5831C3.12423 18.372 3.15513 16.182 4.54056 14.6888L6.88082 12.166C6.94796 12.0936 7.00116 12.0077 7.03739 11.9133C7.07363 11.8188 7.09219 11.7176 7.09201 11.6154C7.09183 11.5133 7.07292 11.4122 7.03635 11.3179C6.99978 11.2235 6.94628 11.1379 6.87889 11.0658C6.81151 10.9937 6.73156 10.9365 6.64361 10.8976C6.55566 10.8587 6.46144 10.8388 6.36632 10.839C6.2712 10.8392 6.17705 10.8595 6.08924 10.8987C6.00143 10.938 5.92168 10.9955 5.85454 11.0679L3.51428 13.5907C1.66929 15.5816 1.43758 18.7567 3.22175 20.6812C5.00784 22.6079 7.95924 22.3559 9.80616 20.366L14.4857 15.3193C16.3307 13.3304 16.5624 10.1522 14.7783 8.22874Z" fill="#3377FF"/>
</svg>
