<svg width="57" height="56" viewBox="0 0 57 56" fill="none" xmlns="http://www.w3.org/2000/svg">
<path d="M51.8333 37.7768C51.8333 46.2701 46.77 51.3334 38.2766 51.3334H35.5C34.2166 51.3334 33.1666 50.2834 33.1666 49.0001V35.5368C33.1666 34.9068 33.6799 34.3701 34.3099 34.3701L38.4166 34.3001C38.7433 34.2768 39.0233 34.0434 39.0933 33.7168L39.91 29.2601C39.98 28.8401 39.6533 28.4434 39.2099 28.4434L34.2399 28.5134C33.5866 28.5134 33.0733 28.0001 33.05 27.3701L32.9566 21.6534C32.9566 21.2801 33.2599 20.9534 33.6566 20.9534L39.2566 20.8601C39.6533 20.8601 39.9566 20.5568 39.9566 20.1601L39.8633 14.5601C39.8633 14.1634 39.56 13.8601 39.1633 13.8601L32.8633 13.9534C28.9899 14.0234 25.91 17.1967 25.98 21.0701L26.0966 27.4867C26.12 28.1401 25.6067 28.6534 24.9533 28.6768L22.1533 28.7234C21.7566 28.7234 21.4533 29.0267 21.4533 29.4234L21.5233 33.8568C21.5233 34.2534 21.8266 34.5567 22.2233 34.5567L25.0233 34.5101C25.6766 34.5101 26.1899 35.0234 26.2133 35.6534L26.4233 48.9534C26.4466 50.2601 25.3966 51.3334 24.0899 51.3334H18.7233C10.23 51.3334 5.16663 46.2701 5.16663 37.7534V18.2234C5.16663 9.73008 10.23 4.66675 18.7233 4.66675H38.2766C46.77 4.66675 51.8333 9.73008 51.8333 18.2234V37.7768Z" fill="#1877F2"/>
</svg>
