<svg width="57" height="56" viewBox="0 0 57 56" fill="none" xmlns="http://www.w3.org/2000/svg">
<path d="M43.375 0H13.625C6.37626 0 0.5 5.87626 0.5 13.125V42.875C0.5 50.1237 6.37626 56 13.625 56H43.375C50.6237 56 56.5 50.1237 56.5 42.875V13.125C56.5 5.87626 50.6237 0 43.375 0Z" fill="url(#paint0_radial_3322_34047)"/>
<path d="M43.375 0H13.625C6.37626 0 0.5 5.87626 0.5 13.125V42.875C0.5 50.1237 6.37626 56 13.625 56H43.375C50.6237 56 56.5 50.1237 56.5 42.875V13.125C56.5 5.87626 50.6237 0 43.375 0Z" fill="url(#paint1_radial_3322_34047)"/>
<path d="M28.502 6.125C22.5612 6.125 21.8154 6.15103 19.4823 6.25713C17.1534 6.36388 15.5638 6.73247 14.173 7.27344C12.734 7.83212 11.5136 8.57959 10.2978 9.79584C9.08091 11.0119 8.33344 12.2323 7.773 13.6706C7.2305 15.0618 6.86147 16.6521 6.75669 18.9798C6.65234 21.3132 6.625 22.0592 6.625 28.0002C6.625 33.9413 6.65125 34.6846 6.75713 37.0177C6.86431 39.3466 7.23291 40.9362 7.77344 42.327C8.33256 43.766 9.08003 44.9864 10.2963 46.2022C11.5119 47.4191 12.7323 48.1683 14.1701 48.727C15.562 49.268 17.1519 49.6366 19.4803 49.7433C21.8137 49.8494 22.5588 49.8754 28.4993 49.8754C34.4408 49.8754 35.1841 49.8494 37.5173 49.7433C39.8461 49.6366 41.4375 49.268 42.8294 48.727C44.2677 48.1683 45.4864 47.4191 46.7017 46.2022C47.9187 44.9864 48.6659 43.766 49.2266 42.3277C49.7643 40.9362 50.1335 39.3461 50.2429 37.0182C50.3477 34.685 50.375 33.9413 50.375 28.0002C50.375 22.0592 50.3477 21.3137 50.2429 18.9803C50.1335 16.6515 49.7643 15.062 49.2266 13.6712C48.6659 12.2323 47.9187 11.0119 46.7017 9.79584C45.4851 8.57916 44.2682 7.83169 42.8281 7.27366C41.4336 6.73247 39.8431 6.36366 37.5142 6.25713C35.1808 6.15103 34.438 6.125 28.4952 6.125H28.502ZM26.5396 10.0671C27.1221 10.0662 27.772 10.0671 28.502 10.0671C34.3428 10.0671 35.0349 10.0881 37.3414 10.1929C39.4743 10.2904 40.6319 10.6468 41.403 10.9462C42.4239 11.3426 43.1517 11.8167 43.9168 12.5825C44.6825 13.3481 45.1563 14.0772 45.5538 15.0981C45.8532 15.8681 46.21 17.0258 46.3071 19.1586C46.4119 21.4646 46.4347 22.1572 46.4347 27.9952C46.4347 33.8332 46.4119 34.526 46.3071 36.8318C46.2096 38.9646 45.8532 40.1222 45.5538 40.8925C45.1574 41.9134 44.6825 42.6403 43.9168 43.4055C43.1512 44.1711 42.4243 44.6449 41.403 45.0415C40.6328 45.3423 39.4743 45.6978 37.3414 45.7953C35.0354 45.9001 34.3428 45.9228 28.502 45.9228C22.6609 45.9228 21.9686 45.9001 19.6627 45.7953C17.5299 45.6969 16.3723 45.3405 15.6005 45.0411C14.5798 44.6445 13.8505 44.1707 13.0849 43.405C12.3193 42.6394 11.8455 41.9121 11.448 40.8907C11.1485 40.1205 10.7917 38.9629 10.6946 36.8301C10.5898 34.524 10.5688 33.8314 10.5688 27.9897C10.5688 22.1482 10.5898 21.4592 10.6946 19.1531C10.7922 17.0203 11.1485 15.8627 11.448 15.0916C11.8446 14.0707 12.3193 13.3416 13.0851 12.5759C13.8508 11.8103 14.5798 11.3363 15.6007 10.939C16.3718 10.6382 17.5299 10.2828 19.6627 10.1848C21.6807 10.0936 22.4627 10.0662 26.5396 10.0616V10.0671ZM40.1788 13.6992C38.7296 13.6992 37.5538 14.8739 37.5538 16.3233C37.5538 17.7726 38.7296 18.9483 40.1788 18.9483C41.6281 18.9483 42.8038 17.7726 42.8038 16.3233C42.8038 14.8741 41.6281 13.6983 40.1788 13.6983V13.6992ZM28.502 16.7663C22.2982 16.7663 17.2683 21.7963 17.2683 28.0002C17.2683 34.2042 22.2982 39.2317 28.502 39.2317C34.7059 39.2317 39.7341 34.2042 39.7341 28.0002C39.7341 21.7965 34.7055 16.7663 28.5015 16.7663H28.502ZM28.502 20.7084C32.5289 20.7084 35.7938 23.9728 35.7938 28.0002C35.7938 32.0272 32.5289 35.292 28.502 35.292C24.4748 35.292 21.2104 32.0272 21.2104 28.0002C21.2104 23.9728 24.4748 20.7084 28.502 20.7084Z" fill="white"/>
<defs>
<radialGradient id="paint0_radial_3322_34047" cx="0" cy="0" r="1" gradientUnits="userSpaceOnUse" gradientTransform="translate(15.375 60.3131) rotate(-90) scale(55.5002 51.6195)">
<stop stop-color="#FFDD55"/>
<stop offset="0.1" stop-color="#FFDD55"/>
<stop offset="0.5" stop-color="#FF543E"/>
<stop offset="1" stop-color="#C837AB"/>
</radialGradient>
<radialGradient id="paint1_radial_3322_34047" cx="0" cy="0" r="1" gradientUnits="userSpaceOnUse" gradientTransform="translate(-8.88022 4.03397) rotate(78.681) scale(24.8089 102.263)">
<stop stop-color="#3771C8"/>
<stop offset="0.128" stop-color="#3771C8"/>
<stop offset="1" stop-color="#6600FF" stop-opacity="0"/>
</radialGradient>
</defs>
</svg>
