<svg width="24" height="24" viewBox="0 0 24 24" fill="none" xmlns="http://www.w3.org/2000/svg">
<g id="solar:ticket-linear">
<g id="Group">
<path id="Vector" d="M14 11C14 10.7348 14.1054 10.4804 14.2929 10.2929C14.4804 10.1054 14.7348 10 15 10C15.2652 10 15.5196 10.1054 15.7071 10.2929C15.8946 10.4804 16 10.7348 16 11V13C16 13.2652 15.8946 13.5196 15.7071 13.7071C15.5196 13.8946 15.2652 14 15 14C14.7348 14 14.4804 13.8946 14.2929 13.7071C14.1054 13.5196 14 13.2652 14 13V11Z" stroke="#091406" stroke-width="1.875"/>
<path id="Vector_2" d="M14.0151 17L14.7651 17.002V17H14.0151ZM3.15111 18.828L2.62111 19.359L3.15111 18.829V18.828ZM2.01211 15.01L2.76111 14.979L2.01111 15.011L2.01211 15.01ZM20.8511 18.828L21.3811 19.359L20.8511 18.829V18.828ZM14.0151 7H14.7651V6.998L14.0151 7ZM14.7591 19.005L14.7651 17.002L13.2651 16.998L13.2591 19.001L14.7591 19.005ZM15.0171 16.75C15.1581 16.75 15.2701 16.864 15.2701 17H16.7701C16.7701 16.032 15.9831 15.25 15.0171 15.25V16.75ZM15.0171 15.25C14.0511 15.25 13.2651 16.032 13.2651 17H14.7651C14.7651 16.864 14.8761 16.75 15.0171 16.75V15.25ZM9.99611 4.75H13.5061V3.25H9.99611V4.75ZM13.0091 19.25H9.99611V20.75H13.0091V19.25ZM9.99611 19.25C8.08511 19.25 6.72611 19.248 5.69611 19.11C4.68611 18.975 4.10511 18.721 3.68011 18.297L2.62111 19.36C3.37111 20.108 4.32311 20.44 5.49711 20.598C6.65111 20.753 8.12711 20.751 9.99711 20.751V19.251L9.99611 19.25ZM9.99611 3.25C8.12611 3.25 6.65011 3.248 5.49611 3.403C4.32211 3.561 3.37111 3.893 2.62111 4.641L3.68111 5.703C4.10511 5.279 4.68711 5.025 5.69611 4.89C6.72611 4.752 8.08511 4.75 9.99611 4.75V3.25ZM2.58811 10.909C2.97411 11.124 3.23111 11.533 3.23111 12H4.73111C4.73114 11.5105 4.60046 11.0299 4.35258 10.6078C4.1047 10.1857 3.74861 9.83743 3.32111 9.599L2.58911 10.909H2.58811ZM2.76111 9.02C2.83911 7.164 3.09211 6.289 3.68111 5.703L2.62111 4.641C1.59111 5.669 1.34111 7.08 1.26111 8.958L2.76011 9.021L2.76111 9.02ZM3.23111 12C3.23111 12.467 2.97411 12.876 2.58811 13.091L3.32011 14.401C3.7478 14.1627 4.10409 13.8145 4.35215 13.3924C4.60021 12.9703 4.73104 12.4896 4.73111 12H3.23111ZM1.26211 15.042C1.34211 16.918 1.59211 18.332 2.62111 19.359L3.68111 18.297C3.09211 17.711 2.83911 16.835 2.76111 14.979L1.26211 15.042ZM20.7711 12C20.7711 11.533 21.0281 11.124 21.4141 10.909L20.6821 9.599C20.2544 9.8373 19.8981 10.1855 19.6501 10.6076C19.402 11.0297 19.2712 11.5104 19.2711 12H20.7711ZM22.7401 8.958C22.6601 7.082 22.4101 5.668 21.3811 4.641L20.3211 5.703C20.9091 6.289 21.1631 7.165 21.2411 9.021L22.7401 8.958ZM21.4141 13.091C21.2194 12.983 21.0571 12.8249 20.9441 12.633C20.831 12.4412 20.7713 12.2227 20.7711 12H19.2711C19.2711 13.034 19.8421 13.932 20.6821 14.401L21.4141 13.091ZM21.2411 14.979C21.1631 16.835 20.9101 17.711 20.3211 18.297L21.3811 19.359C22.4111 18.332 22.6611 16.919 22.7401 15.042L21.2411 14.979ZM20.6821 14.401C20.9661 14.56 21.1521 14.664 21.2771 14.743C21.3391 14.782 21.3671 14.803 21.3751 14.809C21.3891 14.821 21.3381 14.785 21.2901 14.699L22.6001 13.966C22.5305 13.8463 22.4393 13.7405 22.3311 13.654C22.2504 13.5886 22.1655 13.5285 22.0771 13.474C21.9101 13.368 21.6811 13.241 21.4141 13.091L20.6821 14.401ZM22.7401 15.042C22.7471 14.871 22.7551 14.694 22.7491 14.546C22.7457 14.3435 22.6943 14.1447 22.5991 13.966L21.2901 14.698C21.2401 14.608 21.2471 14.546 21.2501 14.612C21.2511 14.64 21.2521 14.682 21.2501 14.746L21.2411 14.979L22.7401 15.042ZM21.4141 10.909C21.6811 10.759 21.9101 10.632 22.0771 10.526C22.1654 10.4712 22.2502 10.4111 22.3311 10.346C22.4389 10.2594 22.5298 10.1537 22.5991 10.034L21.2901 9.302C21.3381 9.215 21.3891 9.179 21.3741 9.191C21.343 9.2148 21.3106 9.23683 21.2771 9.257C21.1521 9.337 20.9671 9.44 20.6821 9.599L21.4141 10.909ZM21.2411 9.021L21.2501 9.253C21.2521 9.317 21.2511 9.359 21.2501 9.387C21.2471 9.453 21.2401 9.391 21.2901 9.301L22.6001 10.033C22.6946 9.85403 22.7456 9.65535 22.7491 9.453C22.7526 9.2876 22.7492 9.12213 22.7391 8.957L21.2411 9.021ZM2.58811 13.091C2.32111 13.241 2.09211 13.367 1.92511 13.473C1.8367 13.5275 1.75186 13.5877 1.67111 13.653C1.56328 13.7396 1.47242 13.8463 1.40311 13.966L2.71211 14.697C2.66411 14.784 2.61311 14.82 2.62711 14.808C2.63611 14.801 2.66311 14.781 2.72511 14.742C2.85011 14.662 3.03511 14.559 3.32011 14.4L2.58811 13.091ZM2.76111 14.978C2.75751 14.9004 2.75451 14.8227 2.75211 14.745C2.75063 14.7003 2.75063 14.6557 2.75211 14.611C2.75511 14.545 2.76211 14.607 2.71211 14.697L1.40211 13.965C1.30728 14.1438 1.25622 14.3426 1.25311 14.545C1.24711 14.693 1.25511 14.87 1.26311 15.041L2.76111 14.978ZM3.32011 9.598C3.03611 9.439 2.85011 9.335 2.72511 9.256C2.69125 9.23582 2.65853 9.21379 2.62711 9.19C2.61311 9.178 2.66411 9.214 2.71211 9.3L1.40211 10.033C1.48611 10.181 1.59711 10.283 1.67111 10.345C1.75111 10.411 1.84011 10.471 1.92511 10.525C2.09211 10.631 2.32111 10.758 2.58811 10.908L3.32011 9.598ZM1.26111 8.958C1.25411 9.129 1.24611 9.306 1.25211 9.454C1.25911 9.604 1.28211 9.821 1.40211 10.034L2.71211 9.302C2.76211 9.392 2.75411 9.454 2.75111 9.388C2.74963 9.34335 2.74963 9.29866 2.75111 9.254L2.76011 9.021L1.26111 8.958ZM14.7641 6.998L14.7561 4.496L13.2571 4.501L13.2641 7.002L14.7641 6.998ZM15.0161 7.25C14.9831 7.25013 14.9505 7.24377 14.92 7.23128C14.8895 7.21879 14.8617 7.20041 14.8383 7.17719C14.8149 7.15398 14.7963 7.12638 14.7836 7.09598C14.7709 7.06558 14.7642 7.03296 14.7641 7H13.2641C13.2641 7.968 14.0501 8.75 15.0161 8.75V7.25ZM15.2711 7C15.2711 7.136 15.1591 7.25 15.0181 7.25V8.75C15.9841 8.75 16.7711 7.968 16.7711 7H15.2711ZM15.2711 4.516V7H16.7711V4.516H15.2711ZM16.5111 4.769C18.6991 4.825 19.6801 5.061 20.3231 5.703L21.3831 4.641C20.2701 3.531 18.6961 3.325 16.5491 3.269L16.5111 4.769ZM16.7711 4.516C16.7711 4.656 16.6551 4.772 16.5111 4.769L16.5491 3.269C16.3828 3.26486 16.2173 3.29406 16.0624 3.35488C15.9075 3.41569 15.7663 3.50689 15.6472 3.6231C15.5281 3.7393 15.4335 3.87817 15.3689 4.03152C15.3043 4.18487 15.2711 4.3496 15.2711 4.516H16.7711ZM13.5061 4.75C13.44 4.74974 13.3776 4.72328 13.331 4.67643C13.2843 4.62957 13.2581 4.56613 13.2581 4.5L14.7581 4.496C14.7571 4.16517 14.6249 3.84826 14.3906 3.6147C14.1563 3.38115 13.8389 3.25 13.5081 3.25V4.75H13.5061ZM17.0671 20.713C18.9421 20.634 20.3551 20.384 21.3821 19.359L20.3211 18.297C19.7351 18.883 18.8581 19.137 17.0041 19.215L17.0671 20.713ZM15.2711 17V18.977H16.7711V17H15.2711ZM13.2601 19C13.2601 19.121 13.2601 19.214 13.2571 19.293C13.2551 19.373 13.2511 19.419 13.2471 19.448C13.2431 19.476 13.2421 19.467 13.2531 19.438C13.2718 19.3949 13.2986 19.3559 13.3321 19.323L14.3911 20.385C14.5838 20.1858 14.7042 19.9277 14.7331 19.652C14.7601 19.455 14.7581 19.219 14.7591 19.005L13.2601 19ZM13.0091 20.75C13.2231 20.75 13.4601 20.752 13.6571 20.725C13.8761 20.695 14.1551 20.62 14.3911 20.385L13.3311 19.323C13.3647 19.2897 13.4044 19.2632 13.4481 19.245C13.4761 19.233 13.4861 19.235 13.4581 19.238C13.4063 19.244 13.3542 19.2473 13.3021 19.248C13.2221 19.25 13.1291 19.25 13.0091 19.25V20.75ZM17.0041 19.215C16.8841 19.22 16.7911 19.224 16.7121 19.225C16.6331 19.226 16.5871 19.225 16.5601 19.222C16.5331 19.219 16.5451 19.217 16.5751 19.229C16.6121 19.243 16.6551 19.269 16.6941 19.305L15.6561 20.388C15.9001 20.622 16.1851 20.692 16.4131 20.714C16.6151 20.734 16.8521 20.723 17.0661 20.714L17.0041 19.215ZM15.2711 18.977C15.2711 19.195 15.2691 19.437 15.2971 19.64C15.3281 19.866 15.4091 20.151 15.6561 20.388L16.6941 19.305C16.7341 19.343 16.7601 19.386 16.7761 19.422C16.7881 19.452 16.7861 19.462 16.7831 19.434C16.777 19.3812 16.7737 19.3281 16.7731 19.275C16.7711 19.195 16.7711 19.1 16.7711 18.977H15.2711Z" fill="#091406"/>
</g>
</g>
</svg>
