<svg width="17" height="14" viewBox="0 0 17 14" fill="none" xmlns="http://www.w3.org/2000/svg">
<path fill-rule="evenodd" clip-rule="evenodd" d="M0.213081 7.54811C0.0766385 7.40268 0 7.20554 0 7C0 6.79446 0.0766385 6.59732 0.213081 6.45189L6.04187 0.246862C6.10858 0.170658 6.18901 0.109537 6.27839 0.0671444C6.36776 0.0247517 6.46424 0.00195694 6.56207 0.000119209C6.6599 -0.00171757 6.75707 0.0174389 6.8478 0.0564489C6.93852 0.095459 7.02093 0.153522 7.09012 0.227175C7.15931 0.300827 7.21385 0.38856 7.25049 0.48514C7.28714 0.581719 7.30514 0.685164 7.30341 0.789309C7.30168 0.893453 7.28027 0.996161 7.24045 1.0913C7.20063 1.18645 7.14321 1.27208 7.07163 1.34309L2.48631 6.22437L16.2714 6.22437C16.4646 6.22437 16.65 6.30609 16.7866 6.45155C16.9232 6.59701 17 6.79429 17 7C17 7.20571 16.9232 7.40299 16.7866 7.54845C16.65 7.69391 16.4646 7.77563 16.2714 7.77563L2.48631 7.77563L7.07163 12.6569C7.14321 12.7279 7.20063 12.8136 7.24045 12.9087C7.28027 13.0038 7.30168 13.1065 7.30341 13.2107C7.30514 13.3148 7.28714 13.4183 7.25049 13.5149C7.21385 13.6114 7.15931 13.6992 7.09012 13.7728C7.02093 13.8465 6.93852 13.9045 6.8478 13.9435C6.75707 13.9826 6.6599 14.0017 6.56207 13.9999C6.46424 13.998 6.36776 13.9752 6.27839 13.9329C6.18901 13.8905 6.10858 13.8293 6.04187 13.7531L0.213081 7.54811Z" fill="#091406"/>
</svg>
