<svg width="32" height="32" viewBox="0 0 32 32" fill="none" xmlns="http://www.w3.org/2000/svg">
    <rect x="0.5" y="0.5" width="31" height="31" rx="7.5" stroke="#4EA62F"/>
    <path d="M9 16L8.46967 15.4697C8.17678 15.7626 8.17678 16.2374 8.46967 16.5303L9 16ZM23 16.75C23.4142 16.75 23.75 16.4142 23.75 16C23.75 15.5858 23.4142 15.25 23 15.25V16.75ZM12.4697 20.5303C12.7626 20.8232 13.2374 20.8232 13.5303 20.5303C13.8232 20.2374 13.8232 19.7626 13.5303 19.4697L12.4697 20.5303ZM13.5303 12.5303C13.8232 12.2374 13.8232 11.7626 13.5303 11.4697C13.2374 11.1768 12.7626 11.1768 12.4697 11.4697L13.5303 12.5303ZM9 16.75H23V15.25H9V16.75ZM8.46967 16.5303L12.4697 20.5303L13.5303 19.4697L9.53033 15.4697L8.46967 16.5303ZM9.53033 16.5303L13.5303 12.5303L12.4697 11.4697L8.46967 15.4697L9.53033 16.5303Z" fill="#4EA62F"/>
</svg>
