<svg width="32" height="32" viewBox="0 0 32 32" fill="none" xmlns="http://www.w3.org/2000/svg">
    <rect x="0.5" y="0.5" width="31" height="31" rx="7.5" stroke="#4EA62F"/>
    <path d="M23 16L23.5303 16.5303C23.8232 16.2374 23.8232 15.7626 23.5303 15.4697L23 16ZM9 15.25C8.58579 15.25 8.25 15.5858 8.25 16C8.25 16.4142 8.58579 16.75 9 16.75L9 15.25ZM19.5303 11.4697C19.2374 11.1768 18.7626 11.1768 18.4697 11.4697C18.1768 11.7626 18.1768 12.2374 18.4697 12.5303L19.5303 11.4697ZM18.4697 19.4697C18.1768 19.7626 18.1768 20.2374 18.4697 20.5303C18.7626 20.8232 19.2374 20.8232 19.5303 20.5303L18.4697 19.4697ZM23 15.25L9 15.25L9 16.75L23 16.75L23 15.25ZM23.5303 15.4697L19.5303 11.4697L18.4697 12.5303L22.4697 16.5303L23.5303 15.4697ZM22.4697 15.4697L18.4697 19.4697L19.5303 20.5303L23.5303 16.5303L22.4697 15.4697Z" fill="#4EA62F"/>
</svg>
