<svg width="10" height="10" viewBox="0 0 10 10" fill="none" xmlns="http://www.w3.org/2000/svg">
<path d="M8.99994 1.00006C8.81241 0.812591 8.5581 0.707275 8.29294 0.707275C8.02777 0.707275 7.77347 0.812591 7.58594 1.00006L4.99994 3.58606L2.41395 1.00006C2.22534 0.817904 1.97274 0.71711 1.71055 0.719388C1.44835 0.721666 1.19754 0.826835 1.01213 1.01224C0.826723 1.19765 0.721554 1.44846 0.719276 1.71066C0.716998 1.97286 0.817792 2.22546 0.99995 2.41406L3.58595 5.00006L0.99995 7.58606C0.817792 7.77466 0.716998 8.02727 0.719276 8.28946C0.721554 8.55166 0.826723 8.80247 1.01213 8.98788C1.19754 9.17329 1.44835 9.27846 1.71055 9.28074C1.97274 9.28301 2.22534 9.18222 2.41395 9.00006L4.99994 6.41406L7.58594 9.00006C7.77454 9.18222 8.02714 9.28301 8.28934 9.28074C8.55153 9.27846 8.80235 9.17329 8.98775 8.98788C9.17316 8.80247 9.27833 8.55166 9.28061 8.28946C9.28289 8.02727 9.18209 7.77466 8.99994 7.58606L6.41394 5.00006L8.99994 2.41406C9.18741 2.22653 9.29272 1.97223 9.29272 1.70706C9.29272 1.4419 9.18741 1.18759 8.99994 1.00006Z" fill="#B3B3B3"/>
</svg>
