<svg width="80" height="18" viewBox="0 0 80 18" fill="none" xmlns="http://www.w3.org/2000/svg">
<path d="M8.53028 8.33115H14.8353V16.8071C13.95 17.0997 13.0339 17.3268 12.087 17.4885C11.1401 17.6501 10.0777 17.731 8.89981 17.731C7.18305 17.731 5.72805 17.3922 4.53479 16.7148C3.34922 16.0296 2.44851 15.0403 1.83263 13.747C1.21675 12.446 0.908816 10.8793 0.908816 9.0471C0.908816 7.28416 1.2514 5.75602 1.93656 4.46268C2.62172 3.16164 3.61867 2.15699 4.92741 1.44873C6.23614 0.732778 7.82202 0.3748 9.68505 0.3748C10.6012 0.3748 11.4865 0.467182 12.341 0.651944C13.2032 0.829009 13.9923 1.07536 14.7083 1.391L13.7383 3.67743C13.1686 3.40799 12.5296 3.18088 11.8214 2.99612C11.1131 2.81136 10.3779 2.71898 9.61576 2.71898C8.40711 2.71898 7.36397 2.98073 6.48634 3.50422C5.61642 4.02771 4.94665 4.76677 4.47705 5.72137C4.00744 6.66828 3.77264 7.78841 3.77264 9.08175C3.77264 10.3366 3.96125 11.4375 4.33848 12.3844C4.7157 13.3313 5.30463 14.0703 6.10527 14.6015C6.91361 15.125 7.95675 15.3868 9.23469 15.3868C9.87366 15.3868 10.4164 15.3521 10.8629 15.2828C11.3094 15.2136 11.7213 15.1366 12.0985 15.0519V10.6984H8.53028V8.33115ZM24.7317 17.5H21.9487V2.97303H17.0063V0.617301H29.6625V2.97303H24.7317V17.5ZM39.0623 8.33115H45.3674V16.8071C44.482 17.0997 43.5659 17.3268 42.619 17.4885C41.6721 17.6501 40.6097 17.731 39.4319 17.731C37.7151 17.731 36.2601 17.3922 35.0668 16.7148C33.8813 16.0296 32.9806 15.0403 32.3647 13.747C31.7488 12.446 31.4409 10.8793 31.4409 9.0471C31.4409 7.28416 31.7834 5.75602 32.4686 4.46268C33.1538 3.16164 34.1507 2.15699 35.4595 1.44873C36.7682 0.732778 38.3541 0.3748 40.2171 0.3748C41.1332 0.3748 42.0185 0.467182 42.8731 0.651944C43.7353 0.829009 44.5244 1.07536 45.2403 1.391L44.2703 3.67743C43.7006 3.40799 43.0617 3.18088 42.3534 2.99612C41.6452 2.81136 40.91 2.71898 40.1478 2.71898C38.9392 2.71898 37.896 2.98073 37.0184 3.50422C36.1485 4.02771 35.4787 4.76677 35.0091 5.72137C34.5395 6.66828 34.3047 7.78841 34.3047 9.08175C34.3047 10.3366 34.4933 11.4375 34.8705 12.3844C35.2477 13.3313 35.8367 14.0703 36.6373 14.6015C37.4457 15.125 38.4888 15.3868 39.7667 15.3868C40.4057 15.3868 40.9484 15.3521 41.395 15.2828C41.8415 15.2136 42.2533 15.1366 42.6306 15.0519V10.6984H39.0623V8.33115Z" fill="#8DBDEC"/>
<path d="M65.8298 17.5H54.3976V15.4561L58.7742 11.0218C59.621 10.1595 60.3177 9.41663 60.8643 8.79305C61.4109 8.16178 61.8151 7.56515 62.0768 7.00316C62.3463 6.44118 62.481 5.82915 62.481 5.16708C62.481 4.35105 62.2462 3.73517 61.7766 3.31946C61.307 2.89604 60.6873 2.68433 59.9174 2.68433C59.1861 2.68433 58.5086 2.83061 57.885 3.12315C57.2692 3.40799 56.6302 3.81601 55.9681 4.3472L54.4785 2.55731C54.9481 2.15699 55.4485 1.79131 55.9797 1.46028C56.5186 1.12925 57.119 0.867501 57.7811 0.67504C58.4432 0.47488 59.1976 0.3748 60.0445 0.3748C61.1145 0.3748 62.0384 0.567261 62.8159 0.952184C63.5934 1.32941 64.1901 1.85675 64.6058 2.53422C65.0292 3.21168 65.2409 4.00077 65.2409 4.90149C65.2409 5.80991 65.06 6.64904 64.6982 7.41888C64.3363 8.18873 63.8205 8.95087 63.1508 9.70532C62.481 10.4521 61.6842 11.2643 60.7604 12.1419L57.8388 14.9942V15.1212H65.8298V17.5ZM79.9757 13.7932H77.6893V17.5H75.0102V13.7932H67.331V11.7377L75.0449 0.571111H77.6893V11.5414H79.9757V13.7932ZM75.0102 11.5414V7.34959C75.0102 7.00316 75.0141 6.65289 75.0218 6.29876C75.0372 5.93693 75.0526 5.5905 75.068 5.25947C75.0834 4.92843 75.0988 4.62434 75.1142 4.3472C75.1296 4.06236 75.1411 3.82755 75.1488 3.64279H75.0564C74.9102 3.95073 74.7485 4.26637 74.5714 4.5897C74.3944 4.90534 74.2057 5.21328 74.0056 5.51351L69.8484 11.5414H75.0102Z" fill="#9FCE63"/>
</svg>
