<svg width="740" height="521" viewBox="0 0 740 521" fill="none" xmlns="http://www.w3.org/2000/svg">
<path d="M711.073 468.661C711.073 470.664 710.677 472.648 709.909 474.499C709.142 476.35 708.016 478.031 706.597 479.448C705.178 480.864 703.494 481.988 701.64 482.755C699.786 483.521 697.8 483.916 695.793 483.916H74.0362C69.9839 483.916 66.0976 482.309 63.2321 479.448C60.3667 476.587 58.7569 472.707 58.7568 468.661C58.7568 466.658 59.152 464.674 59.9198 462.823C60.6876 460.972 61.8131 459.29 63.2319 457.874C64.6507 456.457 66.3351 455.333 68.1889 454.567C70.0427 453.8 72.0296 453.405 74.0362 453.405H695.793C697.8 453.405 699.787 453.8 701.641 454.567C703.494 455.333 705.179 456.457 706.598 457.874C708.016 459.29 709.142 460.972 709.91 462.823C710.677 464.674 711.073 466.658 711.073 468.661Z" fill="#4EA62F"/>
<path d="M341.85 72.1208L370.909 64.9346C370.909 64.9346 377.572 69.715 371.859 76.8145C371.527 77.2258 341.85 72.1208 341.85 72.1208Z" fill="#151515"/>
<path d="M341.85 72.1208L370.909 64.9346C370.909 64.9346 377.572 69.715 371.859 76.8145C371.527 77.2258 341.85 72.1208 341.85 72.1208Z" stroke="#151515" stroke-width="0.715094" stroke-miterlimit="10"/>
<path d="M338.232 55.9691L357.436 33.0386C357.436 33.0386 365.642 32.9686 365.228 42.0658C365.203 42.5932 338.232 55.9691 338.232 55.9691Z" fill="#151515"/>
<path d="M338.232 55.9691L357.436 33.0386C357.436 33.0386 365.642 32.9686 365.228 42.0658C365.203 42.5932 338.232 55.9691 338.232 55.9691Z" stroke="#151515" stroke-width="0.715094" stroke-miterlimit="10"/>
<path d="M326.46 57.3878L317.687 28.8098C317.687 28.8098 322.103 21.9065 329.515 27.214C329.944 27.5227 326.46 57.3878 326.46 57.3878Z" fill="#151515"/>
<path d="M326.46 57.3878L317.687 28.8098C317.687 28.8098 322.103 21.9065 329.515 27.214C329.944 27.5227 326.46 57.3878 326.46 57.3878Z" stroke="#151515" stroke-width="0.715094" stroke-miterlimit="10"/>
<path d="M381.365 440.136L355.106 442.189C355.106 442.189 350.014 437.081 355.998 431.742C356.344 431.433 381.365 440.136 381.365 440.136Z" fill="#151515"/>
<path d="M381.365 440.136L355.106 442.189C355.106 442.189 350.014 437.081 355.998 431.742C356.344 431.433 381.365 440.136 381.365 440.136Z" stroke="#151515" stroke-width="0.715094" stroke-miterlimit="10"/>
<path d="M382.172 454.675L362.194 471.813C362.194 471.813 355.063 470.692 356.734 462.855C356.832 462.402 382.172 454.675 382.172 454.675Z" fill="#151515"/>
<path d="M382.172 454.675L362.194 471.813C362.194 471.813 355.063 470.692 356.734 462.855C356.832 462.402 382.172 454.675 382.172 454.675Z" stroke="#151515" stroke-width="0.715094" stroke-miterlimit="10"/>
<path d="M392.592 455.14L396.08 481.205C396.08 481.205 391.25 486.561 385.583 480.887C385.255 480.558 392.592 455.14 392.592 455.14Z" fill="#151515"/>
<path d="M392.592 455.14L396.08 481.205C396.08 481.205 391.25 486.561 385.583 480.887C385.255 480.558 392.592 455.14 392.592 455.14Z" stroke="#151515" stroke-width="0.715094" stroke-miterlimit="10"/>
<path d="M263.365 319.045H259.419L257.778 329.076H252.901L254.543 319.045H249.104V314.569H255.278L256.356 308.11H250.941V303.633H257.092L258.782 293.456H263.634L261.968 303.633H265.913L267.604 293.456H272.48L270.789 303.633H276.449V308.11H270.054L268.976 314.569H274.587V319.045H268.241L266.599 329.076H261.723L263.365 319.045ZM260.154 314.569H264.099L265.177 308.11H261.232L260.154 314.569Z" fill="#4EA62F"/>
<path d="M181.383 461.227C179.319 461.203 177.346 460.374 175.886 458.916C174.426 457.459 173.595 455.489 173.571 453.428V423.963H82.4351C80.3709 423.94 78.3979 423.11 76.9382 421.653C75.4784 420.196 74.6478 418.226 74.624 416.165V385.545C74.624 380.54 75.8778 376.399 78.3854 373.124L164.891 264.223C166.627 262.106 168.219 260.71 169.665 260.035C171.111 259.363 173.088 259.026 175.597 259.023H219.284C221.348 259.048 223.321 259.877 224.781 261.335C226.24 262.792 227.071 264.762 227.095 266.823V377.746H251.977C254.041 377.77 256.014 378.6 257.473 380.057C258.933 381.515 259.764 383.484 259.789 385.545V416.165C259.764 418.226 258.934 420.196 257.474 421.653C256.014 423.11 254.041 423.939 251.977 423.963H227.095V453.428C227.071 455.488 226.24 457.458 224.781 458.916C223.321 460.373 221.348 461.203 219.284 461.227H181.383ZM175.018 377.746V324.595L132.777 377.746H175.018Z" fill="#4EA62F"/>
<path d="M402.065 168.127C416.53 168.127 428.971 170.246 439.387 174.482C449.802 178.721 458.434 184.402 465.281 191.525C472.13 198.658 477.36 207.18 480.615 216.512C484.009 226.145 486.006 236.212 486.546 246.409C486.93 254.691 487.124 263.358 487.125 272.407C487.125 281.461 486.932 289.934 486.546 297.827C486.006 308.024 484.009 318.091 480.615 327.724C477.361 337.056 472.131 345.579 465.281 352.711C458.432 359.838 449.801 365.519 439.387 369.754C428.971 373.987 416.531 376.105 402.065 376.108C387.599 376.108 375.158 373.99 364.742 369.754C354.327 365.52 345.696 359.839 338.849 352.711C331.995 345.581 326.765 337.058 323.514 327.724C320.118 318.092 318.121 308.024 317.583 297.827C317.195 289.933 317.002 281.459 317.005 272.407C317.005 263.357 317.198 254.691 317.583 246.409C318.121 236.212 320.118 226.144 323.514 216.512C326.766 207.179 331.996 198.656 338.849 191.525C345.693 184.403 354.324 178.722 364.742 174.482C375.158 170.249 387.599 168.13 402.065 168.127ZM433.022 296.382C433.791 280.017 433.791 263.841 433.022 247.854C432.688 243.37 431.961 238.924 430.852 234.566C429.898 230.745 428.175 227.158 425.789 224.022C423.338 220.934 420.156 218.502 416.53 216.946C412.671 215.212 407.849 214.345 402.065 214.346C396.278 214.346 391.456 215.212 387.599 216.946C383.972 218.501 380.79 220.933 378.341 224.022C375.945 227.172 374.177 230.751 373.132 234.566C371.93 238.899 371.25 243.36 371.107 247.854C370.14 264.015 370.14 280.22 371.107 296.382C371.251 300.866 371.881 305.322 372.988 309.67C373.948 313.516 375.723 317.112 378.195 320.214C380.72 323.287 383.944 325.714 387.599 327.291C391.455 329.024 396.277 329.89 402.065 329.89C407.851 329.89 412.673 329.024 416.53 327.291C420.184 325.712 423.407 323.286 425.933 320.214C428.402 317.11 430.178 313.515 431.141 309.67C432.244 305.321 432.874 300.866 433.022 296.382Z" fill="#4EA62F"/>
<path d="M627.01 236.809C624.946 236.785 622.973 235.955 621.514 234.498C620.054 233.041 619.223 231.071 619.199 229.01V199.545H528.063C525.999 199.522 524.026 198.693 522.566 197.235C521.106 195.778 520.276 193.808 520.252 191.747V161.127C520.252 156.122 521.506 151.982 524.013 148.706L610.519 39.8056C612.255 37.6889 613.846 36.2927 615.293 35.617C616.739 34.9447 618.716 34.6077 621.224 34.606H664.912C666.976 34.63 668.949 35.4594 670.409 36.9169C671.868 38.3744 672.699 40.3442 672.723 42.4052V153.328H697.604C699.668 153.352 701.641 154.182 703.101 155.639C704.561 157.097 705.392 159.066 705.416 161.127V191.747C705.392 193.808 704.561 195.778 703.101 197.235C701.641 198.692 699.668 199.522 697.604 199.545H672.723V229.01C672.699 231.071 671.868 233.041 670.409 234.498C668.949 235.956 666.976 236.785 664.912 236.809H627.01ZM620.645 153.328V100.178L578.405 153.328H620.645Z" fill="#4EA62F"/>
<path d="M176.277 439.538C174.213 439.514 172.24 438.684 170.78 437.227C169.32 435.77 168.489 433.8 168.465 431.739V402.274H77.3295C75.2652 402.251 73.2922 401.422 71.8324 399.964C70.3727 398.507 69.5422 396.537 69.5186 394.476V363.856C69.5186 358.851 70.7722 354.711 73.2795 351.435L159.785 242.534C161.521 240.418 163.113 239.021 164.559 238.346C166.006 237.674 167.983 237.337 170.491 237.334H214.178C216.242 237.358 218.215 238.188 219.675 239.645C221.135 241.103 221.965 243.073 221.989 245.134V356.056H246.871C248.935 356.081 250.908 356.91 252.368 358.368C253.828 359.825 254.659 361.795 254.683 363.856V394.476C254.659 396.537 253.828 398.507 252.368 399.964C250.908 401.421 248.935 402.251 246.871 402.274H221.989V431.739C221.965 433.8 221.135 435.77 219.675 437.227C218.215 438.685 216.242 439.514 214.178 439.538H176.277ZM169.912 356.056V302.906L127.671 356.056H169.912Z" stroke="#151515" stroke-width="0.715094" stroke-linecap="round" stroke-linejoin="round"/>
<path d="M376.478 178.647C390.943 178.647 403.384 180.765 413.799 185.002C424.215 189.24 432.847 194.921 439.694 202.045C446.543 209.178 451.773 217.7 455.028 227.032C458.422 236.664 460.419 246.732 460.958 256.929C461.343 265.211 461.536 273.877 461.538 282.927C461.538 291.98 461.345 300.454 460.958 308.347C460.419 318.543 458.422 328.61 455.028 338.243C451.775 347.575 446.544 356.098 439.694 363.23C432.845 370.357 424.213 376.038 413.799 380.273C403.384 384.507 390.944 386.625 376.478 386.628C362.011 386.628 349.571 384.51 339.155 380.273C328.74 376.04 320.108 370.359 313.262 363.23C306.408 356.1 301.178 347.577 297.927 338.243C294.531 328.611 292.534 318.544 291.997 308.347C291.608 300.452 291.415 291.978 291.418 282.927C291.418 273.877 291.611 265.211 291.997 256.929C292.534 246.731 294.531 236.663 297.927 227.032C301.179 217.698 306.409 209.175 313.262 202.045C320.105 194.922 328.737 189.241 339.155 185.002C349.571 180.768 362.012 178.65 376.478 178.647ZM407.435 306.901C408.203 290.536 408.203 274.36 407.435 258.373C407.101 253.889 406.374 249.443 405.265 245.085C404.31 241.265 402.588 237.678 400.202 234.542C397.751 231.453 394.569 229.021 390.943 227.465C387.082 225.731 382.261 224.864 376.478 224.865C370.691 224.865 365.869 225.731 362.011 227.465C358.385 229.02 355.203 231.452 352.753 234.542C350.357 237.691 348.59 241.271 347.546 245.085C346.343 249.418 345.663 253.879 345.52 258.373C344.553 274.535 344.553 290.74 345.52 306.901C345.663 311.385 346.294 315.841 347.401 320.189C348.36 324.036 350.136 327.631 352.608 330.733C355.133 333.806 358.357 336.233 362.011 337.81C365.868 339.543 370.69 340.41 376.478 340.41C382.264 340.41 387.086 339.543 390.943 337.81C394.597 336.231 397.82 333.805 400.346 330.733C402.815 327.629 404.591 324.034 405.554 320.189C406.657 315.84 407.288 311.385 407.435 306.901V306.901Z" stroke="#151515" stroke-width="0.715094" stroke-linecap="round" stroke-linejoin="round"/>
<path d="M603.187 247.328C601.122 247.304 599.149 246.475 597.689 245.018C596.229 243.56 595.399 241.59 595.375 239.529V210.065H504.238C502.174 210.041 500.201 209.212 498.741 207.755C497.282 206.297 496.451 204.327 496.428 202.266V171.647C496.428 166.641 497.681 162.501 500.188 159.225L586.695 50.3249C588.43 48.2079 590.022 46.8117 591.469 46.1361C592.915 45.464 594.891 45.127 597.4 45.125H641.087C643.151 45.1492 645.124 45.9787 646.584 47.4361C648.043 48.8936 648.874 50.8633 648.898 52.9243V163.847H673.78C675.844 163.871 677.817 164.701 679.277 166.158C680.737 167.616 681.567 169.586 681.592 171.647V202.266C681.568 204.327 680.737 206.297 679.277 207.754C677.817 209.212 675.844 210.041 673.78 210.065H648.898V239.529C648.874 241.59 648.043 243.56 646.584 245.017C645.124 246.475 643.151 247.304 641.087 247.328H603.187ZM596.82 163.847V110.697L554.58 163.847H596.82Z" stroke="#151515" stroke-width="0.715094" stroke-linecap="round" stroke-linejoin="round"/>
<path d="M75.5264 452.151H685.069" stroke="#151515" stroke-width="0.715094" stroke-linecap="round" stroke-linejoin="round"/>
<path d="M188.121 433.651L182.853 449.617L170.912 449.291L174.858 435.999" fill="white"/>
<path d="M188.121 433.651L182.853 449.617L170.912 449.291L174.858 435.999" stroke="#151515" stroke-width="0.715094" stroke-linecap="round" stroke-linejoin="round"/>
<path d="M233.175 192.234L225.92 192.839C227.683 207.636 221.388 218.567 213.134 226.379L221.134 238.951C235.494 219.998 233.175 192.234 233.175 192.234Z" fill="white" stroke="#151515" stroke-width="0.715094" stroke-linecap="round" stroke-linejoin="round"/>
<path d="M183.307 242.975L190.014 255.84C204.892 254.188 214.69 247.456 221.133 238.951L213.134 226.379C200.511 238.325 183.307 242.975 183.307 242.975Z" fill="#4EA62F" stroke="#151515" stroke-width="0.715094" stroke-linecap="round" stroke-linejoin="round"/>
<path d="M233.073 195.478L226.347 195.362C226.064 195.188 225.804 194.98 225.574 194.741C225.221 194.365 225.956 193.021 225.956 193.021C225.956 193.021 223.467 189.131 222.899 185.809C222.331 182.489 219.697 179.223 221.286 179.18C222.876 179.137 222.953 181.995 223.741 181.656C224.133 181.486 224.264 178.871 223.816 176.32C223.37 173.771 222.345 171.287 223.465 171.495C225.703 171.911 226.916 180.084 226.916 180.084C226.916 180.084 227.081 177.449 227.069 174.693C227.059 171.735 226.918 168.643 228.32 168.663C229.531 168.679 229.51 171.398 229.836 174.106C230.069 175.888 230.404 177.655 230.84 179.398C230.84 179.398 231.437 170.459 232.417 171.385C233.398 172.311 232.689 180.257 233.258 180.254C233.828 180.251 234.531 174.69 235.339 175.144C236.147 175.599 235.293 185.156 235.293 185.156C235.293 185.156 235.6 190.758 233.443 193.359C233.443 193.359 234.403 195.071 233.073 195.478Z" fill="#151515"/>
<path d="M217.101 222.353L209.924 226.834L220.016 242.946L227.193 238.464L217.101 222.353Z" fill="#4EA62F" stroke="#151515" stroke-width="0.715094" stroke-linecap="round" stroke-linejoin="round"/>
<path d="M124.096 128.925C124.095 133.196 122.396 137.293 119.371 140.314C116.346 143.335 112.243 145.032 107.964 145.033H31.5418C27.2631 145.032 23.1597 143.335 20.1341 140.314C17.1085 137.294 15.4086 133.197 15.4082 128.925C15.4085 124.653 17.1084 120.556 20.134 117.535C23.1595 114.514 27.263 112.817 31.5418 112.816H107.964C112.243 112.817 116.346 114.514 119.371 117.535C122.396 120.556 124.096 124.653 124.096 128.925Z" fill="white" stroke="#151515" stroke-width="0.715094" stroke-linecap="round" stroke-linejoin="round"/>
<path d="M103.066 132.202H33.8964C30.5966 132.2 27.3948 131.082 24.8127 129.031C22.2307 126.979 20.4209 124.115 19.6782 120.905C18.48 123.127 17.8794 125.62 17.9352 128.142C17.991 130.665 18.7013 133.13 19.9967 135.296C21.2921 137.462 23.1283 139.256 25.3257 140.501C27.5231 141.747 30.0067 142.402 32.5336 142.403H101.703C103.902 142.409 106.073 141.917 108.054 140.966C110.035 140.015 111.775 138.628 113.143 136.909C114.511 135.191 115.471 133.185 115.952 131.043C116.433 128.901 116.421 126.679 115.919 124.542C114.669 126.858 112.814 128.793 110.551 130.142C108.288 131.491 105.701 132.202 103.066 132.202Z" fill="#4EA62F"/>
<path d="M158.061 134.857C158.062 138.81 157.283 142.724 155.768 146.375C154.254 150.027 152.033 153.345 149.234 156.14C146.435 158.935 143.111 161.152 139.454 162.665C135.796 164.177 131.876 164.955 127.917 164.955C123.958 164.955 120.038 164.177 116.381 162.665C112.723 161.152 109.4 158.935 106.6 156.14C103.801 153.345 101.581 150.027 100.066 146.375C98.5518 142.723 97.7727 138.809 97.7734 134.857V122.989C97.7729 119.037 98.5522 115.123 100.067 111.471C101.582 107.819 103.802 104.501 106.601 101.706C109.4 98.9115 112.723 96.6945 116.381 95.1821C120.038 93.6696 123.958 92.8913 127.917 92.8916C131.876 92.8913 135.796 93.6696 139.453 95.182C143.111 96.6945 146.434 98.9115 149.233 101.706C152.033 104.501 154.253 107.819 155.768 111.471C157.282 115.123 158.062 119.037 158.061 122.989V134.857Z" fill="white" stroke="#151515" stroke-width="0.715094" stroke-linecap="round" stroke-linejoin="round"/>
<path d="M136.946 148.801C133.441 148.801 129.971 148.112 126.733 146.773C123.495 145.434 120.553 143.471 118.074 140.997C115.596 138.523 113.631 135.585 112.29 132.352C110.949 129.119 110.259 125.654 110.259 122.155V111.648C110.257 108.194 110.929 104.773 112.237 101.576C108.614 104.015 105.646 107.305 103.595 111.157C101.544 115.01 100.473 119.306 100.477 123.669V134.176C100.476 140.353 102.625 146.337 106.556 151.106C110.486 155.876 115.954 159.134 122.025 160.323C128.095 161.513 134.39 160.56 139.835 157.627C145.279 154.695 149.534 149.965 151.872 144.247C147.466 147.223 142.266 148.809 136.946 148.801Z" fill="#4EA62F"/>
<path d="M256.56 151.815C256.561 156.269 255.682 160.679 253.976 164.793C252.269 168.908 249.767 172.646 246.613 175.795C243.458 178.944 239.714 181.442 235.593 183.146C231.472 184.85 227.055 185.727 222.594 185.726H162.306C157.845 185.726 153.429 184.85 149.308 183.145C145.187 181.441 141.442 178.943 138.288 175.794C135.134 172.645 132.633 168.907 130.926 164.793C129.219 160.678 128.341 156.268 128.341 151.815V106.033C128.341 101.58 129.219 97.1704 130.926 93.0561C132.633 88.9418 135.135 85.2034 138.289 82.0544C141.443 78.9055 145.187 76.4077 149.308 74.7035C153.429 72.9994 157.845 72.1224 162.306 72.1226H222.594C227.055 72.1221 231.471 72.999 235.593 74.703C239.714 76.407 243.458 78.9048 246.612 82.0538C249.766 85.2028 252.268 88.9412 253.975 93.0557C255.682 97.1701 256.561 101.58 256.56 106.033V151.815Z" fill="white" stroke="#151515" stroke-width="0.715094" stroke-linecap="round" stroke-linejoin="round"/>
<path d="M234.015 165.691H177.979C173.833 165.691 169.728 164.876 165.898 163.292C162.067 161.708 158.587 159.387 155.656 156.46C152.724 153.533 150.399 150.058 148.812 146.234C147.226 142.41 146.409 138.311 146.41 134.172V91.6192C146.407 87.6625 147.154 83.741 148.61 80.061C143.418 82.6975 139.059 86.7169 136.015 91.6742C132.97 96.6316 131.359 102.333 131.359 108.149V150.701C131.359 154.84 132.175 158.939 133.762 162.763C135.348 166.587 137.674 170.062 140.605 172.989C143.537 175.916 147.017 178.237 150.847 179.821C154.677 181.405 158.782 182.22 162.928 182.22H218.964C225.3 182.22 231.49 180.316 236.728 176.756C241.966 173.197 246.01 168.145 248.334 162.26C243.9 164.52 238.993 165.696 234.015 165.691Z" fill="#4EA62F"/>
<path d="M261.812 49.6535C256.98 49.6166 252.181 50.4638 247.654 52.153C247.592 52.1517 247.53 52.1453 247.468 52.1453C244.703 52.1453 242.054 53.8604 239.606 56.9945C237.417 59.0414 235.971 61.4098 235.504 63.9588C229.131 77.7037 224.894 102.097 224.894 129.904C224.894 172.849 235 207.662 247.468 207.662C248.673 207.65 249.857 207.341 250.913 206.762C254.466 207.723 258.132 208.204 261.812 208.191C276.438 208.191 288.296 200.979 288.296 192.083V65.7632C288.296 56.8667 276.438 49.6535 261.812 49.6535Z" fill="white" stroke="#151515" stroke-width="0.715094" stroke-linecap="round" stroke-linejoin="round"/>
<path d="M209.294 149.858C209.294 150.383 209.085 150.887 208.713 151.258C208.341 151.63 207.837 151.838 207.311 151.839C206.786 151.837 206.283 151.627 205.913 151.256C205.543 150.885 205.335 150.382 205.335 149.858V100.687C205.336 100.164 205.545 99.6625 205.915 99.2927C206.285 98.923 206.787 98.7147 207.311 98.7134C207.836 98.7131 208.339 98.9206 208.711 99.2906C209.083 99.6605 209.292 100.162 209.294 100.687V149.858Z" fill="#4EA62F"/>
<path d="M194.996 149.858C194.996 150.383 194.787 150.887 194.415 151.258C194.044 151.63 193.539 151.838 193.013 151.839C192.489 151.837 191.986 151.627 191.615 151.256C191.245 150.885 191.037 150.382 191.037 149.858V100.687C191.038 100.164 191.247 99.6625 191.617 99.2927C191.988 98.9229 192.49 98.7146 193.013 98.7134C193.538 98.7131 194.042 98.9207 194.413 99.2906C194.785 99.6605 194.995 100.163 194.996 100.687V149.858Z" fill="#4EA62F"/>
<path d="M300.143 129.905C300.143 172.85 290.036 207.664 277.568 207.664C265.1 207.664 254.994 172.85 254.994 129.905C254.994 86.9598 265.101 52.1465 277.568 52.1465C290.036 52.1465 300.143 86.9598 300.143 129.905Z" fill="#151515" stroke="#151515" stroke-width="0.715094" stroke-miterlimit="10"/>
<path d="M272.309 142.228C272.309 143.025 271.992 143.789 271.428 144.353C270.863 144.917 270.097 145.233 269.299 145.233C268.904 145.233 268.512 145.156 268.147 145.005C267.782 144.853 267.45 144.632 267.171 144.353C266.891 144.074 266.669 143.743 266.518 143.378C266.367 143.013 266.289 142.623 266.289 142.228V115.932C266.289 115.537 266.367 115.146 266.518 114.781C266.669 114.417 266.891 114.086 267.171 113.806C267.45 113.527 267.782 113.306 268.147 113.155C268.512 113.004 268.904 112.926 269.299 112.926C270.097 112.926 270.863 113.243 271.428 113.807C271.992 114.37 272.309 115.135 272.309 115.932V142.228Z" fill="#151515"/>
<path d="M289.24 132.086C289.24 132.883 288.923 133.648 288.358 134.211C287.794 134.775 287.028 135.091 286.23 135.092C285.431 135.091 284.666 134.775 284.102 134.211C283.537 133.648 283.22 132.883 283.22 132.086V105.789C283.22 104.992 283.537 104.228 284.101 103.665C284.666 103.101 285.431 102.784 286.23 102.784C287.028 102.784 287.794 103.101 288.358 103.664C288.923 104.228 289.24 104.992 289.24 105.789V132.086Z" fill="#151515"/>
<path d="M226.311 426.701L223.959 440.319L210.978 442.385L213.895 429.049" fill="white"/>
<path d="M226.311 426.701L223.959 440.319L210.978 442.385L213.895 429.049" stroke="#151515" stroke-width="0.715094" stroke-linecap="round" stroke-linejoin="round"/>
<path d="M167.061 236.332C167.061 236.332 147.488 239.263 149.054 258.219C149.585 264.646 160.602 320.168 160.602 320.168L211.983 315.284C211.983 315.284 198.182 244.539 189.375 238.677C180.567 232.814 167.061 236.332 167.061 236.332Z" fill="#151515"/>
<path d="M160.602 320.169C160.602 320.169 163.082 335.855 168.627 350.654C176.981 372.952 184.139 384.032 182.132 400.561C179.126 425.322 169.684 439.287 169.684 439.287L191.413 442.761C191.413 442.761 204.959 397.306 202.952 390.794C199.43 360.308 196.179 313.157 196.179 313.157L160.602 320.169Z" fill="#151515"/>
<path d="M208.458 307.563C208.458 307.563 234.387 345.335 235.561 372.01C236.519 393.752 227.91 432.899 227.91 432.899L209.76 432.327C209.76 432.327 216.247 382.528 212.233 370.508C200.49 349.402 182.885 323.675 182.885 323.675L208.458 307.563Z" fill="#151515"/>
<path d="M161.777 244.392C161.777 244.392 174.988 240.435 179.98 253.919C184.97 267.404 180.557 276.885 172.535 278.332C155.795 281.349 143.867 246.445 161.777 244.392Z" fill="#4EA62F"/>
<path d="M193.925 256.274C194.373 257.674 188.493 261.248 188.493 261.248C187.582 258.883 186.48 256.596 185.197 254.409C184.15 252.693 182.956 251.071 181.63 249.56C179.391 247.471 176.455 244.54 173.166 243.088C171.972 242.535 170.729 242.093 169.454 241.768C166.824 241.096 166.656 238.439 169.336 237.981C170.661 237.58 172.043 237.397 173.427 237.438C174.827 237.479 176.216 237.688 177.566 238.061C178.981 238.348 180.358 238.796 181.67 239.397C182.958 240.002 184.189 240.719 185.35 241.54C186.609 242.312 191.413 248.448 193.925 256.274Z" fill="#4EA62F"/>
<path d="M167.543 212.772L165.543 225.683L156.482 217.378L153.265 210.965L156.884 207.551C156.884 207.551 170.559 196.508 172.772 193.998C174.984 191.489 182.221 205.528 175.987 211.35" fill="#151515"/>
<path d="M164.026 223.432L165.152 239.261C165.152 239.261 170.804 242.119 174.034 241.68C175.943 241.427 177.683 240.454 178.896 238.96L173.666 223.53L164.026 223.432Z" fill="white" stroke="#151515" stroke-width="0.715094" stroke-linecap="round" stroke-linejoin="round"/>
<path d="M174.763 208.345L165.074 212.165C165.074 212.165 166.084 216.568 165.874 217.079C165.872 217.08 163.105 218.749 163.104 218.75C161.758 219.682 161.628 221.817 162.813 223.523C163.997 225.229 166.046 225.856 167.391 224.924C167.697 224.708 167.948 224.424 168.125 224.094C170.913 226.912 172.919 228.2 176.604 228.2C183.592 228.2 174.763 208.345 174.763 208.345Z" fill="white" stroke="#151515" stroke-width="0.476729" stroke-linecap="round" stroke-linejoin="round"/>
<path d="M200.53 191.816H194.952C195.601 204.361 189.022 215.956 181.479 225.112L191.371 233.32C200.886 213.232 200.53 191.816 200.53 191.816Z" fill="white" stroke="#151515" stroke-width="0.715094" stroke-linecap="round" stroke-linejoin="round"/>
<path d="M159.962 244.86C158.64 246.42 157.494 248.121 156.544 249.932C154.729 253.342 154.729 258.042 157.666 259.801C167.06 266.251 175.869 255.717 181.55 248.868C182.725 247.443 183.82 246.006 184.851 244.487C185.881 242.971 186.846 241.488 187.75 239.909C188.415 238.817 189.043 237.876 189.638 236.764C190.252 235.624 190.825 234.473 191.371 233.319L181.48 225.111C181.342 225.277 162.95 241.607 159.962 244.86Z" fill="#4EA62F" stroke="#151515" stroke-width="0.715094" stroke-linecap="round" stroke-linejoin="round"/>
<path d="M183.097 218.817L177.682 225.313L192.311 237.469L197.726 230.972L183.097 218.817Z" fill="#4EA62F" stroke="#151515" stroke-width="0.715094" stroke-linecap="round" stroke-linejoin="round"/>
<path d="M206.55 301.792C206.55 301.792 175.184 310.446 158.326 308.369L159.557 323.425C159.557 323.425 192.131 315.428 207.381 307.466C207.651 307.325 207.395 306.611 207.395 306.611L206.55 301.792Z" fill="white" stroke="#151515" stroke-width="0.715094" stroke-linecap="round" stroke-linejoin="round"/>
<path d="M221.09 450.123L219.915 448.659L208.329 447.879L207.34 451.052C207.34 451.052 240.956 454.863 241.544 452.371C241.731 451.575 241.918 451.109 241.856 450.707L221.09 450.123Z" fill="#4EA62F" stroke="#151515" stroke-width="0.715094" stroke-linecap="round" stroke-linejoin="round"/>
<path d="M221.09 450.122L241.856 450.706C241.726 449.853 243.183 448.933 238.387 446.141C235.786 444.626 230.294 444.54 228.332 443.063C226.28 441.496 224.552 439.547 223.243 437.323C223.243 437.323 218.79 442.746 216.294 441.72C213.799 440.693 210.863 439.765 210.863 439.765L208.329 447.878L219.915 448.658L221.09 450.122Z" fill="#4EA62F" stroke="#151515" stroke-width="0.715094" stroke-linecap="round" stroke-linejoin="round"/>
<path d="M180.478 458.776L179.361 457.266L167.815 456.039L166.702 459.17C166.702 459.17 200.145 464.282 200.829 461.814C201.048 461.025 201.252 460.567 201.206 460.164L180.478 458.776Z" fill="#4EA62F" stroke="#151515" stroke-width="0.715094" stroke-linecap="round" stroke-linejoin="round"/>
<path d="M180.478 458.775L201.206 460.164C201.109 459.305 202.601 458.443 197.918 455.466C195.377 453.852 189.891 453.553 187.989 452.001C186 450.356 184.348 448.341 183.127 446.067C183.127 446.067 178.467 451.314 176.013 450.192C173.559 449.07 170.662 448.029 170.662 448.029L167.814 456.038L179.361 457.265L180.478 458.775Z" fill="#4EA62F" stroke="#151515" stroke-width="0.715094" stroke-linecap="round" stroke-linejoin="round"/>
<path d="M201.376 194.341L194.541 194.037C194.258 193.853 194 193.633 193.772 193.384C193.424 192.993 194.208 191.646 194.208 191.646C194.208 191.646 191.784 187.622 191.299 184.229C190.814 180.836 188.224 177.443 189.842 177.443C191.461 177.443 191.461 180.352 192.27 180.028C192.674 179.867 192.88 177.211 192.495 174.605C192.111 172.001 191.137 169.447 192.27 169.689C194.535 170.173 195.543 178.518 195.543 178.518C195.543 178.518 195.782 175.843 195.847 173.041C195.919 170.033 195.86 166.885 197.286 166.944C198.517 166.994 198.42 169.757 198.677 172.52C198.864 174.338 199.156 176.144 199.55 177.929C199.55 177.929 200.406 168.856 201.376 169.824C202.347 170.793 201.406 178.853 201.986 178.865C202.565 178.878 203.434 173.243 204.243 173.728C205.053 174.212 203.92 183.905 203.92 183.905C203.92 183.905 204.077 189.612 201.812 192.196C201.812 192.196 202.74 193.964 201.376 194.341Z" fill="#151515"/>
<path d="M192.317 269.667C193.037 271.539 192.993 273.297 192.217 273.595C191.441 273.893 190.228 272.617 189.506 270.745C188.786 268.873 188.83 267.113 189.607 266.815C190.382 266.518 191.595 267.794 192.317 269.667Z" fill="white"/>
<path d="M198.713 265.784C199.433 267.655 199.389 269.414 198.613 269.712C197.838 270.01 196.624 268.734 195.903 266.863C195.183 264.99 195.227 263.231 196.004 262.933C196.778 262.636 197.991 263.911 198.713 265.784Z" fill="white"/>
<path d="M157.801 306.644H170.343C171.341 306.644 172.298 307.04 173.004 307.744C173.709 308.449 174.106 309.405 174.106 310.401V335.695C174.106 336.691 173.709 337.647 173.004 338.351C172.298 339.056 171.341 339.452 170.343 339.452H157.801C156.803 339.452 155.846 339.056 155.14 338.351C154.434 337.647 154.038 336.691 154.038 335.695V310.401C154.038 309.405 154.435 308.449 155.14 307.744C155.846 307.04 156.803 306.644 157.801 306.644Z" fill="#EFF9EB" stroke="#151515" stroke-width="0.715094" stroke-linecap="round" stroke-linejoin="round"/>
<path d="M685.454 361.161C685.369 360.028 685.283 358.961 685.207 357.951C685.129 356.942 685.119 355.994 685.072 355.119C685.03 354.245 684.986 353.439 684.991 352.711C684.975 351.754 684.964 350.951 684.964 350.276C686.633 348.639 698.596 335.961 688.761 317.946C688.761 317.946 670.59 331.078 684.636 350.268C684.534 350.931 684.42 351.732 684.311 352.675C684.127 354.132 683.99 355.908 683.855 357.953C683.81 358.973 683.766 360.061 683.721 361.207C683.652 362.358 683.828 363.558 683.879 364.816C683.95 365.795 684.005 366.818 684.08 367.861C683.407 366.977 682.519 365.815 681.625 364.644C681.177 364.057 680.727 363.465 680.302 362.919C680.139 362.72 679.983 362.526 679.829 362.337C682.548 337.377 664.447 333.855 664.447 333.855C664.892 360.173 675.565 362.455 678.86 362.53C679.099 362.827 679.356 363.138 679.629 363.47C680.049 364.018 680.499 364.603 680.939 365.184C681.833 366.352 682.723 367.52 683.391 368.398C683.489 368.5 683.529 368.631 683.638 368.705C683.741 368.787 683.841 368.86 683.932 368.934C684.032 369.006 684.1 369.058 684.182 369.121C684.314 370.349 684.454 371.606 684.589 372.903C684.672 373.62 684.733 374.346 684.837 375.079C684.95 375.807 685.068 376.547 685.182 377.293C685.422 378.788 685.664 380.315 685.908 381.866C686.213 383.428 686.502 384.961 686.856 386.548C687.025 387.299 687.204 388.057 687.377 388.814C687.277 388.613 687.166 388.418 687.045 388.23C686.832 387.875 686.615 387.517 686.395 387.156C685.965 386.438 685.531 385.714 685.123 385.039C684.679 384.384 684.264 383.774 683.909 383.248C683.832 383.12 683.746 382.997 683.653 382.88C683.545 382.778 683.438 382.688 683.344 382.594C683.252 382.513 683.178 382.46 683.095 382.391C682.564 378.512 679.286 363.2 660.389 359.736C660.389 359.736 659.18 382.067 682.906 383.27C682.921 383.31 682.937 383.346 682.95 383.389C683.024 383.517 683.107 383.639 683.199 383.755C683.55 384.27 683.953 384.869 684.392 385.51C684.789 386.176 685.222 386.884 685.648 387.602C685.86 387.956 686.075 388.31 686.288 388.661C686.496 388.999 686.685 389.349 686.853 389.709C687.201 390.409 687.519 391.059 687.798 391.613C687.851 391.752 687.92 391.885 688.003 392.009C688.058 392.077 688.111 392.138 688.165 392.205C688.855 395.11 689.555 398.037 690.071 400.988C690.396 402.608 690.586 404.244 690.809 405.864C690.914 406.677 690.952 407.497 691.027 408.304C691.086 409.117 691.176 409.927 691.172 410.735C691.175 410.92 691.178 411.096 691.181 411.282C691.126 411.172 691.072 411.061 691.009 410.949C690.748 410.438 690.46 409.942 690.145 409.461C689.85 408.94 689.457 408.46 689.101 407.939C688.71 407.452 688.312 406.949 687.873 406.482C687.448 406.075 687.05 405.633 686.59 405.264C686.702 405.226 686.808 405.203 686.92 405.167C686.92 405.167 680.748 386.727 660.749 390.167C660.749 390.167 665.451 411.258 685.586 405.561C685.697 405.653 685.806 405.739 685.915 405.829C686.379 406.219 686.819 406.635 687.233 407.077C687.65 407.521 688.029 408.003 688.408 408.467C688.748 408.964 689.123 409.424 689.407 409.926C689.719 410.409 689.998 410.889 690.239 411.357C690.498 411.819 690.697 412.273 690.895 412.688C691.005 412.893 691.048 413.115 691.162 413.294C691.179 413.32 691.192 413.347 691.208 413.373C691.213 414.101 691.21 414.824 691.158 415.545C691.122 416.336 691.095 417.122 691.06 417.904C690.993 418.686 690.899 419.462 690.821 420.227C690.745 420.997 690.663 421.755 690.585 422.51C690.466 423.263 690.346 424.005 690.226 424.739C689.98 426.209 689.777 427.651 689.442 429.031C689.131 430.416 688.836 431.765 688.549 433.074C688.464 433.379 688.384 433.679 688.299 433.98C688.229 433.687 688.149 433.392 688.052 433.101C687.673 431.921 687.127 430.802 686.432 429.776C686.357 429.682 686.323 429.553 686.228 429.482C686.133 429.404 686.041 429.338 685.957 429.274C685.841 429.189 685.747 429.131 685.649 429.065C685.47 427.02 683.589 412.034 666.991 410.33C666.991 410.33 665.927 429.969 685.286 429.308C685.328 429.423 685.368 429.538 685.416 429.677C685.451 429.772 685.485 429.877 685.521 429.984C685.559 430.087 685.658 430.159 685.712 430.264C686.36 431.221 686.87 432.266 687.224 433.367C687.417 433.949 687.555 434.548 687.637 435.156C687.682 435.434 687.711 435.713 687.723 435.994C687.724 436.036 687.725 436.071 687.723 436.111C687.66 436.346 687.599 436.581 687.537 436.812C687.371 437.407 687.21 437.997 687.05 438.572C686.882 439.137 686.69 439.686 686.561 440.24C686.288 441.342 686.028 442.385 685.782 443.368C685.319 445.345 684.81 447.036 684.401 448.436C683.594 451.241 683.162 452.86 683.162 452.86C683.162 452.86 683.849 451.341 685.014 448.657C685.594 447.309 686.316 445.683 687.026 443.768C687.283 443.114 687.55 442.42 687.83 441.706C687.892 441.675 687.945 441.65 688.016 441.616C688.112 441.569 688.218 441.516 688.329 441.461C688.441 441.413 688.505 441.293 688.613 441.215C688.809 441.02 689.021 440.842 689.248 440.683C689.49 440.518 689.752 440.342 690.019 440.162C690.291 439.981 690.556 439.779 690.848 439.603C691.149 439.457 691.458 439.298 691.765 439.14C692.062 438.971 692.373 438.827 692.695 438.71C693.012 438.586 693.328 438.47 693.62 438.361C693.912 438.252 694.211 438.164 694.515 438.096C694.803 438.028 695.067 437.933 695.319 437.897C695.443 437.887 695.566 437.866 695.686 437.834C695.742 437.804 695.791 437.782 695.849 437.755C699.268 438.662 715.096 441.797 725.602 425.313C725.602 425.313 705.537 415.906 695.449 436.987C695.355 437.003 695.257 437.035 695.152 437.043C694.882 437.085 694.601 437.18 694.295 437.251C693.974 437.325 693.658 437.419 693.349 437.532C693.03 437.65 692.698 437.775 692.361 437.905C692.023 438.033 691.694 438.184 691.378 438.358C691.052 438.522 690.731 438.69 690.411 438.855C690.1 439.035 689.819 439.246 689.533 439.434C689.253 439.625 688.979 439.812 688.72 439.99C688.597 440.067 688.483 440.156 688.378 440.256C688.704 439.319 688.92 438.304 689.218 437.276C689.546 436.062 689.889 434.8 690.247 433.49C690.534 432.161 690.839 430.792 691.149 429.386C691.491 427.982 691.7 426.51 691.95 425.011C692.068 424.265 692.19 423.506 692.314 422.743C692.358 422.348 692.4 421.944 692.441 421.544C692.487 421.527 692.527 421.508 692.576 421.493C692.659 421.456 692.69 421.362 692.764 421.309C693.275 420.801 693.956 420.123 694.63 419.446C695.311 418.768 695.988 418.088 696.496 417.576C696.537 417.527 696.588 417.494 696.627 417.453C700.978 416.822 715.653 413.353 719.164 394.997C719.164 394.997 696.725 393.62 695.419 417.424C694.992 417.852 694.505 418.344 694.017 418.827C693.51 419.331 693.007 419.834 692.57 420.268C692.648 419.529 692.737 418.786 692.799 418.028C692.833 417.226 692.866 416.417 692.901 415.607C693.017 413.98 692.941 412.334 692.915 410.667C692.917 409.839 692.822 409.009 692.766 408.173C692.688 407.342 692.651 406.498 692.543 405.664C692.372 404.426 692.204 403.18 692.002 401.942C692.025 401.806 692.04 401.669 692.049 401.531C692.141 400.753 692.177 399.844 692.349 398.868C692.506 397.894 692.65 396.853 692.86 395.818C693.234 393.748 693.699 391.689 694.055 390.145C694.107 389.963 694.149 389.779 694.181 389.593C694.187 389.493 694.193 389.396 694.197 389.3C696.372 388.22 712.294 379.565 705.295 360.091C705.295 360.091 683.241 373.659 693.575 388.86C693.568 388.879 693.56 388.897 693.551 388.915C693.481 389.065 693.412 389.223 693.335 389.393C693.266 389.562 693.264 389.758 693.206 389.949C692.843 391.501 692.378 393.568 692 395.66C691.787 396.701 691.642 397.759 691.486 398.746C691.476 398.817 691.472 398.886 691.461 398.957C690.923 396.233 690.277 393.557 689.655 390.918C689.269 389.326 688.917 387.747 688.565 386.197C688.217 384.646 687.92 383.052 687.622 381.552C687.381 380.023 687.143 378.512 686.911 377.037C686.793 376.3 686.68 375.569 686.562 374.848C686.463 374.125 686.403 373.408 686.322 372.701C686.186 371.432 686.056 370.204 685.926 369.001C685.971 368.654 686.039 368.309 686.129 367.971C686.225 367.528 686.345 367.09 686.487 366.66C686.619 366.223 686.774 365.794 686.953 365.375C687.106 364.956 687.317 364.564 687.492 364.173C687.844 363.474 688.239 362.799 688.676 362.15C688.761 362.001 688.883 361.89 688.951 361.746C689.017 361.6 689.084 361.458 689.139 361.331C689.141 361.322 689.147 361.316 689.149 361.304C692.614 360.231 703.728 355.654 700.776 341.893C700.776 341.893 684.849 345.629 688.115 361.41C688.068 361.498 688.013 361.581 687.952 361.66C687.494 362.34 687.08 363.048 686.711 363.781C686.526 364.194 686.309 364.602 686.145 365.045C685.983 365.432 685.843 365.828 685.716 366.232C685.686 365.719 685.659 365.213 685.625 364.718C685.527 363.477 685.523 362.29 685.454 361.161Z" fill="#151515"/>
<path d="M59.571 279.491C59.571 280.028 59.4116 280.553 59.1127 281C58.8139 281.446 58.3892 281.794 57.8922 282C57.3953 282.205 56.8485 282.259 56.3209 282.154C55.7933 282.049 55.3087 281.791 54.9284 281.411C54.548 281.031 54.289 280.548 54.1841 280.021C54.0792 279.494 54.133 278.948 54.3389 278.452C54.5448 277.956 54.8934 277.532 55.3406 277.233C55.7879 276.935 56.3137 276.776 56.8516 276.776C57.5728 276.776 58.2645 277.062 58.7744 277.571C59.2844 278.08 59.5709 278.771 59.571 279.491Z" fill="#4EA62F"/>
<path d="M75.0417 279.491C75.0417 280.028 74.8823 280.553 74.5834 281C74.2846 281.446 73.8599 281.794 73.3629 282C72.866 282.205 72.3192 282.259 71.7916 282.154C71.264 282.049 70.7795 281.791 70.3991 281.411C70.0187 281.031 69.7597 280.548 69.6548 280.021C69.5499 279.494 69.6037 278.948 69.8096 278.452C70.0155 277.956 70.3641 277.532 70.8113 277.233C71.2586 276.935 71.7844 276.776 72.3223 276.776C73.0435 276.776 73.7352 277.062 74.2452 277.571C74.7551 278.08 75.0416 278.771 75.0417 279.491Z" fill="#4EA62F"/>
<path d="M90.5134 279.491C90.5134 280.028 90.3539 280.553 90.055 281C89.7562 281.446 89.3313 281.794 88.8343 282C88.3373 282.205 87.7904 282.259 87.2628 282.154C86.7352 282.049 86.2506 281.791 85.8703 281.411C85.49 281.031 85.2311 280.547 85.1263 280.02C85.0215 279.493 85.0756 278.947 85.2817 278.451C85.4877 277.955 85.8365 277.531 86.284 277.233C86.7314 276.935 87.2574 276.776 87.7953 276.776C88.1524 276.776 88.5059 276.846 88.8357 276.983C89.1655 277.119 89.4652 277.319 89.7176 277.571C89.97 277.823 90.1702 278.123 90.3067 278.452C90.4432 278.782 90.5135 279.134 90.5134 279.491Z" fill="#4EA62F"/>
<path d="M105.986 279.491C105.986 280.028 105.826 280.553 105.528 280.999C105.229 281.446 104.804 281.794 104.307 282C103.81 282.205 103.263 282.259 102.736 282.154C102.208 282.049 101.724 281.791 101.343 281.411C100.963 281.031 100.704 280.547 100.599 280.021C100.494 279.494 100.548 278.948 100.754 278.452C100.96 277.956 101.308 277.532 101.756 277.233C102.203 276.935 102.729 276.776 103.266 276.776C103.624 276.776 103.977 276.846 104.307 276.982C104.637 277.119 104.937 277.319 105.19 277.571C105.442 277.823 105.642 278.122 105.779 278.452C105.916 278.781 105.986 279.134 105.986 279.491Z" fill="#4EA62F"/>
<path d="M121.459 279.491C121.459 280.028 121.3 280.553 121.001 280.999C120.702 281.446 120.278 281.794 119.781 282C119.284 282.205 118.737 282.259 118.209 282.154C117.682 282.049 117.197 281.791 116.817 281.411C116.437 281.031 116.178 280.547 116.073 280.021C115.968 279.494 116.022 278.948 116.228 278.452C116.433 277.956 116.782 277.532 117.229 277.233C117.677 276.935 118.202 276.776 118.74 276.776C119.461 276.776 120.153 277.062 120.663 277.571C121.173 278.08 121.459 278.771 121.459 279.491Z" fill="#4EA62F"/>
<path d="M136.931 279.491C136.931 280.028 136.772 280.553 136.473 281C136.174 281.446 135.749 281.794 135.252 282C134.755 282.205 134.208 282.259 133.681 282.154C133.153 282.049 132.669 281.79 132.288 281.411C131.908 281.031 131.649 280.547 131.544 280.02C131.439 279.493 131.494 278.947 131.7 278.451C131.906 277.955 132.255 277.531 132.702 277.233C133.149 276.935 133.675 276.776 134.213 276.776C134.934 276.776 135.626 277.062 136.135 277.572C136.645 278.081 136.931 278.771 136.931 279.491Z" fill="#4EA62F"/>
<path d="M59.571 296.386C59.5712 296.923 59.412 297.448 59.1133 297.895C58.8146 298.341 58.3899 298.69 57.893 298.895C57.3961 299.101 56.8492 299.155 56.3216 299.05C55.794 298.946 55.3092 298.687 54.9288 298.308C54.5483 297.928 54.2892 297.444 54.1842 296.917C54.0791 296.39 54.1329 295.844 54.3388 295.348C54.5446 294.852 54.8932 294.428 55.3405 294.13C55.7878 293.831 56.3136 293.672 56.8516 293.672C57.5725 293.672 58.2637 293.958 58.7735 294.467C59.2834 294.976 59.5702 295.666 59.571 296.386Z" fill="#4EA62F"/>
<path d="M75.0426 296.386C75.0429 296.923 74.8836 297.448 74.585 297.895C74.2863 298.341 73.8616 298.69 73.3647 298.895C72.8678 299.101 72.3209 299.155 71.7933 299.05C71.2656 298.946 70.7809 298.687 70.4005 298.308C70.02 297.928 69.7609 297.444 69.6558 296.917C69.5508 296.39 69.6046 295.844 69.8105 295.348C70.0163 294.852 70.3649 294.428 70.8122 294.13C71.2595 293.831 71.7853 293.672 72.3233 293.672C73.0442 293.672 73.7354 293.958 74.2453 294.467C74.7551 294.976 75.0419 295.666 75.0426 296.386Z" fill="#4EA62F"/>
<path d="M90.5134 296.386C90.5136 296.923 90.3543 297.448 90.0556 297.895C89.7569 298.342 89.3321 298.69 88.8351 298.895C88.3381 299.101 87.7912 299.155 87.2635 299.05C86.7358 298.946 86.2511 298.687 85.8707 298.307C85.4903 297.927 85.2313 297.443 85.1264 296.916C85.0215 296.39 85.0755 295.844 85.2816 295.347C85.4876 294.851 85.8364 294.427 86.2839 294.129C86.7313 293.831 87.2574 293.672 87.7954 293.672C88.5161 293.672 89.2071 293.959 89.7167 294.467C90.2263 294.976 90.5129 295.666 90.5134 296.386Z" fill="#4EA62F"/>
<path d="M105.986 296.386C105.986 296.923 105.827 297.448 105.528 297.895C105.229 298.341 104.805 298.69 104.308 298.895C103.811 299.101 103.264 299.155 102.737 299.05C102.209 298.946 101.724 298.687 101.344 298.307C100.963 297.928 100.704 297.444 100.599 296.917C100.494 296.39 100.548 295.844 100.754 295.348C100.96 294.852 101.308 294.428 101.755 294.13C102.203 293.831 102.729 293.672 103.266 293.672C103.987 293.672 104.679 293.958 105.189 294.467C105.699 294.976 105.985 295.666 105.986 296.386Z" fill="#4EA62F"/>
<path d="M121.459 296.386C121.46 296.923 121.3 297.448 121.002 297.895C120.703 298.341 120.278 298.69 119.782 298.895C119.285 299.101 118.738 299.155 118.21 299.05C117.683 298.946 117.198 298.687 116.817 298.307C116.437 297.928 116.178 297.444 116.073 296.917C115.968 296.39 116.022 295.844 116.227 295.348C116.433 294.852 116.782 294.428 117.229 294.129C117.676 293.831 118.202 293.672 118.74 293.672C119.461 293.672 120.152 293.958 120.662 294.467C121.172 294.976 121.459 295.666 121.459 296.386Z" fill="#4EA62F"/>
<path d="M136.931 296.386C136.932 296.923 136.772 297.448 136.474 297.895C136.175 298.342 135.75 298.69 135.253 298.895C134.756 299.101 134.209 299.155 133.681 299.05C133.154 298.946 132.669 298.687 132.289 298.307C131.908 297.927 131.649 297.443 131.544 296.916C131.439 296.39 131.493 295.843 131.7 295.347C131.906 294.851 132.254 294.427 132.702 294.129C133.149 293.831 133.675 293.672 134.213 293.672C134.934 293.673 135.625 293.959 136.134 294.468C136.644 294.976 136.931 295.666 136.931 296.386Z" fill="#4EA62F"/>
<path d="M59.571 313.284C59.5708 313.821 59.4111 314.346 59.1122 314.792C58.8132 315.238 58.3884 315.586 57.8914 315.792C57.3945 315.997 56.8477 316.051 56.3202 315.946C55.7927 315.841 55.3082 315.582 54.928 315.202C54.5477 314.822 54.2888 314.339 54.184 313.812C54.0792 313.285 54.1331 312.739 54.339 312.243C54.5449 311.747 54.8935 311.323 55.3407 311.025C55.788 310.727 56.3137 310.567 56.8516 310.567C57.2088 310.567 57.5625 310.638 57.8925 310.774C58.2225 310.911 58.5224 311.111 58.7749 311.363C59.0274 311.615 59.2277 311.915 59.3643 312.244C59.5009 312.574 59.5711 312.927 59.571 313.284Z" fill="#4EA62F"/>
<path d="M75.0426 313.284C75.0425 313.821 74.8828 314.346 74.5838 314.792C74.2849 315.238 73.8601 315.586 73.3631 315.792C72.8661 315.997 72.3194 316.051 71.7919 315.946C71.2644 315.841 70.7799 315.582 70.3997 315.202C70.0194 314.822 69.7605 314.339 69.6557 313.812C69.5508 313.285 69.6048 312.739 69.8107 312.243C70.0166 311.747 70.3652 311.323 70.8124 311.025C71.2597 310.727 71.7854 310.567 72.3233 310.567C72.6805 310.567 73.0342 310.638 73.3642 310.774C73.6942 310.911 73.9941 311.111 74.2466 311.363C74.4992 311.615 74.6994 311.915 74.836 312.244C74.9726 312.574 75.0428 312.927 75.0426 313.284Z" fill="#4EA62F"/>
<path d="M90.5134 313.284C90.5132 313.821 90.3535 314.346 90.0545 314.792C89.7554 315.238 89.3306 315.586 88.8335 315.792C88.3365 315.997 87.7896 316.051 87.2621 315.946C86.7346 315.841 86.2501 315.582 85.8699 315.202C85.4897 314.822 85.2309 314.338 85.1262 313.811C85.0215 313.284 85.0757 312.738 85.2818 312.242C85.4879 311.746 85.8367 311.322 86.2841 311.024C86.7315 310.726 87.2575 310.567 87.7954 310.567C88.1525 310.567 88.5061 310.638 88.836 310.774C89.1659 310.911 89.4657 311.111 89.7181 311.363C89.9705 311.615 90.1706 311.915 90.3071 312.244C90.4436 312.574 90.5137 312.927 90.5134 313.284Z" fill="#4EA62F"/>
<path d="M105.986 313.284C105.986 313.821 105.826 314.345 105.527 314.792C105.228 315.238 104.803 315.586 104.306 315.791C103.809 315.997 103.263 316.05 102.735 315.945C102.208 315.841 101.723 315.582 101.343 315.202C100.963 314.822 100.704 314.339 100.599 313.812C100.494 313.285 100.548 312.739 100.754 312.243C100.96 311.747 101.308 311.323 101.756 311.025C102.203 310.727 102.729 310.567 103.266 310.567C103.624 310.567 103.977 310.637 104.308 310.774C104.638 310.91 104.937 311.11 105.19 311.363C105.443 311.615 105.643 311.914 105.779 312.244C105.916 312.574 105.986 312.927 105.986 313.284Z" fill="#4EA62F"/>
<path d="M121.459 313.284C121.459 313.821 121.3 314.345 121.001 314.792C120.702 315.238 120.277 315.586 119.78 315.791C119.283 315.997 118.736 316.05 118.209 315.945C117.681 315.84 117.197 315.582 116.817 315.202C116.436 314.822 116.177 314.338 116.073 313.812C115.968 313.285 116.022 312.739 116.228 312.243C116.434 311.747 116.782 311.323 117.229 311.025C117.677 310.727 118.202 310.567 118.74 310.567C119.097 310.567 119.451 310.638 119.781 310.774C120.111 310.911 120.411 311.111 120.663 311.363C120.916 311.615 121.116 311.915 121.253 312.244C121.389 312.574 121.46 312.927 121.459 313.284Z" fill="#4EA62F"/>
<path d="M136.931 313.284C136.931 313.821 136.771 314.346 136.472 314.792C136.173 315.238 135.748 315.586 135.251 315.792C134.754 315.997 134.208 316.05 133.68 315.945C133.152 315.84 132.668 315.582 132.288 315.202C131.908 314.822 131.649 314.338 131.544 313.811C131.439 313.284 131.494 312.738 131.7 312.242C131.906 311.746 132.255 311.322 132.702 311.024C133.149 310.726 133.675 310.567 134.213 310.567C134.57 310.568 134.924 310.638 135.254 310.774C135.584 310.911 135.883 311.111 136.136 311.363C136.388 311.616 136.588 311.915 136.725 312.245C136.861 312.574 136.931 312.927 136.931 313.284Z" fill="#4EA62F"/>
<path d="M59.571 330.18C59.5711 330.717 59.4117 331.242 59.1129 331.688C58.8141 332.135 58.3894 332.483 57.8925 332.689C57.3956 332.894 56.8487 332.948 56.3211 332.843C55.7935 332.739 55.3089 332.48 54.9285 332.1C54.5481 331.721 54.2891 331.237 54.1841 330.71C54.0791 330.183 54.133 329.637 54.3389 329.141C54.5447 328.645 54.8933 328.221 55.3406 327.922C55.7879 327.624 56.3137 327.465 56.8516 327.465C57.2087 327.465 57.5623 327.535 57.8923 327.671C58.2222 327.808 58.522 328.008 58.7746 328.26C59.0271 328.512 59.2274 328.811 59.364 329.141C59.5007 329.47 59.571 329.823 59.571 330.18Z" fill="#4EA62F"/>
<path d="M75.0417 330.18C75.0418 330.717 74.8824 331.242 74.5836 331.688C74.2848 332.135 73.8601 332.483 73.3632 332.689C72.8663 332.894 72.3194 332.948 71.7918 332.843C71.2642 332.739 70.7796 332.48 70.3992 332.1C70.0188 331.721 69.7598 331.237 69.6548 330.71C69.5499 330.183 69.6037 329.637 69.8096 329.141C70.0154 328.645 70.364 328.221 70.8113 327.922C71.2586 327.624 71.7844 327.465 72.3223 327.465C72.6794 327.465 73.0331 327.535 73.363 327.671C73.693 327.808 73.9928 328.008 74.2453 328.26C74.4978 328.512 74.6982 328.811 74.8348 329.141C74.9714 329.47 75.0417 329.823 75.0417 330.18Z" fill="#4EA62F"/>
<path d="M90.5134 330.18C90.5135 330.717 90.354 331.242 90.0552 331.688C89.7564 332.135 89.3316 332.483 88.8346 332.689C88.3375 332.894 87.7906 332.948 87.263 332.843C86.7354 332.738 86.2507 332.48 85.8704 332.1C85.4901 331.72 85.2311 331.236 85.1263 330.709C85.0215 330.182 85.0756 329.636 85.2816 329.14C85.4877 328.644 85.8365 328.22 86.2839 327.922C86.7314 327.624 87.2574 327.465 87.7954 327.465C88.1524 327.465 88.5059 327.535 88.8358 327.671C89.1656 327.808 89.4653 328.008 89.7177 328.26C89.9701 328.512 90.1703 328.811 90.3068 329.141C90.4433 329.47 90.5135 329.823 90.5134 330.18Z" fill="#4EA62F"/>
<path d="M105.986 330.18C105.986 330.717 105.827 331.242 105.528 331.688C105.229 332.135 104.804 332.483 104.307 332.688C103.81 332.894 103.264 332.948 102.736 332.843C102.208 332.738 101.724 332.48 101.344 332.1C100.963 331.72 100.704 331.237 100.599 330.71C100.494 330.183 100.548 329.637 100.754 329.141C100.96 328.645 101.308 328.221 101.756 327.922C102.203 327.624 102.729 327.465 103.266 327.465C103.624 327.465 103.977 327.535 104.307 327.671C104.637 327.807 104.937 328.007 105.19 328.259C105.442 328.512 105.643 328.811 105.779 329.14C105.916 329.47 105.986 329.823 105.986 330.18Z" fill="#4EA62F"/>
<path d="M121.459 330.18C121.46 330.717 121.3 331.242 121.001 331.688C120.703 332.135 120.278 332.483 119.781 332.688C119.284 332.894 118.737 332.948 118.21 332.843C117.682 332.738 117.197 332.48 116.817 332.1C116.437 331.72 116.178 331.236 116.073 330.71C115.968 330.183 116.022 329.637 116.228 329.141C116.433 328.645 116.782 328.221 117.229 327.922C117.677 327.624 118.202 327.465 118.74 327.465C119.097 327.465 119.451 327.535 119.781 327.671C120.111 327.808 120.411 328.008 120.663 328.26C120.916 328.512 121.116 328.811 121.253 329.141C121.389 329.47 121.46 329.823 121.459 330.18Z" fill="#4EA62F"/>
<path d="M136.931 330.18C136.931 330.717 136.772 331.242 136.473 331.688C136.174 332.135 135.749 332.483 135.252 332.689C134.755 332.894 134.209 332.948 133.681 332.843C133.153 332.738 132.669 332.48 132.288 332.1C131.908 331.72 131.649 331.236 131.544 330.709C131.439 330.182 131.494 329.636 131.7 329.14C131.906 328.644 132.254 328.22 132.702 327.922C133.149 327.624 133.675 327.465 134.213 327.465C134.934 327.465 135.626 327.751 136.135 328.26C136.645 328.769 136.931 329.46 136.931 330.18Z" fill="#4EA62F"/>
<path d="M460.294 135.392C460.294 135.787 460.177 136.174 459.957 136.502C459.737 136.831 459.424 137.087 459.059 137.239C458.693 137.39 458.29 137.43 457.902 137.352C457.514 137.275 457.157 137.085 456.877 136.805C456.597 136.526 456.407 136.17 456.329 135.782C456.252 135.394 456.292 134.993 456.443 134.627C456.595 134.262 456.852 133.95 457.181 133.731C457.51 133.511 457.897 133.394 458.293 133.394C458.824 133.394 459.333 133.605 459.708 133.979C460.083 134.354 460.294 134.862 460.294 135.392Z" fill="#151515"/>
<path d="M471.679 135.392C471.679 135.787 471.561 136.174 471.341 136.502C471.121 136.831 470.809 137.087 470.443 137.238C470.077 137.39 469.675 137.429 469.287 137.352C468.899 137.275 468.542 137.085 468.262 136.805C467.982 136.526 467.791 136.17 467.714 135.782C467.637 135.394 467.677 134.993 467.828 134.627C467.98 134.262 468.236 133.95 468.565 133.731C468.894 133.511 469.281 133.394 469.677 133.394C470.208 133.394 470.717 133.605 471.092 133.979C471.467 134.354 471.678 134.862 471.679 135.392Z" fill="#151515"/>
<path d="M483.066 135.392C483.066 135.787 482.949 136.174 482.729 136.503C482.509 136.831 482.196 137.088 481.83 137.239C481.465 137.39 481.062 137.43 480.674 137.353C480.285 137.276 479.928 137.085 479.648 136.806C479.369 136.526 479.178 136.17 479.101 135.782C479.024 135.394 479.064 134.992 479.215 134.627C479.367 134.262 479.624 133.95 479.953 133.73C480.282 133.511 480.67 133.394 481.066 133.394C481.596 133.394 482.105 133.605 482.48 133.979C482.855 134.354 483.066 134.862 483.066 135.392Z" fill="#151515"/>
<path d="M494.454 135.392C494.454 135.787 494.337 136.174 494.117 136.502C493.897 136.831 493.585 137.087 493.219 137.239C492.853 137.39 492.451 137.43 492.062 137.352C491.674 137.275 491.317 137.085 491.037 136.805C490.757 136.526 490.567 136.17 490.49 135.782C490.412 135.394 490.452 134.992 490.604 134.627C490.755 134.262 491.012 133.95 491.341 133.73C491.671 133.511 492.058 133.394 492.453 133.394C492.716 133.394 492.976 133.446 493.219 133.546C493.462 133.647 493.683 133.794 493.868 133.979C494.054 134.165 494.201 134.385 494.302 134.627C494.403 134.87 494.454 135.13 494.454 135.392Z" fill="#151515"/>
<path d="M505.841 135.392C505.841 135.787 505.724 136.174 505.504 136.502C505.284 136.831 504.971 137.087 504.606 137.239C504.24 137.39 503.838 137.43 503.449 137.352C503.061 137.275 502.704 137.085 502.424 136.806C502.144 136.526 501.954 136.17 501.876 135.783C501.799 135.395 501.839 134.993 501.99 134.628C502.142 134.263 502.398 133.951 502.727 133.731C503.056 133.511 503.443 133.394 503.839 133.394C504.37 133.394 504.879 133.605 505.254 133.979C505.63 134.354 505.841 134.862 505.841 135.392Z" fill="#151515"/>
<path d="M517.226 135.392C517.227 135.787 517.109 136.174 516.889 136.503C516.669 136.832 516.357 137.088 515.991 137.239C515.625 137.391 515.222 137.43 514.834 137.353C514.446 137.276 514.089 137.086 513.809 136.806C513.529 136.526 513.338 136.17 513.261 135.782C513.184 135.394 513.224 134.993 513.375 134.627C513.527 134.262 513.784 133.95 514.113 133.73C514.443 133.511 514.83 133.394 515.226 133.394C515.756 133.394 516.265 133.605 516.64 133.98C517.015 134.354 517.226 134.862 517.226 135.392Z" fill="#151515"/>
<path d="M460.294 147.825C460.294 148.221 460.177 148.607 459.957 148.936C459.737 149.265 459.425 149.521 459.059 149.672C458.693 149.824 458.291 149.864 457.903 149.787C457.514 149.71 457.158 149.519 456.878 149.24C456.597 148.96 456.407 148.604 456.33 148.217C456.252 147.829 456.292 147.427 456.443 147.062C456.595 146.697 456.851 146.384 457.181 146.165C457.51 145.945 457.897 145.828 458.293 145.828C458.824 145.828 459.332 146.039 459.707 146.413C460.083 146.788 460.294 147.296 460.294 147.825Z" fill="#151515"/>
<path d="M471.679 147.825C471.679 148.221 471.562 148.607 471.342 148.936C471.122 149.265 470.809 149.521 470.444 149.672C470.078 149.824 469.675 149.863 469.287 149.786C468.899 149.709 468.542 149.519 468.262 149.24C467.982 148.96 467.792 148.604 467.714 148.216C467.637 147.829 467.677 147.427 467.828 147.062C467.98 146.697 468.236 146.384 468.565 146.165C468.894 145.945 469.281 145.828 469.677 145.828C470.208 145.828 470.717 146.039 471.092 146.413C471.467 146.788 471.678 147.296 471.679 147.825Z" fill="#151515"/>
<path d="M483.066 147.825C483.066 148.221 482.949 148.607 482.729 148.936C482.509 149.265 482.197 149.521 481.831 149.673C481.465 149.824 481.062 149.864 480.674 149.787C480.286 149.71 479.929 149.52 479.649 149.24C479.369 148.96 479.178 148.604 479.101 148.216C479.024 147.828 479.063 147.427 479.215 147.061C479.367 146.696 479.624 146.384 479.953 146.164C480.282 145.945 480.67 145.828 481.066 145.828C481.596 145.828 482.105 146.039 482.48 146.413C482.855 146.788 483.066 147.296 483.066 147.825Z" fill="#151515"/>
<path d="M494.454 147.825C494.455 148.221 494.337 148.607 494.117 148.936C493.898 149.265 493.585 149.521 493.219 149.673C492.854 149.824 492.451 149.864 492.063 149.787C491.674 149.71 491.318 149.519 491.038 149.24C490.758 148.96 490.567 148.604 490.49 148.216C490.412 147.829 490.452 147.427 490.604 147.062C490.755 146.696 491.012 146.384 491.341 146.165C491.67 145.945 492.058 145.828 492.453 145.828C492.984 145.828 493.493 146.039 493.868 146.413C494.243 146.788 494.454 147.296 494.454 147.825Z" fill="#151515"/>
<path d="M505.841 147.825C505.841 148.221 505.724 148.607 505.504 148.936C505.285 149.265 504.972 149.521 504.606 149.672C504.241 149.824 503.838 149.864 503.45 149.787C503.062 149.71 502.705 149.52 502.425 149.24C502.145 148.961 501.954 148.605 501.876 148.217C501.799 147.829 501.839 147.428 501.99 147.062C502.141 146.697 502.398 146.385 502.727 146.165C503.056 145.946 503.443 145.828 503.839 145.828C504.37 145.828 504.879 146.039 505.254 146.413C505.629 146.788 505.84 147.296 505.841 147.825Z" fill="#151515"/>
<path d="M517.226 147.825C517.227 148.221 517.11 148.607 516.89 148.936C516.67 149.265 516.357 149.522 515.991 149.673C515.626 149.825 515.223 149.864 514.835 149.787C514.446 149.71 514.089 149.52 513.809 149.24C513.529 148.961 513.338 148.605 513.261 148.217C513.184 147.829 513.224 147.427 513.375 147.062C513.527 146.696 513.784 146.384 514.113 146.165C514.442 145.945 514.83 145.828 515.226 145.828C515.756 145.829 516.265 146.039 516.64 146.414C517.015 146.788 517.226 147.296 517.226 147.825Z" fill="#151515"/>
<path d="M460.292 160.26C460.292 160.655 460.175 161.042 459.955 161.37C459.735 161.699 459.422 161.955 459.056 162.106C458.691 162.258 458.288 162.297 457.9 162.22C457.512 162.143 457.155 161.952 456.875 161.673C456.595 161.393 456.405 161.037 456.327 160.65C456.25 160.262 456.29 159.86 456.442 159.495C456.593 159.13 456.85 158.818 457.179 158.598C457.508 158.379 457.895 158.262 458.291 158.262C458.822 158.262 459.331 158.472 459.706 158.847C460.081 159.222 460.292 159.73 460.292 160.26Z" fill="#151515"/>
<path d="M471.679 160.26C471.678 160.655 471.561 161.042 471.341 161.37C471.121 161.699 470.808 161.955 470.443 162.106C470.077 162.257 469.675 162.297 469.286 162.22C468.898 162.143 468.542 161.952 468.262 161.673C467.982 161.393 467.791 161.037 467.714 160.65C467.637 160.262 467.677 159.86 467.828 159.495C467.98 159.13 468.236 158.818 468.565 158.598C468.895 158.379 469.281 158.262 469.677 158.262C470.208 158.262 470.717 158.472 471.092 158.847C471.468 159.222 471.679 159.73 471.679 160.26Z" fill="#151515"/>
<path d="M483.066 160.26C483.066 160.656 482.949 161.042 482.729 161.371C482.509 161.699 482.196 161.956 481.83 162.107C481.464 162.258 481.062 162.298 480.673 162.22C480.285 162.143 479.928 161.953 479.648 161.673C479.368 161.393 479.178 161.037 479.101 160.649C479.024 160.262 479.064 159.86 479.215 159.495C479.367 159.129 479.624 158.817 479.953 158.598C480.282 158.378 480.67 158.261 481.066 158.262C481.328 158.262 481.589 158.314 481.831 158.414C482.074 158.514 482.295 158.662 482.48 158.847C482.666 159.033 482.813 159.253 482.914 159.496C483.014 159.738 483.066 159.998 483.066 160.26Z" fill="#151515"/>
<path d="M494.454 160.26C494.454 160.656 494.337 161.042 494.117 161.371C493.897 161.699 493.584 161.955 493.218 162.106C492.853 162.258 492.45 162.297 492.062 162.22C491.674 162.143 491.317 161.952 491.037 161.673C490.757 161.393 490.567 161.037 490.49 160.649C490.412 160.262 490.452 159.86 490.604 159.495C490.755 159.13 491.012 158.818 491.341 158.598C491.671 158.379 492.058 158.262 492.453 158.262C492.716 158.262 492.977 158.313 493.219 158.414C493.462 158.514 493.683 158.662 493.869 158.847C494.054 159.033 494.202 159.253 494.302 159.495C494.403 159.738 494.454 159.998 494.454 160.26Z" fill="#151515"/>
<path d="M505.841 160.26C505.841 160.655 505.724 161.042 505.504 161.37C505.284 161.699 504.971 161.955 504.605 162.106C504.24 162.258 503.837 162.297 503.449 162.22C503.061 162.143 502.704 161.953 502.424 161.673C502.144 161.394 501.954 161.038 501.876 160.65C501.799 160.263 501.839 159.861 501.99 159.496C502.142 159.13 502.398 158.818 502.727 158.599C503.056 158.379 503.443 158.262 503.839 158.262C504.37 158.262 504.879 158.472 505.255 158.847C505.63 159.222 505.841 159.73 505.841 160.26Z" fill="#151515"/>
<path d="M517.226 160.26C517.227 160.656 517.109 161.042 516.889 161.371C516.669 161.7 516.356 161.956 515.991 162.107C515.625 162.258 515.222 162.298 514.834 162.221C514.445 162.144 514.089 161.953 513.809 161.673C513.529 161.394 513.338 161.038 513.261 160.65C513.184 160.262 513.224 159.86 513.375 159.495C513.527 159.13 513.784 158.817 514.113 158.598C514.443 158.379 514.83 158.261 515.226 158.262C515.756 158.262 516.265 158.473 516.64 158.848C517.016 159.222 517.226 159.73 517.226 160.26Z" fill="#151515"/>
<path d="M460.292 172.694C460.292 173.09 460.175 173.476 459.955 173.805C459.735 174.133 459.422 174.39 459.057 174.541C458.691 174.692 458.288 174.732 457.9 174.655C457.512 174.578 457.155 174.387 456.875 174.108C456.595 173.828 456.405 173.472 456.327 173.084C456.25 172.697 456.29 172.295 456.442 171.93C456.593 171.565 456.85 171.252 457.179 171.033C457.508 170.813 457.895 170.696 458.291 170.696C458.554 170.696 458.814 170.748 459.057 170.848C459.3 170.949 459.52 171.096 459.706 171.281C459.892 171.467 460.04 171.687 460.14 171.93C460.241 172.172 460.292 172.432 460.292 172.694Z" fill="#151515"/>
<path d="M471.679 172.694C471.679 173.09 471.561 173.476 471.341 173.805C471.121 174.133 470.809 174.389 470.443 174.541C470.077 174.692 469.675 174.731 469.287 174.654C468.898 174.577 468.542 174.387 468.262 174.107C467.982 173.828 467.791 173.472 467.714 173.084C467.637 172.697 467.677 172.295 467.828 171.93C467.98 171.565 468.236 171.253 468.565 171.033C468.895 170.813 469.281 170.696 469.677 170.696C469.94 170.696 470.2 170.748 470.443 170.848C470.686 170.949 470.907 171.096 471.093 171.281C471.278 171.467 471.426 171.687 471.526 171.93C471.627 172.172 471.679 172.432 471.679 172.694Z" fill="#151515"/>
<path d="M483.066 172.694C483.066 173.09 482.949 173.476 482.729 173.805C482.509 174.134 482.196 174.39 481.83 174.541C481.464 174.693 481.062 174.732 480.673 174.655C480.285 174.578 479.928 174.387 479.648 174.108C479.369 173.828 479.178 173.472 479.101 173.084C479.024 172.696 479.064 172.294 479.215 171.929C479.367 171.564 479.624 171.252 479.953 171.032C480.282 170.813 480.67 170.696 481.066 170.696C481.328 170.696 481.589 170.748 481.831 170.848C482.074 170.949 482.295 171.096 482.481 171.281C482.666 171.467 482.814 171.687 482.914 171.93C483.015 172.172 483.066 172.432 483.066 172.694Z" fill="#151515"/>
<path d="M494.454 172.694C494.454 173.09 494.337 173.476 494.117 173.805C493.897 174.134 493.584 174.39 493.219 174.541C492.853 174.692 492.45 174.732 492.062 174.655C491.674 174.577 491.317 174.387 491.037 174.108C490.757 173.828 490.567 173.472 490.49 173.084C490.412 172.696 490.452 172.295 490.604 171.929C490.755 171.564 491.012 171.252 491.341 171.033C491.67 170.813 492.058 170.696 492.453 170.696C492.716 170.696 492.977 170.748 493.219 170.848C493.462 170.948 493.683 171.096 493.869 171.281C494.055 171.467 494.202 171.687 494.302 171.93C494.403 172.172 494.454 172.432 494.454 172.694Z" fill="#151515"/>
<path d="M505.841 172.694C505.841 173.09 505.724 173.476 505.504 173.805C505.284 174.133 504.971 174.39 504.606 174.541C504.24 174.692 503.837 174.732 503.449 174.655C503.061 174.578 502.704 174.387 502.424 174.108C502.144 173.829 501.954 173.472 501.876 173.085C501.799 172.697 501.839 172.295 501.99 171.93C502.142 171.565 502.398 171.253 502.727 171.033C503.056 170.814 503.443 170.696 503.839 170.696C504.102 170.696 504.362 170.748 504.605 170.848C504.848 170.948 505.069 171.096 505.255 171.281C505.441 171.467 505.588 171.687 505.689 171.93C505.789 172.172 505.841 172.432 505.841 172.694Z" fill="#151515"/>
<path d="M517.226 172.694C517.227 173.09 517.109 173.476 516.889 173.805C516.669 174.134 516.357 174.39 515.991 174.542C515.625 174.693 515.222 174.733 514.834 174.655C514.446 174.578 514.089 174.388 513.809 174.108C513.529 173.829 513.338 173.472 513.261 173.084C513.184 172.697 513.224 172.295 513.375 171.929C513.527 171.564 513.784 171.252 514.113 171.033C514.443 170.813 514.83 170.696 515.226 170.696C515.756 170.696 516.265 170.907 516.641 171.282C517.016 171.656 517.227 172.165 517.226 172.694Z" fill="#151515"/>
<path d="M288.957 441.078C288.957 441.078 273.73 364.795 287.596 369.953C301.464 375.111 303.367 434.02 297.113 442.436" fill="#151515"/>
<path d="M288.957 441.078C288.957 441.078 273.73 364.795 287.596 369.953C301.464 375.111 303.367 434.02 297.113 442.436" stroke="#151515" stroke-width="0.715094" stroke-miterlimit="10"/>
<path d="M287.48 443.887C287.48 443.887 284.769 412.738 269.849 414.362C254.927 415.99 276.631 441.448 280.428 443.887" fill="#4EA62F"/>
<path d="M287.48 443.887C287.48 443.887 284.769 412.738 269.849 414.362C254.927 415.99 276.631 441.448 280.428 443.887" stroke="#151515" stroke-width="0.715094" stroke-linecap="round" stroke-linejoin="round"/>
<path d="M270.118 401.633C270.118 401.633 266.05 413.821 276.901 411.655C287.754 409.487 284.599 409.08 284.599 409.08" fill="#4EA62F"/>
<path d="M270.118 401.633C270.118 401.633 266.05 413.821 276.901 411.655C287.754 409.487 284.599 409.08 284.599 409.08" stroke="#151515" stroke-width="0.715094" stroke-miterlimit="10"/>
<path d="M290.737 443.613C290.737 443.613 287.209 397.026 282.055 395.13C276.901 393.235 268.22 397.298 270.118 401.631C272.019 405.965 284.769 443.886 284.769 443.886" fill="#EFF9EB"/>
<path d="M290.737 443.613C290.737 443.613 287.209 397.026 282.055 395.13C276.901 393.235 268.22 397.298 270.118 401.631C272.019 405.965 284.769 443.886 284.769 443.886" stroke="#151515" stroke-width="0.715094" stroke-linecap="round" stroke-linejoin="round"/>
<path d="M321.583 392.485C321.583 392.485 325.118 407.144 318.321 412.031C311.524 416.916 306.358 407.959 306.358 407.959L305.271 391.942" fill="#4EA62F"/>
<path d="M321.583 392.485C321.583 392.485 325.118 407.144 318.321 412.031C311.524 416.916 306.358 407.959 306.358 407.959L305.271 391.942" stroke="#151515" stroke-width="0.715094" stroke-miterlimit="10"/>
<path d="M293.578 442.707C293.578 442.707 297.386 380.814 310.708 384.613C324.031 388.415 321.583 395.744 321.583 395.744C321.583 395.744 318.321 392.759 316.418 396.558C314.515 400.36 304.726 443.795 304.726 443.795" fill="#EFF9EB"/>
<path d="M293.578 442.707C293.578 442.707 297.386 380.814 310.708 384.613C324.031 388.415 321.583 395.744 321.583 395.744C321.583 395.744 318.321 392.759 316.418 396.558C314.515 400.36 304.726 443.795 304.726 443.795" stroke="#151515" stroke-width="0.715094" stroke-linecap="round" stroke-linejoin="round"/>
<path d="M299.577 442.827C299.577 442.827 305.02 412.037 319.74 414.967C334.46 417.894 310.601 441.351 306.602 443.447" fill="#4EA62F"/>
<path d="M299.577 442.827C299.577 442.827 305.02 412.037 319.74 414.967C334.46 417.894 310.601 441.351 306.602 443.447" stroke="#151515" stroke-width="0.715094" stroke-miterlimit="10"/>
<path d="M287.325 373.754C287.325 373.754 294.47 418.26 292.022 442.693" stroke="#151515" stroke-width="0.476729" stroke-linecap="round" stroke-linejoin="round"/>
<path d="M276.994 397.644C276.994 397.644 286.237 429.948 287.054 441.078" stroke="#151515" stroke-width="0.476729" stroke-linecap="round" stroke-linejoin="round"/>
<path d="M269.652 418.546C269.652 418.546 280.527 434.835 282.159 441.892" stroke="#151515" stroke-width="0.476729" stroke-linecap="round" stroke-linejoin="round"/>
<path d="M311.252 388.958C311.252 388.958 300.104 422.347 297.113 440.537" stroke="#151515" stroke-width="0.476729" stroke-linecap="round" stroke-linejoin="round"/>
<path d="M302.41 442.511L302.148 442.364C308.336 431.351 317.029 419.928 317.115 419.814L317.353 419.996C317.266 420.109 308.588 431.518 302.41 442.511Z" stroke="#151515" stroke-width="0.476729" stroke-linecap="round" stroke-linejoin="round"/>
<path d="M317.235 441.354H272.28V451.396H317.235V441.354Z" fill="#151515" stroke="#151515" stroke-width="0.715094" stroke-miterlimit="10"/>
<path d="M672.764 295.404V289.465H668.004C667.617 287.516 666.847 285.662 665.739 284.01L669.106 280.649L664.901 276.449L661.534 279.81C659.88 278.704 658.023 277.936 656.07 277.549V272.798H650.123V277.549C648.17 277.936 646.313 278.704 644.658 279.81L641.292 276.449L637.086 280.649L640.452 284.01C639.345 285.662 638.576 287.516 638.188 289.465H633.428V295.404H638.188C638.576 297.353 639.345 299.206 640.452 300.858L637.086 304.22L641.292 308.419L644.658 305.058C646.312 306.165 648.17 306.933 650.123 307.32V312.071H656.07V307.32C658.023 306.933 659.88 306.164 661.534 305.058L664.901 308.419L669.106 304.22L665.739 300.858C666.847 299.207 667.617 297.353 668.004 295.404H672.764ZM653.096 300.85C651.429 300.851 649.799 300.357 648.413 299.433C647.027 298.508 645.946 297.194 645.308 295.656C644.67 294.118 644.503 292.426 644.828 290.793C645.153 289.161 645.956 287.661 647.134 286.484C648.313 285.307 649.815 284.505 651.45 284.18C653.086 283.855 654.78 284.022 656.321 284.659C657.861 285.296 659.178 286.374 660.104 287.759C661.03 289.143 661.525 290.77 661.525 292.434C661.525 294.666 660.637 296.807 659.056 298.385C657.476 299.963 655.332 300.85 653.096 300.85Z" fill="#4EA62F"/>
<path d="M481.534 139.235V135.07H478.195C477.924 133.703 477.384 132.404 476.608 131.245L478.969 128.889L476.019 125.944L473.659 128.3C472.499 127.525 471.197 126.986 469.827 126.715V123.383H465.657V126.715C464.288 126.986 462.985 127.525 461.825 128.3L459.465 125.944L456.516 128.889L458.877 131.245C458.1 132.403 457.56 133.703 457.289 135.07H453.951V139.235H457.289C457.56 140.602 458.1 141.902 458.877 143.06L456.516 145.416L459.465 148.361L461.825 146.005C462.985 146.78 464.288 147.319 465.657 147.59V150.922H469.827V147.59C471.197 147.319 472.499 146.78 473.659 146.005L476.019 148.361L478.969 145.416L476.608 143.06C477.384 141.902 477.924 140.602 478.195 139.235H481.534ZM467.743 143.054C466.574 143.054 465.431 142.708 464.459 142.06C463.487 141.411 462.729 140.49 462.282 139.411C461.834 138.333 461.717 137.146 461.945 136.002C462.173 134.857 462.736 133.805 463.562 132.98C464.389 132.154 465.442 131.592 466.589 131.365C467.735 131.137 468.924 131.254 470.004 131.7C471.084 132.147 472.007 132.903 472.657 133.874C473.306 134.844 473.653 135.985 473.653 137.152C473.653 138.717 473.03 140.218 471.922 141.325C470.813 142.432 469.31 143.054 467.743 143.054Z" fill="#151515"/>
<path d="M482.816 410.442C482.817 411.834 482.542 413.212 482.009 414.498C481.476 415.783 480.694 416.952 479.708 417.936C478.722 418.92 477.552 419.7 476.264 420.233C474.976 420.765 473.596 421.039 472.202 421.038H395.78C394.386 421.039 393.006 420.765 391.718 420.232C390.43 419.7 389.26 418.92 388.275 417.935C387.289 416.951 386.508 415.783 385.975 414.497C385.441 413.211 385.167 411.833 385.168 410.442C385.167 409.05 385.441 407.672 385.974 406.386C386.507 405.1 387.289 403.932 388.274 402.947C389.26 401.963 390.43 401.182 391.718 400.65C393.006 400.117 394.386 399.843 395.78 399.844H472.202C473.596 399.843 474.976 400.117 476.264 400.65C477.552 401.182 478.723 401.963 479.709 402.947C480.694 403.931 481.476 405.1 482.009 406.386C482.543 407.672 482.817 409.05 482.816 410.442Z" fill="white" stroke="#151515" stroke-width="0.715094" stroke-linecap="round" stroke-linejoin="round"/>
<path d="M482.816 349.402C482.817 350.794 482.543 352.172 482.009 353.458C481.476 354.744 480.694 355.912 479.708 356.896C478.723 357.88 477.552 358.661 476.264 359.193C474.976 359.726 473.596 359.999 472.202 359.999H395.78C394.386 359.999 393.006 359.725 391.718 359.193C390.43 358.661 389.26 357.88 388.275 356.896C387.289 355.912 386.508 354.743 385.974 353.457C385.441 352.172 385.167 350.793 385.168 349.402C385.167 348.01 385.441 346.632 385.974 345.346C386.508 344.06 387.289 342.892 388.275 341.908C389.26 340.924 390.43 340.144 391.718 339.611C393.006 339.079 394.386 338.805 395.78 338.806H472.202C473.596 338.805 474.976 339.079 476.264 339.611C477.552 340.143 478.723 340.924 479.708 341.908C480.694 342.892 481.476 344.06 482.009 345.346C482.543 346.632 482.817 348.01 482.816 349.402Z" fill="white" stroke="#151515" stroke-width="0.715094" stroke-linecap="round" stroke-linejoin="round"/>
<path d="M436.613 352.657C436.613 353.325 436.481 353.987 436.226 354.604C435.97 355.222 435.594 355.783 435.121 356.255C434.648 356.728 434.086 357.103 433.468 357.359C432.849 357.614 432.187 357.746 431.517 357.746H394.828C394.158 357.746 393.496 357.614 392.877 357.359C392.259 357.103 391.697 356.728 391.224 356.256C390.751 355.783 390.375 355.222 390.119 354.604C389.863 353.987 389.732 353.325 389.732 352.657C389.732 351.989 389.864 351.327 390.12 350.71C390.376 350.093 390.751 349.532 391.224 349.059C391.697 348.587 392.259 348.212 392.877 347.956C393.496 347.701 394.158 347.57 394.828 347.57H431.517C432.186 347.57 432.849 347.701 433.467 347.957C434.086 348.212 434.648 348.587 435.121 349.059C435.594 349.532 435.969 350.093 436.225 350.71C436.481 351.327 436.613 351.989 436.613 352.657Z" fill="#4EA62F"/>
<path d="M438.369 413.015C438.369 413.683 438.238 414.345 437.982 414.962C437.726 415.58 437.351 416.141 436.877 416.613C436.404 417.086 435.842 417.461 435.224 417.716C434.606 417.972 433.943 418.103 433.274 418.103H396.584C395.914 418.103 395.251 417.972 394.633 417.716C394.015 417.461 393.453 417.086 392.98 416.613C392.507 416.141 392.131 415.58 391.875 414.962C391.619 414.345 391.488 413.683 391.488 413.015C391.488 412.347 391.62 411.685 391.875 411.068C392.131 410.45 392.507 409.889 392.98 409.417C393.453 408.945 394.015 408.57 394.633 408.314C395.252 408.059 395.914 407.927 396.584 407.928H433.274C433.943 407.927 434.605 408.059 435.224 408.314C435.842 408.57 436.404 408.945 436.877 409.417C437.35 409.89 437.726 410.45 437.982 411.068C438.238 411.685 438.369 412.347 438.369 413.015Z" fill="#4EA62F"/>
<path d="M644.055 418.968L650.075 431.74L637.972 435.184L632.391 422.223" fill="white"/>
<path d="M644.055 418.968L650.075 431.74L637.972 435.184L632.391 422.223" stroke="#151515" stroke-width="0.715094" stroke-linecap="round" stroke-linejoin="round"/>
<path d="M568.425 427.044L571.811 440.505L559.897 443.573L559.395 428.109" fill="white"/>
<path d="M568.425 427.044L571.811 440.505L559.897 443.573L559.395 428.109" stroke="#151515" stroke-width="0.715094" stroke-linecap="round" stroke-linejoin="round"/>
<path d="M580.891 267.04C580.891 267.04 597.154 276.816 601.735 290.538C606.316 304.259 611.127 364.405 618.685 374.439C626.243 384.473 650.891 417.278 650.891 417.278L632.015 428.11C632.015 428.11 603.796 389.618 597.154 378.469C590.511 367.321 579.517 317.009 579.517 317.009C579.517 317.009 565.316 355.937 564.629 371.946C563.941 387.954 575.388 431.115 575.388 431.115L556.387 431.678C556.387 431.678 544.472 391.099 543.325 370.116C542.181 349.135 556.839 287.39 556.839 287.39" fill="#151515"/>
<path d="M519.47 302.189C522.848 291.572 524.48 279.184 521.451 266.239C512.861 229.534 502.211 247.029 502.211 256.978C502.211 256.978 505.741 277.753 503.843 298.659C506.67 300.678 511.54 302.711 519.47 302.189Z" fill="#4EA62F" stroke="#151515" stroke-width="0.715094" stroke-linecap="round" stroke-linejoin="round"/>
<path d="M503.843 298.66C502.664 311.628 499.4 324.647 491.902 332.789L501.179 335.19C501.179 335.19 513.27 321.676 519.47 302.19C511.54 302.712 506.67 300.678 503.843 298.66Z" fill="white" stroke="#151515" stroke-width="0.715094" stroke-linecap="round" stroke-linejoin="round"/>
<path d="M500.148 256.635C500.148 256.635 503.585 236.738 524.544 239.483C545.501 242.228 580.89 266.926 580.89 266.926C580.89 266.926 568.522 292.312 558.214 292.654C547.907 292.997 500.148 272.758 500.148 258.007" fill="#151515"/>
<path d="M493.278 333.646L489.326 340.68L481.08 347.541L499.461 348.741L497.743 343.252L499.806 335.02" fill="#4EA62F"/>
<path d="M493.278 333.646L489.326 340.68L481.08 347.541L499.461 348.741L497.743 343.252L499.806 335.02" stroke="#151515" stroke-width="0.715094" stroke-linecap="round" stroke-linejoin="round"/>
<path d="M523.683 275.414C523.683 275.414 514.923 260.979 518.359 252.517C521.793 244.056 525.073 243.498 525.073 243.498C525.073 243.498 509.94 237.081 506.848 249.944C503.755 262.808 514.836 271.556 514.836 271.556L523.683 275.414Z" fill="#4EA62F"/>
<path d="M527.462 272.127C527.462 272.127 514.578 244.741 535.765 246.798C553.439 248.515 563.376 266.892 560.398 271.581C557.42 276.269 527.462 272.127 527.462 272.127Z" fill="#4EA62F"/>
<path d="M639.681 445.019L640.763 443.106L653.997 440.031L655.739 443.508C655.739 443.508 617.629 454.225 616.481 451.457C616.114 450.573 615.811 450.07 615.807 449.595L639.681 445.019Z" fill="#4EA62F" stroke="#151515" stroke-width="0.715094" stroke-linecap="round" stroke-linejoin="round"/>
<path d="M639.679 445.018L615.804 449.594C615.793 448.584 613.936 447.796 618.949 443.669C621.669 441.43 627.997 440.298 629.984 438.224C632.059 436.029 633.688 433.452 634.78 430.638C634.78 430.638 640.946 436.066 643.634 434.412C646.323 432.757 649.54 431.135 649.54 431.135L653.994 440.03L640.76 443.105L639.679 445.018Z" fill="#4EA62F" stroke="#151515" stroke-width="0.715094" stroke-linecap="round" stroke-linejoin="round"/>
<path d="M560.322 449.994L561.744 448.317L575.321 447.787L576.376 451.53C576.376 451.53 536.926 454.885 536.321 451.95C536.128 451.014 535.926 450.461 536.01 449.995L560.322 449.994Z" fill="#4EA62F" stroke="#151515" stroke-width="0.715094" stroke-linecap="round" stroke-linejoin="round"/>
<path d="M560.325 449.994L536.012 449.995C536.193 449.001 534.519 447.877 540.221 444.767C543.312 443.081 549.742 443.16 552.086 441.497C554.538 439.732 556.623 437.508 558.226 434.949C558.226 434.949 563.258 441.439 566.211 440.321C569.164 439.202 572.628 438.212 572.628 438.212L575.324 447.787L561.746 448.317L560.325 449.994Z" fill="#4EA62F" stroke="#151515" stroke-width="0.715094" stroke-linecap="round" stroke-linejoin="round"/>
<path d="M505.473 246.343L513.806 246.686C513.806 246.686 516.745 250.334 516.124 254.276C515.522 258.092 513.075 260.151 510.455 260.45C507.835 260.751 506.161 255.005 506.161 255.005" fill="white"/>
<path d="M505.473 246.343L513.806 246.686C513.806 246.686 516.745 250.334 516.124 254.276C515.522 258.092 513.075 260.151 510.455 260.45C507.835 260.751 506.161 255.005 506.161 255.005" stroke="#151515" stroke-width="0.715094" stroke-linecap="round" stroke-linejoin="round"/>
<path d="M490.186 254.804C490.186 254.804 500.722 275.844 505.303 269.898C509.885 263.952 508.395 247.029 508.395 247.029C508.395 247.029 499.348 245.657 490.186 254.804Z" fill="white" stroke="#151515" stroke-width="0.715094" stroke-linecap="round" stroke-linejoin="round"/>
<path d="M501.752 253.203L505.303 255.09C505.303 255.09 504.501 253.089 505.704 252.574C506.907 252.059 509.368 253.546 508.738 256.062L511.143 252.288L508.338 245.142" fill="#151515"/>
<path d="M508.737 245.2C508.737 245.2 508.165 234.851 498.029 236.223C492.127 237.021 480.106 247.259 489.039 256.177C489.039 256.177 503.469 259.149 508.737 245.2Z" fill="#151515"/>
<path d="M551.342 291.395C551.342 291.395 581.807 284.076 580.318 267.04L586.846 271.728C586.846 271.728 584.728 281.368 577.927 286.671C571.672 291.55 563.159 294.185 556.037 293.796L551.342 291.395Z" fill="white" stroke="#151515" stroke-width="0.715094" stroke-linecap="round" stroke-linejoin="round"/>
<path d="M499.858 292.931L498.053 302.021L522.375 306.835L524.18 297.745L499.858 292.931Z" fill="#4EA62F" stroke="#151515" stroke-width="0.715094" stroke-linecap="round" stroke-linejoin="round"/>
<path d="M464.283 301.851C459.741 301.816 455.23 302.613 450.974 304.201C450.916 304.2 450.858 304.193 450.799 304.193C448.2 304.193 445.711 305.806 443.41 308.752C441.351 310.675 439.992 312.902 439.552 315.298C433.564 328.218 429.58 351.147 429.58 377.285C429.58 417.652 439.081 450.375 450.799 450.375C451.901 450.375 460.63 450.873 464.283 450.873C478.03 450.873 489.177 444.093 489.177 435.732V316.994C489.177 308.631 478.03 301.851 464.283 301.851Z" fill="white" stroke="#151515" stroke-width="0.715094" stroke-linecap="round" stroke-linejoin="round"/>
<path d="M500.313 377.284C500.313 417.651 490.812 450.375 479.093 450.375C467.374 450.375 457.873 417.651 457.873 377.284C457.873 336.917 467.374 304.192 479.093 304.192C490.812 304.192 500.313 336.917 500.313 377.284Z" fill="#4EA62F" stroke="#151515" stroke-width="0.715094" stroke-miterlimit="10"/>
<path d="M595.186 376.597C595.186 372.325 596.886 368.228 599.912 365.207C602.938 362.186 607.042 360.489 611.321 360.489H687.742C692.021 360.489 696.124 362.186 699.15 365.207C702.176 368.228 703.876 372.325 703.877 376.597C703.876 380.869 702.176 384.966 699.15 387.987C696.124 391.008 692.021 392.705 687.742 392.705H611.321C607.042 392.705 602.938 391.008 599.912 387.987C596.886 384.966 595.186 380.869 595.186 376.597Z" fill="white" stroke="#151515" stroke-width="0.715094" stroke-linecap="round" stroke-linejoin="round"/>
<path d="M694.125 364.263C693.867 367.765 692.292 371.039 689.716 373.43C687.14 375.82 683.754 377.149 680.238 377.151H614.217C611.429 377.155 608.704 376.32 606.399 374.754C606.373 375.095 606.346 375.435 606.346 375.783C606.346 379.474 607.815 383.014 610.429 385.623C613.043 388.233 616.589 389.699 620.286 389.699H686.306C689.288 389.7 692.192 388.745 694.591 386.975C696.99 385.205 698.757 382.714 699.632 379.867C700.507 377.02 700.444 373.968 699.453 371.159C698.462 368.351 696.594 365.933 694.125 364.263Z" fill="#4EA62F"/>
<path d="M561.221 370.663C561.22 366.71 562 362.797 563.515 359.145C565.029 355.493 567.25 352.175 570.049 349.38C572.848 346.585 576.172 344.368 579.829 342.855C583.487 341.343 587.407 340.564 591.366 340.564C595.325 340.564 599.245 341.342 602.902 342.855C606.56 344.367 609.883 346.585 612.682 349.38C615.481 352.175 617.702 355.493 619.216 359.145C620.731 362.797 621.51 366.71 621.51 370.663V382.53C621.51 386.483 620.731 390.397 619.217 394.049C617.702 397.701 615.482 401.019 612.683 403.814C609.883 406.609 606.56 408.827 602.903 410.339C599.245 411.852 595.325 412.63 591.366 412.629C587.407 412.63 583.487 411.851 579.829 410.339C576.171 408.826 572.848 406.609 570.049 403.814C567.249 401.019 565.029 397.701 563.514 394.049C562 390.397 561.22 386.483 561.221 382.53V370.663Z" fill="white" stroke="#151515" stroke-width="0.715094" stroke-linecap="round" stroke-linejoin="round"/>
<path d="M603.906 394.096C600.333 394.096 596.794 393.394 593.492 392.029C590.191 390.663 587.191 388.662 584.664 386.139C582.137 383.616 580.133 380.621 578.765 377.324C577.398 374.028 576.695 370.495 576.695 366.927V356.214C576.691 352.597 577.412 349.015 578.817 345.68C574.665 348.059 571.215 351.489 568.816 355.626C566.417 359.762 565.155 364.458 565.156 369.237V379.95C565.157 386.223 567.332 392.303 571.311 397.158C575.291 402.012 580.83 405.342 586.989 406.583C593.148 407.824 599.548 406.898 605.101 403.964C610.655 401.03 615.02 396.268 617.457 390.486C613.336 392.856 608.662 394.101 603.906 394.096Z" fill="#4EA62F"/>
<path d="M556.973 319.795H496.684C491.885 319.792 487.14 320.807 482.764 322.775C471.349 347.341 466.081 402.189 482.767 430.42C487.142 432.387 491.886 433.402 496.684 433.399H556.973C561.433 433.399 565.85 432.522 569.971 430.818C574.092 429.114 577.836 426.617 580.99 423.468C584.145 420.319 586.647 416.581 588.353 412.466C590.06 408.352 590.939 403.942 590.939 399.489V353.706C590.939 349.252 590.06 344.843 588.353 340.728C586.646 336.614 584.144 332.875 580.99 329.727C577.836 326.578 574.092 324.08 569.971 322.376C565.85 320.672 561.433 319.795 556.973 319.795Z" fill="white" stroke="#151515" stroke-width="0.715094" stroke-linecap="round" stroke-linejoin="round"/>
<path d="M578.478 412.112H524.3C519.988 412.115 515.725 411.203 511.794 409.436C499.343 388.37 500.5 350.828 507.121 326.051H498.714C494.402 326.048 490.137 326.961 486.205 328.729C475.946 350.806 471.212 400.095 486.208 425.466C490.139 427.232 494.403 428.144 498.714 428.141H552.893C558.412 428.143 563.829 426.65 568.566 423.822C573.303 420.993 577.183 416.935 579.792 412.079C579.356 412.098 578.919 412.112 578.478 412.112Z" fill="#4EA62F"/>
<path d="M544.005 298.404C545.335 290.502 545.861 272.844 543.29 264.182C536.238 240.419 525.807 255.111 525.807 263.888C525.807 263.888 526.967 280.58 526.192 299.085C532.136 299.56 538.115 299.332 544.005 298.404Z" fill="#4EA62F" stroke="#151515" stroke-width="0.715094" stroke-linecap="round" stroke-linejoin="round"/>
<path d="M526.192 299.085C525.566 314.047 523.627 331.823 514.871 341.331L521.518 343.21C521.518 343.21 539.782 323.474 544.005 298.404C538.115 299.332 532.136 299.56 526.192 299.085Z" fill="white" stroke="#151515" stroke-width="0.715094" stroke-linecap="round" stroke-linejoin="round"/>
<path d="M547.103 297.379H522.02V307.898H547.103V297.379Z" fill="#4EA62F" stroke="#151515" stroke-width="0.715094" stroke-linecap="round" stroke-linejoin="round"/>
<path d="M522.843 341.068L515.634 338.271C515.258 338.331 514.89 338.441 514.542 338.595C514.004 338.841 514.198 340.592 514.198 340.592C514.198 340.592 509.854 343.649 507.801 346.937C505.749 350.226 501.521 352.556 503.193 353.291C504.869 354.029 506.197 351.021 506.887 351.724C507.232 352.075 506.231 354.914 504.642 357.435C503.054 359.955 500.882 362.153 502.163 362.418C504.727 362.949 509.581 354.777 509.581 354.777C509.581 354.777 508.607 357.652 507.394 360.58C506.094 363.723 504.595 366.953 506.096 367.541C507.391 368.049 508.553 365.147 510.082 362.407C511.107 360.612 512.233 358.878 513.457 357.212C513.457 357.212 510.197 366.984 511.643 366.424C513.09 365.864 515.799 357.101 516.404 357.352C517.009 357.602 515.333 363.826 516.391 363.693C517.45 363.56 520.706 353.02 520.706 353.02C520.706 353.02 523.475 347.189 522.312 343.483C522.312 343.483 524.081 342.079 522.843 341.068Z" fill="#151515"/>
<path d="M602.329 282.385C602.595 282.8 602.777 283.264 602.864 283.75C602.951 284.235 602.941 284.734 602.835 285.215C602.729 285.697 602.529 286.154 602.247 286.558C601.964 286.963 601.605 287.308 601.189 287.574L592.633 293.043C592.217 293.309 591.753 293.491 591.266 293.578C590.78 293.665 590.281 293.655 589.798 293.549C589.315 293.443 588.858 293.244 588.453 292.962C588.047 292.68 587.702 292.32 587.435 291.905L576.278 274.504C576.011 274.089 575.829 273.625 575.742 273.139C575.655 272.654 575.665 272.156 575.771 271.674C575.877 271.192 576.077 270.736 576.359 270.331C576.642 269.926 577.001 269.581 577.417 269.315L585.973 263.846C586.389 263.58 586.854 263.398 587.34 263.312C587.827 263.225 588.325 263.234 588.808 263.34C589.291 263.446 589.748 263.645 590.153 263.928C590.559 264.21 590.904 264.569 591.171 264.984L602.329 282.385Z" fill="#4EA62F" stroke="#151515" stroke-width="0.715094" stroke-linecap="round" stroke-linejoin="round"/>
<path d="M580.58 280.341C580.58 280.341 591.365 279.915 595.924 271.872L580.58 280.341Z" fill="#4EA62F"/>
<path d="M580.58 280.341C580.58 280.341 591.365 279.915 595.924 271.872" stroke="#151515" stroke-width="0.715094" stroke-linecap="round" stroke-linejoin="round"/>
<path d="M576.054 215.14C576.054 216.7 575.746 218.245 575.148 219.687C574.55 221.128 573.674 222.438 572.569 223.541C571.464 224.644 570.152 225.52 568.708 226.117C567.264 226.714 565.717 227.021 564.154 227.021H524.486C521.33 227.021 518.303 225.769 516.071 223.541C513.84 221.313 512.586 218.291 512.586 215.14C512.586 211.989 513.84 208.967 516.071 206.738C518.303 204.51 521.33 203.258 524.486 203.258H564.154C565.717 203.258 567.264 203.566 568.708 204.163C570.152 204.76 571.464 205.635 572.569 206.738C573.674 207.842 574.55 209.151 575.148 210.593C575.746 212.034 576.054 213.579 576.054 215.14Z" fill="#151515"/>
<path d="M526.69 215.139H512.586V226.972H526.69V215.139Z" fill="#151515"/>
<path d="M126.855 194.09H69.1593C59.6003 194.09 51.8506 202.907 51.8506 213.783C51.8506 224.659 59.6003 233.476 69.1593 233.476H126.855C127.371 233.476 127.88 233.445 128.384 233.395H144.164V213.783C144.164 202.907 136.415 194.09 126.855 194.09Z" fill="#151515"/>
<path d="M534.622 214.748C534.622 215.096 534.519 215.436 534.325 215.726C534.131 216.015 533.856 216.241 533.533 216.374C533.211 216.507 532.857 216.542 532.515 216.474C532.173 216.406 531.859 216.239 531.612 215.992C531.365 215.746 531.198 215.432 531.13 215.091C531.062 214.749 531.096 214.396 531.23 214.074C531.363 213.752 531.589 213.477 531.879 213.284C532.169 213.09 532.51 212.987 532.859 212.987C533.091 212.987 533.32 213.033 533.534 213.121C533.748 213.21 533.942 213.339 534.106 213.503C534.269 213.666 534.399 213.86 534.488 214.074C534.576 214.288 534.622 214.516 534.622 214.748Z" fill="white"/>
<path d="M546.083 214.748C546.083 215.096 545.979 215.436 545.786 215.726C545.592 216.015 545.317 216.241 544.994 216.374C544.672 216.507 544.318 216.542 543.976 216.474C543.634 216.406 543.32 216.238 543.073 215.992C542.826 215.746 542.658 215.432 542.59 215.091C542.522 214.749 542.557 214.395 542.691 214.074C542.824 213.752 543.05 213.477 543.34 213.284C543.63 213.09 543.971 212.987 544.32 212.987C544.551 212.987 544.781 213.033 544.995 213.121C545.209 213.21 545.403 213.339 545.567 213.503C545.73 213.666 545.86 213.86 545.949 214.074C546.037 214.288 546.083 214.516 546.083 214.748Z" fill="white"/>
<path d="M557.541 214.748C557.541 215.096 557.438 215.436 557.244 215.725C557.051 216.015 556.775 216.241 556.453 216.374C556.131 216.507 555.776 216.542 555.434 216.474C555.092 216.406 554.778 216.238 554.532 215.992C554.285 215.746 554.117 215.432 554.049 215.09C553.981 214.749 554.016 214.395 554.15 214.074C554.283 213.752 554.509 213.477 554.799 213.284C555.089 213.09 555.43 212.987 555.779 212.987C556.01 212.987 556.24 213.033 556.454 213.121C556.667 213.21 556.862 213.34 557.025 213.503C557.189 213.666 557.319 213.861 557.407 214.074C557.496 214.288 557.542 214.517 557.541 214.748Z" fill="white"/>
<path d="M82.2764 217.44H80.2187L79.3622 222.672H76.8188L77.6752 217.44H74.8379V215.105H78.0586L78.621 211.736H75.7961V209.401H79.0042L79.8862 204.092H82.4169L81.5477 209.401H83.6056L84.4875 204.092H87.0308L86.1491 209.401H89.1015V211.736H85.7653L85.2032 215.105H88.1301V217.44H84.8198L83.9632 222.672H81.4198L82.2764 217.44ZM80.6018 215.105H82.6596L83.222 211.736H81.1641L80.6018 215.105Z" fill="white"/>
<path d="M99.9065 217.44H97.8486L96.9922 222.672H94.4489L95.3051 217.44H92.4678V215.105H95.6885L96.2509 211.736H93.4262V209.401H96.6343L97.516 204.092H100.047L99.1778 209.401H101.235L102.118 204.092H104.661L103.779 209.401H106.731V211.736H103.395L102.833 215.105H105.76V217.44H102.45L101.593 222.672H99.05L99.9065 217.44ZM98.2316 215.105H100.29L100.852 211.736H98.794L98.2316 215.105Z" fill="white"/>
<path d="M117.537 217.44H115.48L114.623 222.672H112.08L112.936 217.44H110.099V215.105H113.32L113.882 211.736H111.057V209.401H114.265L115.147 204.092H117.678L116.809 209.401H118.866L119.748 204.092H122.292L121.41 209.401H124.362V211.736H121.026L120.464 215.105H123.391V217.44H120.081L119.224 222.672H116.681L117.537 217.44ZM115.862 215.105H117.921L118.483 211.736H116.425L115.862 215.105Z" fill="white"/>
</svg>
