<svg width="20" height="20" viewBox="0 0 20 20" fill="none" xmlns="http://www.w3.org/2000/svg">
    <path d="M0 19.0284V12.2276C0.00220549 9.90931 0.793012 7.68673 2.19892 6.04747C3.60483 4.40822 5.51101 3.48615 7.49926 3.48358H11.5239V1.94269C11.5239 1.55844 11.6217 1.18284 11.8048 0.863378C11.988 0.543912 12.2482 0.294923 12.5527 0.147888C12.8571 0.000852756 13.1922 -0.0376264 13.5154 0.0373145C13.8386 0.112255 14.1355 0.297252 14.3686 0.568917L19.2681 6.28068C19.7367 6.82726 20 7.56849 20 8.34135C20 9.11421 19.7367 9.85544 19.2681 10.402L14.3686 16.1138C14.1355 16.3854 13.8386 16.5704 13.5154 16.6454C13.1922 16.7203 12.8571 16.6818 12.5527 16.5348C12.2482 16.3878 11.988 16.1388 11.8048 15.8193C11.6217 15.4999 11.5239 15.1243 11.5239 14.74V13.1991H6.66601C5.34047 13.2007 4.06959 13.8153 3.13229 14.9082C2.19498 16.0011 1.66783 17.4829 1.6665 19.0284C1.6665 19.2861 1.57871 19.5332 1.42245 19.7154C1.26618 19.8976 1.05424 20 0.833251 20C0.612259 20 0.400319 19.8976 0.244054 19.7154C0.0877888 19.5332 0 19.2861 0 19.0284ZM13.1904 4.45513C13.1904 4.71281 13.1026 4.95992 12.9463 5.14213C12.7901 5.32433 12.5781 5.42669 12.3571 5.42669H7.49926C5.95286 5.42874 4.4703 6.14592 3.37683 7.42089C2.28335 8.69586 1.66827 10.4245 1.6665 12.2276V13.8928C2.29108 13.064 3.06011 12.4001 3.92224 11.9454C4.78438 11.4907 5.71978 11.2557 6.66601 11.256H12.3571C12.5781 11.256 12.7901 11.3584 12.9463 11.5406C13.1026 11.7228 13.1904 11.9699 13.1904 12.2276V14.74L18.0891 9.02824C18.2453 8.84605 18.333 8.59897 18.333 8.34135C18.333 8.08373 18.2453 7.83666 18.0891 7.65446L13.1904 1.94269V4.45513Z" fill="#4EA62F"/>
</svg>
