<svg width="17" height="20" viewBox="0 0 17 20" fill="none" xmlns="http://www.w3.org/2000/svg">
<path d="M15.8892 9.77778C14.8892 8.72222 13.5559 8 12.167 7.72222C11.5559 7.55556 10.9448 7.44445 10.3336 7.38889C11.8892 5.55556 11.6114 2.77778 9.77809 1.22222C7.94475 -0.333331 5.16698 -0.0555533 3.61142 1.77778C2.05587 3.61111 2.33364 6.38889 4.16698 7.94445C4.50031 8.22222 4.83364 8.44445 5.16698 8.55556V9.77778L4.27809 8.94445C3.50031 8.16667 2.22253 8.16667 1.3892 8.94445C0.611421 9.72222 0.555865 10.9444 1.33364 11.7222L3.8892 14.7222C4.00031 15.5 4.27809 16.2222 4.66698 16.8889C4.94475 17.3889 5.33364 17.8889 5.72253 18.2778V19.3333C5.72253 19.6667 5.94475 19.8889 6.27809 19.8889H13.8336C14.1114 19.8889 14.3892 19.6111 14.3892 19.3333V17.8889C15.4448 16.6111 16.0003 15 16.0003 13.3889V10.1667C16.0559 9.94445 16.0003 9.83334 15.8892 9.77778ZM3.66698 4.55556C3.66698 2.72222 5.16698 1.27778 7.00031 1.33334C8.83364 1.33334 10.2781 2.83334 10.2225 4.66667C10.2225 5.66667 9.77809 6.55556 9.00031 7.16667V4.38889C8.97194 3.90743 8.76048 3.45506 8.40927 3.12451C8.05806 2.79396 7.59372 2.61028 7.11142 2.61111C6.11142 2.55556 5.22253 3.38889 5.22253 4.38889V7.27778C4.27809 6.72222 3.72253 5.66667 3.66698 4.55556ZM14.9448 13.3333C15.0003 14.7778 14.5003 16.1667 13.5559 17.2778C13.4448 17.3889 13.3336 17.5 13.3336 17.6667V18.8333H6.8892V18.0556C6.8892 17.8889 6.77809 17.7222 6.66698 17.6111C6.27809 17.2778 5.94475 16.8889 5.66698 16.3889C5.33364 15.8333 5.11142 15.1667 5.00031 14.5C5.00031 14.3889 4.94475 14.2778 4.8892 14.1667L2.22253 11C2.05587 10.8333 1.94475 10.6111 1.94475 10.3333C1.94475 10.1111 2.05587 9.83333 2.22253 9.66667C2.61142 9.33333 3.16698 9.33333 3.55587 9.66667L5.16698 11.2778V12.9444L6.22253 12.3889V4.38889C6.27809 4 6.61142 3.66667 7.05587 3.72222C7.44475 3.72222 7.83364 4 7.83364 4.38889V10.7778L8.94475 11V8.44445C9.00031 8.38889 9.05587 8.38889 9.11142 8.33333C9.50031 8.33333 9.8892 8.38889 10.2781 8.44445V11.2778L11.167 11.4444V8.55556L11.8336 8.72222C12.1114 8.77778 12.3892 8.88889 12.667 9V11.7778L13.5559 11.9444V9.38889C14.0559 9.61111 14.5003 9.94445 14.8892 10.3333L14.9448 13.3333Z" fill="#4EA62F"/>
</svg>
