<svg width="66" height="66" viewBox="0 0 66 66" fill="none" xmlns="http://www.w3.org/2000/svg">
<g id="iconamoon:search">
<path id="Vector" d="M57.7506 57.7496L45.8073 45.8063M45.8073 45.8063C47.8503 43.7634 49.4708 41.3381 50.5764 38.6688C51.6821 35.9996 52.2511 33.1387 52.2511 30.2496C52.2511 27.3604 51.6821 24.4996 50.5764 21.8303C49.4708 19.1611 47.8503 16.7358 45.8073 14.6928C43.7644 12.6499 41.3391 11.0293 38.6698 9.92372C36.0006 8.81808 33.1397 8.24902 30.2506 8.24902C27.3614 8.24902 24.5005 8.81808 21.8313 9.92372C19.1621 11.0293 16.7368 12.6499 14.6938 14.6928C10.5679 18.8187 8.25 24.4147 8.25 30.2496C8.25 36.0845 10.5679 41.6804 14.6938 45.8063C18.8197 49.9322 24.4157 52.2502 30.2506 52.2502C36.0855 52.2502 41.6814 49.9322 45.8073 45.8063Z" stroke="#4EA62F" stroke-width="4" stroke-linecap="round" stroke-linejoin="round"/>
</g>
</svg>
