<svg width="66" height="66" viewBox="0 0 66 66" fill="none" xmlns="http://www.w3.org/2000/svg">
<g id="clarity:building-line" clip-path="url(#clip0_545_13534)">
<path id="Vector" d="M56.8327 14.667H42.166V18.3337H56.8327V56.8337H42.166V60.5003H60.4993V18.3337C60.4993 17.3612 60.113 16.4286 59.4254 15.7409C58.7378 15.0533 57.8051 14.667 56.8327 14.667Z" fill="#4EA62F"/>
<path id="Vector_2" d="M36.4473 5.5H11.2207C10.1898 5.5 9.20125 5.90949 8.47236 6.63838C7.74347 7.36727 7.33398 8.35586 7.33398 9.38667V60.5H40.334V9.38667C40.334 8.35586 39.9245 7.36727 39.1956 6.63838C38.4667 5.90949 37.4781 5.5 36.4473 5.5ZM36.6673 56.8333H31.1673V51.3333H16.5007V56.8333H11.0007V9.38667C11.0007 9.35778 11.0063 9.32917 11.0174 9.30248C11.0285 9.27578 11.0447 9.25153 11.0651 9.2311C11.0855 9.21067 11.1098 9.19447 11.1365 9.18341C11.1632 9.17236 11.1918 9.16667 11.2207 9.16667H36.4473C36.4762 9.16667 36.5048 9.17236 36.5315 9.18341C36.5582 9.19447 36.5825 9.21067 36.6029 9.2311C36.6233 9.25153 36.6395 9.27578 36.6506 9.30248C36.6616 9.32917 36.6673 9.35778 36.6673 9.38667V56.8333Z" fill="#4EA62F"/>
<path id="Vector_3" d="M14.666 14.667H18.3327V18.3337H14.666V14.667Z" fill="#4EA62F"/>
<path id="Vector_4" d="M22 14.667H25.6667V18.3337H22V14.667Z" fill="#4EA62F"/>
<path id="Vector_5" d="M29.334 14.667H33.0007V18.3337H29.334V14.667Z" fill="#4EA62F"/>
<path id="Vector_6" d="M14.666 23.833H18.3327V27.4997H14.666V23.833Z" fill="#4EA62F"/>
<path id="Vector_7" d="M22 23.833H25.6667V27.4997H22V23.833Z" fill="#4EA62F"/>
<path id="Vector_8" d="M29.334 23.833H33.0007V27.4997H29.334V23.833Z" fill="#4EA62F"/>
<path id="Vector_9" d="M14.666 33H18.3327V36.6667H14.666V33Z" fill="#4EA62F"/>
<path id="Vector_10" d="M22 33H25.6667V36.6667H22V33Z" fill="#4EA62F"/>
<path id="Vector_11" d="M29.334 33H33.0007V36.6667H29.334V33Z" fill="#4EA62F"/>
<path id="Vector_12" d="M14.666 42.167H18.3327V45.8337H14.666V42.167Z" fill="#4EA62F"/>
<path id="Vector_13" d="M22 42.167H25.6667V45.8337H22V42.167Z" fill="#4EA62F"/>
<path id="Vector_14" d="M29.334 42.167H33.0007V45.8337H29.334V42.167Z" fill="#4EA62F"/>
<path id="Vector_15" d="M42.166 23.833H45.8327V27.4997H42.166V23.833Z" fill="#4EA62F"/>
<path id="Vector_16" d="M49.5 23.833H53.1667V27.4997H49.5V23.833Z" fill="#4EA62F"/>
<path id="Vector_17" d="M42.166 33H45.8327V36.6667H42.166V33Z" fill="#4EA62F"/>
<path id="Vector_18" d="M49.5 33H53.1667V36.6667H49.5V33Z" fill="#4EA62F"/>
<path id="Vector_19" d="M42.166 42.167H45.8327V45.8337H42.166V42.167Z" fill="#4EA62F"/>
<path id="Vector_20" d="M49.5 42.167H53.1667V45.8337H49.5V42.167Z" fill="#4EA62F"/>
</g>
<defs>
<clipPath id="clip0_545_13534">
<rect width="66" height="66" fill="white"/>
</clipPath>
</defs>
</svg>
