<svg width="60" height="60" viewBox="0 0 60 60" fill="none" xmlns="http://www.w3.org/2000/svg">
<g id="Icon">
<rect width="60" height="60" rx="30" fill="#87AB42"/>
<g id="Group">
<path id="Vector" d="M24.5968 39.6156C24.4822 39.6156 24.3677 39.5782 24.2723 39.5031C24.0725 39.3461 24.0145 39.0686 24.1341 38.8446L28.2614 31.1076L25.3481 29.7322C25.1901 29.6575 25.0796 29.5092 25.0534 29.3361C25.0277 29.1631 25.0892 28.989 25.2184 28.8709L34.3671 20.5209C34.5589 20.3458 34.85 20.3373 35.0513 20.5018C35.2526 20.6657 35.3036 20.9528 35.1709 21.1758L31.2752 27.7347L34.8883 29.709C35.0382 29.7907 35.1386 29.9406 35.1578 30.1096C35.1774 30.2792 35.1129 30.4472 34.9852 30.5607L24.9449 39.4829C24.846 39.5712 24.7214 39.6156 24.5968 39.6156ZM26.5035 29.1182L29.207 30.3947C29.3366 30.4558 29.4355 30.5678 29.4809 30.704C29.5258 30.8402 29.5132 30.9891 29.4456 31.1157L26.4374 36.7547L33.7329 30.2726L30.2968 28.3951C30.1717 28.327 30.0798 28.211 30.0425 28.0737C30.0047 27.9365 30.0243 27.7896 30.097 27.6675L32.4689 23.6744L26.5035 29.1182Z" fill="white"/>
<path id="Vector_2" d="M32.8454 19.3787C32.6537 19.3787 32.469 19.2733 32.3767 19.0901L29.6581 13.6903L27.4446 18.0875C28.1752 17.9518 28.9159 17.8832 29.6581 17.8832C29.9478 17.8832 30.1824 18.1178 30.1824 18.4074C30.1824 18.6971 29.9478 18.9317 29.6581 18.9317C28.6319 18.9317 27.6076 19.0755 26.6156 19.3585C26.4138 19.4161 26.2004 19.3484 26.0677 19.1885C25.935 19.028 25.9097 18.8045 26.0031 18.6188L29.1899 12.2886C29.2792 12.1115 29.4603 12 29.6581 12C29.8559 12 30.0376 12.1115 30.1264 12.2886L33.3132 18.6188C33.4434 18.8772 33.3389 19.1925 33.0806 19.3227C33.0054 19.3606 32.9247 19.3787 32.8454 19.3787Z" fill="white"/>
<path id="Vector_3" d="M40.9063 27.709C40.8074 27.709 40.7075 27.6813 40.6187 27.6233C40.3765 27.4643 40.3089 27.1394 40.4683 26.8972L43.7848 21.8445L38.8669 22.1261C39.3548 22.6957 39.7882 23.3093 40.1636 23.9591C40.3079 24.2099 40.2221 24.5303 39.9708 24.6751C39.7211 24.8194 39.3997 24.7341 39.2549 24.4829C38.7377 23.5858 38.0969 22.7653 37.3511 22.0438C37.2018 21.899 37.1518 21.6795 37.224 21.4843C37.2966 21.289 37.4778 21.1553 37.6857 21.1437L44.7647 20.738C44.9685 20.7279 45.1496 20.8278 45.2485 20.9994C45.3474 21.1709 45.3419 21.3833 45.2329 21.5493L41.3453 27.4724C41.2443 27.6258 41.0768 27.709 40.9063 27.709Z" fill="white"/>
<path id="Vector_4" d="M44.7945 39.2622C44.7844 39.2622 44.7748 39.2617 44.7648 39.2612L37.6857 38.8556C37.3966 38.8389 37.1756 38.5912 37.1923 38.3021C37.2089 38.0134 37.4516 37.7975 37.7458 37.8086L43.7849 38.1547L41.0845 34.041C40.7868 34.8836 40.3952 35.6909 39.9149 36.4518C39.76 36.697 39.4366 36.7697 39.1919 36.6153C38.9471 36.4609 38.874 36.137 39.0284 35.8923C39.6546 34.9003 40.1152 33.822 40.3983 32.6873C40.4487 32.485 40.6137 32.3321 40.8191 32.2973C41.0254 32.263 41.2308 32.3528 41.3453 32.5263L45.233 38.4494C45.342 38.6149 45.3475 38.8278 45.2486 38.9994C45.1543 39.1628 44.9812 39.2622 44.7945 39.2622Z" fill="white"/>
<path id="Vector_5" d="M29.6583 48.0001C29.4605 48.0001 29.2789 47.8886 29.1901 47.7115L26.0033 41.3813C25.8731 41.123 25.9776 40.8076 26.2359 40.6774C26.4952 40.5468 26.8101 40.6512 26.9403 40.91L29.6583 46.3099L31.8719 41.9126C31.1413 42.0483 30.4005 42.117 29.6583 42.117C29.3687 42.117 29.1341 41.8823 29.1341 41.5927C29.1341 41.3031 29.3687 41.0685 29.6583 41.0685C30.6846 41.0685 31.7089 40.9247 32.7008 40.6416C32.9022 40.5836 33.1161 40.6512 33.2488 40.8117C33.3815 40.9721 33.4067 41.1956 33.3134 41.3813L30.1266 47.7115C30.0378 47.8886 29.8561 48.0001 29.6583 48.0001Z" fill="white"/>
<path id="Vector_6" d="M14.5244 39.262C14.3378 39.262 14.1642 39.1626 14.0703 38.9996C13.9714 38.828 13.977 38.6156 14.086 38.4496L17.9731 32.5266C18.1321 32.2844 18.4575 32.2173 18.6992 32.3762C18.9414 32.5351 19.0085 32.8601 18.8495 33.1023L15.5336 38.1545L20.451 37.8729C19.9737 37.3159 19.5479 36.7165 19.179 36.0822C19.0332 35.832 19.118 35.5111 19.3682 35.3652C19.618 35.2199 19.9394 35.3037 20.0852 35.555C20.5984 36.4364 21.2316 37.2437 21.9672 37.9557C22.1166 38.1005 22.1665 38.32 22.0944 38.5152C22.0217 38.7105 21.8406 38.8442 21.6327 38.8558L14.5542 39.2615C14.5441 39.2615 14.534 39.262 14.5244 39.262Z" fill="white"/>
<path id="Vector_7" d="M18.4116 27.709C18.237 27.709 18.0715 27.6217 17.9731 27.4724L14.086 21.5493C13.977 21.3838 13.9714 21.1709 14.0703 20.9994C14.1687 20.8278 14.3514 20.7279 14.5542 20.738L21.6327 21.1437C21.9218 21.1603 22.1428 21.4081 22.1262 21.6972C22.11 21.9863 21.8709 22.2073 21.5732 22.1906L15.5346 21.8445L18.2345 25.9582C18.4792 25.267 18.787 24.5989 19.1543 23.9611C19.2996 23.7099 19.6195 23.6241 19.8703 23.7689C20.121 23.9137 20.2073 24.2341 20.063 24.4849C19.5524 25.3709 19.1679 26.322 18.9207 27.3119C18.8707 27.5143 18.7052 27.6672 18.4999 27.702C18.4701 27.707 18.4409 27.709 18.4116 27.709Z" fill="white"/>
<path id="Vector_8" d="M20.9632 26.6004C20.891 26.6004 20.8173 26.5853 20.7477 26.5535C20.4838 26.4339 20.3668 26.1236 20.4863 25.8597C20.6125 25.5807 20.7527 25.3047 20.9036 25.0388C21.0464 24.787 21.3673 24.6992 21.6186 24.8415C21.8704 24.9843 21.9587 25.3047 21.8159 25.5565C21.6806 25.7946 21.555 26.0424 21.4415 26.2921C21.3537 26.4854 21.1625 26.6004 20.9632 26.6004Z" fill="white"/>
<path id="Vector_9" d="M21.567 35.5714C21.3924 35.5714 21.2213 35.4841 21.1224 35.3251C20.8318 34.8599 20.5775 34.3685 20.3666 33.8639C20.2551 33.5965 20.3818 33.2897 20.6487 33.1782C20.9156 33.0667 21.2229 33.1929 21.3344 33.4603C21.5226 33.9124 21.7506 34.3523 22.011 34.7686C22.1644 35.0143 22.0902 35.3378 21.845 35.4911C21.7582 35.5456 21.6623 35.5714 21.567 35.5714ZM20.3707 32.7034C20.1325 32.7034 19.9171 32.5405 19.8606 32.2988C19.7359 31.7665 19.6542 31.219 19.6184 30.6721C19.5992 30.383 19.8182 30.1332 20.1073 30.1145C20.3848 30.0923 20.6456 30.3138 20.6648 30.6029C20.6971 31.0934 20.7698 31.5833 20.8818 32.0596C20.9474 32.3417 20.7723 32.6237 20.4907 32.6898C20.4509 32.6989 20.4105 32.7034 20.3707 32.7034ZM20.1653 29.6024C20.1486 29.6024 20.132 29.6019 20.1148 29.5999C19.8262 29.5726 19.6153 29.3163 19.6426 29.0282C19.6951 28.4818 19.7924 27.9373 19.9332 27.4091C20.0074 27.129 20.294 26.963 20.5745 27.0372C20.8545 27.1114 21.0205 27.399 20.9464 27.6785C20.8207 28.1513 20.7334 28.6392 20.6865 29.1281C20.6608 29.3991 20.4322 29.6024 20.1653 29.6024Z" fill="white"/>
<path id="Vector_10" d="M23.1099 37.4551C22.9807 37.4551 22.851 37.4077 22.7496 37.3118C22.5281 37.1024 22.3127 36.8794 22.1098 36.6498C21.9181 36.4329 21.9388 36.1014 22.1557 35.9096C22.3732 35.7179 22.7047 35.7386 22.8959 35.9556C23.0781 36.1619 23.2713 36.3617 23.4701 36.5494C23.6805 36.7482 23.6901 37.0802 23.4908 37.2906C23.3879 37.4001 23.2491 37.4551 23.1099 37.4551Z" fill="white"/>
<path id="Vector_11" d="M21.3579 25.8217C21.2701 25.8217 21.1813 25.7995 21.0996 25.7531C20.8478 25.6103 20.7595 25.2899 20.9023 25.0381C22.689 21.8917 26.0438 19.9375 29.6585 19.9375C30.2942 19.9375 30.938 19.9996 31.5723 20.1217C31.8568 20.1767 32.0425 20.4511 31.9875 20.7357C31.933 21.0203 31.6576 21.204 31.3735 21.1515C30.8048 21.042 30.2276 20.9865 29.6585 20.9865C26.4212 20.9865 23.415 22.7378 21.8146 25.5563C21.7177 25.7263 21.5406 25.8217 21.3579 25.8217Z" fill="white"/>
<path id="Vector_12" d="M29.6589 40.0619C29.0378 40.0619 28.4071 40.0023 27.7845 39.8848C27.4999 39.8308 27.3127 39.5568 27.3667 39.2722C27.4202 38.9877 27.6962 38.801 27.9792 38.8544C28.5378 38.9599 29.1029 39.0134 29.6594 39.0134C34.6294 39.0134 38.6734 34.9698 38.6734 29.9999C38.6734 27.5018 37.6724 25.1773 35.8545 23.4557C35.6441 23.2564 35.635 22.9249 35.8343 22.7145C36.0331 22.5041 36.3651 22.4955 36.5755 22.6943C38.6048 24.6157 39.7219 27.2107 39.7219 29.9999C39.7214 35.5475 35.2071 40.0619 29.6589 40.0619Z" fill="white"/>
</g>
</g>
</svg>
