<svg width="67" height="70" viewBox="0 0 67 70" fill="none" xmlns="http://www.w3.org/2000/svg">
<g id="Group">
<path id="Vector" d="M12.2055 34.3174H4.83837C4.26514 34.3174 3.80078 33.8612 3.80078 33.2981V20.6404C3.80078 20.0773 4.26514 19.6211 4.83837 19.6211H12.2055C12.7787 19.6211 13.2431 20.0773 13.2431 20.6404V33.2981C13.2431 33.8612 12.7777 34.3174 12.2055 34.3174ZM5.87598 32.2788H11.1669V21.6598H5.87598V32.2788Z" fill="black"/>
<path id="Vector_2" d="M12.2055 50.6056H4.83837C4.26514 50.6056 3.80078 50.1494 3.80078 49.5862V36.9285C3.80078 36.3654 4.26514 35.9092 4.83837 35.9092H12.2055C12.7787 35.9092 13.2431 36.3654 13.2431 36.9285V49.5862C13.2431 50.1484 12.7777 50.6056 12.2055 50.6056ZM5.87598 48.5659H11.1669V37.9468H5.87598V48.5659Z" fill="black"/>
<path id="Vector_3" d="M23.4623 50.6056H16.0952C15.522 50.6056 15.0576 50.1494 15.0576 49.5862V36.9285C15.0576 36.3654 15.522 35.9092 16.0952 35.9092H23.4623C24.0355 35.9092 24.4999 36.3654 24.4999 36.9285V49.5862C24.4999 50.1484 24.0355 50.6056 23.4623 50.6056ZM17.1328 48.5659H22.4247V37.9468H17.1328V48.5659Z" fill="black"/>
<path id="Vector_4" d="M12.2055 66.8917H4.83837C4.26514 66.8917 3.80078 66.4355 3.80078 65.8723V53.2146C3.80078 52.6515 4.26514 52.1953 4.83837 52.1953H12.2055C12.7787 52.1953 13.2431 52.6515 13.2431 53.2146V65.8723C13.2431 66.4355 12.7777 66.8917 12.2055 66.8917ZM5.87598 64.853H11.1669V54.234H5.87598V64.853Z" fill="black"/>
<path id="Vector_5" d="M23.4623 66.8917H16.0952C15.522 66.8917 15.0576 66.4355 15.0576 65.8723V53.2146C15.0576 52.6515 15.522 52.1953 16.0952 52.1953H23.4623C24.0355 52.1953 24.4999 52.6515 24.4999 53.2146V65.8723C24.4999 66.4355 24.0355 66.8917 23.4623 66.8917ZM17.1328 64.853H22.4247V54.234H17.1328V64.853Z" fill="black"/>
<path id="Vector_6" d="M34.7192 66.8917H27.3521C26.7788 66.8917 26.3145 66.4355 26.3145 65.8723V53.2146C26.3145 52.6515 26.7788 52.1953 27.3521 52.1953H34.7192C35.2924 52.1953 35.7568 52.6515 35.7568 53.2146V65.8723C35.7568 66.4355 35.2924 66.8917 34.7192 66.8917ZM28.3897 64.853H33.6815V54.234H28.3897V64.853Z" fill="black"/>
<path id="Vector_7" d="M45.976 66.8917H38.6089C38.0357 66.8917 37.5713 66.4355 37.5713 65.8723V53.2146C37.5713 52.6515 38.0357 52.1953 38.6089 52.1953H45.976C46.5492 52.1953 47.0136 52.6515 47.0136 53.2146V65.8723C47.0136 66.4355 46.5482 66.8917 45.976 66.8917ZM39.6465 64.853H44.9384V54.234H39.6465V64.853Z" fill="black"/>
<path id="Vector_8" d="M46.5341 33.8484C40.1597 33.8484 34.9727 28.7537 34.9727 22.4906C34.9727 16.2285 40.1587 11.1328 46.5341 11.1328C52.9085 11.1328 58.0956 16.2275 58.0956 22.4906C58.0956 28.7537 52.9095 33.8484 46.5341 33.8484ZM46.5341 13.1725C41.3041 13.1725 37.0489 17.3528 37.0489 22.4906C37.0489 27.6284 41.3041 31.8097 46.5341 31.8097C51.7641 31.8097 56.0194 27.6294 56.0194 22.4906C56.0194 17.3518 51.7641 13.1725 46.5341 13.1725Z" fill="black"/>
<path id="Vector_9" d="M50.5212 9.81751C50.1417 9.81751 49.7762 9.61248 49.5934 9.25635L46.5355 3.28753L44.4444 7.36778C45.1374 7.27458 45.8365 7.22847 46.5355 7.22847C47.1088 7.22847 47.5732 7.68467 47.5732 8.2478C47.5732 8.81093 47.1088 9.26713 46.5355 9.26713C45.2882 9.26713 44.0429 9.43884 42.8345 9.7773C42.4371 9.88914 42.0126 9.75768 41.751 9.44668C41.4884 9.1347 41.4384 8.70008 41.6231 8.33807L45.6088 0.561161C45.7855 0.217788 46.1441 0 46.5355 0C46.927 0 47.2865 0.216807 47.4623 0.561161L51.448 8.33807C51.7056 8.84136 51.4989 9.45451 50.9876 9.70665C50.8368 9.78219 50.677 9.81751 50.5212 9.81751Z" fill="black"/>
<path id="Vector_10" d="M60.5991 20.0521C60.4034 20.0521 60.2056 19.9981 60.0299 19.8843C59.5505 19.5753 59.4167 18.9435 59.7323 18.4726L63.4632 12.8884L58.8175 13.1503C59.2509 13.6997 59.6474 14.2785 60.0009 14.8819C60.2875 15.3695 60.1168 15.9924 59.6214 16.274C59.1241 16.5556 58.4899 16.3888 58.2043 15.9012C57.5752 14.8289 56.7952 13.8488 55.8874 12.9865C55.5918 12.7049 55.493 12.2781 55.6358 11.8985C55.7796 11.5188 56.1381 11.2588 56.5496 11.2362L65.4027 10.7378C65.8051 10.7104 66.1646 10.9125 66.3604 11.2451C66.5561 11.5786 66.5451 11.9926 66.3294 12.3144L61.4669 19.592C61.2682 19.8902 60.9367 20.0521 60.5991 20.0521Z" fill="black"/>
<path id="Vector_11" d="M65.4617 34.2459C65.4418 34.2459 65.4228 34.2449 65.4028 34.2439L56.5497 33.7455C55.9775 33.7132 55.5401 33.2315 55.573 32.6693C55.606 32.1081 56.0884 31.6775 56.6686 31.7108L63.4634 32.0934L60.9129 28.2761C60.5743 29.0874 60.1639 29.8713 59.6835 30.6189C59.3779 31.0947 58.7368 31.2389 58.2524 30.9377C57.7671 30.6375 57.6223 30.0087 57.9279 29.5319C58.6888 28.3458 59.2491 27.0576 59.5936 25.7028C59.6935 25.3094 60.0201 25.0121 60.4265 24.9444C60.835 24.8757 61.2414 25.0513 61.4671 25.3898L66.3296 32.6674C66.5453 32.9891 66.5563 33.4022 66.3605 33.7367C66.1748 34.0526 65.8313 34.2459 65.4617 34.2459Z" fill="black"/>
<path id="Vector_12" d="M46.534 44.9803C46.1426 44.9803 45.7831 44.7634 45.6073 44.4191L41.6216 36.6422C41.364 36.1389 41.5707 35.5257 42.082 35.2726C42.5954 35.0205 43.2185 35.2226 43.4762 35.7249L46.534 41.6937L48.6252 37.6135C47.9322 37.7067 47.2341 37.7528 46.534 37.7528C45.9608 37.7528 45.4964 37.2966 45.4964 36.7334C45.4964 36.1703 45.9608 35.7141 46.534 35.7141C47.7814 35.7141 49.0267 35.5424 50.2351 35.204C50.6305 35.0911 51.057 35.2226 51.3186 35.5346C51.5813 35.8465 51.6312 36.2812 51.4464 36.6432L47.4608 44.4201C47.285 44.7635 46.9265 44.9803 46.534 44.9803Z" fill="black"/>
<path id="Vector_13" d="M27.6073 34.2461C27.2378 34.2461 26.8943 34.0528 26.7085 33.736C26.5128 33.4024 26.5238 32.9884 26.7395 32.6666L31.602 25.3891C31.9166 24.9181 32.5607 24.7867 33.039 25.0967C33.5184 25.4057 33.6522 26.0375 33.3366 26.5084L29.6057 32.0927L34.2514 31.8307C33.83 31.296 33.4445 30.7359 33.098 30.1512C32.8104 29.6645 32.9781 29.0406 33.4735 28.757C33.9678 28.4755 34.6029 28.6383 34.8926 29.1259C35.5157 30.1786 36.2867 31.144 37.1815 31.9946C37.4771 32.2761 37.5759 32.7029 37.4331 33.0826C37.2893 33.4622 36.9308 33.7222 36.5194 33.7448L27.6663 34.2432C27.6463 34.2451 27.6273 34.2461 27.6073 34.2461Z" fill="black"/>
<path id="Vector_14" d="M32.4698 20.0523C32.1243 20.0523 31.7967 19.8825 31.602 19.5921L26.7395 12.3146C26.5238 11.9928 26.5128 11.5788 26.7085 11.2452C26.9043 10.9117 27.2608 10.7096 27.6663 10.738L36.5194 11.2364C37.0916 11.2678 37.529 11.7505 37.4951 12.3116C37.4631 12.8738 36.9887 13.3172 36.4005 13.2711L29.6057 12.8885L32.1562 16.7058C32.4169 16.0809 32.7205 15.4717 33.065 14.885C33.3516 14.3964 33.9878 14.2296 34.4821 14.5102C34.9784 14.7918 35.1492 15.4157 34.8636 15.9023C34.2424 16.9609 33.775 18.096 33.4755 19.2782C33.3756 19.6706 33.049 19.9689 32.6426 20.0366C32.5856 20.0474 32.5267 20.0523 32.4698 20.0523Z" fill="black"/>
<path id="Vector_15" d="M46.4126 69.9998H4.40207C1.97433 69.9998 0 68.0603 0 65.6753V20.3236C0 17.9396 1.97433 16 4.40207 16H24.4351C25.0084 16 25.4727 16.4562 25.4727 17.0193C25.4727 17.5825 25.0074 18.0387 24.4351 18.0387H4.40207C3.1188 18.0387 2.0752 19.0639 2.0752 20.3236V65.6753C2.0752 66.936 3.1188 67.9612 4.40207 67.9612H46.4116C47.6939 67.9612 48.7374 66.936 48.7374 65.6753V48.4213C48.7374 47.8581 49.2018 47.4019 49.7751 47.4019C50.3483 47.4019 50.8127 47.8581 50.8127 48.4213V65.6753C50.8137 68.0603 48.8393 69.9998 46.4126 69.9998Z" fill="black"/>
<path id="Vector_16" d="M22.0272 34.3174H16.0962C15.523 34.3174 15.0586 33.8612 15.0586 33.2981V20.6404C15.0586 20.0773 15.523 19.6211 16.0962 19.6211H23.4633C24.0365 19.6211 24.5009 20.0773 24.5009 20.6404V29.419C24.5009 29.9821 24.0365 30.4383 23.4633 30.4383C22.8901 30.4383 22.4257 29.9821 22.4257 29.419V21.6598H17.1338V32.2788H22.0272C22.6005 32.2788 23.0648 32.735 23.0648 33.2981C23.0648 33.8612 22.5995 34.3174 22.0272 34.3174Z" fill="black"/>
<path id="Vector_17" d="M34.7192 50.6052H27.3521C26.7788 50.6052 26.3145 50.149 26.3145 49.5859V38.7049C26.3145 38.1417 26.7788 37.6855 27.3521 37.6855C27.9253 37.6855 28.3897 38.1417 28.3897 38.7049V48.5665H33.6815V38.7971C33.6815 38.234 34.1459 37.7778 34.7192 37.7778C35.2924 37.7778 35.7568 38.234 35.7568 38.7971V49.5859C35.7568 50.148 35.2924 50.6052 34.7192 50.6052Z" fill="black"/>
<path id="Vector_18" d="M45.976 50.6057H38.6089C38.0357 50.6057 37.5713 50.1495 37.5713 49.5864V40.9363C37.5713 40.3732 38.0357 39.917 38.6089 39.917C39.1821 39.917 39.6465 40.3732 39.6465 40.9363V48.5671H45.976C46.5492 48.5671 47.0136 49.0233 47.0136 49.5864C47.0136 50.1485 46.5482 50.6057 45.976 50.6057Z" fill="black"/>
</g>
</svg>
