<svg width="66" height="70" viewBox="0 0 66 70" fill="none" xmlns="http://www.w3.org/2000/svg">
<g id="Group">
<path id="Vector" d="M32.706 31.7081C32.5521 31.7081 32.3971 31.6757 32.2544 31.61C26.853 29.1598 23.6869 25.6988 22.8419 21.3234C20.947 11.5068 31.491 0.755083 31.9405 0.301739C32.3401 -0.10058 33.0719 -0.10058 33.4715 0.301739C33.921 0.755083 44.465 11.5068 42.5701 21.3234C41.725 25.6988 38.559 29.1598 33.1576 31.61C33.0149 31.6747 32.8599 31.7081 32.706 31.7081ZM32.706 2.53803C30.3575 5.17077 23.5035 13.6097 24.9254 20.9544C25.6176 24.5282 28.2332 27.42 32.706 29.5552C37.1788 27.42 39.7955 24.5282 40.4866 20.9544C41.9075 13.6097 35.0545 5.17175 32.706 2.53803Z" fill="#666666"/>
<path id="Vector_2" d="M32.7061 58.1947C21.6168 58.1947 12.5947 49.5105 12.5947 38.8344C12.5947 33.1803 15.1573 27.8226 19.6251 24.134C20.0695 23.768 20.7371 23.8171 21.1184 24.2439C21.4986 24.6718 21.4476 25.3155 21.0042 25.6815C17.0064 28.9815 14.7129 33.7759 14.7129 38.8334C14.7129 48.384 22.784 56.1537 32.7051 56.1537C42.6263 56.1537 50.6974 48.384 50.6974 38.8334C50.6974 33.775 48.4039 28.9815 44.406 25.6825C43.9616 25.3165 43.9106 24.6718 44.2919 24.2449C44.6721 23.8171 45.3408 23.769 45.7852 24.135C50.2529 27.8226 52.8155 33.1803 52.8155 38.8344C52.8166 49.5105 43.7955 58.1947 32.7061 58.1947Z" fill="#666666"/>
<path id="Vector_3" d="M32.7059 51.4686C25.4697 51.4686 19.582 45.8008 19.582 38.8348C19.582 35.3876 21.005 32.1642 23.587 29.7591C24.008 29.3685 24.6777 29.3783 25.0844 29.7826C25.4911 30.1879 25.4799 30.8326 25.0599 31.2241C22.8938 33.2416 21.7002 35.944 21.7002 38.8338C21.7002 44.6753 26.6368 49.4285 32.7059 49.4285C38.774 49.4285 43.7106 44.6753 43.7106 38.8338C43.7106 35.944 42.518 33.2416 40.3509 31.2241C39.931 30.8326 39.9197 30.1869 40.3265 29.7826C40.7332 29.3783 41.4039 29.3685 41.8239 29.7591C44.4068 32.1651 45.8288 35.3876 45.8288 38.8348C45.8288 45.8008 39.9422 51.4686 32.7059 51.4686Z" fill="#666666"/>
<path id="Vector_4" d="M32.7056 39.8542C32.1205 39.8542 31.6465 39.398 31.6465 38.8347V13.8232C31.6465 13.26 32.1205 12.8037 32.7056 12.8037C33.2907 12.8037 33.7647 13.26 33.7647 13.8232V38.8347C33.7647 39.398 33.2907 39.8542 32.7056 39.8542Z" fill="#666666"/>
<path id="Vector_5" d="M39.7577 69.9996H25.6542C25.0691 69.9996 24.5951 69.5433 24.5951 68.9801V63.2583C23.1834 62.8246 21.8113 62.2771 20.5005 61.6265L16.2988 65.6712C15.9013 66.0539 15.1979 66.0539 14.8014 65.6712L4.82928 56.0706C4.63051 55.8792 4.5194 55.6202 4.5194 55.3493C4.5194 55.0795 4.63153 54.8194 4.82928 54.6281L9.03097 50.5833C8.35413 49.3204 7.78738 47.9997 7.33684 46.6406H1.3921C0.806999 46.6406 0.333008 46.1843 0.333008 45.6211V32.0443C0.333008 31.481 0.806999 31.0248 1.3921 31.0248H7.33684C7.78738 29.6657 8.35515 28.3449 9.03199 27.083L4.82928 23.0382C4.41543 22.6398 4.41543 21.9952 4.82928 21.5968L14.8014 11.997C15.2153 11.5986 15.885 11.5986 16.2988 11.997L20.0561 15.614C20.4699 16.0124 20.4699 16.6571 20.0561 17.0555C19.6422 17.4539 18.9725 17.4539 18.5587 17.0555L15.5506 14.1597L7.07589 22.318L11.0849 26.1773C11.4193 26.4992 11.4916 26.9947 11.2623 27.3931C10.3663 28.9454 9.65276 30.6048 9.14105 32.3259C9.0116 32.7635 8.59571 33.0648 8.12274 33.0648H2.4522V44.6025H8.12274C8.59571 44.6025 9.01058 44.9038 9.14105 45.3414C9.65276 47.0616 10.3663 48.7219 11.2623 50.2752C11.4916 50.6726 11.4193 51.1691 11.0849 51.491L7.07589 55.3493L15.5506 63.5086L19.5596 59.6492C19.894 59.3274 20.4088 59.2567 20.8226 59.4785C22.4362 60.341 24.1599 61.0279 25.9478 61.5205C26.4024 61.6461 26.7154 62.0465 26.7154 62.5008V67.9596H38.7007V62.5008C38.7007 62.0465 39.0136 61.6461 39.4682 61.5205C41.2551 61.0279 42.9798 60.341 44.5934 59.4785C45.0073 59.2567 45.522 59.3274 45.8564 59.6492L49.8654 63.5086L58.3401 55.3493L54.3311 51.491C53.9968 51.1691 53.9244 50.6736 54.1537 50.2752C55.0497 48.7209 55.7633 47.0616 56.275 45.3414C56.4044 44.9038 56.8203 44.6025 57.2933 44.6025H62.9638V33.0648H57.2933C56.8203 33.0648 56.4054 32.7635 56.275 32.3259C55.7633 30.6057 55.0487 28.9454 54.1537 27.3931C53.9234 26.9947 53.9957 26.4992 54.3301 26.1773L58.3391 22.318L49.8644 14.1597L46.8563 17.0555C46.4425 17.4539 45.7728 17.4539 45.3589 17.0555C44.9451 16.6571 44.9451 16.0124 45.3589 15.614L49.1162 11.997C49.53 11.5986 50.1997 11.5986 50.6136 11.997L60.5857 21.5968C60.9996 21.9952 60.9996 22.6398 60.5857 23.0382L56.384 27.083C57.0609 28.3449 57.6286 29.6657 58.0792 31.0248H64.0239C64.609 31.0248 65.083 31.481 65.083 32.0443V45.6211C65.083 46.1843 64.609 46.6406 64.0239 46.6406H58.0792C57.6286 47.9997 57.0609 49.3204 56.384 50.5833L60.5857 54.6281C60.7845 54.8194 60.8966 55.0785 60.8966 55.3493C60.8966 55.6192 60.7845 55.8792 60.5857 56.0706L50.6136 65.6712C50.2161 66.0539 49.5127 66.0539 49.1162 65.6712L44.9135 61.6265C43.6026 62.2771 42.2306 62.8236 40.8188 63.2583V68.9801C40.8168 69.5433 40.3428 69.9996 39.7577 69.9996Z" fill="#666666"/>
</g>
</svg>
