<svg width="62" height="70" viewBox="0 0 62 70" fill="none" xmlns="http://www.w3.org/2000/svg">
<g id="Group">
<path id="Vector" d="M57.0158 61.0002H5.56921C4.22064 61.0002 2.96425 60.5263 2.03114 59.6669C1.09803 58.8075 0.614811 57.6782 0.671464 56.4882L4.10509 4.1313C4.21395 1.82185 6.36568 0 9.00172 0H53.5833C56.2193 0 58.371 1.82186 58.481 4.14798L61.9123 56.4725C61.9701 57.6792 61.4869 58.8075 60.5538 59.6679C59.6207 60.5273 58.3643 61.0002 57.0158 61.0002ZM9.00172 2.03867C7.60649 2.03867 6.46899 3.00307 6.41122 4.23333L2.97648 56.5902C2.9476 57.2034 3.20308 57.8009 3.6974 58.2561C4.19062 58.7103 4.85605 58.9615 5.56921 58.9615H57.0158C57.7289 58.9615 58.3943 58.7113 58.8875 58.2561C59.3819 57.8009 59.6362 57.2034 59.6063 56.5736L56.1749 4.24903C56.116 3.00208 54.9774 2.03867 53.5821 2.03867H9.00172Z" fill="#666666"/>
<path id="Vector_2" d="M16.9997 13.3838C16.3198 13.3622 15.8222 12.8893 15.8455 12.3272L16.3187 0.98303C16.3421 0.433629 16.8542 0.000976562 17.4718 0.000976562C18.1517 0.0225602 18.6493 0.495441 18.626 1.0576L18.1527 12.4017C18.1294 12.9511 17.6173 13.3838 16.9997 13.3838Z" fill="#666666"/>
<path id="Vector_3" d="M14.1942 15.7965H4.56433C3.9267 15.7965 3.41016 15.3403 3.41016 14.7771C3.41016 14.214 3.9267 13.7578 4.56433 13.7578H14.1942C14.8318 13.7578 15.3484 14.214 15.3484 14.7771C15.3484 15.3403 14.8307 15.7965 14.1942 15.7965Z" fill="#666666"/>
<path id="Vector_4" d="M31.2928 13.2975C30.6552 13.2975 30.1387 12.8413 30.1387 12.2781V1.01934C30.1387 0.4562 30.6552 0 31.2928 0C31.9305 0 32.447 0.4562 32.447 1.01934V12.2771C32.447 12.8413 31.9305 13.2975 31.2928 13.2975Z" fill="#666666"/>
<path id="Vector_5" d="M28.5593 15.7965H19.6581C19.0205 15.7965 18.5039 15.3403 18.5039 14.7771C18.5039 14.214 19.0205 13.7578 19.6581 13.7578H28.5593C29.1969 13.7578 29.7134 14.214 29.7134 14.7771C29.7146 15.3403 29.1969 15.7965 28.5593 15.7965Z" fill="#666666"/>
<path id="Vector_6" d="M45.586 13.3833C44.9684 13.3833 44.4563 12.9516 44.433 12.4012L43.9598 1.05708C43.9364 0.493947 44.4341 0.0210669 45.0706 0.000464334C45.6827 -0.0162139 46.2425 0.418401 46.2659 0.981537L46.738 12.3257C46.7613 12.8888 46.2636 13.3617 45.6271 13.3823C45.6138 13.3833 45.5994 13.3833 45.586 13.3833Z" fill="#666666"/>
<path id="Vector_7" d="M42.9265 15.7965H34.0253C33.3876 15.7965 32.8711 15.3403 32.8711 14.7771C32.8711 14.214 33.3876 13.7578 34.0253 13.7578H42.9265C43.5641 13.7578 44.0806 14.214 44.0806 14.7771C44.0806 15.3403 43.5641 15.7965 42.9265 15.7965Z" fill="#666666"/>
<path id="Vector_8" d="M58.0222 15.7965H48.3934C47.7558 15.7965 47.2393 15.3403 47.2393 14.7771C47.2393 14.214 47.7558 13.7578 48.3934 13.7578H58.0222C58.6599 13.7578 59.1764 14.214 59.1764 14.7771C59.1764 15.3403 58.6599 15.7965 58.0222 15.7965Z" fill="#666666"/>
<path id="Vector_9" d="M15.0134 61.001C14.3335 60.9794 13.8359 60.5065 13.8592 59.9444L14.3324 48.6002C14.3557 48.0381 14.9134 47.6162 15.5277 47.6192C16.1653 47.6398 16.6619 48.1126 16.6385 48.6758L16.1653 60.0199C16.1431 60.5693 15.631 61.001 15.0134 61.001Z" fill="#666666"/>
<path id="Vector_10" d="M12.8539 47.2428H2.50085C1.86322 47.2428 1.34668 46.7866 1.34668 46.2234C1.34668 45.6603 1.86322 45.2041 2.50085 45.2041H12.8539C13.4916 45.2041 14.0081 45.6603 14.0081 46.2234C14.0081 46.7866 13.4916 47.2428 12.8539 47.2428Z" fill="#666666"/>
<path id="Vector_11" d="M31.2928 61.001C30.6552 61.001 30.1387 60.5448 30.1387 59.9816V48.6375C30.1387 48.0744 30.6552 47.6182 31.2928 47.6182C31.9305 47.6182 32.447 48.0744 32.447 48.6375V59.9816C32.447 60.5448 31.9305 61.001 31.2928 61.001Z" fill="#666666"/>
<path id="Vector_12" d="M28.559 47.2428H18.3192C17.6816 47.2428 17.165 46.7866 17.165 46.2234C17.165 45.6603 17.6816 45.2041 18.3192 45.2041H28.559C29.1966 45.2041 29.7131 45.6603 29.7131 46.2234C29.7142 46.7866 29.1966 47.2428 28.559 47.2428Z" fill="#666666"/>
<path id="Vector_13" d="M47.5724 61.0004C46.9547 61.0004 46.4426 60.5687 46.4193 60.0183L45.9461 48.6742C45.9228 48.112 46.4204 47.6391 47.0569 47.6176C47.7135 47.6028 48.2289 48.0355 48.2533 48.5986L48.7265 59.9428C48.7499 60.5049 48.2522 60.9778 47.6157 60.9994C47.6012 61.0004 47.5868 61.0004 47.5724 61.0004Z" fill="#666666"/>
<path id="Vector_14" d="M44.267 47.2428H34.0272C33.3896 47.2428 32.873 46.7866 32.873 46.2234C32.873 45.6603 33.3896 45.2041 34.0272 45.2041H44.267C44.9046 45.2041 45.4212 45.6603 45.4212 46.2234C45.4212 46.7866 44.9035 47.2428 44.267 47.2428Z" fill="#666666"/>
<path id="Vector_15" d="M60.0852 47.2428H49.7333C49.0956 47.2428 48.5791 46.7866 48.5791 46.2234C48.5791 45.6603 49.0956 45.2041 49.7333 45.2041H60.0852C60.7229 45.2041 61.2394 45.6603 61.2394 46.2234C61.2394 46.7866 60.7218 47.2428 60.0852 47.2428Z" fill="#666666"/>
<path id="Vector_16" d="M59.0527 31.5201H49.0751C48.4374 31.5201 47.9209 31.0639 47.9209 30.5008C47.9209 29.9376 48.4374 29.4814 49.0751 29.4814H59.0527C59.6903 29.4814 60.2068 29.9376 60.2068 30.5008C60.2068 31.0639 59.6903 31.5201 59.0527 31.5201Z" fill="#666666"/>
<path id="Vector_17" d="M46.242 29.1068C45.6243 29.1068 45.1122 28.6751 45.0889 28.1247L44.6346 17.2289C44.6112 16.6667 45.1089 16.1939 45.7454 16.1723C46.4164 16.1566 46.9174 16.5902 46.9418 17.1534L47.3961 28.0492C47.4195 28.6113 46.9218 29.0842 46.2853 29.1058C46.2708 29.1058 46.2564 29.1068 46.242 29.1068Z" fill="#666666"/>
<path id="Vector_18" d="M46.8982 44.8298C46.2806 44.8298 45.7685 44.3981 45.7452 43.8477L45.2908 32.9519C45.2675 32.3897 45.7652 31.9169 46.4017 31.8953C47.0493 31.8737 47.5736 32.3142 47.598 32.8764L48.0524 43.7731C48.0757 44.3353 47.578 44.8082 46.9415 44.8298C46.926 44.8298 46.9115 44.8298 46.8982 44.8298Z" fill="#666666"/>
<path id="Vector_19" d="M31.2928 44.829C30.6552 44.829 30.1387 44.3728 30.1387 43.8097V32.9139C30.1387 32.3507 30.6552 31.8945 31.2928 31.8945C31.9305 31.8945 32.447 32.3507 32.447 32.9139V43.8097C32.447 44.3728 31.9305 44.829 31.2928 44.829Z" fill="#666666"/>
<path id="Vector_20" d="M31.2928 29.1063C30.6552 29.1063 30.1387 28.6501 30.1387 28.087V17.1922C30.1387 16.6291 30.6552 16.1729 31.2928 16.1729C31.9305 16.1729 32.447 16.6291 32.447 17.1922V28.087C32.447 28.6501 31.9305 29.1063 31.2928 29.1063Z" fill="#666666"/>
<path id="Vector_21" d="M43.6107 31.5201H34.0253C33.3876 31.5201 32.8711 31.0639 32.8711 30.5008C32.8711 29.9376 33.3876 29.4814 34.0253 29.4814H43.6107C44.2484 29.4814 44.7649 29.9376 44.7649 30.5008C44.7649 31.0639 44.2473 31.5201 43.6107 31.5201Z" fill="#666666"/>
<path id="Vector_22" d="M16.3444 29.1063C15.6646 29.0848 15.1669 28.6119 15.1902 28.0497L15.6446 17.1549C15.669 16.5928 16.1778 16.1699 16.8409 16.1739C17.4775 16.1945 17.9751 16.6673 17.9518 17.2305L17.4975 28.1253C17.473 28.6747 16.962 29.1063 16.3444 29.1063Z" fill="#666666"/>
<path id="Vector_23" d="M15.6882 44.8302C15.0083 44.8086 14.5107 44.3357 14.534 43.7736L14.9883 32.8778C15.0128 32.3156 15.5116 31.8859 16.1847 31.8967C16.8212 31.9173 17.3189 32.3902 17.2956 32.9533L16.8412 43.8491C16.8179 44.3975 16.3058 44.8302 15.6882 44.8302Z" fill="#666666"/>
<path id="Vector_24" d="M28.5588 31.5201H18.9745C18.3369 31.5201 17.8203 31.0639 17.8203 30.5008C17.8203 29.9376 18.3369 29.4814 18.9745 29.4814H28.5588C29.1965 29.4814 29.713 29.9376 29.713 30.5008C29.713 31.0639 29.1965 31.5201 28.5588 31.5201Z" fill="#666666"/>
<path id="Vector_25" d="M13.5107 31.5201H3.53308C2.89545 31.5201 2.37891 31.0639 2.37891 30.5008C2.37891 29.9376 2.89545 29.4814 3.53308 29.4814H13.5107C14.1483 29.4814 14.6648 29.9376 14.6648 30.5008C14.6648 31.0639 14.1472 31.5201 13.5107 31.5201Z" fill="#666666"/>
<path id="Vector_26" d="M41.7057 66.3798H20.8796C20.4297 66.3798 20.0198 66.1483 19.8309 65.7872L17.0194 60.408C16.7528 59.8969 17.0049 59.2915 17.5837 59.0551C18.1635 58.8167 18.8489 59.0423 19.1155 59.5535L21.6172 64.3401H40.9659L43.4675 59.5535C43.7352 59.0423 44.4172 58.8167 44.9993 59.0551C45.5781 59.2906 45.8303 59.8969 45.5637 60.408L42.7521 65.7872C42.5655 66.1483 42.1556 66.3798 41.7057 66.3798Z" fill="#666666"/>
<path id="Vector_27" d="M57.7059 69.9996H4.88073C4.24311 69.9996 3.72656 69.5434 3.72656 68.9803V65.3601C3.72656 64.797 4.24311 64.3408 4.88073 64.3408H57.7059C58.3435 64.3408 58.86 64.797 58.86 65.3601V68.9803C58.86 69.5434 58.3424 69.9996 57.7059 69.9996ZM6.0349 67.961H56.5517V66.3795H6.0349V67.961Z" fill="#666666"/>
</g>
</svg>
