<svg width="644" height="413" viewBox="0 0 644 413" fill="none" xmlns="http://www.w3.org/2000/svg">
<path d="M631.964 354.297L631.955 354.47C631.697 359.5 631.019 364.253 630.027 368.723C624.781 392.368 611.098 407.474 607.685 411.135C607.682 411.137 607.68 411.139 607.678 411.142C607.216 411.638 606.932 411.922 606.896 411.995C592.069 411.995 496.212 412.012 386.976 411.981C357.532 411.974 327.116 411.962 297.052 411.943C283.399 411.936 269.819 411.929 256.436 411.92C246.691 411.913 237.05 411.903 227.562 411.896C191.546 411.865 157.723 411.825 128.714 411.773C113.186 411.744 99.0377 411.714 86.6684 411.676C53.7332 411.583 33.4373 411.465 33.3757 411.311L33.3402 411.205C33.3402 411.205 33.3094 411.174 33.3071 411.141C33.3047 411.139 33.3047 411.136 33.3047 411.134C33.3047 411.099 33.2668 411.061 33.2668 411.061C33.1792 410.857 14.2048 384.643 8.56363 348.678C7.25636 340.338 6.6643 331.475 7.19242 322.29V322.146C9.16753 288.273 26.3373 250.096 78.8105 217.694C128.951 186.691 63.1306 140.519 103 106C148.828 66.3868 219.703 76.9787 270.668 58.9999C279.648 55.8082 288.7 50.712 297.751 42.8902C302.85 38.4777 308.418 34.6023 314.379 31.2994C315.314 30.7623 316.212 30.2584 317.145 29.7923C320.738 27.9279 324.437 26.241 328.28 24.7339C330.829 23.7284 333.45 22.7962 336.11 21.935C340.347 20.5367 344.692 19.3514 349.112 18.3837C355.397 16.9476 361.898 15.9066 368.505 15.1897C371.38 14.8655 374.289 14.6147 377.234 14.4349C431.171 11.0374 469.5 106 517.531 114.953C519.435 116.448 521.256 117.972 522.994 119.522C523.714 120.165 524.709 121.1 525.883 122.309C533.895 130.556 550.21 151.547 543.474 179.931C542.899 182.352 542.158 184.829 541.23 187.353C539.899 190.969 538.184 194.685 536.031 198.497C532.692 204.417 533.194 210.23 536.211 216.116L536.245 216.152H536.247C536.413 216.469 536.586 216.786 536.766 217.103C537.395 218.212 538.116 219.324 538.916 220.439C539.371 221.078 539.854 221.714 540.363 222.35C540.488 222.509 540.616 222.668 540.746 222.828C541.007 223.148 541.272 223.465 541.544 223.784C541.544 223.784 541.542 223.784 541.544 223.787C541.762 224.042 541.983 224.295 542.208 224.551C542.43 224.806 542.658 225.062 542.892 225.32C543.124 225.575 543.359 225.828 543.598 226.084C543.835 226.339 544.076 226.595 544.322 226.853C544.569 227.108 544.818 227.364 545.068 227.619C545.32 227.875 545.576 228.13 545.833 228.386H545.836C550.17 232.685 551.366 238.105 552.488 244.439C552.927 246.907 553.353 249.516 553.952 252.249C553.978 252.37 554.006 252.493 554.032 252.616C554.546 254.918 555.188 257.308 556.064 259.778C556.104 259.898 556.149 260.021 556.195 260.145C556.971 262.29 557.928 264.498 559.136 266.762C559.247 266.973 559.361 267.183 559.479 267.394V267.396C559.569 267.564 559.662 267.73 559.759 267.898C559.828 268.021 559.896 268.142 559.967 268.265C560.086 268.473 560.209 268.681 560.334 268.889L560.337 268.894C560.387 268.979 560.439 269.069 560.496 269.157C561.358 270.593 562.331 272.05 563.43 273.527C563.908 274.175 564.413 274.828 564.943 275.483C567.776 278.988 571.328 282.6 575.818 286.301C581.734 291.179 589.282 296.214 598.958 301.372C600.498 302.193 601.981 303.025 603.408 303.868C616.86 311.805 625.289 320.626 628.303 330.579C628.73 331.984 629.449 334.732 630.144 338.032C631.206 343.09 632.204 349.454 631.964 354.297Z" fill="#EBF3FA"/>
<path d="M630.986 353.98C630.993 354.04 630.995 354.1 631 354.159C630.742 359.236 630.064 364.034 629.07 368.545L602.416 372.755L596.914 373.625L593.784 374.119L572.098 377.546L570.158 377.852L565.797 378.542L564.664 378.721H564.657C564.657 378.721 563.722 378.831 562.1 378.986C561.965 379 561.823 379.012 561.678 379.026C560.599 379.127 559.262 379.244 557.728 379.361C557.151 379.406 556.547 379.449 555.918 379.492C555.8 379.499 555.681 379.509 555.56 379.516C554.68 379.576 553.758 379.631 552.795 379.686C550.813 379.793 548.674 379.886 546.447 379.941C545.582 379.963 544.702 379.979 543.815 379.991C543.352 379.996 542.885 379.998 542.418 379.998C541.856 380.001 541.292 380.001 540.725 379.996C539.888 379.991 539.046 379.977 538.206 379.955C537.59 379.941 536.971 379.922 536.357 379.901C535.498 379.867 534.642 379.824 533.791 379.774C533.661 379.767 533.53 379.757 533.4 379.748C533.004 379.724 532.608 379.698 532.214 379.666C530.26 379.519 528.353 379.315 526.539 379.046C526.233 379 525.932 378.952 525.633 378.902C518.811 377.78 513.483 375.638 512.257 371.803C511.142 368.29 513.551 363.291 521.5 356.34C522.823 355.184 524.203 354.076 525.633 353.018C534.858 346.188 546.214 341.347 558.114 337.93C558.607 337.787 559.101 337.648 559.596 337.512C559.672 337.49 559.748 337.469 559.824 337.447C559.959 337.412 560.094 337.373 560.229 337.337C560.497 337.263 560.765 337.192 561.031 337.123C561.5 336.996 561.97 336.872 562.442 336.752C564.818 336.141 567.208 335.584 569.599 335.078C570.201 334.949 570.803 334.825 571.406 334.704C571.688 334.646 571.97 334.589 572.25 334.534C572.444 334.493 572.639 334.455 572.833 334.419C573.13 334.362 573.426 334.305 573.722 334.25C583.682 332.356 593.545 331.267 602.416 330.668C612.407 329.989 621.143 329.934 627.344 330.044C628.06 331.788 628.672 334.446 629.186 337.567C629.999 342.47 630.582 348.521 630.986 353.98Z" fill="#7ED260"/>
<path d="M333 131.221C333 131.221 340.7 115.21 359.113 116.989C359.113 116.989 385.846 90.3035 414.352 113.431C414.352 113.431 444.655 107.701 467.096 118.393C482.058 125.522 487 133 487 133L333 131.221Z" fill="white"/>
<path d="M379.776 34.617C368.995 34.232 355.491 28.2586 357.721 17.7036C358.386 14.5596 360.938 12.3926 367.113 12.9893C367.113 12.9893 393.846 -13.6965 422.352 9.43124C422.352 9.43124 452.655 3.70083 475.096 14.3929C490.058 21.5217 495 29 495 29L418.5 36L379.776 34.617Z" fill="white"/>
<path d="M306 271.975C306 271.975 316.3 253.756 340.93 255.781C340.93 255.781 376.689 225.414 414.822 251.732C414.822 251.732 455.356 245.211 485.375 257.378C505.389 265.49 512 274 512 274L306 271.975Z" fill="white"/>
<path d="M477.048 192.655C477.048 192.655 469.177 179.199 450.381 182.53C431.586 185.862 436.588 207.527 426.186 217.711C415.785 227.895 406.715 236.969 411.181 251.356C415.645 265.743 391.931 268.818 392 290.543C392.069 312.269 397.136 325.074 426.291 326.765C455.445 328.456 502.079 320.77 508.394 312.007C514.709 303.244 513.647 284.005 497.791 259.456C481.936 234.907 496.422 232.704 485.826 218.488C475.229 204.272 482.689 198.51 477.048 192.655Z" fill="#7ED260"/>
<path d="M125 169.712C125 169.712 131.8 158.118 148.061 159.406C148.061 159.406 171.669 140.082 196.844 156.83C196.844 156.83 223.604 152.68 243.422 160.422C256.636 165.585 261 171 261 171L125 169.712Z" fill="white"/>
<path d="M341 372H336L337.076 217H339.611L341 372Z" fill="#739AF0"/>
<path d="M339 218.244L298.804 252.633L283.182 266L282 264.807L295.832 249.48L318.49 224.374L336.397 215L339 218.244Z" fill="#7FAAF7"/>
<path d="M299 252.054L283.196 265L282 263.845L295.993 249L299 252.054Z" fill="#F99746"/>
<path d="M342 215.609L338.046 217L318.182 166.854L311 148.722L312.529 148L322.166 165.356L338.99 195.654L342 215.609Z" fill="#7FAAF7"/>
<path d="M322 165.491L318.075 167L311 148.728L312.507 148L322 165.491Z" fill="#F99746"/>
<path d="M412 218.179L386.041 220.023L358.2 222L339 216.213L339.38 212L384.853 214.799L411.979 216.468L412 218.179Z" fill="#7FAAF7"/>
<path d="M412 218.195L385.258 220L385 215L411.98 216.578L412 218.195Z" fill="#F99746"/>
<path d="M338.709 212.006C336.78 211.891 335.122 213.361 335.006 215.291C334.891 217.22 336.361 218.878 338.291 218.994C340.22 219.109 341.878 217.639 341.994 215.709C342.109 213.78 340.639 212.122 338.709 212.006Z" fill="#2B478B"/>
<path d="M154.752 411H290.561L347.177 410.963H449.562C449.562 410.963 449.622 410.86 449.737 410.655C449.819 410.51 449.93 410.313 450.074 410.062L450.13 409.989C450.13 409.989 450.13 409.989 450.13 409.952C450.13 409.952 450.185 409.913 450.185 409.876C450.411 409.577 450.58 409.238 450.806 408.828C450.921 408.64 451.032 408.414 451.203 408.19C451.203 408.154 451.203 408.154 451.203 408.115C451.259 408.078 451.259 408.078 451.259 408.078C452.034 406.741 452.996 404.999 454.107 402.895C454.208 402.705 454.308 402.512 454.411 402.317C454.964 400.728 455.573 398.948 456.221 396.987C457.761 392.229 459.528 386.421 461.255 379.865C461.932 377.279 462.608 374.582 463.248 371.771C463.624 370.148 464.002 368.459 464.365 366.752C464.469 366.252 464.572 365.752 464.675 365.251C465.339 362.056 465.964 358.765 466.528 355.401C467.634 348.816 468.508 341.954 469 335C425.024 337.26 340.252 343.209 276.488 357.411C186.514 377.449 164.279 380.686 126.164 384.28C104.834 386.292 129.173 399.636 154.752 411Z" fill="#D4DFFF"/>
<path d="M212 389.904C212 389.904 357.626 345.056 394.294 341.808C430.961 338.56 395.835 346.151 395.835 346.151C395.835 346.151 296.173 372.366 273.009 383.546C224.02 407.19 212 389.904 212 389.904Z" fill="#D4DFFF"/>
<path d="M256 410.051C256 410.051 377.815 354.32 410.778 345.264C443.741 336.209 412.903 348.867 412.903 348.867C412.903 348.867 316.722 398.825 296.573 411.439C293.657 413.265 256 410.051 256 410.051Z" fill="#D4DFFF"/>
<path opacity="0.5" d="M288 232.621L268.338 235.139L248.675 237.693L236.566 234.923C236.277 235.463 235.771 235.858 235.193 236.074L236.061 347.482C234.795 348.094 233.566 348.921 232.446 350L233.133 236.721L206.675 262.154L195.904 272.479L195 271.687L204.398 259.996L219.759 240.859L231.687 233.7C231.651 233.664 231.651 233.664 231.651 233.628C231.651 233.052 231.868 232.549 232.157 232.117L216.976 199.418L211.012 186.611L212.06 186L219.759 198.159L233.205 219.383L235.771 231.397H287.928L288 232.621Z" fill="#AEC3FF"/>
<path d="M509 366H502L503.507 148H507.055L509 366Z" fill="#739AF0"/>
<path d="M504 141.477L534.26 81.3644L546.02 58L548 58.8174L539.314 83.5997L525.084 124.193L508.664 144L504 141.477Z" fill="#83AFFC"/>
<path d="M534 81.7298L545.983 58L548 58.8302L539.149 84L534 81.7298Z" fill="#F99746"/>
<path d="M502 145.535L505.909 142L553.715 190.781L571 208.418L569.579 210L549.824 194.454L515.336 167.318L502 145.535Z" fill="#83AFFC"/>
<path d="M550 194.632L553.859 191L571 208.436L569.591 210L550 194.632Z" fill="#F99746"/>
<path d="M418 177.039L447.852 162.004L479.868 145.879L505.41 143L507 148.044L451.788 167.433L418.852 179L418 177.039Z" fill="#83AFFC"/>
<path d="M418 177.987L449.113 162L452 168.125L418.858 180L418 177.987Z" fill="#F99746"/>
<path d="M506.991 148.744C509.335 147.921 510.568 145.353 509.745 143.009C508.921 140.665 506.353 139.432 504.009 140.256C501.665 141.079 500.432 143.647 501.255 145.991C502.079 148.335 504.647 149.568 506.991 148.744Z" fill="#2B478B"/>
<path d="M403 378.339C403 378.339 373.496 369.654 356.222 380.297C338.948 390.941 349.167 403.191 328.73 402.126C308.294 401.061 298.076 400.037 297 412H387.35L403 378.339Z" fill="#7ED260"/>
<path d="M527 275H429V412H527V275Z" fill="#F9DDBF"/>
<path d="M603 278.662V412H526V275H599.646C600.801 276.209 601.918 277.418 603 278.662Z" fill="#FFF3E9"/>
<path d="M545 229.336L537.306 245.507L533.903 252.634L533.796 252.924L533.654 253.177L533.548 253.394L533.371 253.756L533.299 253.937L529.931 260.991L529.754 261.353L529.328 262.294L523.336 274.847L521.953 277.777L520.003 281.829L518.975 284H422L428.701 275.137L428.914 274.847L472.526 217.253L472.562 217.217H476.391L535.534 217C537.626 221.088 540.923 225.212 545 229.336Z" fill="#ED9F4A"/>
<path d="M527 282.388V293.847L428.903 298V283.053H426L476.909 217L527 282.388Z" fill="#F9DDBF"/>
<path d="M477.736 250H475.675C468.675 250 463 255.689 463 262.708V295H490V262.295C490 255.505 484.509 250 477.736 250Z" fill="#EFCDAF"/>
<path d="M612 287H525.267L520.888 281.167L515.725 274.26L475.101 219.827L473.214 217.286L473 217H559.733L559.947 217.286L561.834 219.827L602.458 274.26L607.621 281.167L612 287Z" fill="#F99746"/>
<path d="M465 302L442.217 350H373L409.086 302.175L465 302Z" fill="#ED9F4A"/>
<path d="M467 302L444.217 350H375L411.086 302.175L467 302Z" fill="#F9DDBF"/>
<path d="M444 350V411.866L375 412V350H444Z" fill="#F9DDBF"/>
<path d="M503 350H444V412H503V350Z" fill="#FFF3E9"/>
<path d="M510 352H447.151L410 302L428.722 302.003L471.769 302.012L510 352Z" fill="#F99746"/>
<path d="M406 328.5C406 326.567 407.567 325 409.5 325C411.433 325 413 326.567 413 328.5C413 330.433 411.433 332 409.5 332C407.567 332 406 330.433 406 328.5Z" fill="#EFCDAF"/>
<path d="M510 352H498.113L429 302L471.9 302.009L510 352Z" fill="#E88338"/>
<path d="M541.21 275.999H589L563.79 245H516L541.21 275.999Z" fill="#2B478B"/>
<path d="M522.296 253.365H570L569.704 253H522L522.296 253.365Z" fill="#AEC3FF"/>
<path d="M552 245L577.63 276H578L552.37 245H552Z" fill="#AEC3FF"/>
<path d="M540 245L565.63 276H566L540.37 245H540Z" fill="#AEC3FF"/>
<path d="M528 245L553.63 276H554L528.37 245H528Z" fill="#AEC3FF"/>
<path d="M528.296 260.365H576L575.704 260H528L528.296 260.365Z" fill="#AEC3FF"/>
<path d="M535.296 268.365H583L582.704 268H535L535.296 268.365Z" fill="#AEC3FF"/>
<path d="M560.723 255L561 253.5L558.277 252L558 253.5L560.723 255Z" fill="#AEC3FF"/>
<path d="M547.723 255L548 253.5L545.277 252L545 253.5L547.723 255Z" fill="#AEC3FF"/>
<path d="M535.724 255L536 253.5L533.277 252L533 253.5L535.724 255Z" fill="#AEC3FF"/>
<path d="M566.723 262L567 260.5L564.277 259L564 260.5L566.723 262Z" fill="#AEC3FF"/>
<path d="M553.724 262L554 260.5L551.277 259L551 260.5L553.724 262Z" fill="#AEC3FF"/>
<path d="M541.723 262L542 260.5L539.277 259L539 260.5L541.723 262Z" fill="#AEC3FF"/>
<path d="M572.723 270L573 268.5L570.277 267L570 268.5L572.723 270Z" fill="#AEC3FF"/>
<path d="M559.723 270L560 268.5L557.277 267L557 268.5L559.723 270Z" fill="#AEC3FF"/>
<path d="M547.723 270L548 268.5L545.277 267L545 268.5L547.723 270Z" fill="#AEC3FF"/>
<path d="M451.138 342H495L471.862 314H428L451.138 342Z" fill="#2B478B"/>
<path d="M434.271 321.329H478L477.728 321H434L434.271 321.329Z" fill="#AEC3FF"/>
<path d="M462 314L485.659 342H486L462.341 314H462Z" fill="#AEC3FF"/>
<path d="M450 314L473.659 342H474L450.341 314H450Z" fill="#AEC3FF"/>
<path d="M439 314L462.659 342H463L439.341 314H439Z" fill="#AEC3FF"/>
<path d="M440.271 328.329H484L483.729 328H440L440.271 328.329Z" fill="#AEC3FF"/>
<path d="M446.271 335.329H490L489.729 335H446L446.271 335.329Z" fill="#AEC3FF"/>
<path d="M469.723 323L470 321.5L467.277 320L467 321.5L469.723 323Z" fill="#AEC3FF"/>
<path d="M458.723 323L459 321.5L456.277 320L456 321.5L458.723 323Z" fill="#AEC3FF"/>
<path d="M446.723 323L447 321.5L444.277 320L444 321.5L446.723 323Z" fill="#AEC3FF"/>
<path d="M474.723 330L475 328.5L472.277 327L472 328.5L474.723 330Z" fill="#AEC3FF"/>
<path d="M463.723 330L464 328.5L461.277 327L461 328.5L463.723 330Z" fill="#AEC3FF"/>
<path d="M451.723 330L452 328.5L449.277 327L449 328.5L451.723 330Z" fill="#AEC3FF"/>
<path d="M480.724 337L481 335.5L478.277 334L478 335.5L480.724 337Z" fill="#AEC3FF"/>
<path d="M469.724 337L470 335.5L467.277 334L467 335.5L469.724 337Z" fill="#AEC3FF"/>
<path d="M457.724 337L458 335.5L455.277 334L455 335.5L457.724 337Z" fill="#AEC3FF"/>
<path d="M196.871 411.881C196.857 411.921 196.843 411.959 196.828 412H32.6601C32.6577 411.997 32.6577 411.995 32.6577 411.993C32.6577 411.957 32.6199 411.919 32.6199 411.919C32.5326 411.714 13.6222 385.297 8 349.053C12.1092 347.459 26.6178 342.504 47.0294 343.04C47.8507 343.062 48.6816 343.093 49.5218 343.134C57.0534 343.489 65.3309 344.607 74.1418 346.903C74.451 346.984 74.7625 347.065 75.0741 347.149C75.1614 347.173 75.2487 347.196 75.3361 347.22C75.9592 347.389 76.5823 347.563 77.2101 347.745C77.9135 347.947 78.6168 348.157 79.3273 348.374C79.5798 348.453 79.8347 348.532 80.0896 348.61C81.0288 348.906 81.9729 349.216 82.9243 349.538C94.0129 353.307 100.893 357.37 105.682 361.297C105.781 361.378 105.88 361.459 105.979 361.54C108.278 363.46 110.089 365.345 111.653 367.145C112.08 367.637 112.491 368.121 112.888 368.598C113.379 369.191 113.851 369.773 114.313 370.343C115.864 372.255 117.297 374.019 118.977 375.56C123.613 379.82 130.129 382.395 146.198 381.749C149.08 381.632 151.834 381.606 154.466 381.663C189.018 382.39 202.158 397.349 196.871 411.881Z" fill="#7ED260"/>
<path d="M632 354.228C631.993 354.226 631.983 354.226 631.976 354.223C625.66 352.964 615.741 351.446 603.462 351.082C595.856 350.856 587.341 351.071 578.217 352.063C577.895 352.098 577.571 352.134 577.246 352.169C576.295 352.281 575.336 352.396 574.371 352.524C572.264 352.798 570.127 353.117 567.967 353.481C567.964 353.483 567.962 353.483 567.96 353.481C567.316 353.59 566.677 353.701 566.028 353.819C565.335 353.942 564.639 354.072 563.941 354.207C562.445 354.495 560.935 354.807 559.416 355.142C558.749 355.289 558.079 355.443 557.407 355.601C556.734 355.754 556.062 355.918 555.385 356.083C554.567 356.286 553.745 356.494 552.922 356.709H552.919C552.664 356.778 552.406 356.846 552.15 356.915H552.148C551.393 357.118 550.635 357.326 549.876 357.541C546.806 358.408 543.703 359.38 540.582 360.464C535.455 362.232 530.902 363.974 526.831 365.671C521.664 367.819 517.274 369.896 513.48 371.86C509.734 373.793 506.553 375.629 503.76 377.342C488.632 386.625 484.907 392.354 464.272 390.749C462.433 390.61 460.672 390.553 458.985 390.577C453.456 390.648 448.727 391.538 444.702 392.912C436.631 395.662 431.389 400.358 428.201 404.277C425.574 407.505 424.338 410.204 424.062 410.851C424.019 410.948 424 411 424 411H428.201H444.702H503.76H526.831H532.721H536.856H587.657H591.792H603.462H607.737C611.147 407.344 624.822 392.255 630.064 368.636C631.055 364.172 631.733 359.424 631.991 354.4L632 354.228Z" fill="#7ED260"/>
<path d="M93 255.203C93 255.203 96.9999 248.025 106.565 248.823C106.565 248.823 120.452 236.86 135.261 247.228C135.261 247.228 151.002 244.659 162.66 249.452C170.433 252.648 173 256 173 256L93 255.203Z" fill="white"/>
<path d="M240 193.202C240 193.202 243.3 186.025 251.191 186.823C251.191 186.823 262.648 174.86 274.865 185.228C274.865 185.228 287.852 182.659 297.47 187.452C303.882 190.648 306 194 306 194L240 193.202Z" fill="white"/>
<path d="M103 410L112.294 409.884L134 319L124.706 319.116L103 410Z" fill="#1D3F77"/>
<path d="M87 412H129C129 409.791 127.008 408 124.551 408H91.4495C88.9921 408 87 409.791 87 412Z" fill="#1D3F77"/>
<path d="M185 369.981L180.938 349.662L180.929 349.619L167.409 282L36 282.019L53.5911 370L78.5517 369.997H78.7865L106.721 369.992H106.806L134.618 369.989L134.809 369.988L162.56 369.984H162.812L185 369.981Z" fill="#1D3F77"/>
<path d="M187 367.982L55.5909 368L38 282.019L169.409 282L187 367.982Z" fill="#2A4E96"/>
<path d="M81 368H80.7457L63 282H63.2543L81 368Z" fill="#C0D8FB"/>
<path d="M109 368H108.746L91 282H91.2543L109 368Z" fill="#C0D8FB"/>
<path d="M137 368H136.746L119 282H119.254L137 368Z" fill="#C0D8FB"/>
<path d="M165 368H164.746L147 282H147.254L165 368Z" fill="#C0D8FB"/>
<path d="M173.634 302.236L42.0482 302.254L42 302.019L173.586 302L173.634 302.236Z" fill="#C0D8FB"/>
<path d="M178.317 325.15L46.7315 325.168L46.6836 324.933L178.269 324.914L178.317 325.15Z" fill="#C0D8FB"/>
<path d="M183.001 348.072L51.4154 348.09L51.3672 347.855L182.953 347.836L183.001 348.072Z" fill="#C0D8FB"/>
<path d="M67.7539 304.83L64.5312 302.303L66.7196 299.776L69.9423 302.302L67.7539 304.83Z" fill="#C0D8FB"/>
<path d="M72.4531 327.807L69.2305 325.28L71.4188 322.753L74.6415 325.28L72.4531 327.807Z" fill="#C0D8FB"/>
<path d="M95.8828 304.825L92.6602 302.299L94.8485 299.771L98.0712 302.298L95.8828 304.825Z" fill="#C0D8FB"/>
<path d="M100.582 327.802L97.3594 325.276L99.5478 322.748L102.77 325.275L100.582 327.802Z" fill="#C0D8FB"/>
<path d="M123.887 304.822L120.664 302.295L122.852 299.768L126.075 302.294L123.887 304.822Z" fill="#C0D8FB"/>
<path d="M151.637 304.818L148.414 302.291L150.602 299.764L153.825 302.291L151.637 304.818Z" fill="#C0D8FB"/>
<path d="M77.1055 350.547L73.8828 348.02L76.0712 345.493L79.2938 348.02L77.1055 350.547Z" fill="#C0D8FB"/>
<path d="M105.234 350.544L102.012 348.017L104.2 345.49L107.423 348.017L105.234 350.544Z" fill="#C0D8FB"/>
<path d="M133.239 350.541L130.016 348.014L132.204 345.486L135.427 348.013L133.239 350.541Z" fill="#C0D8FB"/>
<path d="M160.988 350.537L157.766 348.01L159.954 345.482L163.176 348.009L160.988 350.537Z" fill="#C0D8FB"/>
<path d="M156.336 327.794L153.113 325.268L155.302 322.74L158.524 325.267L156.336 327.794Z" fill="#C0D8FB"/>
<path d="M128.586 327.799L125.363 325.272L127.552 322.745L130.774 325.272L128.586 327.799Z" fill="#C0D8FB"/>
<path d="M237.969 410.777L244.407 410.696L259.444 348.04L253.005 348.12L237.969 410.777Z" fill="#1D3F77"/>
<path d="M227.332 412.17H256.204C256.204 410.481 254.835 409.112 253.146 409.112H230.391C228.702 409.112 227.332 410.481 227.332 412.17Z" fill="#1D3F77"/>
<path d="M294.028 383.161L291.255 369.258L291.249 369.228L282.021 322.96L192.32 322.973L204.328 383.174L221.366 383.171H221.527L240.595 383.168H240.653L259.637 383.166L259.767 383.166L278.711 383.163H278.882V383.163L294.028 383.161Z" fill="#1D3F77"/>
<path d="M295.563 381.971L205.863 381.983L193.855 322.973L283.556 322.96L295.563 381.971Z" fill="#2A4E96"/>
<path d="M223.073 381.981L222.901 381.981L210.926 323.129H211.097L223.073 381.981Z" fill="#C0D8FB"/>
<path d="M242.186 381.977H242.014L230.039 323.125H230.211L242.186 381.977Z" fill="#C0D8FB"/>
<path d="M261.303 381.975H261.132L249.156 323.123H249.328L261.303 381.975Z" fill="#C0D8FB"/>
<path d="M280.417 381.972H280.245L268.27 323.12H268.441L280.417 381.972Z" fill="#C0D8FB"/>
<path d="M286.405 336.964L196.705 336.977L196.672 336.815L286.372 336.803L286.405 336.964Z" fill="#C0D8FB"/>
<path d="M289.597 352.653L199.896 352.666L199.863 352.505L289.564 352.492L289.597 352.653Z" fill="#C0D8FB"/>
<path d="M292.788 368.342L203.088 368.354L203.055 368.193L292.755 368.181L292.788 368.342Z" fill="#C0D8FB"/>
<path d="M214.165 338.628L211.965 336.894L213.459 335.159L215.659 336.893L214.165 338.628Z" fill="#C0D8FB"/>
<path d="M217.372 354.397L215.172 352.663L216.666 350.929L218.866 352.663L217.372 354.397Z" fill="#C0D8FB"/>
<path d="M233.364 338.625L231.164 336.891L232.658 335.156L234.857 336.891L233.364 338.625Z" fill="#C0D8FB"/>
<path d="M236.575 354.394L234.375 352.661L235.869 350.926L238.069 352.66L236.575 354.394Z" fill="#C0D8FB"/>
<path d="M252.481 338.622L250.281 336.888L251.775 335.153L253.975 336.887L252.481 338.622Z" fill="#C0D8FB"/>
<path d="M271.422 338.62L269.223 336.886L270.716 335.151L272.916 336.885L271.422 338.62Z" fill="#C0D8FB"/>
<path d="M220.548 370.006L218.348 368.272L219.841 366.537L222.041 368.271L220.548 370.006Z" fill="#C0D8FB"/>
<path d="M239.751 370.003L237.551 368.269L239.045 366.534L241.244 368.268L239.751 370.003Z" fill="#C0D8FB"/>
<path d="M258.864 370L256.664 368.266L258.158 366.531L260.358 368.265L258.864 370Z" fill="#C0D8FB"/>
<path d="M277.809 369.996L275.609 368.262L277.103 366.527L279.303 368.261L277.809 369.996Z" fill="#C0D8FB"/>
<path d="M274.633 354.39L272.434 352.656L273.927 350.921L276.127 352.655L274.633 354.39Z" fill="#C0D8FB"/>
<path d="M255.688 354.392L253.488 352.657L254.982 350.923L257.182 352.657L255.688 354.392Z" fill="#C0D8FB"/>
<path d="M374.625 389.72L376.76 389.304C376.76 389.304 371.658 369.129 372.358 367.463C372.924 366.08 378.804 365.081 381.686 362.665C382.302 362.149 382.769 361.583 383.035 360.933C384.568 357.185 382.069 354.403 382.069 354.403C382.069 354.403 376.838 355.602 372.091 357.635C368.71 359.084 365.578 360.966 364.712 363.148C362.629 368.429 374.625 389.72 374.625 389.72Z" fill="#E8945B"/>
<path d="M368.818 392.83C368.851 392.62 368.992 392.431 369.198 392.318C369.706 392.038 370.745 391.637 371.523 390.598C371.961 390.015 373.769 388.288 373.769 388.288L373.78 388.283C373.826 388.271 374.062 388.274 375.209 388.744C375.802 388.985 376.418 387.873 376.418 387.873C376.418 387.873 376.607 387.948 376.782 388.134C376.921 388.281 377.052 388.498 377.072 388.802C377.101 389.23 377.544 389.924 377.873 390.387C378.073 390.667 378.231 390.861 378.231 390.861C378.231 390.861 378.355 391.103 377.347 391.486L376.14 391.798C375.722 391.846 375.397 391.82 374.97 391.879C374.322 391.969 374.091 392.271 374.047 392.339C374.041 392.348 374.039 392.352 374.039 392.352L368.914 393.677C368.743 393.548 368.769 393.138 368.818 392.83Z" fill="#415DA5"/>
<path d="M358.77 393.635C359.296 393.635 359.722 393.209 359.722 392.683C359.722 380.868 350.109 371.254 338.294 371.254C335.565 371.254 332.908 371.76 330.397 372.757C329.909 372.95 329.671 373.505 329.864 373.994C330.06 374.48 330.609 374.721 331.102 374.527C333.387 373.619 335.807 373.158 338.294 373.158C349.06 373.158 357.818 381.917 357.818 392.684C357.817 393.209 358.244 393.635 358.77 393.635Z" fill="#2C3A64"/>
<path d="M341.53 392.683C341.53 390.931 340.11 389.51 338.357 389.51C336.604 389.51 335.184 390.931 335.184 392.683C335.184 394.435 336.604 395.856 338.357 395.856C340.11 395.856 341.53 394.435 341.53 392.683Z" fill="#415DA5"/>
<path d="M343.679 377.436L338.301 392.423L338.706 392.568L344.085 377.582L343.679 377.436Z" fill="#415DA5"/>
<path d="M353.545 399.442L353.715 399.046L338.497 392.509L328.493 378.218L328.141 378.464L338.215 392.856L338.271 392.88L353.545 399.442Z" fill="#415DA5"/>
<path d="M344.388 409.208L344.797 409.072C344.689 408.749 338.805 393.265 338.555 392.606L338.402 392.204L328.922 407.196L329.285 407.426L338.306 393.161C340.461 398.832 344.307 408.962 344.388 409.208Z" fill="#415DA5"/>
<path d="M355.199 388.476L338.312 391.38L338.385 391.804L355.272 388.9L355.199 388.476Z" fill="#415DA5"/>
<path d="M332.529 376.574L332.121 376.71L337.07 391.553L337.478 391.416L332.529 376.574Z" fill="#415DA5"/>
<path d="M338.39 392.906L338.454 392.874L353.942 385.022L353.748 384.638L338.322 392.459L321.72 389.674L321.648 390.098L338.39 392.906Z" fill="#415DA5"/>
<path d="M332.107 408.67C332.199 408.4 336.174 398.619 338.399 393.15L346.996 406.673L347.359 406.442L338.315 392.215L338.158 392.601C337.898 393.238 331.808 408.208 331.699 408.533L332.107 408.67Z" fill="#415DA5"/>
<path d="M338.387 392.465L338.324 392.891L354.997 395.361L355.06 394.936L338.387 392.465Z" fill="#415DA5"/>
<path d="M348.293 379.545L339.043 390.193L339.368 390.475L348.618 379.827L348.293 379.545Z" fill="#415DA5"/>
<path d="M338.027 393.874L337.598 393.91L338.892 409.507L339.321 409.471L338.027 393.874Z" fill="#415DA5"/>
<path d="M338.987 391.675L324.25 401.893L324.495 402.247L339.232 392.029L338.987 391.675Z" fill="#415DA5"/>
<path d="M350.573 404.236L350.878 403.933L338.571 391.519V375.365H338.141V391.696L350.573 404.236Z" fill="#415DA5"/>
<path d="M353.46 381.828C353.117 381.352 352.75 380.89 352.364 380.45C350.896 378.771 349.133 377.358 347.156 376.292C346.294 375.826 345.392 375.428 344.457 375.104C342.544 374.436 340.492 374.074 338.354 374.074C337.691 374.074 337.035 374.109 336.391 374.178H336.389C332.528 374.585 329.015 376.178 326.223 378.582L326.221 378.584C322.26 382 319.746 387.052 319.746 392.682C319.746 394.387 319.98 396.077 320.435 397.703C320.842 399.167 321.432 400.58 322.192 401.906C322.213 401.948 322.239 401.989 322.263 402.031C323.873 404.796 326.181 407.116 328.939 408.736C331.105 410.009 333.513 410.826 336.003 411.141C336.006 411.141 336.006 411.141 336.008 411.141C336.011 411.141 336.011 411.141 336.013 411.141C336.785 411.24 337.571 411.29 338.355 411.29C339.162 411.29 339.96 411.238 340.741 411.138H340.746C349.884 409.96 356.962 402.135 356.962 392.682C356.962 388.634 355.665 384.884 353.46 381.828ZM353.162 398.809C353.11 398.942 353.053 399.074 352.992 399.205C352.312 400.727 351.401 402.124 350.302 403.353C350.208 403.461 350.11 403.568 350.011 403.672C349.149 404.584 348.183 405.396 347.13 406.087C347.012 406.167 346.891 406.243 346.768 406.319C345.97 406.814 345.125 407.24 344.242 407.59C344.109 407.642 343.974 407.694 343.839 407.744C342.398 408.269 340.859 408.596 339.258 408.684C339.114 408.693 338.972 408.698 338.828 408.703C338.669 408.708 338.513 408.71 338.354 408.71C336.351 408.71 334.372 408.336 332.525 407.614C332.39 407.564 332.258 407.509 332.125 407.455C331.481 407.18 330.854 406.868 330.248 406.51C330.156 406.456 330.063 406.399 329.971 406.342C329.848 406.269 329.727 406.193 329.609 406.113C327.959 405.038 326.519 403.665 325.366 402.074C325.293 401.972 325.22 401.868 325.149 401.763C325.066 401.645 324.985 401.524 324.909 401.403C324.763 401.183 324.625 400.961 324.493 400.734C323.709 399.387 323.129 397.933 322.769 396.422C322.476 395.203 322.327 393.946 322.327 392.682C322.327 391.851 322.391 391.036 322.511 390.241C322.535 390.099 322.559 389.957 322.582 389.817C323.335 385.662 325.695 382.061 328.991 379.682C329.107 379.597 329.225 379.514 329.343 379.433C330.316 378.768 331.365 378.209 332.473 377.769C332.608 377.717 332.743 377.667 332.878 377.618C334.524 377.016 336.294 376.68 338.139 376.656C338.21 376.654 338.283 376.654 338.354 376.654C338.425 376.654 338.498 376.654 338.569 376.656C340.293 376.678 341.953 376.974 343.503 377.501H343.506C343.546 377.516 343.584 377.53 343.624 377.544C343.761 377.591 343.894 377.641 344.029 377.691C344.732 377.958 345.411 378.273 346.062 378.631C346.737 379.002 347.381 379.422 347.992 379.883C348.108 379.968 348.219 380.056 348.33 380.148C348.929 380.624 349.495 381.145 350.021 381.701C350.535 382.246 351.008 382.828 351.441 383.441C351.849 384.015 352.22 384.616 352.547 385.243C352.616 385.371 352.682 385.499 352.743 385.627C353.226 386.604 353.61 387.639 353.887 388.716C353.92 388.856 353.956 388.996 353.986 389.138C354.244 390.279 354.382 391.465 354.382 392.682C354.382 393.406 354.334 394.121 354.239 394.822C354.221 394.964 354.199 395.108 354.176 395.248C353.977 396.489 353.633 397.682 353.162 398.809Z" fill="#202E51"/>
<path d="M383.388 360.758L372.453 394.963L374.297 395.552L385.232 361.347L383.388 360.758Z" fill="#739CF3"/>
<path d="M375.226 395.655L401.037 393.41L353.168 361.046L355.906 366.652L395.427 391.955L375.058 393.726L375.226 395.655Z" fill="#739CF3"/>
<path d="M371.746 394.138L373.373 393.089L353.512 361.273L351.199 363.666L371.746 394.138Z" fill="#739CF3"/>
<path d="M339.894 391.829L350.955 368.158L349.473 367.565C348.51 367.18 347.417 367.65 347.034 368.614L338.102 391.098L339.894 391.829Z" fill="#415DA5"/>
<path d="M350.956 368.158C352.557 364.004 355.228 357.48 355.186 357.544L353.574 356.47C353.496 356.589 353.444 356.667 349.246 367.559L350.956 368.158Z" fill="#415DA5"/>
<path d="M360.242 359.81C360.876 358.93 360.675 357.703 359.795 357.07C358.914 356.436 357.687 356.637 357.054 357.517C356.42 358.397 356.62 359.624 357.501 360.257C358.381 360.891 359.608 360.691 360.242 359.81Z" fill="#415DA5"/>
<path d="M352.808 354.669C353.442 353.789 353.242 352.562 352.361 351.928C351.481 351.295 350.254 351.495 349.62 352.375C348.986 353.256 349.187 354.482 350.067 355.116C350.948 355.749 352.175 355.549 352.808 354.669Z" fill="#415DA5"/>
<path d="M350.891 355.366L358.392 360.139L359.432 358.091L351.931 353.317L350.891 355.366Z" fill="#415DA5"/>
<path d="M363.236 400.211H367.432C367.925 400.211 368.328 399.808 368.328 399.315C368.328 398.822 367.925 398.419 367.432 398.419H363.236C362.743 398.419 362.34 398.822 362.34 399.315C362.34 399.807 362.743 400.211 363.236 400.211Z" fill="#415DA5"/>
<path d="M373.498 394.566L365 398.439L365.312 399.124L373.811 395.251L373.498 394.566Z" fill="#415DA5"/>
<path d="M401.405 392.683C401.405 390.931 399.984 389.51 398.232 389.51C396.479 389.51 395.059 390.931 395.059 392.683C395.059 394.435 396.479 395.856 398.232 395.856C399.984 395.856 401.405 394.435 401.405 392.683Z" fill="#415DA5"/>
<path d="M403.554 377.438L398.176 392.425L398.581 392.57L403.96 377.584L403.554 377.438Z" fill="#415DA5"/>
<path d="M413.42 399.442L413.59 399.046L398.372 392.509L388.368 378.218L388.016 378.464L398.09 392.856L398.146 392.88L413.42 399.442Z" fill="#415DA5"/>
<path d="M404.268 409.208L404.676 409.072C404.568 408.749 398.685 393.265 398.434 392.606L398.281 392.204L388.801 407.196L389.164 407.426L398.185 393.161C400.34 398.832 404.186 408.962 404.268 409.208Z" fill="#415DA5"/>
<path d="M415.07 388.474L398.184 391.378L398.257 391.802L415.143 388.898L415.07 388.474Z" fill="#415DA5"/>
<path d="M392.404 376.565L391.996 376.701L396.948 391.543L397.356 391.407L392.404 376.565Z" fill="#415DA5"/>
<path d="M398.265 392.906L398.329 392.874L413.817 385.022L413.623 384.638L398.197 392.459L381.595 389.674L381.523 390.098L398.265 392.906Z" fill="#415DA5"/>
<path d="M391.982 408.67C392.074 408.4 396.049 398.619 398.274 393.15L406.871 406.673L407.234 406.442L398.19 392.215L398.033 392.601C397.773 393.238 391.683 408.208 391.574 408.533L391.982 408.67Z" fill="#415DA5"/>
<path d="M398.259 392.48L398.195 392.906L414.866 395.385L414.93 394.959L398.259 392.48Z" fill="#415DA5"/>
<path d="M408.168 379.546L398.918 390.194L399.243 390.476L408.493 379.828L408.168 379.546Z" fill="#415DA5"/>
<path d="M397.929 393.853L397.5 393.888L398.796 409.485L399.224 409.45L397.929 393.853Z" fill="#415DA5"/>
<path d="M398.866 391.676L384.129 401.894L384.374 402.248L399.111 392.03L398.866 391.676Z" fill="#415DA5"/>
<path d="M410.448 404.236L410.753 403.933L398.446 391.519V375.365H398.016V391.696L410.448 404.236Z" fill="#415DA5"/>
<path d="M398.233 374.074C395.385 374.074 392.683 374.718 390.269 375.869C387.546 377.159 385.186 379.095 383.387 381.477C382.918 382.095 382.487 382.746 382.099 383.42C380.525 386.148 379.625 389.313 379.625 392.682C379.625 392.897 379.63 393.113 379.637 393.328C379.658 393.974 379.715 394.618 379.803 395.257C380.136 397.641 380.927 399.947 382.139 402.031C383.664 404.649 385.818 406.87 388.387 408.472C388.529 408.562 388.673 408.65 388.818 408.735C390.967 409.999 393.351 410.811 395.818 411.133C396.616 411.237 397.423 411.29 398.233 411.29C399.052 411.29 399.859 411.237 400.65 411.133C409.772 409.945 416.841 402.123 416.841 392.682C416.841 382.422 408.493 374.074 398.233 374.074ZM413.041 398.809C412.989 398.942 412.932 399.074 412.87 399.204C412.191 400.727 411.28 402.123 410.181 403.352C410.087 403.461 409.989 403.568 409.89 403.672C409.028 404.584 408.062 405.395 407.009 406.087C406.891 406.167 406.77 406.243 406.647 406.319C405.849 406.813 405.004 407.24 404.121 407.59C403.988 407.642 403.853 407.694 403.718 407.744C402.274 408.269 400.735 408.596 399.135 408.684C398.993 408.693 398.848 408.698 398.706 408.702C398.548 408.707 398.392 408.71 398.233 408.71C396.228 408.71 394.251 408.335 392.404 407.613C392.269 407.564 392.137 407.509 392.004 407.455C391.36 407.18 390.733 406.868 390.127 406.51C390.035 406.456 389.942 406.399 389.85 406.342C389.727 406.269 389.606 406.193 389.488 406.112C389.483 406.112 389.478 406.11 389.476 406.105C387.724 404.962 386.211 403.482 385.027 401.763C384.945 401.645 384.864 401.524 384.788 401.403C384.642 401.183 384.504 400.961 384.372 400.734C383.349 398.977 382.674 397.04 382.381 395.033C382.284 394.396 382.229 393.752 382.213 393.103C382.208 392.964 382.205 392.822 382.205 392.682C382.205 391.851 382.27 391.037 382.39 390.241C382.414 390.099 382.437 389.957 382.461 389.817C382.786 388.03 383.406 386.344 384.275 384.815C384.646 384.152 385.065 383.52 385.527 382.923C386.479 381.688 387.606 380.594 388.87 379.682C388.986 379.597 389.104 379.514 389.222 379.434C390.195 378.769 391.244 378.21 392.352 377.77C392.487 377.717 392.622 377.668 392.757 377.618C393.761 377.251 394.805 376.984 395.889 376.825H395.892C396.587 376.723 397.295 376.666 398.017 376.657C398.088 376.654 398.162 376.654 398.233 376.654C398.304 376.654 398.377 376.654 398.448 376.657C400.217 376.678 401.916 376.99 403.503 377.545C403.64 377.592 403.773 377.641 403.907 377.691C405.337 378.233 406.67 378.977 407.87 379.884C407.986 379.969 408.098 380.056 408.209 380.149C409.944 381.531 411.386 383.264 412.426 385.244C412.494 385.371 412.56 385.499 412.622 385.627C413.105 386.605 413.488 387.639 413.766 388.717C413.799 388.856 413.834 388.996 413.862 389.138C414.123 390.279 414.26 391.465 414.26 392.682C414.26 393.407 414.213 394.121 414.118 394.822C414.099 394.964 414.078 395.109 414.054 395.248C413.856 396.489 413.512 397.682 413.041 398.809Z" fill="#202E51"/>
<path d="M383.064 373.589C383.337 373.684 383.638 373.653 383.886 373.504C392.592 368.244 404.638 370.22 408.123 370.952L408.128 370.953C408.32 370.994 408.501 370.847 408.501 370.651V369.97C408.501 369.45 408.12 369.008 407.606 368.931C405.72 368.651 401.317 368.048 398.856 368.037C398.79 368.037 398.723 368.037 398.657 368.037C393.146 368.037 388.386 369.023 384.475 370.972C383.677 371.371 382.751 371.427 381.909 371.131L380.836 370.754C380.223 370.538 379.551 370.86 379.336 371.474C379.197 371.869 379.405 372.303 379.801 372.442L383.064 373.589Z" fill="#F99746"/>
<path d="M391.158 360.333C391.158 360.333 391.508 358.746 390.513 358.639C389.518 358.531 385.887 359.311 384.919 359.203C383.951 359.096 378.896 358.262 378.009 359.123C377.121 359.983 377.498 360.736 379.272 360.898C381.047 361.059 383.413 361.355 384.086 361.919C384.758 362.484 389.625 364.151 391.158 360.333Z" fill="#F99746"/>
<path d="M373.383 400.104C376.056 400.104 378.223 397.937 378.223 395.264C378.223 392.591 376.056 390.424 373.383 390.424C370.71 390.424 368.543 392.591 368.543 395.264C368.543 397.937 370.71 400.104 373.383 400.104Z" fill="#2C3A64"/>
<path d="M356.515 354.236C356.515 354.236 354.931 352.225 354.064 352.475C352.568 352.907 352.445 354.274 352.482 354.553C352.518 354.831 352.5 355.93 353.164 356.165C353.829 356.4 354.519 356.112 354.826 355.854C355.133 355.597 356.515 354.236 356.515 354.236Z" fill="#E8945B"/>
<path d="M353.828 352.613C353.828 352.613 354.048 353.863 355.563 354.279C357.079 354.679 366.455 350.734 368.687 349.634C369.887 349.035 371.619 345.703 372.952 342.788C373.268 342.072 373.568 341.389 373.835 340.772C374.501 339.223 374.934 338.107 374.934 338.107C374.934 336.574 373.242 337.173 371.71 337.873C371.243 338.089 368.802 337.057 368.153 338.307C367.853 338.889 367.455 338.823 367.155 339.473C365.972 342.088 364.889 345.037 364.656 345.736C364.239 346.986 353.828 352.613 353.828 352.613Z" fill="#E8945B"/>
<path d="M357.687 355.408C357.687 355.408 356.111 353.429 355.236 353.647C353.176 354.163 353.453 355.647 353.489 355.926C353.526 356.205 353.672 357.103 354.336 357.337C355 357.572 355.691 357.284 355.998 357.027C356.305 356.769 357.687 355.408 357.687 355.408Z" fill="#FFB27D"/>
<path d="M375.814 335.585L370.465 337.559C369.782 336.895 369.096 335.839 368.546 334.874C367.864 333.676 367.391 332.617 367.391 332.617L371.128 330L372.302 329.177C372.377 331.562 375.814 335.585 375.814 335.585Z" fill="#FFB27D"/>
<path d="M372.585 330.47C372.585 330.47 371.526 333.771 368.547 334.874C367.864 333.675 367.391 332.616 367.391 332.616L371.128 330L372.585 330.47Z" fill="#E8945B"/>
<path d="M365.697 332.536C365.697 332.536 372.311 333.573 372.894 329.444C373.476 325.315 374.723 322.668 370.524 321.831C366.325 320.994 365.281 322.454 364.751 323.785C364.221 325.116 363.991 332.16 365.697 332.536Z" fill="#FFB27D"/>
<path d="M374.376 321.078C374.376 321.078 374.076 321.14 373.835 321.392C373.833 321.389 373.831 321.387 373.831 321.387C373.814 320.496 372.94 319.596 372.94 319.596C373.36 320.124 373.223 321.1 373.223 321.1C371.978 318.97 365.913 320.646 365.345 320.788C364.777 320.929 364.375 320.076 364.375 320.076C363.477 320.854 363.136 322.757 363.879 324.001C364.624 325.245 367.037 327.075 367.732 326.727C368.427 326.379 368.428 327.098 368.392 328.109C368.356 329.119 370.106 330.818 371.34 331.065C372.334 331.263 372.412 330.583 372.684 330.149C372.751 330.041 372.831 329.942 372.925 329.857C374.279 328.634 375.025 326.192 374.722 323.785C374.601 322.829 374.206 322.026 373.984 321.638C374.073 321.486 374.248 321.199 374.376 321.078Z" fill="#2C3A64"/>
<path d="M372.09 357.635C372.156 357.935 372.89 360.4 374.788 361.033C376.021 361.45 379.02 362.466 381.685 362.665C382.301 362.149 382.768 361.583 383.034 360.933C384.567 357.185 382.068 354.403 382.068 354.403C382.068 354.403 376.837 355.602 372.09 357.635Z" fill="#2C3A64"/>
<path d="M387.115 348.941C387.115 348.941 392.474 355.114 387.553 362.054C382.632 368.994 374.619 374.594 374.178 377.069C373.324 381.859 368.223 391.75 365.793 396.644L363.711 395.845C363.711 395.845 367.616 372.653 369.004 369.877C370.392 367.101 377.584 354.105 377.584 354.105L387.115 348.941Z" fill="#FFB27D"/>
<path d="M367.094 339.161C367.61 339.327 368.86 339.794 369.193 340.36C369.543 340.926 373.208 339.344 373.641 337.861C372.592 336.712 370.792 335.73 369.743 336.063C369.126 336.246 368.127 337.562 367.094 339.161Z" fill="#5885D6"/>
<path d="M388.194 350.84C388.194 350.84 381.236 355.797 376.586 355.519C376.586 355.519 373.532 360.725 372.855 362.443C372.855 362.443 380.768 366.399 384.88 365.67C384.88 365.67 390.242 360.464 389.93 356.82C389.618 353.177 388.194 350.84 388.194 350.84Z" fill="#35488B"/>
<path d="M369.107 341.516L370.774 343.892L370.908 344.192L374.373 352.105L376.138 356.136C377.321 356.419 379.52 356.219 380.503 355.869C385.867 354.037 388.199 350.839 388.199 350.839C385.084 342.693 380.769 337.129 379.887 336.146C378.354 334.48 374.339 333.114 374.339 333.114C373.24 334.247 369.309 336.229 369.309 336.229C368.442 336.912 369.107 341.516 369.107 341.516Z" fill="#739AF0"/>
<path d="M370.906 344.192L374.371 352.104C377.003 346.791 375.338 339.078 375.338 339.078C375.338 339.078 371.106 342.743 370.956 343.026C370.94 343.076 370.906 343.509 370.906 344.192Z" fill="#5885D6"/>
<path d="M355 353.784C355 353.784 355.219 355.033 356.735 355.449C358.251 355.849 367.627 351.904 369.859 350.805C371.058 350.205 372.791 346.873 374.123 343.958C374.44 343.242 374.74 342.559 375.006 341.942C375.672 340.393 376.106 339.277 376.106 339.277C376.106 337.744 372.491 335.662 370.959 336.362C370.492 336.579 369.876 337.528 369.226 338.777C368.926 339.36 368.626 339.993 368.326 340.643C367.144 343.259 366.061 346.207 365.828 346.907C365.411 348.156 355 353.784 355 353.784Z" fill="#FFB27D"/>
<path d="M368.324 340.643C369.724 341.276 372.239 342.509 374.121 343.958C374.438 343.242 374.738 342.559 375.004 341.942C375.67 340.393 376.104 339.277 376.104 339.277C376.104 337.744 372.489 335.662 370.956 336.362C370.49 336.579 369.873 337.528 369.224 338.777C368.924 339.36 368.624 339.993 368.324 340.643Z" fill="#739AF0"/>
<path d="M366.613 398.541H365.367C364.95 398.483 364.642 398.377 364.214 398.327C363.564 398.252 363.264 398.487 363.205 398.541C363.197 398.548 363.193 398.553 363.193 398.553H357.9C357.767 398.384 357.895 397.995 358.02 397.708C358.104 397.514 358.288 397.366 358.516 397.308C359.077 397.164 360.184 397.036 361.197 396.225C361.767 395.769 363.95 394.55 363.95 394.55L363.961 394.548C364.009 394.548 364.238 394.61 365.23 395.352C365.744 395.734 366.618 394.811 366.618 394.811C366.618 394.811 366.783 394.932 366.905 395.155C367.004 395.332 367.076 395.575 367.019 395.874C366.94 396.295 367.195 397.079 367.398 397.609C367.522 397.93 367.626 398.158 367.626 398.158C367.626 398.158 367.685 398.423 366.613 398.541Z" fill="#739CF3"/>
<path d="M366.905 395.155C366.607 395.341 365.98 395.706 365.563 395.754C365.001 395.819 363.949 394.55 363.949 394.55L363.961 394.548C364.009 394.548 364.237 394.61 365.23 395.351C365.743 395.734 366.618 394.811 366.618 394.811C366.618 394.811 366.783 394.932 366.905 395.155Z" fill="#415DA5"/>
<path d="M366.613 398.541H365.367C364.95 398.483 364.642 398.377 364.214 398.327C363.564 398.252 363.264 398.487 363.205 398.541C363.197 398.548 363.193 398.553 363.193 398.553H357.9C357.767 398.384 357.895 397.995 358.02 397.708C358.181 397.582 358.226 398.257 358.315 398.365C358.404 398.472 362.633 398.404 362.877 398.247C363.121 398.09 363.854 397.815 364.875 398.031C365.764 398.219 367.074 397.737 367.398 397.609C367.522 397.93 367.626 398.158 367.626 398.158C367.626 398.158 367.685 398.423 366.613 398.541Z" fill="#415DA5"/>
<path d="M552.757 394.995C553.213 394.995 553.583 394.625 553.583 394.169C553.583 383.92 545.245 375.581 534.995 375.581C532.629 375.581 530.324 376.02 528.146 376.884C527.722 377.052 527.516 377.534 527.683 377.957C527.853 378.379 528.33 378.588 528.757 378.42C530.739 377.633 532.838 377.233 534.995 377.233C544.334 377.233 551.931 384.83 551.931 394.169C551.931 394.625 552.301 394.995 552.757 394.995Z" fill="#2C3A64"/>
<path d="M567.655 354.917C567.655 354.917 566.395 357.537 564.803 361.168C563.018 365.239 560.815 370.583 559.503 374.927C558.81 377.225 558.364 379.242 558.363 380.645C558.363 381.127 560.219 383.082 560.755 383.828C564.138 388.536 568.759 394.824 568.759 394.824L570.02 394.507C570.02 394.507 568.254 386.643 565.68 382.717C565.174 381.945 563.748 381.006 563.816 380.921C563.816 380.92 563.817 380.919 563.818 380.918C564.04 380.64 564.595 379.942 565.351 378.946C567.437 376.201 571.059 371.198 573.485 366.543C573.636 366.252 573.783 365.964 573.924 365.677C575.203 363.079 576.047 360.645 575.964 358.841L567.655 354.917Z" fill="#E8945B"/>
<path d="M571.14 394.811L570.272 395.36C569.953 395.498 569.685 395.55 569.362 395.7C568.871 395.927 568.78 396.245 568.766 396.314C568.764 396.323 568.763 396.327 568.763 396.327L565.076 398.66C564.899 398.587 564.794 398.223 564.739 397.942C564.7 397.752 564.755 397.554 564.884 397.409C565.203 397.048 565.911 396.459 566.212 395.373C566.382 394.763 567.295 392.841 567.295 392.841L567.302 392.834C567.336 392.813 567.525 392.761 568.587 392.908C569.135 392.983 569.284 391.87 569.284 391.87C569.284 391.87 569.458 391.892 569.655 392.015C569.812 392.11 569.983 392.27 570.093 392.531C570.248 392.898 570.816 393.403 571.222 393.731C571.468 393.929 571.654 394.063 571.654 394.063C571.654 394.063 571.828 394.245 571.14 394.811Z" fill="#B84C42"/>
<path d="M569.658 392.015C569.543 392.292 569.288 392.856 569.021 393.078C568.662 393.377 567.297 392.84 567.297 392.84L567.304 392.833C567.338 392.813 567.527 392.761 568.589 392.907C569.137 392.982 569.286 391.87 569.286 391.87C569.286 391.87 569.461 391.893 569.658 392.015Z" fill="#AA3E39"/>
<path d="M571.141 394.812L570.273 395.36C569.953 395.499 569.685 395.55 569.362 395.7C568.872 395.927 568.78 396.245 568.766 396.314C568.764 396.323 568.763 396.327 568.763 396.327L565.076 398.66C564.899 398.586 564.794 398.223 564.738 397.942C564.787 397.772 565.155 398.284 565.271 398.329C565.387 398.375 568.299 396.458 568.391 396.226C568.483 395.995 568.856 395.455 569.675 395.176C570.388 394.932 571.061 393.975 571.223 393.731C571.469 393.93 571.655 394.064 571.655 394.064C571.655 394.064 571.828 394.246 571.141 394.812Z" fill="#AA3E39"/>
<path d="M574.809 365.616L564.906 396.592L566.576 397.126L576.479 366.15L574.809 365.616Z" fill="#F99746"/>
<path d="M567.429 397.22L590.803 395.188L547.453 365.878L549.933 370.955L585.723 393.87L567.277 395.474L567.429 397.22Z" fill="#F99746"/>
<path d="M564.279 395.848L565.753 394.897L547.766 366.085L545.672 368.252L564.279 395.848Z" fill="#F99746"/>
<path d="M561.821 391.739L558.53 393.638C558.143 393.861 558.01 394.36 558.233 394.747C558.456 395.133 558.955 395.267 559.342 395.044L562.632 393.145C563.019 392.922 563.153 392.423 562.93 392.036C562.706 391.649 562.207 391.516 561.821 391.739Z" fill="#415DA5"/>
<path d="M561.168 392.965L565.317 397.555L565.7 397.222L561.551 392.633L561.168 392.965Z" fill="#415DA5"/>
<path d="M574.528 377.238C574.775 377.325 575.048 377.297 575.272 377.161C583.157 372.398 594.065 374.188 597.221 374.85L597.226 374.851C597.4 374.888 597.564 374.755 597.564 374.577V373.961C597.564 373.49 597.219 373.089 596.753 373.02C595.046 372.766 591.057 372.22 588.829 372.21C588.769 372.21 588.709 372.21 588.649 372.21C583.658 372.21 579.348 373.103 575.806 374.868C575.083 375.229 574.244 375.28 573.482 375.012L572.511 374.67C571.955 374.475 571.347 374.767 571.152 375.322C571.026 375.681 571.215 376.074 571.573 376.2L574.528 377.238Z" fill="#35488B"/>
<path d="M581.858 365.233C581.858 365.233 582.174 363.796 581.273 363.699C580.372 363.601 577.085 364.308 576.208 364.21C575.331 364.113 570.753 363.358 569.949 364.137C569.146 364.916 569.487 365.598 571.094 365.744C572.701 365.89 574.844 366.158 575.453 366.67C576.062 367.181 580.47 368.691 581.858 365.233Z" fill="#415DA5"/>
<path d="M568.853 399.967C570.565 398.255 570.565 395.479 568.853 393.768C567.141 392.056 564.366 392.056 562.654 393.768C560.942 395.479 560.942 398.255 562.654 399.967C564.366 401.679 567.142 401.679 568.853 399.967Z" fill="#415DA5"/>
<path d="M594.137 380.766L589.266 394.338L589.632 394.469L594.503 380.897L594.137 380.766Z" fill="#415DA5"/>
<path d="M603.057 400.682L603.211 400.324L589.43 394.403L580.37 381.461L580.051 381.685L589.174 394.718L589.225 394.74L603.057 400.682Z" fill="#415DA5"/>
<path d="M594.765 409.527L595.134 409.404C595.037 409.111 589.709 395.089 589.482 394.492L589.343 394.128L580.758 407.705L581.087 407.913L589.256 394.995C591.208 400.131 594.691 409.304 594.765 409.527Z" fill="#415DA5"/>
<path d="M604.546 390.746L589.254 393.376L589.32 393.76L604.612 391.13L604.546 390.746Z" fill="#415DA5"/>
<path d="M584.034 380.01L583.664 380.133L588.145 393.576L588.514 393.452L584.034 380.01Z" fill="#415DA5"/>
<path d="M589.333 394.764L589.391 394.735L603.417 387.624L603.241 387.276L589.272 394.358L574.236 391.836L574.172 392.22L589.333 394.764Z" fill="#415DA5"/>
<path d="M583.643 409.039C583.726 408.795 587.325 399.937 589.341 394.984L597.126 407.231L597.455 407.022L589.265 394.137L589.122 394.487C588.888 395.064 583.372 408.621 583.273 408.915L583.643 409.039Z" fill="#415DA5"/>
<path d="M589.358 394.392L589.301 394.777L604.398 397.024L604.455 396.639L589.358 394.392Z" fill="#415DA5"/>
<path d="M598.299 382.674L589.922 392.317L590.216 392.572L598.593 382.929L598.299 382.674Z" fill="#415DA5"/>
<path d="M588.998 395.638L588.609 395.67L589.777 409.794L590.166 409.762L588.998 395.638Z" fill="#415DA5"/>
<path d="M589.885 393.658L576.539 402.911L576.761 403.231L590.107 393.978L589.885 393.658Z" fill="#415DA5"/>
<path d="M600.368 405.023L600.644 404.749L589.499 393.507V378.878H589.109V393.667L600.368 405.023Z" fill="#415DA5"/>
<path d="M589.304 397.434C590.891 397.434 592.178 396.147 592.178 394.561C592.178 392.974 590.891 391.688 589.304 391.688C587.716 391.688 586.43 392.974 586.43 394.561C586.43 396.147 587.716 397.434 589.304 397.434Z" fill="#2C3A64"/>
<path d="M603.053 384.833C599.999 380.526 594.973 377.709 589.301 377.709C583.616 377.709 578.581 380.538 575.527 384.861C575.127 385.429 574.76 386.021 574.431 386.639V386.642C573.166 389.004 572.449 391.698 572.449 394.561C572.449 394.714 572.452 394.871 572.456 395.025C572.471 395.609 572.518 396.192 572.596 396.772C572.885 398.976 573.609 401.104 574.729 403.029C576.187 405.534 578.278 407.631 580.775 409.099C582.759 410.266 584.963 411.007 587.243 411.284C587.262 411.289 587.281 411.291 587.302 411.291C587.963 411.372 588.63 411.412 589.3 411.412C589.982 411.412 590.657 411.372 591.317 411.291C591.339 411.289 591.36 411.286 591.379 411.284C596.189 410.69 600.378 408.062 603.053 404.288C605.006 401.54 606.154 398.183 606.154 394.561C606.154 390.938 605.006 387.581 603.053 384.833ZM603.628 396.883C603.501 397.681 603.306 398.455 603.053 399.205C602.951 399.511 602.838 399.814 602.712 400.11C602.663 400.23 602.613 400.349 602.558 400.467C601.943 401.845 601.117 403.112 600.12 404.222C600.035 404.319 599.947 404.416 599.857 404.511C599.078 405.339 598.202 406.073 597.248 406.698C597.142 406.772 597.033 406.84 596.921 406.909C596.197 407.357 595.432 407.743 594.632 408.062C594.511 408.109 594.388 408.154 594.268 408.199C592.961 408.678 591.569 408.971 590.12 409.052C589.989 409.059 589.859 409.066 589.729 409.068C589.587 409.073 589.445 409.075 589.301 409.075C587.487 409.075 585.697 408.737 584.024 408.083C583.903 408.036 583.782 407.989 583.662 407.937C583.077 407.69 582.509 407.406 581.959 407.084C581.874 407.034 581.791 406.985 581.708 406.93C581.597 406.864 581.488 406.796 581.379 406.722C579.791 405.688 578.417 404.345 577.345 402.785V402.782C577.267 402.676 577.196 402.57 577.127 402.461C576.994 402.262 576.869 402.058 576.748 401.852C575.801 400.228 575.186 398.431 574.928 396.568C574.847 395.991 574.8 395.408 574.793 394.821C574.788 394.733 574.788 394.648 574.788 394.561C574.788 393.81 574.845 393.074 574.956 392.354C574.975 392.224 574.997 392.096 575.02 391.968C575.281 390.531 575.754 389.165 576.408 387.906C576.72 387.302 577.073 386.722 577.466 386.17C578.391 384.868 579.525 383.725 580.823 382.787C580.93 382.712 581.036 382.638 581.143 382.565C582.023 381.964 582.972 381.457 583.979 381.059C584.097 381.012 584.218 380.965 584.341 380.92C585.83 380.378 587.435 380.072 589.107 380.051C589.171 380.048 589.237 380.048 589.301 380.048C589.367 380.048 589.431 380.048 589.497 380.051C591.097 380.072 592.636 380.354 594.073 380.853C594.197 380.896 594.319 380.941 594.44 380.988C595.735 381.478 596.94 382.151 598.029 382.972C598.133 383.05 598.235 383.131 598.337 383.211C599.909 384.466 601.213 386.036 602.156 387.826C602.217 387.941 602.277 388.057 602.333 388.174C602.61 388.737 602.852 389.319 603.053 389.918C603.171 390.264 603.275 390.614 603.365 390.972C603.398 391.097 603.43 391.223 603.458 391.351C603.692 392.383 603.815 393.458 603.815 394.561C603.815 395.217 603.773 395.863 603.685 396.498C603.669 396.627 603.65 396.755 603.628 396.883Z" fill="#202E51"/>
<path d="M603.637 391.319C603.608 391.191 603.575 391.066 603.542 390.94C603.407 390.414 603.244 389.901 603.052 389.399C602.884 388.954 602.695 388.52 602.484 388.097C602.427 387.978 602.368 387.862 602.307 387.749C601.35 385.94 600.031 384.351 598.448 383.082C598.346 382.999 598.244 382.919 598.14 382.841C595.728 381.006 592.737 379.891 589.496 379.822C589.387 379.817 589.281 379.817 589.172 379.817H589.106C587.406 379.824 585.772 380.12 584.253 380.655C584.129 380.698 584.009 380.743 583.888 380.79C582.851 381.186 581.871 381.695 580.959 382.303C580.851 382.374 580.744 382.448 580.638 382.523C579.295 383.468 578.116 384.63 577.153 385.959C576.753 386.508 576.39 387.086 576.071 387.689C575.375 388.987 574.868 390.402 574.589 391.894C574.563 392.022 574.539 392.152 574.52 392.28C574.392 393.054 574.328 393.85 574.328 394.659C574.328 394.725 574.328 394.794 574.33 394.861C574.338 395.452 574.38 396.037 574.456 396.61C574.75 398.847 575.545 400.928 576.724 402.74C576.795 402.848 576.866 402.955 576.942 403.061C578.052 404.676 579.475 406.058 581.123 407.126C581.232 407.197 581.343 407.266 581.454 407.332C582.1 407.73 582.777 408.076 583.485 408.372C583.606 408.421 583.727 408.469 583.85 408.516C585.502 409.153 587.297 409.503 589.172 409.503C589.37 409.503 589.567 409.498 589.763 409.491C589.894 409.487 590.024 409.479 590.154 409.47C591.639 409.373 593.064 409.056 594.399 408.551C594.522 408.506 594.643 408.459 594.763 408.409C595.583 408.076 596.366 407.671 597.105 407.2C597.214 407.131 597.323 407.06 597.432 406.987C598.398 406.338 599.285 405.578 600.069 404.726C600.159 404.631 600.247 404.534 600.332 404.437C601.34 403.288 602.171 401.984 602.787 400.566C602.841 400.447 602.891 400.329 602.938 400.208C602.979 400.114 603.017 400.017 603.052 399.92C603.416 398.961 603.684 397.957 603.845 396.915C603.864 396.787 603.883 396.657 603.899 396.529C603.975 395.916 604.015 395.291 604.015 394.659C604.015 393.511 603.885 392.391 603.637 391.319ZM603.253 396.828C603.199 397.181 603.13 397.529 603.052 397.872C602.884 398.594 602.661 399.297 602.389 399.972C602.339 400.093 602.29 400.211 602.237 400.329C601.653 401.676 600.862 402.917 599.91 404.011C599.825 404.108 599.737 404.205 599.647 404.302C598.892 405.123 598.04 405.857 597.11 406.482C597.001 406.556 596.892 406.627 596.783 406.695C596.08 407.143 595.334 407.529 594.553 407.848C594.432 407.898 594.311 407.945 594.188 407.99C592.905 408.476 591.534 408.781 590.104 408.871C589.977 408.883 589.844 408.89 589.714 408.892C589.534 408.902 589.354 408.904 589.172 408.904C587.375 408.904 585.656 408.571 584.072 407.96C583.951 407.915 583.831 407.865 583.71 407.815C583.035 407.536 582.389 407.205 581.771 406.828C581.66 406.76 581.551 406.691 581.442 406.62C579.863 405.597 578.499 404.269 577.434 402.721C577.358 402.614 577.287 402.505 577.216 402.396C576.097 400.67 575.339 398.689 575.052 396.558C574.977 395.985 574.934 395.401 574.929 394.809C574.927 394.759 574.927 394.709 574.927 394.66C574.927 393.883 574.988 393.123 575.109 392.379C575.13 392.249 575.152 392.121 575.178 391.994C575.445 390.583 575.921 389.245 576.574 388.014C576.892 387.415 577.251 386.84 577.649 386.295C578.57 385.028 579.697 383.918 580.98 383.014C581.087 382.938 581.193 382.865 581.302 382.794C582.166 382.218 583.094 381.735 584.077 381.359C584.197 381.311 584.318 381.266 584.441 381.224H584.444C585.904 380.708 587.472 380.424 589.105 380.417H589.171C589.28 380.417 589.389 380.419 589.496 380.422C591.049 380.455 592.54 380.741 593.934 381.236C594.058 381.279 594.178 381.324 594.299 381.373C595.542 381.851 596.7 382.503 597.746 383.296C597.85 383.371 597.952 383.452 598.054 383.535C599.581 384.754 600.85 386.281 601.771 388.018C601.832 388.134 601.892 388.25 601.948 388.367C602.367 389.214 602.706 390.109 602.95 391.042C602.983 391.167 603.016 391.293 603.044 391.421C603.047 391.428 603.049 391.437 603.051 391.447C603.29 392.479 603.416 393.554 603.416 394.659C603.416 395.263 603.378 395.859 603.304 396.442C603.289 396.572 603.272 396.7 603.253 396.828Z" fill="#B84C42"/>
<path d="M539.168 380.755L534.297 394.327L534.664 394.459L539.535 380.887L539.168 380.755Z" fill="#415DA5"/>
<path d="M548.1 400.682L548.254 400.324L534.473 394.403L525.413 381.461L525.094 381.685L534.217 394.718L534.268 394.74L548.1 400.682Z" fill="#415DA5"/>
<path d="M539.811 409.527L540.181 409.404C540.084 409.111 534.755 395.089 534.529 394.492L534.39 394.128L525.805 407.705L526.134 407.913L534.303 394.995C536.254 400.131 539.737 409.304 539.811 409.527Z" fill="#415DA5"/>
<path d="M549.59 390.745L534.297 393.375L534.363 393.759L549.656 391.129L549.59 390.745Z" fill="#415DA5"/>
<path d="M529.073 380.009L528.703 380.132L533.184 393.575L533.553 393.452L529.073 380.009Z" fill="#415DA5"/>
<path d="M534.377 394.764L534.434 394.735L548.46 387.624L548.284 387.276L534.314 394.358L519.279 391.836L519.215 392.22L534.377 394.764Z" fill="#415DA5"/>
<path d="M528.686 409.039C528.769 408.795 532.369 399.937 534.384 394.984L542.169 407.231L542.498 407.022L534.308 394.138L534.165 394.487C533.931 395.065 528.415 408.621 528.316 408.916L528.686 409.039Z" fill="#415DA5"/>
<path d="M534.397 394.392L534.34 394.777L549.437 397.024L549.495 396.639L534.397 394.392Z" fill="#415DA5"/>
<path d="M543.342 382.673L534.965 392.316L535.259 392.571L543.636 382.928L543.342 382.673Z" fill="#415DA5"/>
<path d="M534.068 395.607L533.68 395.639L534.849 409.763L535.237 409.731L534.068 395.607Z" fill="#415DA5"/>
<path d="M534.924 393.651L521.578 402.904L521.8 403.225L535.146 393.971L534.924 393.651Z" fill="#415DA5"/>
<path d="M545.407 405.023L545.683 404.749L534.538 393.507V378.878H534.148V393.667L545.407 405.023Z" fill="#415DA5"/>
<path d="M534.347 397.434C535.934 397.434 537.221 396.147 537.221 394.561C537.221 392.974 535.934 391.688 534.347 391.688C532.759 391.688 531.473 392.974 531.473 394.561C531.473 396.147 532.759 397.434 534.347 397.434Z" fill="#2C3A64"/>
<path d="M543.154 380.2C542.716 379.927 542.262 379.676 541.798 379.449C541.09 379.096 540.351 378.793 539.589 378.545C537.939 378.003 536.178 377.709 534.347 377.709C531.833 377.709 529.447 378.263 527.302 379.255C526.997 379.395 526.694 379.546 526.398 379.705C521.104 382.55 517.496 388.142 517.496 394.56C517.496 397.541 518.282 400.467 519.774 403.029C521.232 405.533 523.322 407.631 525.82 409.099C526.009 409.21 526.203 409.319 526.397 409.421C528.227 410.403 530.228 411.033 532.29 411.284C532.309 411.289 532.328 411.291 532.349 411.291C533.01 411.372 533.677 411.412 534.347 411.412C535.029 411.412 535.704 411.372 536.364 411.291C536.386 411.288 536.407 411.286 536.426 411.284C544.74 410.256 551.199 403.149 551.199 394.56C551.199 388.495 547.977 383.166 543.154 380.2ZM548.673 396.883C548.493 398.007 548.18 399.089 547.754 400.11C547.707 400.23 547.655 400.349 547.6 400.467C546.985 401.845 546.161 403.112 545.164 404.222C545.079 404.319 544.992 404.416 544.902 404.511C544.123 405.339 543.247 406.076 542.293 406.698C542.184 406.772 542.077 406.84 541.966 406.909C541.244 407.357 540.477 407.743 539.677 408.062C539.558 408.109 539.437 408.154 539.315 408.199C538.01 408.678 536.616 408.971 535.167 409.052C535.036 409.059 534.906 409.066 534.776 409.068C534.634 409.073 534.492 409.075 534.347 409.075C532.532 409.075 530.74 408.737 529.068 408.083C528.947 408.036 528.827 407.989 528.708 407.937C528.123 407.69 527.555 407.406 527.006 407.084C526.921 407.034 526.838 406.985 526.755 406.93C526.644 406.864 526.535 406.796 526.426 406.722C526.416 406.717 526.407 406.713 526.397 406.703C524.818 405.671 523.455 404.336 522.389 402.785C522.311 402.678 522.238 402.57 522.172 402.461C522.037 402.262 521.914 402.058 521.793 401.852C520.51 399.648 519.833 397.127 519.833 394.561C519.833 393.81 519.889 393.074 520.001 392.354C520.02 392.224 520.041 392.096 520.065 391.968C520.747 388.206 522.882 384.944 525.867 382.787C525.974 382.712 526.078 382.638 526.187 382.565C526.256 382.518 526.327 382.47 526.398 382.425C527.219 381.883 528.098 381.426 529.023 381.059C529.144 381.012 529.267 380.964 529.388 380.919C530.877 380.377 532.482 380.072 534.151 380.051C534.217 380.048 534.281 380.048 534.347 380.048C534.412 380.048 534.478 380.048 534.542 380.051C535.997 380.069 537.401 380.304 538.725 380.723C538.858 380.763 538.988 380.808 539.118 380.853C539.241 380.896 539.364 380.941 539.485 380.988C539.951 381.163 540.406 381.365 540.846 381.585C541.632 381.982 542.378 382.447 543.074 382.972C543.178 383.05 543.28 383.131 543.382 383.211C544.954 384.466 546.258 386.036 547.2 387.825C547.262 387.941 547.321 388.057 547.375 388.175C547.813 389.061 548.161 389.996 548.41 390.972C548.443 391.097 548.474 391.223 548.502 391.35C548.737 392.383 548.86 393.457 548.86 394.561C548.86 395.217 548.815 395.863 548.73 396.497C548.713 396.627 548.694 396.755 548.673 396.883Z" fill="#1D2A4C"/>
<path d="M548.684 391.319C548.655 391.191 548.622 391.066 548.589 390.94C548.333 389.948 547.978 388.997 547.531 388.097C547.474 387.978 547.415 387.863 547.353 387.749C546.396 385.94 545.078 384.352 543.494 383.083C543.392 383 543.291 382.919 543.186 382.841C542.479 382.301 541.721 381.825 540.921 381.418C540.241 381.072 539.534 380.779 538.8 380.54H538.797C538.245 380.36 537.682 380.213 537.104 380.102C536.273 379.934 535.417 379.839 534.543 379.822C534.434 379.817 534.328 379.817 534.219 379.817H534.152C533.755 379.82 533.359 379.836 532.969 379.869C531.695 379.976 530.464 380.244 529.302 380.655C529.178 380.698 529.055 380.743 528.935 380.79C528.044 381.129 527.197 381.55 526.399 382.05C526.267 382.13 526.137 382.215 526.006 382.303C525.897 382.374 525.791 382.447 525.684 382.523C522.59 384.704 520.362 388.037 519.636 391.893C519.61 392.021 519.586 392.152 519.567 392.279C519.439 393.054 519.375 393.849 519.375 394.659C519.375 397.637 520.256 400.412 521.771 402.739C521.842 402.848 521.915 402.957 521.989 403.063C523.101 404.678 524.524 406.06 526.172 407.126C526.248 407.175 526.324 407.225 526.399 407.27C526.433 407.294 526.468 407.315 526.501 407.334C527.147 407.729 527.827 408.077 528.535 408.371C528.653 408.421 528.774 408.468 528.895 408.515C530.547 409.152 532.344 409.502 534.219 409.502C534.418 409.502 534.617 409.498 534.813 409.491C534.944 409.486 535.074 409.479 535.204 409.469C536.688 409.372 538.113 409.055 539.446 408.551C539.57 408.506 539.69 408.458 539.811 408.409C540.63 408.075 541.414 407.67 542.152 407.199C542.261 407.13 542.37 407.059 542.479 406.986C543.445 406.337 544.333 405.577 545.116 404.725C545.206 404.63 545.294 404.533 545.379 404.436C546.388 403.288 547.219 401.983 547.836 400.565C547.889 400.447 547.938 400.328 547.986 400.208C548.409 399.164 548.717 398.06 548.892 396.915C548.911 396.787 548.93 396.656 548.947 396.529C549.022 395.915 549.063 395.291 549.063 394.659C549.062 393.511 548.932 392.392 548.684 391.319ZM548.3 396.828C548.129 397.922 547.839 398.975 547.436 399.972C547.386 400.093 547.337 400.211 547.284 400.33C546.7 401.677 545.909 402.917 544.957 404.011C544.872 404.108 544.785 404.205 544.695 404.302C543.94 405.124 543.087 405.858 542.157 406.483C542.048 406.556 541.939 406.627 541.83 406.696C541.127 407.143 540.381 407.529 539.6 407.849C539.479 407.898 539.358 407.945 539.235 407.991C537.952 408.476 536.581 408.781 535.154 408.871C535.026 408.883 534.893 408.89 534.763 408.893C534.583 408.902 534.401 408.905 534.219 408.905C532.422 408.905 530.703 408.571 529.119 407.96C528.999 407.915 528.878 407.865 528.757 407.816C528.085 407.536 527.436 407.205 526.821 406.828C526.709 406.76 526.6 406.691 526.491 406.62C526.461 406.601 526.43 406.582 526.399 406.559C524.858 405.545 523.527 404.238 522.481 402.721C522.407 402.614 522.334 402.505 522.265 402.397C520.817 400.166 519.974 397.51 519.974 394.66C519.974 393.883 520.035 393.123 520.156 392.38C520.177 392.25 520.199 392.122 520.225 391.994C520.928 388.299 523.063 385.105 526.03 383.017C526.136 382.938 526.243 382.865 526.349 382.794C526.366 382.782 526.383 382.773 526.399 382.763C527.249 382.2 528.16 381.729 529.124 381.359C529.245 381.312 529.368 381.267 529.491 381.225C530.952 380.708 532.519 380.424 534.152 380.417H534.219C534.328 380.417 534.436 380.42 534.543 380.422C535.947 380.453 537.301 380.687 538.577 381.101C538.714 381.144 538.847 381.189 538.982 381.236C539.105 381.279 539.226 381.324 539.347 381.374C539.801 381.549 540.246 381.748 540.677 381.968C541.423 382.349 542.131 382.792 542.793 383.296C542.897 383.372 542.999 383.452 543.101 383.535C544.628 384.754 545.897 386.281 546.818 388.019C546.88 388.135 546.939 388.251 546.995 388.367C547.415 389.215 547.753 390.109 547.997 391.042C548.03 391.168 548.063 391.293 548.092 391.421C548.335 392.461 548.463 393.545 548.463 394.66C548.463 395.264 548.425 395.86 548.352 396.442C548.335 396.572 548.319 396.7 548.3 396.828Z" fill="#B84C42"/>
<path d="M577.973 354.968C577.973 354.968 581.537 360.618 577.133 363.726C572.728 366.834 557.899 368.32 558.626 368.922C560.851 370.766 562.871 373.602 562.764 390.581L561.666 391.148C561.666 391.148 551.091 368.143 551.8 365.402C552.269 363.587 567.693 353.765 577.973 354.968Z" fill="#FFB27D"/>
<path d="M569.421 366.726C569.421 366.726 578.406 365.238 579.333 362.066C580.026 359.696 580.231 358.73 576.159 351.073C576.159 351.073 574.457 354.306 565.576 353.557C565.576 353.557 565.621 353.977 565.621 354.544C565.61 355.486 565.462 356.824 564.725 357.21C564.714 357.221 564.691 357.221 564.68 357.233C563.511 357.766 561.702 358.841 561.43 358.943C561.418 358.943 566.88 359.989 569.421 366.726Z" fill="#35488B"/>
<path d="M564.727 357.21C568.685 356.041 572.552 356.165 574.832 354.036C571.474 353.174 567.438 354.544 565.623 354.544C565.611 355.486 565.464 356.824 564.727 357.21Z" fill="#2C3A64"/>
<path d="M564.252 391.406L563.326 391.85C562.992 391.951 562.72 391.971 562.382 392.082C561.868 392.251 561.741 392.556 561.719 392.622C561.715 392.631 561.714 392.636 561.714 392.636L557.781 394.524C557.614 394.431 557.552 394.058 557.529 393.772C557.513 393.579 557.591 393.389 557.736 393.259C558.095 392.938 558.866 392.436 559.291 391.392C559.531 390.806 560.661 389.002 560.661 389.002L560.668 388.996C560.704 388.98 560.899 388.951 561.936 389.219C562.472 389.357 562.75 388.27 562.75 388.27C562.75 388.27 562.92 388.312 563.102 388.456C563.246 388.569 563.398 388.747 563.476 389.019C563.588 389.402 564.094 389.97 564.458 390.342C564.68 390.568 564.849 390.722 564.849 390.722C564.849 390.722 565 390.923 564.252 391.406Z" fill="#B84C42"/>
<path d="M563.101 388.456C562.955 388.718 562.635 389.249 562.345 389.438C561.954 389.693 560.66 389.002 560.66 389.002L560.667 388.996C560.703 388.98 560.898 388.951 561.935 389.219C562.471 389.357 562.749 388.27 562.749 388.27C562.749 388.27 562.919 388.312 563.101 388.456Z" fill="#AA3E39"/>
<path d="M564.254 391.405L563.327 391.85C562.994 391.95 562.722 391.97 562.384 392.082C561.87 392.25 561.743 392.555 561.721 392.622C561.717 392.63 561.716 392.635 561.716 392.635L557.783 394.524C557.616 394.43 557.554 394.057 557.531 393.772C557.6 393.608 557.906 394.16 558.015 394.218C558.125 394.277 561.24 392.71 561.358 392.491C561.476 392.272 561.91 391.78 562.756 391.597C563.492 391.437 564.271 390.565 564.46 390.342C564.682 390.568 564.851 390.722 564.851 390.722C564.851 390.722 565.002 390.923 564.254 391.405Z" fill="#AA3E39"/>
<path d="M541.902 372.732C542.153 372.102 542.739 371.71 543.374 371.67C550.649 354.957 550.727 354.826 550.836 354.646L551.888 356.731C551.944 356.639 535.436 393.756 535.436 393.756L533.812 393.094L541.902 372.732Z" fill="#35488B"/>
<path d="M559.246 357.134C559.591 355.972 558.929 354.75 557.767 354.405C556.605 354.06 555.382 354.722 555.037 355.884C554.691 357.046 555.354 358.268 556.516 358.613C557.678 358.958 558.9 358.296 559.246 357.134Z" fill="#415DA5"/>
<path d="M545.656 353.292C546.002 352.13 545.339 350.909 544.177 350.563C543.015 350.218 541.792 350.88 541.447 352.042C541.102 353.204 541.764 354.426 542.926 354.771C544.088 355.116 545.311 354.454 545.656 353.292Z" fill="#415DA5"/>
<path d="M544.012 354.768L556.794 357.976L557.016 355.394L544.234 352.187L544.012 354.768Z" fill="#415DA5"/>
<path d="M556.505 352.221C556.505 352.221 555.301 353.009 554.45 352.973C553.599 352.938 552.518 353.292 552.518 353.292C552.518 353.292 551.384 353.629 551.277 354.976C551.277 354.976 551.282 355.367 553.068 354.816C553.458 354.696 554.397 354.923 554.716 354.816C555.035 354.71 556.005 353.663 556.849 353.69L556.505 352.221Z" fill="#FFB27D"/>
<path d="M550.067 350.696C550.067 350.696 548.863 351.484 548.013 351.449C547.162 351.413 546.081 351.768 546.081 351.768C546.081 351.768 544.946 352.105 544.84 353.451C544.84 353.451 544.864 354.005 546.63 353.292C547.115 353.096 547.96 353.398 548.279 353.292C548.598 353.185 549.767 352.288 550.577 352.066L550.067 350.696Z" fill="#E8945B"/>
<path d="M565.231 318.38C566.987 318.697 567.802 319.647 568.916 322.353C570.079 325.177 568.671 327.777 567.55 327.438C566.832 327.221 566.58 328.452 566.58 328.452L559.742 322.479C559.743 322.479 560.74 318.092 565.231 318.38Z" fill="#2C3A64"/>
<path d="M561.226 334.667C561.226 334.667 563.608 336.008 563.327 339.402C563.047 342.797 559.932 348.148 557.564 349.476C555.688 350.528 550.261 352.17 550.261 352.17L550.066 350.697C550.066 350.697 554.481 347.814 555.437 346.829C557.486 344.717 559.437 333.846 561.226 334.667Z" fill="#E8945B"/>
<path d="M561.461 342.301C561.569 343.066 561.771 343.725 562.02 344.351C562.227 344.875 562.467 345.375 562.714 345.896C563.438 347.427 565.142 348.181 565.2 351.124C565.219 352.138 573.784 347.855 573.833 344.311C573.833 344.301 573.835 344.293 573.836 344.283C573.851 344.111 573.875 343.651 573.901 343.043C573.965 341.555 574.049 339.182 574.079 337.981C574.081 337.953 574.081 337.925 574.082 337.899C574.094 337.384 574.11 337.012 574.13 336.914C572.983 332.036 570.346 332.016 569.445 332.031C569.326 332.033 569.205 332.037 569.085 332.042C568.59 332.065 568.122 331.83 567.837 331.424C567.333 330.708 566.767 329.476 566.421 327.793L566.216 327.88L562.759 329.35C562.759 329.35 563.078 330.468 563.305 331.536C563.402 331.994 563.481 332.441 563.511 332.789C563.541 333.124 563.346 333.437 563.033 333.557C563.033 333.557 563.033 333.558 563.032 333.561C562.971 333.698 560.909 338.422 561.461 342.301Z" fill="#FFB27D"/>
<path d="M562.023 344.351C562.231 344.875 562.471 345.375 562.718 345.896C563.441 347.427 565.146 348.181 565.203 351.124C565.255 351.129 565.308 351.134 565.362 351.139C571.685 351.633 573.84 344.283 573.84 344.283C573.855 344.111 573.878 343.651 573.904 343.043L562.494 343.062C562.494 343.062 562.259 343.578 562.023 344.351Z" fill="#E8945B"/>
<path d="M560.417 340.868C560.448 340.962 560.484 341.057 560.523 341.151C561.619 343.764 564.042 357.21 564.042 357.21C564.071 357.193 573.936 357.856 577.846 352.462C578.037 353.032 577.112 349.744 575.671 345.326C574.589 342.011 574.038 339.673 574.081 337.981C574.082 337.953 574.082 337.925 574.083 337.899C573.831 337.697 573.586 337.511 573.36 337.332C572.634 336.76 572.093 336.274 572.081 335.677C572.076 335.442 572.092 335.201 572.125 334.96C572.141 334.847 572.16 334.734 572.181 334.621C572.41 333.433 572.948 332.369 572.948 332.369C571.705 331.81 569.447 332.03 569.447 332.03C569.447 332.03 568.6 333.925 566.797 335.054C566.292 335.37 564.489 336.162 563.601 335.338C563.014 334.793 562.997 333.677 563.034 333.56C563.035 333.557 563.035 333.556 563.035 333.556C560.99 334.272 560.244 334.909 560.244 334.909C561.429 335.743 559.57 338.342 560.417 340.868Z" fill="#739AF0"/>
<path d="M562.762 329.35C562.762 329.35 563.082 330.468 563.308 331.536C565.315 331.057 565.996 328.993 566.22 327.881L562.762 329.35Z" fill="#E8945B"/>
<path d="M562.298 330.504C562.298 330.504 567.089 329.582 566.47 326.607C565.85 323.632 566.051 321.509 562.965 321.972C559.88 322.434 559.524 323.693 559.489 324.736C559.454 325.78 561.035 330.667 562.298 330.504Z" fill="#FFB27D"/>
<path d="M559.285 323.053C559.836 322.004 560.435 322.083 560.804 322.287C563.114 320.305 565.24 322.075 565.24 322.075C566.006 324.142 567.801 325.042 567.801 325.042C567.801 325.042 567.044 325.762 564.929 325.667C564.283 325.638 563.644 325.317 563.069 324.885C564.166 326.076 565.477 326.826 565.477 326.826C562.848 326.22 561.187 323.088 561.017 322.755C560.781 323.078 560.325 323.767 560.267 324.361C560.187 325.169 560.407 326.75 559.941 326.793C559.941 326.793 558.46 324.627 559.285 323.053Z" fill="#2C3A64"/>
<path d="M556.504 352.22L556.848 353.69C556.848 353.69 564.888 352.592 567.516 351.063C570.144 349.533 574.123 340.541 574.437 336.74C574.454 336.538 574.465 336.345 574.469 336.162C574.564 332.88 572.948 332.369 572.948 332.369C572.301 332.072 571.496 333.182 570.645 334.915C568.858 338.551 566.861 344.933 565.675 346.823C564.764 348.274 556.504 352.22 556.504 352.22Z" fill="#FFB27D"/>
<path d="M570.648 334.915C572.853 334.395 574.473 336.162 574.473 336.162C574.568 332.88 572.952 332.369 572.952 332.369C572.304 332.072 571.5 333.182 570.648 334.915Z" fill="#739AF0"/>
<path d="M560.245 334.909C560.245 334.909 559.438 335.657 559.129 337.359C559.129 337.359 560.321 337.367 560.877 338.53C560.877 338.53 561.317 335.095 560.245 334.909Z" fill="#739AF0"/>
<path d="M564.899 319.446C564.899 319.446 567.548 316.164 570.888 317.085C574.227 318.006 576.13 321.866 577.682 321.231C580.288 320.165 581.011 323.662 579.971 326.208C579.062 328.431 575.134 329.277 572.756 326.843C571.023 325.068 568.642 317.488 565.705 320.022C562.769 322.555 564.899 319.446 564.899 319.446Z" fill="#2C3A64"/>
<path d="M644 412.02V412.271C644 412.671 643.673 413 643.271 413H0.731532C0.329071 413 0 412.671 0 412.271V412.02C0 411.62 0.329071 411.291 0.731532 411.291H643.271C643.673 411.291 644 411.62 644 412.02Z" fill="#5F2D11"/>
</svg>
