<svg width="66" height="66" viewBox="0 0 66 66" fill="none" xmlns="http://www.w3.org/2000/svg">
<g id="fluent:globe-person-20-regular">
<path id="Vector" d="M37.3332 59.0474C31.9539 59.9425 26.4293 59.1499 21.5186 56.7783C16.608 54.4067 12.5522 50.5726 9.90875 45.8028C7.26526 41.033 6.16374 35.5616 6.75555 30.1405C7.34737 24.7193 9.60347 19.6145 13.2138 15.5274C16.8242 11.4403 21.6117 8.57162 26.9184 7.31544C32.2251 6.05925 37.7905 6.47727 42.8501 8.51203C47.9096 10.5468 52.2148 14.0985 55.1742 18.679C58.1336 23.2595 59.6018 28.644 59.3772 34.0928C58.5134 32.8053 57.3608 31.7374 56.0112 30.9743C55.8269 28.8433 55.346 26.7484 54.5823 24.7505H45.5634C45.8835 26.7569 46.0914 28.8656 46.1673 31.0436C44.8473 31.8125 43.7253 32.8784 42.8871 34.1456C42.9669 30.9997 42.7437 27.8535 42.2205 24.7505H23.7801C23.3216 27.4764 23.0942 30.2362 23.1003 33.0005C23.1003 35.9144 23.3412 38.693 23.7801 41.2505H41.3856C41.5836 42.4352 41.9961 43.5473 42.5736 44.5505H24.4863C24.9912 46.4975 25.6149 48.2663 26.3343 49.8041C28.3539 54.1535 30.8289 56.1005 33.0003 56.1005C34.0563 56.1005 35.1882 55.6385 36.3003 54.6584C36.3333 56.1533 36.6633 57.6515 37.3332 59.0474ZM39.6729 16.1969C37.6434 11.8475 35.1684 9.90047 33.0003 9.90047C30.8322 9.90047 28.3572 11.8475 26.3277 16.1969C25.5552 17.8883 24.9389 19.6468 24.4863 21.4505H41.5209C41.0664 19.6466 40.4478 17.8881 39.6729 16.1969ZM21.084 21.4505C21.6648 18.9986 22.4271 16.7579 23.3379 14.801C23.9517 13.4843 24.6612 12.2501 25.4565 11.1611C20.2004 12.9832 15.7751 16.6353 12.9891 21.4505H21.084ZM19.8003 33.0005C19.8003 30.1295 20.0214 27.3509 20.4372 24.7505H11.4183C10.4119 27.3845 9.8974 30.1808 9.90033 33.0005C9.90033 35.9045 10.4382 38.6897 11.4183 41.2505H20.4372C20.009 38.5214 19.7961 35.7629 19.8003 33.0005ZM23.3379 51.2C22.3635 49.0655 21.6083 46.8376 21.084 44.5505H12.9891C15.7751 49.3656 20.2004 53.0178 25.4565 54.8399C24.6349 53.6975 23.9254 52.4786 23.3379 51.2ZM53.0115 21.4505C50.2258 16.6351 45.8004 12.9829 40.5441 11.1611C41.3394 12.2501 42.0489 13.4843 42.6627 14.801C43.5735 16.7579 44.3358 18.9986 44.9166 21.4505H53.0115ZM57.7503 39.6005C57.7503 41.3509 57.055 43.0296 55.8172 44.2674C54.5795 45.5051 52.9008 46.2005 51.1503 46.2005C49.3999 46.2005 47.7212 45.5051 46.4834 44.2674C45.2457 43.0296 44.5503 41.3509 44.5503 39.6005C44.5503 37.85 45.2457 36.1713 46.4834 34.9336C47.7212 33.6958 49.3999 33.0005 51.1503 33.0005C52.9008 33.0005 54.5795 33.6958 55.8172 34.9336C57.055 36.1713 57.7503 37.85 57.7503 39.6005ZM62.7003 54.4505C62.7003 58.559 59.4003 62.7005 51.1503 62.7005C42.9003 62.7005 39.6003 58.5755 39.6003 54.4505C39.6003 53.1376 40.1218 51.8786 41.0502 50.9503C41.9785 50.022 43.2375 49.5005 44.5503 49.5005H57.7503C59.0632 49.5005 60.3222 50.022 61.2505 50.9503C62.1788 51.8786 62.7003 53.1376 62.7003 54.4505Z" fill="#4EA62F"/>
</g>
</svg>
