<svg width="60" height="60" viewBox="0 0 60 60" fill="none" xmlns="http://www.w3.org/2000/svg">
<g id="i.caseicon">
<rect width="60" height="60" rx="30" fill="#87AB42"/>
<g id="Group">
<path id="Vector" d="M42.2601 46H18.0191C16.9057 46 16 45.0942 16 43.9809V16.0299C16 14.9165 16.9057 14.0107 18.0191 14.0107H42.2601C43.3735 14.0107 44.2792 14.9165 44.2792 16.0299V43.9809C44.2792 45.0942 43.3735 46 42.2601 46ZM18.0196 14.943C17.4201 14.943 16.9327 15.4308 16.9327 16.0299V43.9809C16.9327 44.5804 17.4205 45.0682 18.0196 45.0682H42.2606C42.8601 45.0682 43.3475 44.5804 43.3475 43.9809V16.0299C43.3475 15.4304 42.8596 14.943 42.2606 14.943H18.0196Z" fill="white"/>
<path id="Vector_2" d="M23.3543 40.9094C23.2485 40.9094 23.1431 40.8735 23.0566 40.8018C22.8794 40.6542 22.8369 40.3995 22.9557 40.2023L28.8673 30.4219L24.3941 28.8099C24.2363 28.7534 24.1215 28.6158 24.0928 28.4508C24.0641 28.2853 24.1269 28.1176 24.2565 28.0114L34.9928 19.1968C35.1704 19.0511 35.4268 19.0561 35.5986 19.209C35.7698 19.3614 35.8044 19.6161 35.6806 19.8089L31.324 26.5774L35.9062 29.0812C36.0393 29.1539 36.1286 29.287 36.1456 29.4377C36.1631 29.5884 36.1057 29.7377 35.9922 29.8386L23.6646 40.7919C23.5754 40.8699 23.4646 40.9094 23.3543 40.9094ZM25.481 28.2113L29.7174 29.7381C29.8488 29.7856 29.952 29.8892 29.9986 30.0206C30.0452 30.1524 30.0304 30.2977 29.9582 30.4174L25.3434 38.0527L34.8775 29.5816L30.4371 27.1554C30.3232 27.093 30.2407 26.9868 30.2089 26.8617C30.1766 26.7366 30.1986 26.6034 30.2685 26.4944L33.2902 21.8002L25.481 28.2113Z" fill="white"/>
<path id="Vector_3" d="M36.9763 46.0001H30.1397C29.8823 46.0001 29.6738 45.7916 29.6738 45.5343V38.455C29.6738 38.1976 29.8823 37.9891 30.1397 37.9891C30.3971 37.9891 30.6056 38.1976 30.6056 38.455V45.0684H36.5105V31.6641C36.5105 31.4067 36.719 31.1982 36.9763 31.1982C37.2337 31.1982 37.4422 31.4067 37.4422 31.6641V45.5343C37.4422 45.7916 37.2337 46.0001 36.9763 46.0001Z" fill="white"/>
<path id="Vector_4" d="M36.9776 27.8397C36.7202 27.8397 36.5117 27.6312 36.5117 27.3738V21.5255C36.5117 21.2681 36.7202 21.0596 36.9776 21.0596C37.235 21.0596 37.4435 21.2681 37.4435 21.5255V27.3738C37.4435 27.6312 37.235 27.8397 36.9776 27.8397Z" fill="white"/>
<path id="Vector_5" d="M36.9773 18.2014C36.8625 18.2014 36.7491 18.1588 36.6607 18.0777C36.6554 18.0723 36.6347 18.0526 36.6298 18.0472C36.4742 17.9104 36.433 17.6943 36.5114 17.5145V14.4659C36.5114 14.2085 36.7199 14 36.9773 14C37.2347 14 37.4432 14.2085 37.4432 14.4659V17.7356C37.4432 17.9207 37.3338 18.0884 37.1638 18.1624C37.1038 18.1884 37.0405 18.2014 36.9773 18.2014Z" fill="white"/>
<path id="Vector_6" d="M30.1397 21.0348C29.8823 21.0348 29.6738 20.8263 29.6738 20.569V14.4659C29.6738 14.2085 29.8823 14 30.1397 14C30.3971 14 30.6056 14.2085 30.6056 14.4659V20.569C30.6056 20.8263 30.3966 21.0348 30.1397 21.0348Z" fill="white"/>
<path id="Vector_7" d="M23.3038 26.6474C23.0464 26.6474 22.8379 26.4384 22.8379 26.1815V14.4659C22.8379 14.2085 23.0468 14 23.3038 14C23.5611 14 23.7697 14.2085 23.7697 14.4659V26.1815C23.7701 26.4384 23.5611 26.6474 23.3038 26.6474Z" fill="white"/>
<path id="Vector_8" d="M23.3038 36.1908C23.0464 36.1908 22.8379 35.9823 22.8379 35.725V31.5567C22.8379 31.2993 23.0468 31.0908 23.3038 31.0908C23.5611 31.0908 23.7697 31.2993 23.7697 31.5567V35.725C23.7701 35.9823 23.5611 36.1908 23.3038 36.1908Z" fill="white"/>
<path id="Vector_9" d="M23.3038 46C23.0464 46 22.8379 45.7915 22.8379 45.5341V42.9258C22.8379 42.6685 23.0468 42.46 23.3038 42.46C23.5611 42.46 23.7697 42.6685 23.7697 42.9258V45.5341C23.7701 45.7915 23.5611 46 23.3038 46Z" fill="white"/>
<path id="Vector_10" d="M43.8129 30.4699H38.1094C37.852 30.4699 37.6435 30.2614 37.6435 30.004C37.6435 29.7466 37.8524 29.5381 38.1094 29.5381H43.3471V22.0226H36.9561C36.6987 22.0226 36.4902 21.8141 36.4902 21.5567C36.4902 21.2993 36.6987 21.0908 36.9561 21.0908H43.8129C44.0703 21.0908 44.2788 21.2993 44.2788 21.5567V30.004C44.2788 30.2614 44.0703 30.4699 43.8129 30.4699Z" fill="white"/>
<path id="Vector_11" d="M22.6824 30.4699H16.4659C16.2085 30.4699 16 30.2614 16 30.004V21.5567C16 21.2993 16.2085 21.0908 16.4659 21.0908H28.9366C29.194 21.0908 29.4025 21.2993 29.4025 21.5567C29.4025 21.8141 29.194 22.0226 28.9366 22.0226H16.9318V29.5381H22.6824C22.9398 29.5381 23.1483 29.7466 23.1483 30.004C23.1483 30.2614 22.9398 30.4699 22.6824 30.4699Z" fill="white"/>
<path id="Vector_12" d="M21.652 38.921H16.4659C16.2085 38.921 16 38.7125 16 38.4551C16 38.1978 16.2085 37.9893 16.4659 37.9893H21.652C21.9094 37.9893 22.1179 38.1978 22.1179 38.4551C22.1179 38.7125 21.9089 38.921 21.652 38.921Z" fill="white"/>
<path id="Vector_13" d="M43.813 38.921H29.3331C29.0757 38.921 28.8672 38.7125 28.8672 38.4551C28.8672 38.1978 29.0757 37.9893 29.3331 37.9893H43.813C44.0704 37.9893 44.2789 38.1978 44.2789 38.4551C44.2789 38.7125 44.0704 38.921 43.813 38.921Z" fill="white"/>
</g>
</g>
</svg>
