<svg width="71" height="70" viewBox="0 0 71 70" fill="none" xmlns="http://www.w3.org/2000/svg">
<path fill-rule="evenodd" clip-rule="evenodd" d="M12.3877 30.2229C13.3594 30.2229 14.2363 29.8268 14.8746 29.1878C15.51 28.5488 15.9038 27.6641 15.9038 26.6868C15.9038 25.7095 15.5099 24.8277 14.8746 24.1858C14.2392 23.5468 13.3594 23.1507 12.3877 23.1507C11.4159 23.1507 10.5391 23.5468 9.90078 24.1858C9.2654 24.8248 8.87155 25.7095 8.87155 26.6868C8.87155 27.6641 9.26543 28.5459 9.90078 29.1878C10.539 29.8268 11.4159 30.2229 12.3877 30.2229ZM42.8806 42.6788L42.8834 44.7924C42.9064 45.547 42.7052 46.2757 42.3314 46.8944C41.9634 47.5074 41.4258 48.0162 40.7645 48.3458C40.7387 48.3603 40.7157 48.3718 40.6898 48.3834C40.2988 48.5482 39.9739 48.8171 39.7439 49.1525C39.5138 49.488 39.3787 49.8898 39.3672 50.312C39.3557 50.737 39.4679 51.1476 39.6749 51.4975C39.879 51.8386 40.178 52.1191 40.5489 52.3071C41.2331 52.5962 41.8052 53.0762 42.2106 53.6689C42.6218 54.2674 42.8633 54.9815 42.8834 55.742C42.9064 56.4966 42.7051 57.2224 42.3314 57.844C41.9634 58.457 41.4257 58.9658 40.7645 59.2954C40.7386 59.3099 40.7156 59.3214 40.6898 59.333C40.2987 59.4978 39.9739 59.7667 39.7438 60.1021C39.5138 60.4376 39.3787 60.8394 39.3672 61.2616C39.3643 61.3599 39.3701 61.464 39.3816 61.5738C39.3931 61.6808 39.4132 61.782 39.4391 61.8803C39.4765 62.0249 39.4765 62.1724 39.4391 62.3083H52.3104V39.3395C48.1675 39.0648 44.4388 37.2634 41.6788 34.4877C40.8536 33.6579 40.1176 32.7413 39.4793 31.7525H19.1589C18.4228 32.7789 17.4741 33.629 16.3816 34.242C15.1884 34.907 13.8315 35.2858 12.3882 35.2858C10.9478 35.2858 9.58786 34.907 8.39471 34.242C7.30218 33.6319 6.35346 32.7789 5.61745 31.7525H2.68203V62.3053H8.73975C8.73113 62.2677 8.7225 62.233 8.71963 62.1954C8.711 62.1173 8.70238 62.019 8.69663 61.9005C8.69375 61.8109 8.69088 61.7126 8.69375 61.6114C8.71675 60.8539 8.95826 60.1368 9.36651 59.5382C9.77189 58.9455 10.344 58.4656 11.0283 58.1764C11.3992 57.9914 11.6982 57.708 11.9023 57.3668C12.1122 57.0199 12.2243 56.6093 12.2099 56.1813C12.1984 55.7592 12.0633 55.3573 11.8333 55.0219C11.6033 54.6865 11.2784 54.4176 10.8874 54.2528C10.8615 54.2412 10.8356 54.2296 10.8126 54.2152C10.1514 53.8856 9.61373 53.3767 9.24572 52.7638C8.87197 52.1421 8.67071 51.4135 8.69371 50.6618C8.71672 49.9043 8.95822 49.1872 9.36647 48.5886C9.77185 47.9959 10.344 47.516 11.0282 47.2268C11.3991 47.0418 11.6981 46.7584 11.9022 46.4172C12.1121 46.0674 12.2243 45.6597 12.2099 45.2317L12.207 43.0661L10.3181 45.7811C10.0536 46.1628 9.53035 46.2553 9.15087 45.9893C8.77137 45.7233 8.67937 45.1971 8.94386 44.8154L12.3565 39.9146C12.621 39.5329 13.1443 39.4404 13.5238 39.7064C13.6129 39.7671 13.6848 39.8423 13.7394 39.929L17.1434 44.8183C17.4079 45.2 17.3159 45.7262 16.9364 45.9922C16.5569 46.2581 16.0336 46.1657 15.7692 45.784L13.8832 43.0748L13.886 45.1884C13.909 45.943 13.7078 46.6717 13.334 47.2904C12.9632 47.9033 12.4284 48.4122 11.7671 48.7418C11.7413 48.7563 11.7183 48.7678 11.6924 48.7794C11.3014 48.9442 10.9765 49.2131 10.7465 49.5485C10.5164 49.884 10.3813 50.2858 10.3698 50.708C10.3583 51.133 10.4705 51.5436 10.6775 51.8934C10.8816 52.2346 11.1806 52.5151 11.5515 52.7031C12.2357 52.9922 12.8079 53.4722 13.2132 54.0649C13.6244 54.6634 13.8659 55.3775 13.886 56.138C13.909 56.8926 13.7078 57.6184 13.334 58.24C12.9631 58.8529 12.4283 59.3618 11.7671 59.6914C11.7412 59.7059 11.7182 59.7174 11.6924 59.729C11.3014 59.8938 10.9765 60.1627 10.7464 60.4981C10.5164 60.8336 10.3813 61.2354 10.3698 61.6576C10.3669 61.7096 10.3698 61.7674 10.3727 61.8282C10.3756 61.8628 10.3784 61.9178 10.3899 61.9901C10.4043 62.0999 10.3957 62.2069 10.3698 62.3052H23.2698C23.2641 62.2879 23.2612 62.2676 23.2583 62.2503C23.2325 62.1086 23.2123 61.9698 23.2008 61.831C23.1922 61.7067 23.1865 61.5679 23.1922 61.4118C23.2152 60.6543 23.4567 59.9372 23.865 59.3387C24.2732 58.7459 24.8425 58.266 25.5267 57.9769C25.8976 57.7889 26.1966 57.5085 26.4007 57.1672C26.6106 56.8203 26.7228 56.4097 26.7084 55.9818C26.6969 55.5596 26.5618 55.1577 26.3317 54.8223C26.1017 54.4869 25.7769 54.218 25.3858 54.0532C25.36 54.0416 25.3341 54.0301 25.3111 54.0156C24.6498 53.686 24.1122 53.1771 23.7442 52.5642C23.3704 51.9425 23.1692 51.2168 23.1922 50.4622C23.2152 49.7047 23.4567 48.9876 23.8649 48.3891C24.2703 47.7963 24.8424 47.3164 25.5267 47.0273C25.8976 46.8393 26.1966 46.5589 26.4007 46.2177C26.6106 45.8678 26.7227 45.4601 26.7083 45.0322L26.7055 42.8665L24.8137 45.5815C24.5492 45.9632 24.026 46.0557 23.6465 45.7897C23.267 45.5237 23.175 44.9975 23.4395 44.6158L26.8521 39.715C27.1166 39.3333 27.6399 39.2408 28.0194 39.5068C28.1085 39.5675 28.1804 39.6427 28.235 39.7294L31.639 44.6188C31.9035 45.0004 31.8115 45.5267 31.432 45.7926C31.0525 46.0586 30.5292 45.9661 30.2648 45.5844L28.3788 42.8752L28.3816 44.9888C28.4046 45.7434 28.2034 46.4692 27.8296 47.0908C27.4616 47.7038 26.924 48.2126 26.2627 48.5422C26.2369 48.5567 26.2139 48.5683 26.188 48.5798C25.797 48.7446 25.4721 49.0135 25.2421 49.349C25.012 49.6844 24.8769 50.0862 24.8654 50.5084C24.8539 50.9334 24.9661 51.344 25.1731 51.6939C25.3772 52.0351 25.6762 52.3155 26.0471 52.5035C26.7313 52.7955 27.3034 53.2726 27.7088 53.8653C28.12 54.4638 28.3615 55.1779 28.3816 55.9384C28.4046 56.693 28.2033 57.4188 27.8296 58.0404C27.4616 58.6534 26.9239 59.1622 26.2627 59.4918C26.2368 59.5063 26.2138 59.5179 26.188 59.5294C25.7969 59.6942 25.4721 59.9631 25.242 60.2986C25.012 60.634 24.8769 61.0358 24.8654 61.458C24.8625 61.5245 24.8654 61.6054 24.874 61.698C24.8798 61.7818 24.8913 61.8599 24.9057 61.9322C24.9315 62.0594 24.9229 62.1866 24.8942 62.3052H37.8089C37.76 62.1259 37.7255 61.9437 37.7054 61.7645C37.6853 61.591 37.6767 61.4088 37.6853 61.2122C37.7083 60.4547 37.9498 59.7376 38.358 59.1391C38.7634 58.5464 39.3355 58.0664 40.0198 57.7773C40.3907 57.5894 40.6897 57.3089 40.8938 56.9677C41.1037 56.6207 41.2158 56.2102 41.2015 55.7822C41.19 55.3601 41.0548 54.9581 40.8248 54.6228C40.5948 54.2874 40.2699 54.0185 39.8789 53.8536C39.853 53.8421 39.8272 53.8305 39.8042 53.8161C39.1429 53.4864 38.6053 52.9776 38.2373 52.3646C37.8635 51.743 37.6623 51.0144 37.6853 50.2626C37.7083 49.5051 37.9498 48.788 38.358 48.1895C38.7663 47.5968 39.3355 47.1168 40.0198 46.8277C40.3907 46.6427 40.6897 46.3593 40.8938 46.0181C41.1037 45.6682 41.2158 45.2606 41.2014 44.8326L41.1985 42.667L39.3068 45.382C39.0423 45.7636 38.519 45.8562 38.1395 45.5901C37.76 45.3241 37.668 44.7979 37.9325 44.4163L41.3452 39.5154C41.6097 39.1338 42.1329 39.0412 42.5124 39.3072C42.6016 39.368 42.6734 39.4431 42.7281 39.5299L46.1321 44.4192C46.3966 44.8008 46.3046 45.3271 45.9251 45.5931C45.5456 45.8591 45.0223 45.7665 44.7579 45.3849L42.8806 42.6788ZM48.2023 22.8847H52.4775C52.9432 22.8847 53.3198 23.2634 53.3198 23.7318C53.3198 23.8388 53.2997 23.94 53.2652 24.0354L51.566 29.4914L57.618 21.812H53.3428C52.8771 21.812 52.5005 21.4332 52.5005 20.9648C52.5005 20.8578 52.5206 20.7566 52.5551 20.6612L54.2543 15.2052L48.2023 22.8847ZM51.3332 24.5761H46.4629V24.5733C46.2789 24.5733 46.0949 24.5125 45.9396 24.3911C45.5774 24.102 45.517 23.5699 45.8045 23.2056L55.7347 10.6054C55.9417 10.3249 56.3097 10.1948 56.6576 10.3047C57.1004 10.4435 57.3476 10.9177 57.2096 11.3629L54.4812 20.1208H59.3515V20.1237C59.5355 20.1237 59.7196 20.1845 59.8748 20.3059C60.2371 20.595 60.2974 21.1271 60.0099 21.4914L50.0826 34.0894C49.8756 34.3698 49.5076 34.5 49.1598 34.3901C48.717 34.2513 48.4697 33.7771 48.6077 33.3318L51.3332 24.5761ZM53.4061 37.6797C49.289 37.6797 45.5602 35.9998 42.8635 33.2877C42.024 32.4435 41.2822 31.4979 40.6612 30.4715L40.6526 30.4571C39.284 28.1902 38.4963 25.5302 38.4963 22.6851C38.4963 18.5446 40.1667 14.7947 42.8635 12.0826C45.5603 9.3705 49.2892 7.69065 53.4061 7.69065C57.5229 7.69065 61.2519 9.3705 63.9487 12.0826C66.6455 14.7976 68.3159 18.5448 68.3159 22.6851C68.3159 26.8253 66.6455 30.5755 63.9487 33.2875C61.2519 35.9997 57.5258 37.6797 53.4061 37.6797ZM65.1418 34.4848C62.2668 37.3761 58.3394 39.2121 53.9897 39.3624V63.1529C53.9897 63.6213 53.6131 64 53.1474 64L1.84236 63.9971C1.37661 63.9971 1 63.6183 1 63.15V30.9059C1 30.4375 1.37663 30.0587 1.84236 30.0587H6.06294C6.37919 30.0587 6.6552 30.2351 6.79895 30.4924C7.41421 31.4408 8.24506 32.2243 9.21394 32.765C10.1569 33.2913 11.238 33.5891 12.3909 33.5891C13.5437 33.5891 14.6248 33.2913 15.5678 32.765C16.5366 32.2243 17.3675 31.4408 17.9828 30.4924C18.1265 30.2322 18.4025 30.0587 18.7159 30.0587H38.516C37.4264 27.8353 36.8111 25.3314 36.8111 22.6858C36.8111 18.0769 38.6684 13.9049 41.6728 10.8864C44.6772 7.86498 48.823 6 53.4056 6C57.9881 6 62.1368 7.86779 65.1383 10.8864C68.1427 13.905 70 18.0772 70 22.6858C70 27.2917 68.1434 31.4633 65.1418 34.4848ZM13.2303 17.9319H17.8074C18.2731 17.9319 18.6497 18.3107 18.6497 18.7791C18.6497 19.2475 18.2731 19.6262 17.8074 19.6262H13.2303V21.5287C14.3285 21.708 15.3118 22.2342 16.0651 22.9918C17.0052 23.9372 17.5888 25.2442 17.5888 26.6898C17.5888 28.1326 17.0081 29.4395 16.0651 30.3879C15.125 31.3333 13.8254 31.9203 12.3879 31.9203C10.9533 31.9203 9.65378 31.3362 8.71073 30.3879C7.77063 29.4424 7.18697 28.1355 7.18697 26.6898C7.18697 25.2471 7.76772 23.9402 8.71073 22.9918C9.46396 22.2343 10.4473 21.708 11.5455 21.5287V10.8685C11.5455 10.4001 11.9222 10.0214 12.3879 10.0214C12.8537 10.0214 13.2303 10.4001 13.2303 10.8685V13.2423H17.8074C18.2731 13.2423 18.6497 13.6211 18.6497 14.0895C18.6497 14.5579 18.2731 14.9366 17.8074 14.9366H13.2303V17.9319Z" fill="#999999"/>
</svg>
