<svg width="70" height="70" viewBox="0 0 70 70" fill="none" xmlns="http://www.w3.org/2000/svg">
<path fill-rule="evenodd" clip-rule="evenodd" d="M56.7677 45.2022C56.9346 45.3675 57.0315 45.5909 57.0381 45.8258C57.0447 46.0607 56.9605 46.2891 56.8032 46.4636C56.6458 46.6381 56.4273 46.7452 56.193 46.7628C55.9587 46.7804 55.7267 46.707 55.545 46.558L48.6978 40.3619C48.4383 40.723 48.0999 41.0203 47.7083 41.231L44.7982 42.8004C44.107 43.1719 43.2967 43.2539 42.5451 43.0284C41.7935 42.803 41.1621 42.2885 40.7894 41.5979L39.5218 39.2507C38.2175 39.5422 36.8835 39.679 35.5472 39.6583L34.781 42.2134C34.555 42.9649 34.0404 43.5962 33.35 43.9689C32.6595 44.3416 31.8495 44.4254 31.0973 44.2018L27.9338 43.2529C27.1825 43.0267 26.5515 42.512 26.1789 41.8215C25.8062 41.1309 25.7224 40.3209 25.9457 39.5686L26.7127 37.0087C25.5834 36.2924 24.5435 35.444 23.6152 34.4814L21.261 35.7507C20.5705 36.1214 19.7612 36.2032 19.0104 35.9782C18.2596 35.7533 17.6286 35.24 17.2554 34.5507L15.6871 31.6401C15.3154 30.949 15.2332 30.1385 15.4585 29.3868C15.6837 28.635 16.1981 28.0034 16.8886 27.6306L19.2379 26.3645C18.946 25.0601 18.8092 23.7258 18.8303 22.3893L16.2773 21.6237C15.526 21.3976 14.8951 20.8828 14.5226 20.1923C14.1501 19.5017 14.0664 18.6916 14.29 17.9395L15.238 14.7722C15.4641 14.0206 15.9788 13.3893 16.6694 13.0166C17.36 12.6439 18.1702 12.5602 18.9224 12.7837L21.4819 13.5501C22.197 12.4209 23.0439 11.3809 24.0048 10.4521L22.7332 8.10164C22.3615 7.41048 22.2792 6.60002 22.5045 5.84826C22.7298 5.0965 23.2442 4.46489 23.9347 4.09214L26.8448 2.52356C27.5358 2.1518 28.3461 2.06955 29.0978 2.29486C29.8494 2.52018 30.4809 3.03464 30.8536 3.72527L32.1203 6.07488C33.4243 5.78294 34.7581 5.64611 36.0941 5.66724L36.8596 3.11055C37.0857 2.3592 37.6003 1.72811 38.2908 1.35556C38.9812 0.982999 39.7912 0.899346 40.5432 1.12292L43.7108 2.07435C44.4621 2.30067 45.0931 2.81557 45.4656 3.50626C45.8381 4.19695 45.9217 5.00714 45.6981 5.75937L44.9319 8.31932C46.0612 9.034 47.1011 9.8811 48.0294 10.8426L50.3795 9.57484C51.0705 9.20308 51.8809 9.12083 52.6325 9.34614C53.3841 9.57146 54.0156 10.0859 54.3883 10.7765L55.9575 13.6871C56.3281 14.3786 56.4094 15.189 56.1833 15.9403C55.9573 16.6917 55.4425 17.3227 54.7519 17.6949L52.4035 18.9619C52.6949 20.2661 52.8317 21.6001 52.811 22.9363L55.3665 23.7018C56.1188 23.9268 56.7512 24.441 57.125 25.1317C57.4988 25.8223 57.5834 26.6331 57.3603 27.3861L56.4115 30.5542C56.2739 31.0129 56.0272 31.4313 55.6924 31.7737C55.3576 32.116 54.9448 32.372 54.4894 32.5198L62.049 38.53C62.2393 38.6813 62.3616 38.9021 62.3891 39.1437C62.4166 39.3852 62.3471 39.6278 62.1958 39.8181C62.0444 40.0084 61.8237 40.1308 61.5822 40.1583C61.3406 40.1858 61.0981 40.1162 60.9078 39.9649L46.2744 28.335C45.8096 27.9684 45.4521 27.4833 45.2397 26.9306C45.0272 26.378 44.9676 25.7783 45.0672 25.1946C45.9639 19.8953 42.1123 14.7746 36.9313 13.6178C35.5347 13.3009 34.0854 13.2964 32.6869 13.6047L38.1809 18.2689C43.1117 22.4529 36.0909 30.0512 31.4968 26.1485L26.006 21.4892C25.9355 23.9653 26.7392 26.3871 28.276 28.3297C29.8128 30.2722 31.9845 31.6114 34.4101 32.1122C36.0855 32.4669 37.8254 32.3658 39.4485 31.8195C40.0079 31.6256 40.6093 31.5866 41.1891 31.7067C41.7688 31.8268 42.3053 32.1016 42.7416 32.5019L56.7677 45.2022ZM17.826 66.8272L20.9236 65.1967L19.2933 62.0987L16.1958 63.7292L17.826 66.8272ZM9.31353 51.0224C8.73734 51.3283 8.30534 51.8495 8.11159 52.4725C7.91785 53.0955 7.97806 53.7699 8.27912 54.3487L15.8257 68.686C16.1314 69.2632 16.6531 69.6958 17.2768 69.8892C17.9005 70.0826 18.5754 70.0211 19.1539 69.7182L22.7356 67.8325C23.3122 67.5269 23.7444 67.0056 23.9379 66.3823C24.1314 65.7591 24.0705 65.0846 23.7684 64.5061L22.844 62.7501L25.1264 62.3286C25.3796 62.2771 25.6408 62.2788 25.8933 62.3333C26.1458 62.3879 26.3843 62.4943 26.5937 62.6457C29.3285 64.5608 31.5766 66.8737 35.3434 66.771L42.9315 66.5623C44.2743 66.5407 45.5908 66.1861 46.7627 65.5301L61.4246 57.5038C62.1534 57.0252 62.6768 56.2912 62.892 55.4462C63.1071 54.6012 62.9985 53.7062 62.5873 52.9373C62.1762 52.1684 61.4924 51.581 60.6702 51.2908C59.8481 51.0006 58.9472 51.0284 58.1445 51.3689L53.5895 53.8644C53.5614 53.7321 53.5249 53.6016 53.4803 53.4739C52.5266 50.7134 48.6277 50.1028 47.2477 52.5062L44.8699 56.6478C44.7417 56.1535 44.5106 55.6918 44.1918 55.2929C43.8729 54.8941 43.4735 54.5671 43.0196 54.3332L30.0018 47.2069C29.0351 46.6624 27.9446 46.3757 26.8351 46.3744C25.7256 46.3731 24.6345 46.6573 23.6665 47.1996L16.6637 51.0085L16.2218 50.1696C15.9165 49.5924 15.395 49.1596 14.7714 48.9661C14.1478 48.7725 13.4729 48.8338 12.8944 49.1367L9.31353 51.0224ZM17.5163 52.6285L24.542 48.8065C25.2413 48.4104 26.0315 48.2029 26.8351 48.2042C27.6388 48.2055 28.4283 48.4155 29.1263 48.8138L42.1457 55.9417C43.9929 56.9527 42.872 58.9957 41.298 58.4487L32.2899 55.1061C32.1761 55.057 32.0535 55.0317 31.9295 55.0315C31.8056 55.0313 31.6829 55.0563 31.5689 55.105C31.455 55.1537 31.3521 55.225 31.2665 55.3147C31.1809 55.4044 31.1145 55.5105 31.0712 55.6266C31.0279 55.7428 31.0087 55.8665 31.0146 55.9903C31.0206 56.1141 31.0517 56.2355 31.106 56.3469C31.1602 56.4583 31.2366 56.5575 31.3304 56.6386C31.4242 56.7196 31.5335 56.7807 31.6516 56.8181L40.6703 60.1689L41.1725 60.3157C42.9136 60.7967 44.1958 61.0942 46.1375 60.0377L59.0257 52.9758C59.1767 52.8979 59.343 52.854 59.5128 52.8471C59.6826 52.8402 59.8519 52.8705 60.0087 52.9358C61.2991 53.4152 61.6186 55.3083 60.5924 55.8708L45.8872 63.9232C44.9657 64.4368 43.9317 64.7149 42.8769 64.7328L35.2888 64.9415C32.2182 65.023 30.0719 62.8495 27.6363 61.1464C27.2307 60.8538 26.7693 60.6479 26.2807 60.5414C25.7921 60.4349 25.2868 60.4302 24.7963 60.5276L21.9515 61.0535L17.5163 52.6285ZM13.7503 50.7582C13.8988 50.6812 14.0717 50.6659 14.2315 50.7155C14.3912 50.7651 14.525 50.8756 14.6038 51.0232L22.1186 65.3002C22.1328 65.3324 22.1489 65.3637 22.1667 65.394C22.2275 65.5341 22.2363 65.6914 22.1915 65.8374C22.1467 65.9835 22.0511 66.1087 21.9221 66.1905L18.3053 68.0974C18.1568 68.1744 17.984 68.1898 17.8242 68.1402C17.6645 68.0906 17.5307 67.98 17.4519 67.8325L9.9363 53.5546C9.92218 53.5226 9.9064 53.4913 9.88902 53.4609C9.82798 53.3208 9.81908 53.1634 9.86394 53.0173C9.90879 52.8713 10.0044 52.746 10.1336 52.6643L13.7503 50.7582ZM46.2744 57.8739L48.8323 53.4193C49.4029 52.4312 51.2949 52.7508 51.7514 54.0715C51.8442 54.3248 51.8528 54.6013 51.7758 54.8599L46.2744 57.8764V57.8739ZM40.813 37.7897L42.3993 40.732C42.5422 40.994 42.7828 41.1889 43.0687 41.2744C43.3546 41.3599 43.6627 41.3291 43.926 41.1886L46.8369 39.6192C47.0462 39.5075 47.2145 39.3318 47.317 39.1178L41.514 33.8609C41.3202 33.68 41.0801 33.5561 40.8204 33.5029C40.5606 33.4497 40.2912 33.4692 40.0419 33.5593C38.0801 34.192 35.9881 34.3067 33.9689 33.8925C31.9496 33.4782 30.0718 32.549 28.5174 31.195C26.9741 29.8912 25.7711 28.2314 25.0123 26.3588C24.2659 24.5267 24.0059 22.5327 24.2575 20.5704C24.2959 20.3062 24.4051 20.0574 24.5736 19.8503C24.7421 19.6433 24.9635 19.4858 25.2144 19.3946C25.4652 19.3033 25.7361 19.2818 25.9982 19.3322C26.2603 19.3826 26.5038 19.5031 26.7029 19.6809L32.6787 24.7527C35.4355 27.0926 40.0606 22.2686 36.999 19.6703L31.0175 14.5945C30.8089 14.4272 30.6496 14.2065 30.5565 13.9559C30.4635 13.7052 30.4401 13.434 30.489 13.1712C30.5378 12.9083 30.657 12.6636 30.8339 12.4632C31.0108 12.2627 31.2388 12.114 31.4935 12.0329C33.4465 11.4959 35.5021 11.4517 37.4764 11.9042C39.4507 12.3567 41.2819 13.2918 42.8062 14.6259C44.3304 15.9599 45.5001 17.6512 46.2105 19.5482C46.9209 21.4453 47.1499 23.489 46.8768 25.4963C46.828 25.7573 46.8526 26.0268 46.9478 26.2746C47.0431 26.5225 47.2053 26.7391 47.4164 26.9002L51.7359 30.3308L53.2512 30.7841C53.5372 30.8698 53.8456 30.8386 54.1086 30.6972C54.3716 30.5558 54.5678 30.3159 54.6541 30.03L55.6029 26.8626C55.6882 26.5766 55.6567 26.2684 55.5154 26.0055C55.3741 25.7425 55.1345 25.5463 54.8489 25.4596L51.6128 24.4902C51.4081 24.4296 51.2309 24.2994 51.1119 24.1222C50.9928 23.9449 50.9394 23.7317 50.9607 23.5192C51.051 21.9061 50.8831 20.2889 50.4634 18.7287C50.4086 18.5232 50.427 18.305 50.5155 18.1116C50.604 17.9182 50.7571 17.7617 50.9484 17.6688L53.8895 16.0823C54.1514 15.9393 54.3463 15.6987 54.4318 15.4127C54.5173 15.1268 54.4864 14.8187 54.346 14.5553L52.7768 11.6448C52.6338 11.3828 52.3932 11.1879 52.1073 11.1024C51.8214 11.0169 51.5133 11.0478 51.2501 11.1883L48.2748 12.7927C48.0849 12.8947 47.8652 12.9265 47.6543 12.8825C47.4433 12.8385 47.2547 12.7216 47.1214 12.5522C46.0629 11.3691 44.8251 10.3597 43.4532 9.56098C43.2562 9.46674 43.0993 9.30522 43.0108 9.10551C42.9224 8.9058 42.9081 8.68106 42.9707 8.47178L43.9399 5.23515C44.0249 4.94898 43.9932 4.6408 43.8518 4.37791C43.7104 4.11502 43.4707 3.91878 43.1851 3.83207L40.0199 2.88228C39.7338 2.79655 39.4255 2.8278 39.1625 2.96918C38.8995 3.11056 38.7033 3.35052 38.617 3.6364L37.6478 6.87303C37.5872 7.07777 37.4571 7.25495 37.2798 7.37401C37.1026 7.49307 36.8894 7.54656 36.677 7.52525C35.0641 7.43405 33.447 7.60195 31.8872 8.02256C31.6818 8.07698 31.4639 8.05845 31.2707 7.97014C31.0774 7.88183 30.9208 7.7292 30.8275 7.53829L29.238 4.59353C29.095 4.33154 28.8544 4.13665 28.5684 4.0513C28.2825 3.96594 27.9744 3.99703 27.7112 4.1378L24.8012 5.70638C24.5394 5.84953 24.3447 6.09017 24.2592 6.37606C24.1737 6.66194 24.2045 6.97001 24.3447 7.23338L25.9489 10.2091C26.0506 10.3995 26.0819 10.6197 26.0372 10.8309C25.9924 11.0421 25.8746 11.2308 25.7044 11.3635C24.5209 12.4217 23.5116 13.6598 22.7136 15.0323C22.6191 15.2291 22.4576 15.3858 22.258 15.4743C22.0584 15.5627 21.8338 15.5771 21.6246 15.5149L18.3966 14.5415C18.1106 14.4562 17.8025 14.4876 17.5396 14.629C17.2767 14.7703 17.0805 15.01 16.9938 15.2956L16.0433 18.4613C15.9581 18.7472 15.9896 19.0553 16.1309 19.3181C16.2722 19.5809 16.5118 19.777 16.7973 19.8636L20.0334 20.8329C20.2381 20.8937 20.4151 21.0239 20.5341 21.2011C20.6532 21.3783 20.7067 21.5915 20.6856 21.8039C20.5944 23.4171 20.7623 25.0344 21.1828 26.5944C21.2372 26.7998 21.2187 27.0178 21.1304 27.211C21.0421 27.4043 20.8895 27.561 20.6986 27.6543L17.7559 29.2408C17.494 29.3838 17.2991 29.6245 17.2138 29.9105C17.1284 30.1965 17.1595 30.5046 17.3003 30.7678L18.8914 33.7183C19.0384 33.96 19.2698 34.1386 19.5409 34.2193C19.812 34.3001 20.1035 34.2772 20.3587 34.1553L23.3747 32.5312C23.5645 32.429 23.7844 32.3969 23.9955 32.4408C24.2066 32.4846 24.3955 32.6015 24.5289 32.7709C25.587 33.9547 26.8249 34.9644 28.1971 35.763C28.3936 35.8576 28.5499 36.0191 28.6382 36.2185C28.7265 36.4179 28.7409 36.6423 28.6788 36.8514L27.7096 40.088C27.6241 40.374 27.6555 40.6823 27.7968 40.9453C27.9381 41.2083 28.1779 41.4045 28.4636 41.4911L31.6313 42.44C31.9173 42.5253 32.2254 42.4939 32.4883 42.3525C32.7512 42.2112 32.9474 41.9715 33.0341 41.6859L34.0025 38.4493C34.0631 38.2444 34.1934 38.0671 34.3708 37.948C34.5482 37.8289 34.7616 37.7756 34.9741 37.7971C36.587 37.8874 38.204 37.7195 39.7639 37.2998C39.9684 37.248 40.1846 37.2685 40.3757 37.3578C40.5669 37.4471 40.7214 37.5996 40.813 37.7897Z" fill="#999999"/>
</svg>
