<svg width="100" height="33" viewBox="0 0 100 33" fill="none" xmlns="http://www.w3.org/2000/svg">
<g id="Google" clip-path="url(#clip0_10_9221)">
<path id="Vector" d="M12.5626 0H13.4279C16.4323 0.0662326 19.3878 1.29154 21.5104 3.46065C20.7267 4.272 19.9266 5.05024 19.1592 5.86159C17.9672 4.76875 16.5303 3.92428 14.9628 3.62624C12.6442 3.12949 10.146 3.57656 8.20291 4.91777C6.08024 6.32521 4.64336 8.70959 4.33312 11.2595C3.99023 13.7764 4.69234 16.4257 6.30884 18.3795C7.86002 20.2837 10.2276 21.4759 12.6769 21.5587C14.9628 21.6912 17.3467 20.9792 19.0122 19.3565C20.3185 18.214 20.9226 16.4754 21.1186 14.7864C18.4081 14.7864 15.6976 14.803 12.9871 14.7864V11.3755H24.4005C24.9883 15.0348 24.1393 19.1578 21.3961 21.774C19.5674 23.6285 17.0365 24.7213 14.4566 24.9366C11.9584 25.185 9.37855 24.7048 7.15791 23.4795C4.4964 22.0389 2.37373 19.6049 1.32872 16.7403C0.349028 14.1075 0.3327 11.1271 1.24708 8.47777C2.07982 6.06028 3.67999 3.92428 5.73735 2.43405C7.71307 0.960373 10.1133 0.149023 12.5626 0Z" fill="#3780FF"/>
<path id="Vector_2" d="M78.5771 1H82.5771V24.9958C81.25 24.9958 79.9043 25.0126 78.5771 24.979C78.5958 16.9972 78.5771 8.9986 78.5771 1Z" fill="#38B137"/>
<path id="Vector_3" d="M33.0181 9.14604C35.1861 8.73446 37.5347 9.19543 39.3249 10.496C40.9509 11.6485 42.0841 13.4594 42.429 15.435C42.8725 17.7234 42.3141 20.2258 40.8359 22.0367C39.2428 24.0617 36.6314 25.1483 34.0856 24.9837C31.7534 24.852 29.4869 23.6831 28.1073 21.7733C26.547 19.666 26.1693 16.7685 27.0233 14.299C27.8774 11.6485 30.2917 9.62347 33.0181 9.14604ZM33.5108 12.2741C32.6239 12.5045 31.8027 13.0149 31.2114 13.7393C29.6183 15.649 29.7169 18.7606 31.4742 20.5386C32.4761 21.5593 33.9871 22.0367 35.3831 21.7569C36.6806 21.5264 37.8139 20.6538 38.438 19.5014C39.522 17.5423 39.2099 14.8423 37.5511 13.3112C36.4835 12.3234 34.9233 11.9119 33.5108 12.2741Z" fill="#FA3913"/>
<path id="Vector_4" d="M50.0177 9.14732C52.4996 8.66968 55.2116 9.36143 57.0689 11.1073C60.0931 13.8249 60.4218 18.9142 57.8414 22.0435C56.2799 24.0199 53.7487 25.107 51.2504 24.9917C48.8672 24.9258 46.5168 23.7399 45.1033 21.78C43.509 19.6224 43.1638 16.6577 44.0678 14.1378C44.9718 11.5684 47.3386 9.60848 50.0177 9.14732ZM50.5108 12.2767C49.6232 12.5072 48.8014 13.0178 48.2097 13.726C46.6319 15.6036 46.6976 18.6671 48.3905 20.4624C49.3931 21.5329 50.9546 22.06 52.401 21.7635C53.683 21.5165 54.8335 20.66 55.4581 19.5071C56.5265 17.5307 56.2142 14.8295 54.5377 13.2978C53.4693 12.3096 51.9079 11.9143 50.5108 12.2767Z" fill="#FCBD06"/>
<path id="Vector_5" d="M65.352 10.0945C67.204 8.91789 69.6681 8.59105 71.6651 9.60425C72.2932 9.88206 72.8086 10.356 73.3078 10.8299C73.3239 10.3887 73.3078 9.93108 73.3239 9.47351C74.403 9.48985 75.482 9.47351 76.5771 9.48985V23.9034C76.561 26.0768 76.0135 28.381 74.4674 29.9662C72.7764 31.7147 70.1835 32.254 67.8482 31.8945C65.352 31.5186 63.1778 29.672 62.2115 27.3351C63.1778 26.8612 64.1924 26.4854 65.1909 26.0441C65.7546 27.3842 66.898 28.5281 68.3314 28.7896C69.7647 29.051 71.4235 28.6915 72.3576 27.4822C73.3561 26.2402 73.3561 24.5407 73.3078 23.0209C72.567 23.7563 71.7134 24.4099 70.6827 24.6551C68.4441 25.2924 65.9801 24.508 64.2568 22.9719C62.5175 21.4357 61.4868 19.0662 61.5834 16.7129C61.6317 14.0492 63.1134 11.4836 65.352 10.0945ZM68.6857 12.1863C67.7033 12.3497 66.7853 12.9053 66.1572 13.6734C64.6433 15.5036 64.6433 18.4288 66.1733 20.2264C67.043 21.2887 68.4441 21.877 69.7969 21.7299C71.0692 21.5992 72.2449 20.7821 72.873 19.6545C73.9359 17.7425 73.7588 15.1441 72.3254 13.4773C71.4397 12.4477 70.0224 11.9411 68.6857 12.1863Z" fill="#3780FF"/>
<path id="Vector_6" d="M87.1137 10.9521C89.1212 9.10863 92.2162 8.48315 94.7925 9.45429C97.235 10.3596 98.7909 12.6475 99.5771 15.0013C95.9468 16.4827 92.3333 17.9476 88.703 19.429C89.2049 20.3672 89.9744 21.2231 91.0117 21.5688C92.4671 22.0791 94.207 21.898 95.4282 20.9433C95.9134 20.5812 96.2982 20.1039 96.6662 19.643C97.5863 20.252 98.5065 20.8446 99.4266 21.4536C98.1217 23.3794 95.9301 24.7291 93.5713 24.9431C90.9615 25.2558 88.1844 24.2682 86.4947 22.2601C83.7176 19.0998 83.9853 13.7997 87.1137 10.9521ZM88.9037 13.9972C88.3349 14.8038 88.1007 15.7914 88.1175 16.7625C90.5432 15.7749 92.969 14.7873 95.3948 13.7833C94.9933 12.8615 94.023 12.3019 93.0359 12.1537C91.4466 11.8739 89.7904 12.7134 88.9037 13.9972Z" fill="#FA3913"/>
</g>
<defs>
<clipPath id="clip0_10_9221">
<rect width="99" height="33" fill="white" transform="translate(0.577148)"/>
</clipPath>
</defs>
</svg>
