<svg width="129" height="27" viewBox="0 0 129 27" fill="none" xmlns="http://www.w3.org/2000/svg">
<g id="Meta">
<path id="Vector" d="M47.7324 1.5H52.566L60.7848 16.7143L69.0035 1.5H73.7324V26.5H69.7888V7.3394L62.5821 20.6072H58.8827L51.676 7.3394V26.5H47.7324V1.5Z" fill="#1C2B33"/>
<path id="Vector_2" d="M85.7899 26.5C83.9943 26.5 82.4161 26.0761 81.0553 25.2283C79.6943 24.3805 78.6336 23.2063 77.8732 21.7059C77.1125 20.2054 76.7323 18.4853 76.7324 16.5458C76.7324 14.5819 77.1041 12.8436 77.8474 11.3308C78.5908 9.81837 79.6229 8.63505 80.9438 7.78084C82.2648 6.92717 83.783 6.50023 85.4983 6.5C87.2022 6.5 88.669 6.92998 89.8985 7.78995C91.1276 8.65016 92.074 9.85482 92.7375 11.4039C93.4006 12.9533 93.7323 14.7709 93.7324 16.8568V17.9912H80.575C80.8152 19.5529 81.4071 20.7819 82.3506 21.6783C83.294 22.575 84.4862 23.0232 85.9272 23.0232C87.0822 23.0232 88.0771 22.8402 88.9121 22.4742C89.7468 22.1083 90.5302 21.5533 91.2623 20.8092L93.3208 23.499C91.2734 25.4998 88.7632 26.5002 85.7899 26.5ZM88.6205 11.3032C87.8083 10.419 86.7448 9.97673 85.4298 9.97657C84.1488 9.97657 83.0766 10.428 82.2133 11.3308C81.3497 12.2335 80.8036 13.4473 80.575 14.9721H90.01C89.8955 13.4106 89.4323 12.1877 88.6205 11.3032Z" fill="#1C2B33"/>
<path id="Vector_3" d="M99.3767 11.0889H95.7324V7.85272H99.3767V2.5H103.196V7.85272H108.732V11.0889H103.196V19.293C103.196 20.6573 103.43 21.631 103.897 22.2142C104.364 22.7975 105.164 23.089 106.297 23.0888C106.799 23.0888 107.226 23.0684 107.576 23.0276C107.927 22.987 108.312 22.9315 108.732 22.8614V26.0625C108.253 26.2011 107.764 26.3064 107.27 26.3775C106.704 26.4606 106.133 26.5015 105.561 26.5C101.438 26.5 99.3765 24.2492 99.3767 19.7478V11.0889Z" fill="#1C2B33"/>
<path id="Vector_4" d="M127.732 26.0424H124V23.3709C123.337 24.3713 122.494 25.1429 121.471 25.6856C120.448 26.2282 119.285 26.4997 117.982 26.5C116.378 26.5 114.956 26.0699 113.718 25.2098C112.48 24.3498 111.506 23.1666 110.796 21.6601C110.087 20.1535 109.732 18.4304 109.732 16.4909C109.732 14.5391 110.093 12.8129 110.814 11.3123C111.535 9.81205 112.532 8.6349 113.805 7.78084C115.078 6.92717 116.541 6.50023 118.192 6.5C119.436 6.5 120.552 6.75315 121.541 7.25947C122.516 7.75429 123.36 8.4925 124 9.4094V6.95755H127.732V26.0424ZM123.93 13.6364C123.523 12.5506 122.88 11.6936 122.003 11.0653C121.125 10.4372 120.11 10.1231 118.959 10.1231C117.331 10.1231 116.035 10.6964 115.07 11.843C114.104 12.9897 113.622 14.539 113.622 16.4909C113.622 18.455 114.087 20.0104 115.017 21.1569C115.947 22.3037 117.209 22.877 118.802 22.8769C119.977 22.8769 121.023 22.5597 121.942 21.9253C122.86 21.2913 123.523 20.4374 123.93 19.3636L123.93 13.6364Z" fill="#1C2B33"/>
<path id="Vector_5" d="M4.9449 17.6464C4.9449 19.141 5.27176 20.2886 5.69897 20.9828C6.2591 21.8921 7.09453 22.2774 7.94626 22.2774C9.0448 22.2774 10.0498 22.0038 11.9865 19.3153C13.538 17.1604 15.3662 14.1357 16.5963 12.2395L18.6795 9.02691C20.1266 6.79582 21.8016 4.3156 23.722 2.63445C25.2898 1.26231 26.9811 0.5 28.6831 0.5C31.5407 0.5 34.2627 2.16209 36.3459 5.27937C38.6257 8.6934 39.7324 12.9936 39.7324 17.4313C39.7324 20.0694 39.2143 22.0078 38.3328 23.5393C37.4811 25.0203 35.821 26.5 33.0285 26.5V22.2774C35.4196 22.2774 36.0163 20.0721 36.0163 17.5484C36.0163 13.9519 35.1809 9.96073 33.3405 7.10889C32.0344 5.08607 30.3418 3.85004 28.4797 3.85004C26.4657 3.85004 24.845 5.37465 23.0236 8.09308C22.0552 9.53738 21.0611 11.2975 19.9449 13.2835L18.7161 15.4684C16.2478 19.8611 15.6226 20.8617 14.3884 22.5129C12.2252 25.4042 10.378 26.5 7.94626 26.5C5.06153 26.5 3.23739 25.2463 2.10764 23.3569C1.1854 21.8173 0.732422 19.7972 0.732422 17.4953L4.9449 17.6464Z" fill="#0081FB"/>
<path id="Vector_6" d="M4.73242 5.57747C6.6811 2.58952 9.49328 0.5 12.7187 0.5C14.5867 0.5 16.4437 1.04995 18.3828 2.62493C20.5039 4.34692 22.7646 7.18242 25.585 11.8556L26.5963 13.5327C29.0376 17.5783 30.4266 19.6597 31.2394 20.6411C32.2849 21.9017 33.0171 22.2774 33.9681 22.2774C36.3807 22.2774 36.9828 20.0721 36.9828 17.5484L40.7324 17.4313C40.7324 20.0694 40.2097 22.0078 39.3202 23.5393C38.4608 25.0203 36.7858 26.5 33.9681 26.5C32.2165 26.5 30.6647 26.1216 28.9486 24.5112C27.6294 23.2752 26.0872 21.0795 24.9007 19.1056L21.3715 13.2414C19.6007 10.2983 17.9763 8.10397 17.0362 7.11025C16.0249 6.04167 14.7249 4.7512 12.6503 4.7512C10.9712 4.7512 9.54529 5.92324 8.35199 7.71602L4.73242 5.57747Z" fill="url(#paint0_linear_10_9225)"/>
<path id="Vector_7" d="M12.66 4.59183C10.8828 4.59183 9.37359 5.71994 8.11058 7.44551C6.32469 9.88383 5.23115 13.5158 5.23115 17.0036C5.23115 18.4422 5.58023 19.5467 6.03647 20.215L2.20109 22.5C1.21618 21.0181 0.732422 19.0738 0.732422 16.8582C0.732422 12.8292 1.95487 8.62993 4.27956 5.38713C6.34208 2.51118 9.31855 0.5 12.7324 0.5L12.66 4.59183Z" fill="url(#paint1_linear_10_9225)"/>
</g>
<defs>
<linearGradient id="paint0_linear_10_9225" x1="9.72866" y1="16.4267" x2="36.8234" y2="17.8024" gradientUnits="userSpaceOnUse">
<stop stop-color="#0064E1"/>
<stop offset="0.4" stop-color="#0064E1"/>
<stop offset="0.83" stop-color="#0073EE"/>
<stop offset="1" stop-color="#0082FB"/>
</linearGradient>
<linearGradient id="paint1_linear_10_9225" x1="7.25023" y1="18.7121" x2="7.25023" y2="9.14749" gradientUnits="userSpaceOnUse">
<stop stop-color="#0082FB"/>
<stop offset="1" stop-color="#0064E0"/>
</linearGradient>
</defs>
</svg>
