<svg width="148" height="23" viewBox="0 0 148 23" fill="none" xmlns="http://www.w3.org/2000/svg">
<g id="Samsung">
<path id="Vector" d="M140.51 10.1626V13.1575H142.664V16.1288C142.67 16.3943 142.656 16.6807 142.609 16.9098C142.523 17.4641 141.984 18.4078 140.455 18.4078C138.936 18.4078 138.407 17.4641 138.315 16.9098C138.276 16.6807 138.26 16.3943 138.26 16.1288V6.74383C138.26 6.41186 138.283 6.04852 138.355 5.7735C138.459 5.27331 138.913 4.2869 140.444 4.2869C142.052 4.2869 142.453 5.32684 142.545 5.7735C142.605 6.06935 142.609 6.56559 142.609 6.56559V7.70519H147.901V7.0315C147.901 7.0315 147.925 6.32854 147.861 5.67252C147.463 1.82049 144.215 0.60178 140.491 0.60178C136.76 0.60178 133.577 1.83183 133.114 5.67252C133.072 6.02373 133.008 6.6555 133.008 7.0315V15.6647C133.008 16.0408 133.02 16.3318 133.092 17.019C133.437 20.765 136.76 22.0929 140.476 22.0929C144.215 22.0929 147.515 20.765 147.866 17.019C147.929 16.3318 147.935 16.0408 147.943 15.6647V10.1626H140.51ZM104.017 1.15418H98.7026V16.3453C98.7109 16.61 98.7026 16.9075 98.6559 17.1255C98.545 17.6355 98.1027 18.6169 96.6364 18.6169C95.1889 18.6169 94.7351 17.6355 94.6325 17.1255C94.5794 16.9075 94.5726 16.61 94.5794 16.3453V1.15418H89.2661V15.8738C89.2594 16.2533 89.2899 17.0285 89.3128 17.2315C89.6795 21.0672 92.7733 22.3125 96.6364 22.3125C100.507 22.3125 103.599 21.0672 103.972 17.2315C104.002 17.0285 104.04 16.2533 104.017 15.8738V1.15418ZM55.1838 1.15418L52.5326 17.2057L49.883 1.15418H41.3098L40.8551 21.6887H46.1073L46.2496 2.67928L49.8633 21.6887H55.1922L58.8092 2.67928L58.9519 21.6887H64.2174L63.7473 1.15418H55.1838ZM23.4418 1.15418L19.5491 21.6887H25.2258L28.1592 2.67928L31.0223 21.6887H36.6596L32.783 1.15418H23.4418ZM122.592 17.6869L117.643 1.15418H109.844V21.4746H115.003L114.704 4.41294L120.019 21.4746H127.498V1.15418H122.305L122.592 17.6869ZM74.8732 6.49835C74.7799 6.09282 74.8068 5.66197 74.8551 5.43679C75.0054 4.77945 75.4574 4.06252 76.7597 4.06252C77.9735 4.06252 78.685 4.80186 78.685 5.91141V7.16703H83.866V5.7358C83.866 1.31133 79.8065 0.616282 76.8674 0.616282C73.1657 0.616282 70.1426 1.80862 69.5905 5.13778C69.4445 6.04377 69.4083 6.84798 69.6407 7.8742C70.5409 12.0252 77.9365 13.2294 79.0099 15.8546C79.1994 16.3519 79.1451 16.986 79.0485 17.3597C78.8877 18.0428 78.4174 18.73 77.0231 18.73C75.7154 18.73 74.9283 17.9954 74.9283 16.8882L74.9267 14.9175H69.3501V16.484C69.3501 21.0232 72.9886 22.3927 76.9076 22.3927C80.6608 22.3927 83.7608 21.1394 84.2581 17.7422C84.4953 15.987 84.3164 14.8437 84.2212 14.4131C83.3523 10.1555 75.4698 8.87485 74.8732 6.49835ZM6.52912 6.44798C6.42739 6.03402 6.45113 5.59711 6.5078 5.36929C6.65135 4.71511 7.10604 3.98552 8.43124 3.98552C9.66038 3.98552 10.3841 4.73199 10.3841 5.8505V7.12141H15.6258V5.67885C15.6258 1.21193 11.5042 0.500002 8.53298 0.500002C4.80023 0.500002 1.75019 1.7108 1.19215 5.06396C1.03942 5.98445 1.01324 6.79419 1.23397 7.83175C2.14388 12.03 9.61262 13.2439 10.6993 15.9005C10.9027 16.3943 10.8412 17.0285 10.7403 17.4166C10.5679 18.1069 10.0938 18.8038 8.68787 18.8038C7.37508 18.8038 6.58983 18.0565 6.58983 16.9341L6.58255 14.9581H0.943359V16.5283C0.943359 21.1194 4.63346 22.5 8.5829 22.5C12.3799 22.5 15.4979 21.2357 16.0066 17.7992C16.2594 16.0278 16.0697 14.875 15.9844 14.4379C15.0975 10.1281 7.12736 8.85165 6.52912 6.44798Z" fill="#1428A0"/>
</g>
</svg>
