<svg width="108" height="33" viewBox="0 0 108 33" fill="none" xmlns="http://www.w3.org/2000/svg">
<g id="Amazon">
<path id="Vector" fill-rule="evenodd" clip-rule="evenodd" d="M67.335 25.2679C61.1112 29.9862 52.0583 32.5 44.2503 32.5C33.3114 32.5 23.5042 28.3619 16.0356 21.4779C15.4698 20.9364 15.9601 20.2016 16.6768 20.6271C24.7112 25.4226 34.6316 28.2845 44.8915 28.2845C51.7943 28.2845 59.4138 26.8149 66.4297 23.7596C67.4859 23.3342 68.3534 24.4945 67.335 25.2679Z" fill="#FF9900"/>
<path id="Vector_2" fill-rule="evenodd" clip-rule="evenodd" d="M69.8132 23.4184C68.9982 22.3522 64.3803 22.905 62.3235 23.1815C61.7026 23.2605 61.5862 22.7076 62.1683 22.3127C65.8549 19.6668 71.8699 20.4566 72.5684 21.3254C73.2669 22.1942 72.3744 28.3547 68.9206 31.277C68.3773 31.7114 67.8728 31.4745 68.1057 30.8821C68.8818 28.9076 70.6281 24.5241 69.8132 23.4184Z" fill="#FF9900"/>
<path id="Vector_3" fill-rule="evenodd" clip-rule="evenodd" d="M62.0459 4.02268V1.58678C62.0459 1.21203 62.3063 0.987175 62.641 0.987175L73.427 0.987175C73.7617 0.987175 74.0592 1.2495 74.0592 1.58678V3.64793C74.0592 3.98521 73.7617 4.43491 73.241 5.18442L67.662 13.2041C69.7449 13.1667 71.9392 13.4665 73.7989 14.5158C74.208 14.7406 74.3196 15.1154 74.3568 15.4527V18.0385C74.3568 18.4132 73.9849 18.8254 73.5757 18.6006C70.2656 16.8393 65.8396 16.6519 62.1947 18.6381C61.8228 18.8254 61.4136 18.4507 61.4136 18.0759V15.6026C61.4136 15.2278 61.4136 14.5533 61.8228 13.9537L68.2943 4.62229H62.6782C62.3434 4.62229 62.0459 4.35996 62.0459 4.02268ZM22.7329 19.1252H19.4599C19.1624 19.0878 18.902 18.8629 18.8649 18.5631L18.8649 1.62426C18.8649 1.28698 19.1624 1.02465 19.4971 1.02465L22.547 1.02465C22.8817 1.02465 23.1049 1.28698 23.142 1.58678V3.79783H23.2164C23.9975 1.66173 25.5224 0.649899 27.5308 0.649899C29.5764 0.649899 30.8782 1.66173 31.7708 3.79783C32.5519 1.66173 34.3743 0.649899 36.3084 0.649899C37.6845 0.649899 39.1722 1.21203 40.1021 2.52367C41.1435 3.94773 40.9203 6.00888 40.9203 7.84517V18.5631C40.9203 18.9004 40.6227 19.1627 40.288 19.1627H37.0522C36.7175 19.1252 36.4571 18.8629 36.4571 18.5631V9.56903C36.4571 8.857 36.5315 7.05818 36.3828 6.38362C36.1224 5.25936 35.4157 4.92209 34.4487 4.92209C33.6677 4.92209 32.8122 5.44675 32.4775 6.30868C32.1427 7.17061 32.1799 8.59467 32.1799 9.56903V18.5631C32.1799 18.9004 31.8824 19.1627 31.5477 19.1627H28.2747C27.9399 19.1252 27.6796 18.8629 27.6796 18.5631L27.6796 9.56903C27.6796 7.69526 27.9771 4.88461 25.6712 4.88461C23.328 4.88461 23.4024 7.58284 23.4024 9.56903L23.4024 18.5631C23.3652 18.8629 23.1049 19.1252 22.7329 19.1252ZM83.3575 0.649899C88.2298 0.649899 90.8705 4.84714 90.8705 10.2061C90.8705 15.3777 87.9694 19.5 83.3575 19.5C78.5968 19.5 75.9933 15.3028 75.9933 10.0562C75.9561 4.77219 78.5968 0.649899 83.3575 0.649899ZM83.3575 4.1351C80.9399 4.1351 80.7912 7.47042 80.7912 9.53156C80.7912 11.5927 80.754 16.0148 83.3203 16.0148C85.8494 16.0148 85.9982 12.4546 85.9982 10.2811C85.9982 8.85701 85.9238 7.13314 85.5147 5.78403C85.1427 4.58482 84.3989 4.1351 83.3575 4.1351ZM97.1561 19.1252H93.8831C93.5484 19.0878 93.288 18.8255 93.288 18.5257V1.54931C93.3252 1.2495 93.5855 0.987175 93.9203 0.987175L96.9701 0.987175C97.2677 0.987175 97.4908 1.21203 97.5652 1.47436V4.06016H97.6396C98.5694 1.73669 99.834 0.649899 102.103 0.649899C103.553 0.649899 105.004 1.17455 105.934 2.63609C106.789 3.9852 106.789 6.2712 106.789 7.92012V18.6006C106.752 18.9004 106.492 19.1252 106.157 19.1252H102.884C102.586 19.0878 102.326 18.8629 102.289 18.6006V9.38165C102.289 7.50789 102.512 4.80967 100.243 4.80967C99.462 4.80967 98.7182 5.33432 98.3463 6.15878C97.8999 7.20809 97.8256 8.21992 97.8256 9.38165V18.5257C97.7884 18.8629 97.4908 19.1252 97.1561 19.1252ZM53.4543 11.0306C53.4543 12.3047 53.4915 13.3915 52.8592 14.5533C52.3385 15.4901 51.5203 16.0523 50.5905 16.0523C49.3259 16.0523 48.582 15.0779 48.582 13.6539C48.582 10.8432 51.074 10.3185 53.4543 10.3185V11.0306ZM56.7645 19.0878C56.5413 19.2752 56.2438 19.3126 55.9834 19.1627C54.9049 18.2633 54.6817 17.8136 54.0866 16.9517C52.3013 18.788 50.9996 19.3501 48.6936 19.3501C45.9413 19.3501 43.7842 17.6262 43.7842 14.216C43.7842 11.5178 45.2347 9.71893 47.2803 8.81952C49.0656 8.03254 51.5575 7.88265 53.4543 7.6578V7.24556C53.4543 6.45858 53.5287 5.5217 53.0452 4.84714C52.6361 4.24754 51.8922 3.9852 51.2227 3.9852C49.9582 3.9852 48.8424 4.62229 48.582 5.9714C48.5077 6.27121 48.3217 6.571 48.0242 6.571L44.8627 6.23373C44.6024 6.15877 44.3049 5.9714 44.3792 5.55917C45.1231 1.66174 48.582 0.5 51.7063 0.5C53.3055 0.5 55.3884 0.912227 56.6529 2.14891C58.2522 3.64793 58.1035 5.6716 58.1035 7.84517V12.9793C58.1035 14.5158 58.7357 15.1903 59.3308 16.0523C59.554 16.3521 59.5912 16.7268 59.3308 16.9142C58.6241 17.4763 57.434 18.5257 56.7645 19.0878ZM10.4964 11.0306C10.4964 12.3047 10.5336 13.3915 9.90134 14.5533C9.38064 15.4901 8.56239 16.0523 7.63257 16.0523C6.36801 16.0523 5.62415 15.0779 5.62415 13.6539C5.62415 10.8432 8.11608 10.3185 10.4964 10.3185V11.0306ZM13.7694 19.0878C13.5463 19.2752 13.2487 19.3126 12.9884 19.1627C11.9098 18.2633 11.6866 17.8136 11.0915 16.9517C9.30625 18.788 8.0045 19.3501 5.69853 19.3501C2.94625 19.3501 0.789062 17.6262 0.789062 14.216C0.789062 11.5178 2.23959 9.71893 4.2852 8.81952C6.07046 8.03254 8.5624 7.88265 10.4592 7.6578V7.24556C10.4592 6.45858 10.5336 5.5217 10.0501 4.84714C9.64099 4.24754 8.89713 3.9852 8.22766 3.9852C6.9631 3.9852 5.84731 4.62229 5.58696 5.9714C5.51257 6.27121 5.3266 6.571 5.02906 6.571L1.86766 6.23373C1.60731 6.15877 1.30977 5.9714 1.38415 5.55917C2.12801 1.66174 5.58696 0.5 8.71117 0.5C10.3105 0.5 12.3933 0.912227 13.6578 2.14891C15.2571 3.64793 15.1084 5.6716 15.1084 7.84517V12.9793C15.1084 14.5158 15.7406 15.1903 16.3357 16.0523C16.5589 16.3521 16.5961 16.7268 16.3357 16.9142C15.6291 17.4763 14.4389 18.5257 13.7694 19.0878Z" fill="black"/>
</g>
</svg>
