<svg width="96" height="33" viewBox="0 0 96 33" fill="none" xmlns="http://www.w3.org/2000/svg">
<g id="Apple">
<path id="Vector" d="M22.5741 17.4102C22.5598 14.7883 23.7505 12.8094 26.1607 11.352C24.8122 9.4302 22.775 8.37286 20.085 8.16568C17.5385 7.96564 14.7553 9.64452 13.7367 9.64452C12.6607 9.64452 10.1931 8.23712 8.25638 8.23712C4.25372 8.30142 0 11.4163 0 17.7531C0 19.6249 0.344315 21.5586 1.03294 23.5542C1.95112 26.1761 5.26514 32.6058 8.72264 32.4987C10.5303 32.4558 11.8071 31.2199 14.1599 31.2199C16.441 31.2199 17.6246 32.4987 19.6403 32.4987C23.1265 32.4487 26.1249 26.6047 27 23.9757C22.3231 21.7824 22.5741 17.546 22.5741 17.4102ZM18.5141 5.67951C20.4724 3.36481 20.293 1.25728 20.2357 0.5C18.5069 0.600018 16.5056 1.67164 15.365 2.99331C14.1097 4.40785 13.3709 6.15817 13.5287 8.12996C15.4009 8.27284 17.1081 7.31553 18.5141 5.67951Z" fill="black"/>
<path id="Vector_2" d="M38.2411 21.6617L36.3854 27.2677H34L40.0736 9.45168H42.8571L48.9539 27.2677H46.4874L44.5775 21.6617H38.2411ZM44.102 19.8623L42.3546 14.7341C41.9564 13.5705 41.6935 12.5148 41.4267 11.4822H41.3764C41.1097 12.5379 40.8197 13.6206 40.4757 14.7071L38.7282 19.8585L44.102 19.8623ZM50.7632 18.6487C50.7632 17.0112 50.713 15.6857 50.655 14.4721H52.7504L52.8586 16.6682H52.9089C53.8638 15.1078 55.3754 14.1831 57.4709 14.1831C60.5753 14.1831 62.9065 16.7992 62.9065 20.6869C62.9065 25.2873 60.0959 27.5567 57.0726 27.5567C55.3754 27.5567 53.8909 26.8169 53.1215 25.5493H53.0713V32.5H50.7632V18.6487ZM53.0674 22.0585C53.0674 22.4053 53.1177 22.7174 53.1757 23.0102C53.6009 24.6207 55.0043 25.7342 56.6783 25.7342C59.1449 25.7342 60.5792 23.7268 60.5792 20.7909C60.5792 18.2248 59.226 16.0364 56.7595 16.0364C55.1705 16.0364 53.686 17.173 53.2298 18.9184C53.1486 19.2073 53.0713 19.5541 53.0713 19.87L53.0674 22.0585ZM65.319 18.6487C65.319 17.0112 65.2687 15.6857 65.2107 14.4721H67.3061L67.4144 16.6682H67.4646C68.4195 15.1078 69.9312 14.1831 72.0266 14.1831C75.131 14.1831 77.4622 16.7992 77.4622 20.6869C77.4622 25.2873 74.6516 27.5567 71.6284 27.5567C69.9312 27.5567 68.4466 26.8169 67.6773 25.5493H67.627V32.5H65.319V18.6487ZM67.627 22.0585C67.627 22.4053 67.6772 22.7174 67.7352 23.0102C68.1605 24.6207 69.5639 25.7342 71.2379 25.7342C73.7044 25.7342 75.1387 23.7268 75.1387 20.7909C75.1387 18.2248 73.7856 16.0364 71.3191 16.0364C69.7301 16.0364 68.2456 17.173 67.7894 18.9184C67.7082 19.2073 67.6309 19.5541 67.6309 19.87L67.627 22.0585ZM79.8785 8.5H82.2136V27.2638H79.8785V8.5ZM86.907 21.2918C86.9573 24.4358 88.9754 25.7342 91.3066 25.7342C92.9767 25.7342 93.9858 25.4453 94.8595 25.0754L95.2577 26.7398C94.4381 27.1097 93.0309 27.5336 90.9896 27.5336C87.0385 27.5336 84.6763 24.9444 84.6763 21.0837C84.6763 17.2231 86.9573 14.1831 90.6958 14.1831C94.8866 14.1831 96 17.8549 96 20.2091C96 20.6869 95.9497 21.0529 95.9188 21.2918H86.907ZM93.75 19.6273C93.777 18.1478 93.1391 15.8476 90.5141 15.8476C88.1519 15.8476 87.1197 18.0168 86.9341 19.6273H93.75Z" fill="black"/>
</g>
</svg>
