<svg width="135" height="30" viewBox="0 0 135 30" fill="none" xmlns="http://www.w3.org/2000/svg">
<path d="M13.2734 13.9922H23.9375V28.3281C22.4401 28.8229 20.8906 29.207 19.2891 29.4805C17.6875 29.7539 15.8906 29.8906 13.8984 29.8906C10.9948 29.8906 8.53385 29.3177 6.51562 28.1719C4.51042 27.013 2.98698 25.3398 1.94531 23.1523C0.903646 20.9518 0.382812 18.3021 0.382812 15.2031C0.382812 12.2214 0.96224 9.63672 2.12109 7.44922C3.27995 5.2487 4.96615 3.54948 7.17969 2.35156C9.39323 1.14062 12.0755 0.535156 15.2266 0.535156C16.776 0.535156 18.2734 0.691406 19.7188 1.00391C21.1771 1.30339 22.5117 1.72005 23.7227 2.25391L22.082 6.12109C21.1185 5.66536 20.0378 5.28125 18.8398 4.96875C17.6419 4.65625 16.3984 4.5 15.1094 4.5C13.0651 4.5 11.3008 4.94271 9.81641 5.82812C8.34505 6.71354 7.21224 7.96354 6.41797 9.57812C5.6237 11.1797 5.22656 13.0742 5.22656 15.2617C5.22656 17.3841 5.54557 19.2461 6.18359 20.8477C6.82161 22.4492 7.81771 23.6992 9.17188 24.5977C10.5391 25.4831 12.3034 25.9258 14.4648 25.9258C15.5456 25.9258 16.4635 25.8672 17.2188 25.75C17.974 25.6328 18.6706 25.5026 19.3086 25.3594V17.9961H13.2734V13.9922ZM40.6758 29.5H35.9688V4.92969H27.6094V0.945312H49.0156V4.92969H40.6758V29.5ZM64.9141 13.9922H75.5781V28.3281C74.0807 28.8229 72.5312 29.207 70.9297 29.4805C69.3281 29.7539 67.5312 29.8906 65.5391 29.8906C62.6354 29.8906 60.1745 29.3177 58.1562 28.1719C56.151 27.013 54.6276 25.3398 53.5859 23.1523C52.5443 20.9518 52.0234 18.3021 52.0234 15.2031C52.0234 12.2214 52.6029 9.63672 53.7617 7.44922C54.9206 5.2487 56.6068 3.54948 58.8203 2.35156C61.0339 1.14062 63.7161 0.535156 66.8672 0.535156C68.4167 0.535156 69.9141 0.691406 71.3594 1.00391C72.8177 1.30339 74.1523 1.72005 75.3633 2.25391L73.7227 6.12109C72.7591 5.66536 71.6784 5.28125 70.4805 4.96875C69.2826 4.65625 68.0391 4.5 66.75 4.5C64.7057 4.5 62.9414 4.94271 61.457 5.82812C59.9857 6.71354 58.8529 7.96354 58.0586 9.57812C57.2643 11.1797 56.8672 13.0742 56.8672 15.2617C56.8672 17.3841 57.1862 19.2461 57.8242 20.8477C58.4622 22.4492 59.4583 23.6992 60.8125 24.5977C62.1797 25.4831 63.944 25.9258 66.1055 25.9258C67.1862 25.9258 68.1042 25.8672 68.8594 25.75C69.6146 25.6328 70.3112 25.5026 70.9492 25.3594V17.9961H64.9141V13.9922Z" fill="#8DBDEC"/>
<path d="M110.188 29.5H90.8516V26.043L98.2539 18.543C99.6862 17.0846 100.865 15.8281 101.789 14.7734C102.714 13.7057 103.397 12.6966 103.84 11.7461C104.296 10.7956 104.523 9.76042 104.523 8.64062C104.523 7.26042 104.126 6.21875 103.332 5.51562C102.538 4.79948 101.49 4.44141 100.188 4.44141C98.9505 4.44141 97.8047 4.6888 96.75 5.18359C95.7083 5.66536 94.6276 6.35547 93.5078 7.25391L90.9883 4.22656C91.7826 3.54948 92.6289 2.93099 93.5273 2.37109C94.4388 1.8112 95.4544 1.36849 96.5742 1.04297C97.694 0.704427 98.9701 0.535156 100.402 0.535156C102.212 0.535156 103.775 0.860677 105.09 1.51172C106.405 2.14974 107.414 3.04167 108.117 4.1875C108.833 5.33333 109.191 6.66797 109.191 8.19141C109.191 9.72786 108.885 11.1471 108.273 12.4492C107.661 13.7513 106.789 15.0404 105.656 16.3164C104.523 17.5794 103.176 18.9531 101.613 20.4375L96.6719 25.2617V25.4766H110.188V29.5ZM134.113 23.2305H130.246V29.5H125.715V23.2305H112.727V19.7539L125.773 0.867188H130.246V19.4219H134.113V23.2305ZM125.715 19.4219V12.332C125.715 11.7461 125.721 11.1536 125.734 10.5547C125.76 9.94271 125.786 9.35677 125.812 8.79688C125.839 8.23698 125.865 7.72266 125.891 7.25391C125.917 6.77214 125.936 6.375 125.949 6.0625H125.793C125.546 6.58333 125.272 7.11719 124.973 7.66406C124.673 8.19792 124.354 8.71875 124.016 9.22656L116.984 19.4219H125.715Z" fill="#9FCE63"/>
</svg>
