<svg width="152" height="33" viewBox="0 0 152 33" fill="none" xmlns="http://www.w3.org/2000/svg">
<g id="Microsoft" clip-path="url(#clip0_10_9222)">
<path id="Vector" d="M150.366 15.0142V12.3668H147.102V8.25118L146.992 8.28525L143.926 9.23003L143.865 9.24852V12.367H139.026V10.6297C139.026 9.82081 139.206 9.20178 139.56 8.78895C139.911 8.38107 140.414 8.17371 141.055 8.17371C141.516 8.17371 141.993 8.28307 142.474 8.49873L142.594 8.5529V5.76488L142.538 5.74391C142.089 5.58169 141.48 5.5 140.724 5.5C139.772 5.5 138.907 5.70867 138.153 6.12223C137.398 6.53637 136.804 7.12758 136.388 7.87927C135.974 8.63008 135.763 9.49724 135.763 10.4569V12.3668H133.49V15.0142H135.763V26.167H139.026V15.0142H143.865V22.1016C143.865 25.0205 145.233 26.4997 147.929 26.4997C148.372 26.4997 148.838 26.4474 149.314 26.3451C149.799 26.2399 150.129 26.1349 150.323 26.0228L150.366 25.9972V23.3254L150.233 23.4138C150.056 23.5326 149.836 23.6297 149.577 23.7019C149.318 23.7755 149.101 23.8123 148.933 23.8123C148.301 23.8123 147.834 23.6409 147.544 23.3026C147.251 22.9613 147.102 22.3644 147.102 21.5294V15.0142H150.366ZM126.203 23.8127C125.019 23.8127 124.085 23.4172 123.427 22.6382C122.765 21.8552 122.43 20.7389 122.43 19.3205C122.43 17.8572 122.765 16.7119 123.428 15.9151C124.086 15.1235 125.011 14.7218 126.177 14.7218C127.308 14.7218 128.209 15.1055 128.854 15.8628C129.502 16.6241 129.831 17.7602 129.831 19.2406C129.831 20.7392 129.522 21.8903 128.912 22.6603C128.306 23.4245 127.395 23.8127 126.203 23.8127ZM126.348 12.0344C124.089 12.0344 122.294 12.7011 121.015 14.0162C119.736 15.3315 119.088 17.1516 119.088 19.4264C119.088 21.5871 119.72 23.3251 120.969 24.5912C122.217 25.8578 123.916 26.4994 126.018 26.4994C128.208 26.4994 129.967 25.8233 131.246 24.49C132.525 23.1582 133.173 21.3553 133.173 19.1336C133.173 16.9391 132.565 15.1882 131.365 13.9305C130.165 12.6722 128.477 12.0344 126.348 12.0344ZM113.827 12.0344C112.29 12.0344 111.018 12.4303 110.047 13.211C109.07 13.9963 108.574 15.0262 108.574 16.2726C108.574 16.9205 108.681 17.4959 108.892 17.9841C109.104 18.4738 109.431 18.905 109.867 19.2668C110.299 19.6258 110.966 20.0018 111.85 20.3843C112.593 20.6923 113.148 20.9528 113.5 21.1581C113.844 21.3594 114.088 21.5616 114.226 21.7586C114.36 21.9514 114.428 22.2153 114.428 22.5409C114.428 23.4681 113.739 23.9192 112.32 23.9192C111.794 23.9192 111.194 23.8085 110.536 23.5904C109.883 23.3755 109.267 23.0609 108.709 22.6576L108.574 22.5597V25.7236L108.624 25.7469C109.085 25.9615 109.667 26.1425 110.354 26.2849C111.038 26.4275 111.66 26.5 112.201 26.5C113.869 26.5 115.212 26.1022 116.192 25.3168C117.178 24.5261 117.678 23.4719 117.678 22.1824C117.678 21.2522 117.409 20.4545 116.879 19.8111C116.352 19.173 115.438 18.5872 114.162 18.0694C113.147 17.6587 112.496 17.3179 112.227 17.0562C111.968 16.8034 111.837 16.4459 111.837 15.9932C111.837 15.5918 111.999 15.2703 112.332 15.0099C112.668 14.7483 113.135 14.6152 113.721 14.6152C114.265 14.6152 114.821 14.7017 115.374 14.8712C115.927 15.0407 116.412 15.2677 116.818 15.5454L116.951 15.6371V12.6359L116.9 12.6138C116.526 12.4523 116.033 12.3141 115.434 12.202C114.838 12.0906 114.297 12.0344 113.827 12.0344ZM100.068 23.8127C98.8838 23.8127 97.9497 23.4172 97.2918 22.6382C96.6296 21.8552 96.2947 20.7392 96.2947 19.3205C96.2947 17.8572 96.63 16.7119 97.2925 15.9151C97.9504 15.1235 98.8751 14.7218 100.042 14.7218C101.173 14.7218 102.073 15.1055 102.719 15.8628C103.367 16.6241 103.696 17.7602 103.696 19.2406C103.696 20.7392 103.386 21.8903 102.776 22.6603C102.17 23.4245 101.26 23.8127 100.068 23.8127ZM100.213 12.0344C97.9532 12.0344 96.1584 12.7011 94.8795 14.0162C93.6007 15.3315 92.9519 17.1516 92.9519 19.4264C92.9519 21.588 93.5852 23.3251 94.8336 24.5912C96.082 25.8578 97.7808 26.4994 99.8827 26.4994C102.073 26.4994 103.832 25.8233 105.111 24.49C106.39 23.1582 107.038 21.3553 107.038 19.1336C107.038 16.9391 106.43 15.1882 105.23 13.9305C104.029 12.6722 102.341 12.0344 100.213 12.0344ZM87.9988 14.7567V12.3668H84.7756V26.1667H87.9988V19.1075C87.9988 17.9072 88.2691 16.921 88.8023 16.1762C89.3288 15.4402 90.0303 15.0673 90.8869 15.0673C91.1772 15.0673 91.5031 15.1155 91.8561 15.2109C92.2054 15.3057 92.4584 15.4086 92.6077 15.517L92.7431 15.6159V12.3432L92.6909 12.3206C92.3908 12.1922 91.9661 12.1274 91.4288 12.1274C90.6188 12.1274 89.894 12.3895 89.2731 12.9056C88.7281 13.3592 88.3343 13.9811 88.0331 14.7567H87.9988ZM79.0034 12.0344C77.5247 12.0344 76.2057 12.3537 75.0839 12.9832C73.9597 13.6142 73.0903 14.515 72.4987 15.6604C71.9098 16.8031 71.6108 18.1378 71.6108 19.6263C71.6108 20.9302 71.9007 22.1268 72.4737 23.1813C73.047 24.2377 73.8585 25.0641 74.8856 25.6372C75.9114 26.2096 77.0969 26.4999 78.4094 26.4999C79.9412 26.4999 81.2491 26.1914 82.2976 25.5832L82.34 25.5587V22.5847L82.2045 22.6843C81.7295 23.0328 81.1987 23.3109 80.6276 23.5113C80.0579 23.7115 79.5386 23.8127 79.0831 23.8127C77.8184 23.8127 76.803 23.4142 76.0661 22.6284C75.3275 21.8417 74.953 20.7368 74.953 19.3466C74.953 17.9477 75.3435 16.8144 76.1132 15.9783C76.8805 15.1446 77.8977 14.7218 79.1363 14.7218C80.1957 14.7218 81.2281 15.083 82.2048 15.7966L82.34 15.8954V12.7619L82.2963 12.7371C81.9288 12.5299 81.4275 12.3588 80.8052 12.2291C80.1854 12.0996 79.5793 12.0344 79.0034 12.0344ZM69.3909 12.367H66.1677V26.1667H69.3909V12.367ZM67.8123 6.48817C67.2818 6.48817 66.8191 6.67005 66.4389 7.03046C66.0572 7.39188 65.8636 7.84694 65.8636 8.38398C65.8636 8.91258 66.0549 9.35934 66.433 9.71115C66.8087 10.062 67.2728 10.2398 67.8124 10.2398C68.3519 10.2398 68.8177 10.062 69.1979 9.71174C69.5805 9.35934 69.7745 8.91273 69.7745 8.38398C69.7745 7.86573 69.5857 7.41533 69.2136 7.04502C68.8419 6.67544 68.3702 6.48817 67.8123 6.48817ZM59.7701 11.3488V26.1667H63.0596V6.91061H58.5069L52.72 21.2134L47.1043 6.91061H42.3662V26.1665H45.4574V11.3473H45.5635L51.4936 26.1667H53.8265L59.664 11.3488H59.7701Z" fill="#706D6E"/>
<path id="Vector_2" d="M15.3662 15.5H0.366211V0.5H15.3662V15.5Z" fill="#F1511B"/>
<path id="Vector_3" d="M32.3662 15.5H17.3662V0.5H32.3662V15.5Z" fill="#80CC28"/>
<path id="Vector_4" d="M15.3662 32.5H0.366211V17.5H15.3662V32.5Z" fill="#00ADEF"/>
<path id="Vector_5" d="M32.3662 32.5H17.3662V17.5H32.3662V32.5Z" fill="#FBBC09"/>
</g>
<defs>
<clipPath id="clip0_10_9222">
<rect width="151" height="32" fill="white" transform="translate(0.366211 0.5)"/>
</clipPath>
</defs>
</svg>
