<svg width="136" height="33" viewBox="0 0 136 33" fill="none" xmlns="http://www.w3.org/2000/svg">
<g id="Walmart" clip-path="url(#clip0_10_9223)">
<path id="Vector" d="M118.152 11.2725C118.888 11.2725 119.494 10.8826 119.576 10.3789L120.303 2.00683C120.303 1.17933 119.351 0.5 118.154 0.5C116.958 0.5 116.007 1.17933 116.007 2.00698L116.733 10.3789C116.813 10.8825 117.42 11.2725 118.154 11.2725H118.152ZM113.707 13.8875C114.077 13.2389 114.049 12.51 113.66 12.1862L106.901 7.35901C106.198 6.94466 105.145 7.4434 104.547 8.49929C103.947 9.55383 104.053 10.7316 104.754 11.1461L112.238 14.6939C112.705 14.8705 113.343 14.5306 113.71 13.8825L113.707 13.8875ZM122.6 13.883C122.969 14.5311 123.603 14.8711 124.072 14.6944L131.555 11.1466C132.261 10.7322 132.361 9.55428 131.766 8.49974C131.166 7.4449 130.11 6.94511 129.409 7.35946L122.65 12.1866C122.264 12.51 122.235 13.2395 122.602 13.8879L122.6 13.883ZM118.152 21.7305C118.888 21.7305 119.494 22.1171 119.576 22.6212L120.303 30.9921C120.303 31.8222 119.351 32.5 118.154 32.5C116.958 32.5 116.007 31.8222 116.007 30.9921L116.733 22.6212C116.813 22.1171 117.42 21.7305 118.154 21.7305H118.152ZM122.6 19.1149C122.969 18.465 123.603 18.128 124.072 18.3067L131.555 21.8521C132.261 22.2669 132.361 23.4459 131.766 24.5013C131.166 25.5527 130.11 26.0538 129.409 25.6401L122.65 20.8174C122.264 20.4915 122.235 19.7615 122.602 19.1136H122.599M113.707 19.114C114.077 19.7615 114.049 20.4915 113.66 20.818L106.901 25.6405C106.198 26.0543 105.145 25.5532 104.547 24.5018C103.947 23.4463 104.053 22.2673 104.754 21.8526L112.238 18.3071C112.705 18.1285 113.343 18.4655 113.71 19.1155H113.707" fill="#FDBB30"/>
<path id="Vector_2" d="M75.1042 21.1697C75.1042 21.4282 75.0813 21.6948 75.0108 21.9289C74.7186 22.9013 73.7165 23.7236 72.4629 23.7236C71.4176 23.7236 70.5874 23.127 70.5874 21.867C70.5874 19.9386 72.6999 19.406 75.1048 19.4194L75.1042 21.1696V21.1697ZM78.8761 17.8091C78.8761 14.6292 77.5238 11.8311 72.9543 11.8311C70.6088 11.8311 68.7472 12.4931 67.731 13.083L68.4753 15.6394C69.4039 15.0504 70.884 14.5628 72.2846 14.5628C74.6024 14.5563 74.982 15.8815 74.982 16.7297V16.9304C69.9296 16.9229 66.7359 18.6806 66.7359 22.2613C66.7359 24.4492 68.3625 26.4985 71.1901 26.4985C72.9276 26.4985 74.3828 25.8017 75.2537 24.6844H75.3397C75.3397 24.6844 75.916 27.1101 79.0973 26.182C78.9313 25.1733 78.8767 24.0964 78.8767 22.8015L78.8763 17.8091M0.155273 7.5006C0.155273 7.5006 3.45686 21.0932 3.98407 23.2992C4.59906 25.8741 5.70747 26.822 8.90167 26.182L10.9631 17.7551C11.4858 15.6609 11.8356 14.1678 12.1724 12.0397H12.2311C12.4675 14.1904 12.803 15.6674 13.2331 17.762C13.2331 17.762 14.0719 21.5879 14.5022 23.5968C14.9329 25.605 16.1318 26.8715 19.2609 26.182L24.1732 7.5H20.2083L18.5305 15.5775C18.0794 17.9278 17.6705 19.7663 17.3549 21.916H17.2988C17.0121 19.7853 16.647 18.0217 16.1889 15.7313L14.4435 7.5H10.3117L8.44371 15.5237C7.91501 17.9626 7.41921 19.9312 7.10513 22.0093H7.04799C6.72554 20.0525 6.2963 17.5773 5.83176 15.2176C5.83176 15.2176 4.72275 9.47832 4.33269 7.5L0.155273 7.5006ZM31.6731 21.1697C31.6731 21.4282 31.6502 21.6948 31.5787 21.9289C31.2871 22.9013 30.2844 23.7236 29.0308 23.7236C27.9853 23.7236 27.1563 23.127 27.1563 21.867C27.1563 19.9386 29.2683 19.406 31.6736 19.4194L31.6731 21.1696V21.1697ZM35.4446 17.8091C35.4446 14.6292 34.0923 11.8311 29.5237 11.8311C27.1776 11.8311 25.3145 12.4931 24.2989 13.083L25.0423 15.6394C25.9707 15.0504 27.4508 14.5628 28.8519 14.5628C31.1713 14.5563 31.5509 15.8815 31.5509 16.7297V16.9304C26.4965 16.9229 23.3042 18.6806 23.3042 22.2613C23.3042 24.4492 24.9299 26.4985 27.7555 26.4985C29.4953 26.4985 30.9497 25.8017 31.8216 24.6844H31.9066C31.9066 24.6844 32.4845 27.1101 35.6651 26.182C35.4988 25.1733 35.4446 24.0964 35.4446 22.8015V17.8091ZM41.7391 22.2164V7.5006H37.9626V26.1826H41.7391V22.2164ZM91.1419 7.5006V21.282C91.1419 23.1829 91.4986 24.5133 92.2591 25.3274C92.9255 26.0393 94.0205 26.5 95.3336 26.5C96.4506 26.5 97.5487 26.2859 98.0669 26.0928L98.0181 23.1285C97.6326 23.2232 97.1898 23.2998 96.5838 23.2998C95.297 23.2998 94.8667 22.4715 94.8667 20.7658V15.4928H98.1553V11.9178H94.8667V7.5006H91.1419ZM81.3943 12.148V26.1826H85.2899V18.9967C85.2899 18.6082 85.3133 18.2698 85.3744 17.9602C85.6627 16.4542 86.8083 15.4928 88.4539 15.4928C88.905 15.4928 89.2279 15.5421 89.5777 15.592V11.9178C89.2841 11.8591 89.0849 11.8316 88.7197 11.8316C87.266 11.8316 85.612 12.7741 84.9178 14.7958H84.8125V12.148H81.3943ZM44.3833 12.148V26.1826H48.1788V17.9527C48.1788 17.5665 48.224 17.1581 48.3571 16.804C48.6716 15.9755 49.4391 15.005 50.6639 15.005C52.1962 15.005 52.9117 16.3059 52.9117 18.1834V26.1816H56.7041V17.8514C56.7041 17.483 56.7542 17.0388 56.8627 16.7139C57.174 15.7708 58.0008 15.0039 59.1396 15.0039C60.6922 15.0039 61.4375 16.282 61.4375 18.4919V26.1811H65.2325V17.9147C65.2325 13.5558 63.0294 11.8302 60.5422 11.8302C59.4417 11.8302 58.5722 12.1072 57.7858 12.5913C57.1254 13.0001 56.5332 13.5792 56.0164 14.3405H55.9604C55.3606 12.828 53.9495 11.831 52.1106 11.831C49.7483 11.831 48.6865 13.0342 48.0425 14.0545H47.986V12.1476H44.3833" fill="#1A75CF"/>
<path id="Vector_3" d="M134.046 25.4444H134.124C134.228 25.4444 134.294 25.4004 134.294 25.3349C134.294 25.2604 134.232 25.22 134.136 25.22C134.103 25.22 134.069 25.2269 134.046 25.2269V25.4463V25.4442L134.046 25.4444ZM134.034 25.9726H133.759V25.0507C133.821 25.0381 133.967 25.0156 134.153 25.0156C134.356 25.0156 134.447 25.045 134.513 25.0911C134.569 25.1314 134.61 25.2002 134.61 25.2932C134.61 25.3878 134.525 25.4679 134.401 25.5029V25.5147C134.502 25.5426 134.558 25.6185 134.587 25.7517C134.615 25.8847 134.632 25.9391 134.649 25.9733H134.337C134.31 25.9391 134.294 25.8575 134.276 25.7761C134.258 25.6827 134.216 25.6359 134.124 25.6359H134.033L134.034 25.9726ZM134.148 24.7503C133.753 24.7503 133.455 25.0813 133.455 25.5034C133.455 25.9145 133.754 26.25 134.159 26.25C134.565 26.2569 134.864 25.9147 134.864 25.4966C134.864 25.0805 134.565 24.7503 134.154 24.7503H134.148ZM134.166 24.5C134.716 24.5 135.155 24.946 135.155 25.4964C135.155 26.0534 134.716 26.5 134.158 26.5C133.6 26.5 133.155 26.0528 133.155 25.4966C133.155 24.946 133.6 24.5002 134.158 24.5002H134.164" fill="#FDBB30"/>
</g>
<defs>
<clipPath id="clip0_10_9223">
<rect width="135" height="32" fill="white" transform="translate(0.155273 0.5)"/>
</clipPath>
</defs>
</svg>
