<svg width="25" height="24" viewBox="0 0 25 24" fill="none" xmlns="http://www.w3.org/2000/svg">
<g clip-path="url(#clip0_1322_33824)">
<path d="M20.8333 0H4.83325C3.77239 0 2.75497 0.421427 2.00482 1.17157C1.25468 1.92172 0.833252 2.93913 0.833252 4L0.833252 16C0.833252 17.0609 1.25468 18.0783 2.00482 18.8284C2.75497 19.5786 3.77239 20 4.83325 20H7.73325L12.1843 23.763C12.3648 23.9158 12.5937 23.9997 12.8303 23.9997C13.0668 23.9997 13.2957 23.9158 13.4763 23.763L17.9333 20H20.8333C21.8941 20 22.9115 19.5786 23.6617 18.8284C24.4118 18.0783 24.8333 17.0609 24.8333 16V4C24.8333 2.93913 24.4118 1.92172 23.6617 1.17157C22.9115 0.421427 21.8941 0 20.8333 0V0ZM22.8333 16C22.8333 16.5304 22.6225 17.0391 22.2475 17.4142C21.8724 17.7893 21.3637 18 20.8333 18H17.9333C17.4605 18.0001 17.0032 18.1677 16.6423 18.473L12.8333 21.69L9.02625 18.473C8.66481 18.1673 8.20665 17.9997 7.73325 18H4.83325C4.30282 18 3.79411 17.7893 3.41904 17.4142C3.04397 17.0391 2.83325 16.5304 2.83325 16V4C2.83325 3.46957 3.04397 2.96086 3.41904 2.58579C3.79411 2.21071 4.30282 2 4.83325 2H20.8333C21.3637 2 21.8724 2.21071 22.2475 2.58579C22.6225 2.96086 22.8333 3.46957 22.8333 4V16Z" fill="#1E1E1E"/>
<path d="M7.83325 7.00015H12.8333C13.0985 7.00015 13.3528 6.89479 13.5404 6.70726C13.7279 6.51972 13.8333 6.26537 13.8333 6.00015C13.8333 5.73493 13.7279 5.48058 13.5404 5.29305C13.3528 5.10551 13.0985 5.00015 12.8333 5.00015H7.83325C7.56804 5.00015 7.31368 5.10551 7.12615 5.29305C6.93861 5.48058 6.83325 5.73493 6.83325 6.00015C6.83325 6.26537 6.93861 6.51972 7.12615 6.70726C7.31368 6.89479 7.56804 7.00015 7.83325 7.00015Z" fill="#1E1E1E"/>
<path d="M17.8333 9H7.83325C7.56804 9 7.31368 9.10536 7.12615 9.29289C6.93861 9.48043 6.83325 9.73478 6.83325 10C6.83325 10.2652 6.93861 10.5196 7.12615 10.7071C7.31368 10.8946 7.56804 11 7.83325 11H17.8333C18.0985 11 18.3528 10.8946 18.5404 10.7071C18.7279 10.5196 18.8333 10.2652 18.8333 10C18.8333 9.73478 18.7279 9.48043 18.5404 9.29289C18.3528 9.10536 18.0985 9 17.8333 9Z" fill="#1E1E1E"/>
<path d="M17.8333 12.9998H7.83325C7.56804 12.9998 7.31368 13.1052 7.12615 13.2927C6.93861 13.4803 6.83325 13.7346 6.83325 13.9999C6.83325 14.2651 6.93861 14.5194 7.12615 14.707C7.31368 14.8945 7.56804 14.9999 7.83325 14.9999H17.8333C18.0985 14.9999 18.3528 14.8945 18.5404 14.707C18.7279 14.5194 18.8333 14.2651 18.8333 13.9999C18.8333 13.7346 18.7279 13.4803 18.5404 13.2927C18.3528 13.1052 18.0985 12.9998 17.8333 12.9998Z" fill="#1E1E1E"/>
</g>
<defs>
<clipPath id="clip0_1322_33824">
<rect width="24" height="24" fill="white" transform="translate(0.833252)"/>
</clipPath>
</defs>
</svg>
