<svg width="49" height="48" viewBox="0 0 49 48" fill="none" xmlns="http://www.w3.org/2000/svg">
<g id="Group">
<path id="Vector" d="M1.5 25.359H27.469C26.013 26.544 24.833 28.047 24.013 29.755C23.57 29.67 23.118 29.619 22.66 29.619H12.145C11.731 29.619 11.395 29.955 11.395 30.369C11.395 30.783 11.731 31.119 12.145 31.119H22.66C22.919 31.119 23.175 31.142 23.429 31.178C22.995 32.458 22.75 33.825 22.75 35.25C22.75 37.764 23.491 40.103 24.751 42.079C24.094 42.343 23.39 42.5 22.66 42.5C20.164 42.5 17.922 40.832 17.208 38.443C17.089 38.046 16.67 37.819 16.274 37.939C15.877 38.058 15.652 38.476 15.77 38.873C16.673 41.891 19.506 44 22.66 44C23.71 44 24.723 43.757 25.647 43.331C27.987 46.18 31.535 48 35.5 48C42.53 48 48.25 42.28 48.25 35.25C48.25 30.364 45.484 26.117 41.439 23.977C41.391 23.952 41.341 23.931 41.293 23.907C39.552 23.014 37.587 22.501 35.5 22.501C33.452 22.501 31.521 22.998 29.804 23.86H1.5C1.086 23.86 0.75 24.196 0.75 24.61C0.75 25.023 1.086 25.359 1.5 25.359ZM46.75 35.249C46.75 41.452 41.703 46.499 35.5 46.499C32.081 46.499 29.019 44.961 26.954 42.546C26.63 42.167 26.332 41.768 26.06 41.348C24.919 39.589 24.249 37.497 24.249 35.249C24.249 33.961 24.478 32.728 24.878 31.574C25.043 31.099 25.238 30.638 25.463 30.195C26.498 28.147 28.131 26.452 30.143 25.358C31.737 24.492 33.562 23.999 35.5 23.999C37.438 23.999 39.263 24.492 40.857 25.358C44.364 27.266 46.75 30.985 46.75 35.249Z" fill="#4EA62F"/>
<path id="Vector_2" d="M1.5 31.1191H5.145C5.559 31.1191 5.895 30.7831 5.895 30.3691C5.895 29.9551 5.559 29.6191 5.145 29.6191H1.5C1.086 29.6191 0.75 29.9551 0.75 30.3691C0.75 30.7831 1.086 31.1191 1.5 31.1191Z" fill="#4EA62F"/>
<path id="Vector_3" d="M8.14453 31.1191H9.14453C9.55853 31.1191 9.89453 30.7831 9.89453 30.3691C9.89453 29.9551 9.55853 29.6191 9.14453 29.6191H8.14453C7.73053 29.6191 7.39453 29.9551 7.39453 30.3691C7.39453 30.7831 7.73053 31.1191 8.14453 31.1191Z" fill="#4EA62F"/>
<path id="Vector_4" d="M1.5 12.999H19.571C23.017 12.999 25.821 10.195 25.821 6.74902C25.821 3.30302 23.017 0.499023 19.571 0.499023C16.83 0.499023 14.367 2.33102 13.583 4.95402C13.464 5.35002 13.69 5.76802 14.086 5.88802C14.478 6.00402 14.9 5.78202 15.019 5.38402C15.616 3.39102 17.487 1.99902 19.571 1.99902C22.19 1.99902 24.321 4.13002 24.321 6.74902C24.321 9.36802 22.19 11.499 19.571 11.499H1.5C1.086 11.499 0.75 11.835 0.75 12.249C0.75 12.663 1.086 12.999 1.5 12.999Z" fill="#4EA62F"/>
<path id="Vector_5" d="M47.2697 12.9221C46.8887 12.7571 46.4477 12.9311 46.2837 13.3131C46.1667 13.5821 46.0287 13.8431 45.8707 14.0921C45.6487 14.4421 45.7527 14.9041 46.1027 15.1271C46.2277 15.2051 46.3667 15.2431 46.5037 15.2431C46.7517 15.2431 46.9947 15.1201 47.1377 14.8941C47.3377 14.5801 47.5137 14.2481 47.6607 13.9081C47.8237 13.5291 47.6487 13.0871 47.2697 12.9221Z" fill="#4EA62F"/>
<path id="Vector_6" d="M48.2394 10.6419C48.0274 6.83788 44.8744 3.85889 41.0614 3.85889C37.9074 3.85889 35.0744 5.96688 34.1704 8.98588C34.0514 9.38188 34.2774 9.79988 34.6744 9.91988C35.0694 10.0359 35.4884 9.81289 35.6084 9.41589C36.3224 7.02689 38.5654 5.35889 41.0614 5.35889C44.0794 5.35889 46.5744 7.71588 46.7414 10.7259C46.7634 11.1249 47.0944 11.4339 47.4904 11.4339C47.5044 11.4339 47.5184 11.4339 47.5324 11.4329C47.9454 11.4099 48.2624 11.0559 48.2394 10.6419Z" fill="#4EA62F"/>
<path id="Vector_7" d="M1.54492 16.7402C1.13092 16.7402 0.794922 17.0762 0.794922 17.4902C0.794922 17.9042 1.13092 18.2402 1.54492 18.2402H19.5449C19.9589 18.2402 20.2949 17.9042 20.2949 17.4902C20.2949 17.0762 19.9589 16.7402 19.5449 16.7402H1.54492Z" fill="#4EA62F"/>
<path id="Vector_8" d="M26.5449 18.2399H41.0609C42.3689 18.2389 43.6489 17.8829 44.7629 17.2139C45.1179 16.9999 45.2319 16.5389 45.0189 16.1849C44.8059 15.8279 44.3439 15.7149 43.9899 15.9289C43.1099 16.4589 42.0959 16.7399 41.0609 16.7409H26.5449C26.1309 16.7409 25.7949 17.0769 25.7949 17.4909C25.7949 17.9039 26.1309 18.2399 26.5449 18.2399Z" fill="#4EA62F"/>
<path id="Vector_9" d="M22.5449 16.7402C22.1309 16.7402 21.7949 17.0762 21.7949 17.4902C21.7949 17.9042 22.1309 18.2402 22.5449 18.2402H23.5449C23.9589 18.2402 24.2949 17.9042 24.2949 17.4902C24.2949 17.0762 23.9589 16.7402 23.5449 16.7402H22.5449Z" fill="#4EA62F"/>
<path id="Vector_10" d="M28.9397 35.7511C28.7437 35.9721 28.6947 36.2871 28.8157 36.5571C28.8877 36.7181 29.0157 36.8371 29.1667 36.9141C29.2687 36.9661 29.3807 37.0001 29.4997 37.0001H33.6347L32.7567 43.1441C32.7087 43.4791 32.8907 43.8041 33.2017 43.9391C33.2977 43.9811 33.3987 44.0011 33.4987 44.0011C33.7217 44.0011 33.9387 43.9011 34.0847 43.7201L42.0847 33.7201C42.2647 33.4941 42.2997 33.1861 42.1747 32.9261C42.0507 32.6661 41.7867 32.5011 41.4987 32.5011H37.3837L38.2377 27.3741C38.2927 27.0451 38.1227 26.7191 37.8207 26.5741C37.5217 26.4291 37.1597 26.5031 36.9367 26.7531L29.6117 34.9931L28.9397 35.7511ZM34.6317 40.6351L35.2427 36.3561C35.2737 36.1401 35.2087 35.9221 35.0667 35.7581C34.9247 35.5941 34.7177 35.4991 34.5007 35.4991H31.1707L36.3337 29.6911L35.7617 33.1261C35.7257 33.3431 35.7867 33.5651 35.9287 33.7331C36.0717 33.9021 36.2807 33.9991 36.5007 33.9991H39.9397L34.6317 40.6351Z" fill="#4EA62F"/>
</g>
</svg>
