<svg width="49" height="48" viewBox="0 0 49 48" fill="none" xmlns="http://www.w3.org/2000/svg">
<g id="Group">
<path id="Vector" d="M24.5 0.499512C11.404 0.499512 0.75 11.1535 0.75 24.2495C0.75 37.3455 11.404 47.9995 24.5 47.9995C37.596 47.9995 48.25 37.3455 48.25 24.2495C48.25 11.1535 37.596 0.499512 24.5 0.499512ZM24.5 46.4995C12.231 46.4995 2.25 36.5185 2.25 24.2495C2.25 11.9805 12.231 1.99951 24.5 1.99951C36.769 1.99951 46.75 11.9805 46.75 24.2495C46.75 36.5185 36.769 46.4995 24.5 46.4995Z" fill="#4EA62F"/>
<path id="Vector_2" d="M24.5 4.49951C13.61 4.49951 4.75 13.3585 4.75 24.2495C4.75 35.1405 13.61 43.9995 24.5 43.9995C35.39 43.9995 44.25 35.1405 44.25 24.2495C44.25 13.3585 35.39 4.49951 24.5 4.49951ZM24.5 42.4995C14.437 42.4995 6.25 34.3135 6.25 24.2495C6.25 14.1855 14.437 5.99951 24.5 5.99951C34.563 5.99951 42.75 14.1865 42.75 24.2495C42.75 34.3125 34.563 42.4995 24.5 42.4995Z" fill="#4EA62F"/>
<path id="Vector_3" d="M13.5 23.9995H16.5H20.5H24.5H28.5H32.5H35.5C36.465 23.9995 37.25 23.2145 37.25 22.2495V16.2495C37.25 15.2845 36.465 14.4995 35.5 14.4995H32.5H28.5H24.5H20.5H16.5H13.5C12.535 14.4995 11.75 15.2845 11.75 16.2495V22.2495C11.75 23.2145 12.535 23.9995 13.5 23.9995ZM13.25 16.2495C13.25 16.1115 13.362 15.9995 13.5 15.9995H15.75V22.4995H13.5C13.362 22.4995 13.25 22.3875 13.25 22.2495V16.2495ZM35.75 16.2495V22.2495C35.75 22.3875 35.638 22.4995 35.5 22.4995H33.25V15.9995H35.5C35.638 15.9995 35.75 16.1125 35.75 16.2495ZM31.75 22.4995H29.25V15.9995H31.75V22.4995ZM27.75 22.4995H25.25V15.9995H27.75V22.4995ZM23.75 22.4995H21.25V15.9995H23.75V22.4995ZM19.75 22.4995H17.25V15.9995H19.75V22.4995Z" fill="#4EA62F"/>
<path id="Vector_4" d="M30.5 30.4995H18.5C16.983 30.4995 15.75 31.7325 15.75 33.2495C15.75 34.7665 16.983 35.9995 18.5 35.9995H30.5C32.017 35.9995 33.25 34.7665 33.25 33.2495C33.25 31.7335 32.017 30.4995 30.5 30.4995ZM30.5 34.4995H18.5C17.81 34.4995 17.25 33.9385 17.25 33.2495C17.25 32.5605 17.81 31.9995 18.5 31.9995H30.5C31.189 31.9995 31.75 32.5605 31.75 33.2495C31.75 33.9395 31.189 34.4995 30.5 34.4995Z" fill="#4EA62F"/>
<path id="Vector_5" d="M37.5 26.4995H11.5C11.086 26.4995 10.75 26.8355 10.75 27.2495C10.75 27.6635 11.086 27.9995 11.5 27.9995H37.5C37.914 27.9995 38.25 27.6635 38.25 27.2495C38.25 26.8355 37.914 26.4995 37.5 26.4995Z" fill="#4EA62F"/>
<path id="Vector_6" d="M22.5 11.9995H26.5C26.914 11.9995 27.25 11.6635 27.25 11.2495C27.25 10.8355 26.914 10.4995 26.5 10.4995H22.5C22.086 10.4995 21.75 10.8355 21.75 11.2495C21.75 11.6635 22.086 11.9995 22.5 11.9995Z" fill="#4EA62F"/>
</g>
</svg>
