<svg width="16" height="16" viewBox="0 0 16 16" fill="none" xmlns="http://www.w3.org/2000/svg">
<g clip-path="url(#clip0_2248_1273)">
<path d="M13.2994 3.69093L10.9767 1.36693C10.5443 0.932352 10.03 0.587813 9.46352 0.353232C8.8971 0.118651 8.28979 -0.00131844 7.67671 0.000259506H4.66671C3.78298 0.00131808 2.93575 0.352847 2.31085 0.977739C1.68596 1.60263 1.33443 2.44986 1.33337 3.33359V12.6669C1.33443 13.5507 1.68596 14.3979 2.31085 15.0228C2.93575 15.6477 3.78298 15.9992 4.66671 16.0003H11.3334C12.2171 15.9992 13.0643 15.6477 13.6892 15.0228C14.3141 14.3979 14.6656 13.5507 14.6667 12.6669V6.99026C14.6684 6.37721 14.5484 5.76992 14.3137 5.20358C14.0789 4.63723 13.7342 4.12309 13.2994 3.69093ZM12.3567 4.63359C12.5603 4.84302 12.7353 5.07839 12.8774 5.33359H10C9.82323 5.33359 9.65366 5.26335 9.52864 5.13833C9.40361 5.01331 9.33337 4.84374 9.33337 4.66693V1.78959C9.58866 1.93154 9.82423 2.10637 10.034 2.30959L12.3567 4.63359ZM13.3334 12.6669C13.3334 13.1974 13.1227 13.7061 12.7476 14.0811C12.3725 14.4562 11.8638 14.6669 11.3334 14.6669H4.66671C4.13627 14.6669 3.62757 14.4562 3.25249 14.0811C2.87742 13.7061 2.66671 13.1974 2.66671 12.6669V3.33359C2.66671 2.80316 2.87742 2.29445 3.25249 1.91938C3.62757 1.54431 4.13627 1.33359 4.66671 1.33359H7.67671C7.78604 1.33359 7.89204 1.35493 8.00004 1.36493V4.66693C8.00004 5.19736 8.21075 5.70607 8.58583 6.08114C8.9609 6.45621 9.46961 6.66693 10 6.66693H13.302C13.312 6.77493 13.3334 6.88026 13.3334 6.99026V12.6669Z" fill="#151515"/>
</g>
<defs>
<clipPath id="clip0_2248_1273">
<rect width="16" height="16" fill="white"/>
</clipPath>
</defs>
</svg>
