<svg width="36" height="36" viewBox="0 0 36 36" fill="none" xmlns="http://www.w3.org/2000/svg">
<rect width="36" height="36" rx="18" fill="white"/>
<path d="M23.335 13.6164C23.1842 13.5718 23.0466 13.4887 22.9347 13.3747C22.8227 13.2608 22.74 13.1196 22.694 12.9639C22.4388 12.0657 22.0107 11.2306 21.4356 10.5091C20.8606 9.78768 20.1505 9.19484 19.3484 8.76652C18.5463 8.3382 17.6689 8.0833 16.7692 8.01724C15.8695 7.95119 14.9662 8.07535 14.114 8.38221C13.2619 8.68907 12.4785 9.17226 11.8114 9.80253C11.1443 10.4328 10.6073 11.1971 10.2328 12.049C9.85839 12.901 9.65434 13.823 9.63301 14.7593C9.61169 15.6955 9.77353 16.6265 10.1087 17.4959C10.1857 17.6789 10.2023 17.8831 10.1559 18.0769C10.1095 18.2707 10.0026 18.443 9.85204 18.5672C9.18837 19.0786 8.67022 19.7669 8.35243 20.559C8.03463 21.3511 7.92902 22.2178 8.04675 23.0671C8.23049 24.2154 8.80464 25.2572 9.66499 26.0034C10.5253 26.7497 11.6149 27.1509 12.7358 27.1344H17.1673C17.3884 27.1344 17.6004 27.0432 17.7567 26.8809C17.913 26.7186 18.0008 26.4985 18.0008 26.269C18.0008 26.0395 17.913 25.8194 17.7567 25.6571C17.6004 25.4948 17.3884 25.4036 17.1673 25.4036H12.7358C12.0159 25.4218 11.3136 25.1715 10.7561 24.6983C10.1987 24.2251 9.82292 23.5601 9.69701 22.824C9.61716 22.2829 9.68188 21.7294 9.8841 21.2239C10.0863 20.7184 10.4183 20.2801 10.8439 19.957C11.2909 19.6101 11.6142 19.1189 11.7631 18.5605C11.912 18.0021 11.878 17.4081 11.6665 16.872C11.2482 15.7251 11.2267 14.463 11.6056 13.3014C11.9084 12.3916 12.4504 11.5879 13.1705 10.9815C13.8905 10.3751 14.7597 9.99011 15.6796 9.87025C15.893 9.84173 16.1079 9.82728 16.323 9.82698C17.4008 9.82329 18.4506 10.1822 19.3155 10.8498C20.1803 11.5175 20.8136 12.4581 21.1205 13.5308C21.2402 13.9395 21.4561 14.311 21.7485 14.6116C22.041 14.9122 22.4008 15.1326 22.7957 15.2529C23.7621 15.5496 24.6181 16.1458 25.2492 16.9616C25.8802 17.7774 26.2562 18.774 26.3267 19.8177C26.3972 20.8615 26.159 21.9028 25.6438 22.8021C25.1286 23.7014 24.3612 24.4159 23.4441 24.8498C23.3084 24.9219 23.195 25.0323 23.1167 25.1681C23.0385 25.304 22.9986 25.46 23.0016 25.6182C23 25.7614 23.033 25.9028 23.0977 26.0293C23.1624 26.1557 23.2566 26.2633 23.3718 26.3421C23.4869 26.421 23.6193 26.4685 23.7567 26.4804C23.8942 26.4922 24.0323 26.468 24.1584 26.4101C27.604 24.6906 29.4759 20.1673 26.5588 15.7972C25.7556 14.7093 24.6179 13.9398 23.335 13.6164Z" fill="#4EA62F"/>
<path d="M23.591 21.6887C23.7472 21.5265 23.835 21.3064 23.835 21.0769C23.835 20.8475 23.7472 20.6274 23.591 20.4651L22.2691 19.0926C21.8002 18.6059 21.1644 18.3325 20.5013 18.3325C19.8383 18.3325 19.2025 18.6059 18.7336 19.0926L17.4117 20.4651C17.2599 20.6283 17.1759 20.8469 17.1778 21.0738C17.1797 21.3007 17.2673 21.5177 17.4218 21.6782C17.5764 21.8386 17.7854 21.9297 18.004 21.9316C18.2225 21.9336 18.433 21.8464 18.5902 21.6887L19.6679 20.5698V27.1345C19.6679 27.364 19.7557 27.5841 19.912 27.7464C20.0683 27.9087 20.2803 27.9999 20.5013 27.9999C20.7224 27.9999 20.9344 27.9087 21.0907 27.7464C21.247 27.5841 21.3348 27.364 21.3348 27.1345V20.5698L22.4125 21.6887C22.5688 21.851 22.7807 21.9421 23.0017 21.9421C23.2227 21.9421 23.4347 21.851 23.591 21.6887Z" fill="#4EA62F"/>
</svg>
