<svg width="16" height="16" viewBox="0 0 16 16" fill="none" xmlns="http://www.w3.org/2000/svg">
<g clip-path="url(#clip0_2248_6292)">
<path d="M12 12.6664C12.1318 12.6664 12.2607 12.6273 12.3703 12.554C12.4799 12.4808 12.5653 12.3767 12.6158 12.2549C12.6662 12.1331 12.6794 11.999 12.6537 11.8697C12.628 11.7404 12.5645 11.6217 12.4713 11.5284L8.35665 7.41443C7.73156 6.78953 6.88387 6.43848 5.99999 6.43848C5.11611 6.43848 4.26841 6.78953 3.64332 7.41443L2.19532 8.86176C2.07388 8.9875 2.00668 9.1559 2.0082 9.3307C2.00972 9.5055 2.07984 9.6727 2.20344 9.79631C2.32705 9.91992 2.49425 9.99003 2.66905 9.99155C2.84385 9.99307 3.01225 9.92587 3.13799 9.80443L4.58599 8.3571C4.9668 7.99319 5.47325 7.79011 5.99999 7.79011C6.52672 7.79011 7.03317 7.99319 7.41399 8.3571L11.5287 12.4711C11.6536 12.5961 11.8232 12.6664 12 12.6664Z" fill="#151515"/>
<path d="M10.6667 6.99968C11.1282 6.99968 11.5793 6.86283 11.963 6.60644C12.3468 6.35005 12.6458 5.98563 12.8224 5.55927C12.999 5.13291 13.0452 4.66375 12.9552 4.21113C12.8652 3.75851 12.6429 3.34275 12.3166 3.01643C11.9903 2.6901 11.5745 2.46788 11.1219 2.37784C10.6693 2.28781 10.2001 2.33402 9.77378 2.51062C9.34742 2.68723 8.983 2.9863 8.72661 3.37001C8.47022 3.75373 8.33337 4.20485 8.33337 4.66634C8.33337 5.28518 8.57921 5.87867 9.01679 6.31626C9.45438 6.75384 10.0479 6.99968 10.6667 6.99968ZM10.6667 3.66634C10.8645 3.66634 11.0578 3.72499 11.2223 3.83487C11.3867 3.94475 11.5149 4.10093 11.5906 4.28366C11.6663 4.46638 11.6861 4.66745 11.6475 4.86143C11.6089 5.05541 11.5137 5.2336 11.3738 5.37345C11.234 5.5133 11.0558 5.60854 10.8618 5.64713C10.6678 5.68571 10.4668 5.66591 10.284 5.59022C10.1013 5.51453 9.94512 5.38636 9.83524 5.22191C9.72536 5.05746 9.66671 4.86412 9.66671 4.66634C9.66671 4.40113 9.77206 4.14677 9.9596 3.95924C10.1471 3.7717 10.4015 3.66634 10.6667 3.66634Z" fill="#151515"/>
<path d="M15.3333 10.667C15.1565 10.667 14.9869 10.7372 14.8619 10.8623C14.7369 10.9873 14.6666 11.1568 14.6666 11.3337V12.667C14.6666 13.1974 14.4559 13.7061 14.0808 14.0812C13.7058 14.4563 13.1971 14.667 12.6666 14.667H11.3333C11.1565 14.667 10.9869 14.7372 10.8619 14.8622C10.7369 14.9873 10.6666 15.1568 10.6666 15.3337C10.6666 15.5105 10.7369 15.68 10.8619 15.8051C10.9869 15.9301 11.1565 16.0003 11.3333 16.0003H12.6666C13.5504 15.9993 14.3976 15.6477 15.0225 15.0228C15.6474 14.3979 15.9989 13.5507 15.9999 12.667V11.3337C15.9999 11.1568 15.9297 10.9873 15.8047 10.8623C15.6797 10.7372 15.5101 10.667 15.3333 10.667Z" fill="#151515"/>
<path d="M0.666667 5.33333C0.843478 5.33333 1.01305 5.2631 1.13807 5.13807C1.2631 5.01305 1.33333 4.84348 1.33333 4.66667V3.33333C1.33333 2.8029 1.54405 2.29419 1.91912 1.91912C2.29419 1.54405 2.8029 1.33333 3.33333 1.33333H4.66667C4.84348 1.33333 5.01305 1.2631 5.13807 1.13807C5.2631 1.01305 5.33333 0.843478 5.33333 0.666667C5.33333 0.489856 5.2631 0.320286 5.13807 0.195262C5.01305 0.0702379 4.84348 0 4.66667 0L3.33333 0C2.4496 0.00105857 1.60237 0.352588 0.97748 0.97748C0.352588 1.60237 0.00105857 2.4496 0 3.33333L0 4.66667C0 4.84348 0.0702379 5.01305 0.195262 5.13807C0.320286 5.2631 0.489856 5.33333 0.666667 5.33333Z" fill="#151515"/>
<path d="M4.66667 14.667H3.33333C2.8029 14.667 2.29419 14.4563 1.91912 14.0812C1.54405 13.7061 1.33333 13.1974 1.33333 12.667V11.3337C1.33333 11.1568 1.2631 10.9873 1.13807 10.8623C1.01305 10.7372 0.843478 10.667 0.666667 10.667C0.489856 10.667 0.320286 10.7372 0.195262 10.8623C0.0702379 10.9873 0 11.1568 0 11.3337L0 12.667C0.00105857 13.5507 0.352588 14.3979 0.97748 15.0228C1.60237 15.6477 2.4496 15.9993 3.33333 16.0003H4.66667C4.84348 16.0003 5.01305 15.9301 5.13807 15.8051C5.2631 15.68 5.33333 15.5105 5.33333 15.3337C5.33333 15.1568 5.2631 14.9873 5.13807 14.8622C5.01305 14.7372 4.84348 14.667 4.66667 14.667Z" fill="#151515"/>
<path d="M12.6666 0H11.3333C11.1565 0 10.9869 0.0702379 10.8619 0.195262C10.7369 0.320286 10.6666 0.489856 10.6666 0.666667C10.6666 0.843478 10.7369 1.01305 10.8619 1.13807C10.9869 1.2631 11.1565 1.33333 11.3333 1.33333H12.6666C13.1971 1.33333 13.7058 1.54405 14.0808 1.91912C14.4559 2.29419 14.6666 2.8029 14.6666 3.33333V4.66667C14.6666 4.84348 14.7369 5.01305 14.8619 5.13807C14.9869 5.2631 15.1565 5.33333 15.3333 5.33333C15.5101 5.33333 15.6797 5.2631 15.8047 5.13807C15.9297 5.01305 15.9999 4.84348 15.9999 4.66667V3.33333C15.9989 2.4496 15.6474 1.60237 15.0225 0.97748C14.3976 0.352588 13.5504 0.00105857 12.6666 0V0Z" fill="#151515"/>
</g>
<defs>
<clipPath id="clip0_2248_6292">
<rect width="16" height="16" fill="white"/>
</clipPath>
</defs>
</svg>
