<svg width="28" height="28" viewBox="0 0 28 28" fill="none" xmlns="http://www.w3.org/2000/svg">
<path d="M19.8333 26.5417H8.16659C3.02159 26.5417 1.45825 24.9784 1.45825 19.8334V8.16671C1.45825 3.02171 3.02159 1.45837 8.16659 1.45837H9.91659C11.9583 1.45837 12.5999 2.12337 13.4166 3.20837L15.1666 5.54171C15.5516 6.05504 15.6099 6.12504 16.3333 6.12504H19.8333C24.9783 6.12504 26.5416 7.68837 26.5416 12.8334V19.8334C26.5416 24.9784 24.9783 26.5417 19.8333 26.5417ZM8.16659 3.20837C3.98992 3.20837 3.20825 4.00171 3.20825 8.16671V19.8334C3.20825 23.9984 3.98992 24.7917 8.16659 24.7917H19.8333C24.0099 24.7917 24.7916 23.9984 24.7916 19.8334V12.8334C24.7916 8.66837 24.0099 7.87504 19.8333 7.87504H16.3333C14.8399 7.87504 14.3499 7.36171 13.7666 6.59171L12.0166 4.25837C11.4099 3.45337 11.2233 3.20837 9.91659 3.20837H8.16659V3.20837Z" fill="#292D32"/>
<path d="M23.3333 8.31837C22.8549 8.31837 22.4583 7.92171 22.4583 7.44337V5.83337C22.4583 3.99004 21.6766 3.20837 19.8333 3.20837H9.33325C8.85492 3.20837 8.45825 2.81171 8.45825 2.33337C8.45825 1.85504 8.85492 1.45837 9.33325 1.45837H19.8333C22.6566 1.45837 24.2083 3.01004 24.2083 5.83337V7.44337C24.2083 7.92171 23.8116 8.31837 23.3333 8.31837Z" fill="#292D32"/>
</svg>
